%TF.GenerationSoftware,KiCad,Pcbnew,10.0.5*%
%TF.CreationDate,2026-09-07T11:43:07+02:00*%
%TF.ProjectId,Aprs audio platine,41707273-2061-4756-9469-6f20706c6174,rev?*%
%TF.SameCoordinates,Original*%
%TF.FileFunction,Legend,Bot*%
%TF.FilePolarity,Positive*%
%FSLAX46Y46*%
G04 Gerber Fmt 4.6, Leading zero omitted, Abs format (unit mm)*
G04 Created by KiCad (PCBNEW 10.0.5) date 2026-09-07 11:43:07*
%MOMM*%
%LPD*%
G01*
G04 APERTURE LIST*
%ADD10C,0.150000*%
%ADD11C,0.100000*%
%ADD12C,0.120000*%
G04 APERTURE END LIST*
D10*
X121710839Y-47364216D02*
X121234649Y-47364216D01*
X121806077Y-47649931D02*
X121472744Y-46649931D01*
X121472744Y-46649931D02*
X121139411Y-47649931D01*
X120806077Y-47649931D02*
X120806077Y-46649931D01*
X120806077Y-46649931D02*
X120425125Y-46649931D01*
X120425125Y-46649931D02*
X120329887Y-46697550D01*
X120329887Y-46697550D02*
X120282268Y-46745169D01*
X120282268Y-46745169D02*
X120234649Y-46840407D01*
X120234649Y-46840407D02*
X120234649Y-46983264D01*
X120234649Y-46983264D02*
X120282268Y-47078502D01*
X120282268Y-47078502D02*
X120329887Y-47126121D01*
X120329887Y-47126121D02*
X120425125Y-47173740D01*
X120425125Y-47173740D02*
X120806077Y-47173740D01*
X119234649Y-47649931D02*
X119567982Y-47173740D01*
X119806077Y-47649931D02*
X119806077Y-46649931D01*
X119806077Y-46649931D02*
X119425125Y-46649931D01*
X119425125Y-46649931D02*
X119329887Y-46697550D01*
X119329887Y-46697550D02*
X119282268Y-46745169D01*
X119282268Y-46745169D02*
X119234649Y-46840407D01*
X119234649Y-46840407D02*
X119234649Y-46983264D01*
X119234649Y-46983264D02*
X119282268Y-47078502D01*
X119282268Y-47078502D02*
X119329887Y-47126121D01*
X119329887Y-47126121D02*
X119425125Y-47173740D01*
X119425125Y-47173740D02*
X119806077Y-47173740D01*
X118853696Y-47602312D02*
X118710839Y-47649931D01*
X118710839Y-47649931D02*
X118472744Y-47649931D01*
X118472744Y-47649931D02*
X118377506Y-47602312D01*
X118377506Y-47602312D02*
X118329887Y-47554692D01*
X118329887Y-47554692D02*
X118282268Y-47459454D01*
X118282268Y-47459454D02*
X118282268Y-47364216D01*
X118282268Y-47364216D02*
X118329887Y-47268978D01*
X118329887Y-47268978D02*
X118377506Y-47221359D01*
X118377506Y-47221359D02*
X118472744Y-47173740D01*
X118472744Y-47173740D02*
X118663220Y-47126121D01*
X118663220Y-47126121D02*
X118758458Y-47078502D01*
X118758458Y-47078502D02*
X118806077Y-47030883D01*
X118806077Y-47030883D02*
X118853696Y-46935645D01*
X118853696Y-46935645D02*
X118853696Y-46840407D01*
X118853696Y-46840407D02*
X118806077Y-46745169D01*
X118806077Y-46745169D02*
X118758458Y-46697550D01*
X118758458Y-46697550D02*
X118663220Y-46649931D01*
X118663220Y-46649931D02*
X118425125Y-46649931D01*
X118425125Y-46649931D02*
X118282268Y-46697550D01*
X118091792Y-47745169D02*
X117329887Y-47745169D01*
X117139410Y-47364216D02*
X116663220Y-47364216D01*
X117234648Y-47649931D02*
X116901315Y-46649931D01*
X116901315Y-46649931D02*
X116567982Y-47649931D01*
X115806077Y-46983264D02*
X115806077Y-47649931D01*
X116234648Y-46983264D02*
X116234648Y-47507073D01*
X116234648Y-47507073D02*
X116187029Y-47602312D01*
X116187029Y-47602312D02*
X116091791Y-47649931D01*
X116091791Y-47649931D02*
X115948934Y-47649931D01*
X115948934Y-47649931D02*
X115853696Y-47602312D01*
X115853696Y-47602312D02*
X115806077Y-47554692D01*
X114901315Y-47649931D02*
X114901315Y-46649931D01*
X114901315Y-47602312D02*
X114996553Y-47649931D01*
X114996553Y-47649931D02*
X115187029Y-47649931D01*
X115187029Y-47649931D02*
X115282267Y-47602312D01*
X115282267Y-47602312D02*
X115329886Y-47554692D01*
X115329886Y-47554692D02*
X115377505Y-47459454D01*
X115377505Y-47459454D02*
X115377505Y-47173740D01*
X115377505Y-47173740D02*
X115329886Y-47078502D01*
X115329886Y-47078502D02*
X115282267Y-47030883D01*
X115282267Y-47030883D02*
X115187029Y-46983264D01*
X115187029Y-46983264D02*
X114996553Y-46983264D01*
X114996553Y-46983264D02*
X114901315Y-47030883D01*
X114425124Y-47649931D02*
X114425124Y-46983264D01*
X114425124Y-46649931D02*
X114472743Y-46697550D01*
X114472743Y-46697550D02*
X114425124Y-46745169D01*
X114425124Y-46745169D02*
X114377505Y-46697550D01*
X114377505Y-46697550D02*
X114425124Y-46649931D01*
X114425124Y-46649931D02*
X114425124Y-46745169D01*
X113806077Y-47649931D02*
X113901315Y-47602312D01*
X113901315Y-47602312D02*
X113948934Y-47554692D01*
X113948934Y-47554692D02*
X113996553Y-47459454D01*
X113996553Y-47459454D02*
X113996553Y-47173740D01*
X113996553Y-47173740D02*
X113948934Y-47078502D01*
X113948934Y-47078502D02*
X113901315Y-47030883D01*
X113901315Y-47030883D02*
X113806077Y-46983264D01*
X113806077Y-46983264D02*
X113663220Y-46983264D01*
X113663220Y-46983264D02*
X113567982Y-47030883D01*
X113567982Y-47030883D02*
X113520363Y-47078502D01*
X113520363Y-47078502D02*
X113472744Y-47173740D01*
X113472744Y-47173740D02*
X113472744Y-47459454D01*
X113472744Y-47459454D02*
X113520363Y-47554692D01*
X113520363Y-47554692D02*
X113567982Y-47602312D01*
X113567982Y-47602312D02*
X113663220Y-47649931D01*
X113663220Y-47649931D02*
X113806077Y-47649931D01*
X111948934Y-47126121D02*
X112282267Y-47126121D01*
X112282267Y-47649931D02*
X112282267Y-46649931D01*
X112282267Y-46649931D02*
X111806077Y-46649931D01*
X111425124Y-47649931D02*
X111425124Y-46983264D01*
X111425124Y-46649931D02*
X111472743Y-46697550D01*
X111472743Y-46697550D02*
X111425124Y-46745169D01*
X111425124Y-46745169D02*
X111377505Y-46697550D01*
X111377505Y-46697550D02*
X111425124Y-46649931D01*
X111425124Y-46649931D02*
X111425124Y-46745169D01*
X110948934Y-47649931D02*
X110948934Y-46983264D01*
X110948934Y-47173740D02*
X110901315Y-47078502D01*
X110901315Y-47078502D02*
X110853696Y-47030883D01*
X110853696Y-47030883D02*
X110758458Y-46983264D01*
X110758458Y-46983264D02*
X110663220Y-46983264D01*
X110329886Y-47649931D02*
X110329886Y-46983264D01*
X110329886Y-47078502D02*
X110282267Y-47030883D01*
X110282267Y-47030883D02*
X110187029Y-46983264D01*
X110187029Y-46983264D02*
X110044172Y-46983264D01*
X110044172Y-46983264D02*
X109948934Y-47030883D01*
X109948934Y-47030883D02*
X109901315Y-47126121D01*
X109901315Y-47126121D02*
X109901315Y-47649931D01*
X109901315Y-47126121D02*
X109853696Y-47030883D01*
X109853696Y-47030883D02*
X109758458Y-46983264D01*
X109758458Y-46983264D02*
X109615601Y-46983264D01*
X109615601Y-46983264D02*
X109520362Y-47030883D01*
X109520362Y-47030883D02*
X109472743Y-47126121D01*
X109472743Y-47126121D02*
X109472743Y-47649931D01*
X109091791Y-46983264D02*
X108901315Y-47649931D01*
X108901315Y-47649931D02*
X108710839Y-47173740D01*
X108710839Y-47173740D02*
X108520363Y-47649931D01*
X108520363Y-47649931D02*
X108329887Y-46983264D01*
X107520363Y-47649931D02*
X107520363Y-47126121D01*
X107520363Y-47126121D02*
X107567982Y-47030883D01*
X107567982Y-47030883D02*
X107663220Y-46983264D01*
X107663220Y-46983264D02*
X107853696Y-46983264D01*
X107853696Y-46983264D02*
X107948934Y-47030883D01*
X107520363Y-47602312D02*
X107615601Y-47649931D01*
X107615601Y-47649931D02*
X107853696Y-47649931D01*
X107853696Y-47649931D02*
X107948934Y-47602312D01*
X107948934Y-47602312D02*
X107996553Y-47507073D01*
X107996553Y-47507073D02*
X107996553Y-47411835D01*
X107996553Y-47411835D02*
X107948934Y-47316597D01*
X107948934Y-47316597D02*
X107853696Y-47268978D01*
X107853696Y-47268978D02*
X107615601Y-47268978D01*
X107615601Y-47268978D02*
X107520363Y-47221359D01*
X107044172Y-47649931D02*
X107044172Y-46983264D01*
X107044172Y-47173740D02*
X106996553Y-47078502D01*
X106996553Y-47078502D02*
X106948934Y-47030883D01*
X106948934Y-47030883D02*
X106853696Y-46983264D01*
X106853696Y-46983264D02*
X106758458Y-46983264D01*
X106044172Y-47602312D02*
X106139410Y-47649931D01*
X106139410Y-47649931D02*
X106329886Y-47649931D01*
X106329886Y-47649931D02*
X106425124Y-47602312D01*
X106425124Y-47602312D02*
X106472743Y-47507073D01*
X106472743Y-47507073D02*
X106472743Y-47126121D01*
X106472743Y-47126121D02*
X106425124Y-47030883D01*
X106425124Y-47030883D02*
X106329886Y-46983264D01*
X106329886Y-46983264D02*
X106139410Y-46983264D01*
X106139410Y-46983264D02*
X106044172Y-47030883D01*
X106044172Y-47030883D02*
X105996553Y-47126121D01*
X105996553Y-47126121D02*
X105996553Y-47221359D01*
X105996553Y-47221359D02*
X106472743Y-47316597D01*
X104806076Y-47649931D02*
X104806076Y-46649931D01*
X104806076Y-47030883D02*
X104710838Y-46983264D01*
X104710838Y-46983264D02*
X104520362Y-46983264D01*
X104520362Y-46983264D02*
X104425124Y-47030883D01*
X104425124Y-47030883D02*
X104377505Y-47078502D01*
X104377505Y-47078502D02*
X104329886Y-47173740D01*
X104329886Y-47173740D02*
X104329886Y-47459454D01*
X104329886Y-47459454D02*
X104377505Y-47554692D01*
X104377505Y-47554692D02*
X104425124Y-47602312D01*
X104425124Y-47602312D02*
X104520362Y-47649931D01*
X104520362Y-47649931D02*
X104710838Y-47649931D01*
X104710838Y-47649931D02*
X104806076Y-47602312D01*
X103996552Y-46983264D02*
X103758457Y-47649931D01*
X103520362Y-46983264D02*
X103758457Y-47649931D01*
X103758457Y-47649931D02*
X103853695Y-47888026D01*
X103853695Y-47888026D02*
X103901314Y-47935645D01*
X103901314Y-47935645D02*
X103996552Y-47983264D01*
X102377504Y-47649931D02*
X102377504Y-46649931D01*
X102377504Y-47126121D02*
X101806076Y-47126121D01*
X101806076Y-47649931D02*
X101806076Y-46649931D01*
X101377504Y-47602312D02*
X101234647Y-47649931D01*
X101234647Y-47649931D02*
X100996552Y-47649931D01*
X100996552Y-47649931D02*
X100901314Y-47602312D01*
X100901314Y-47602312D02*
X100853695Y-47554692D01*
X100853695Y-47554692D02*
X100806076Y-47459454D01*
X100806076Y-47459454D02*
X100806076Y-47364216D01*
X100806076Y-47364216D02*
X100853695Y-47268978D01*
X100853695Y-47268978D02*
X100901314Y-47221359D01*
X100901314Y-47221359D02*
X100996552Y-47173740D01*
X100996552Y-47173740D02*
X101187028Y-47126121D01*
X101187028Y-47126121D02*
X101282266Y-47078502D01*
X101282266Y-47078502D02*
X101329885Y-47030883D01*
X101329885Y-47030883D02*
X101377504Y-46935645D01*
X101377504Y-46935645D02*
X101377504Y-46840407D01*
X101377504Y-46840407D02*
X101329885Y-46745169D01*
X101329885Y-46745169D02*
X101282266Y-46697550D01*
X101282266Y-46697550D02*
X101187028Y-46649931D01*
X101187028Y-46649931D02*
X100948933Y-46649931D01*
X100948933Y-46649931D02*
X100806076Y-46697550D01*
X99901314Y-46649931D02*
X100377504Y-46649931D01*
X100377504Y-46649931D02*
X100425123Y-47126121D01*
X100425123Y-47126121D02*
X100377504Y-47078502D01*
X100377504Y-47078502D02*
X100282266Y-47030883D01*
X100282266Y-47030883D02*
X100044171Y-47030883D01*
X100044171Y-47030883D02*
X99948933Y-47078502D01*
X99948933Y-47078502D02*
X99901314Y-47126121D01*
X99901314Y-47126121D02*
X99853695Y-47221359D01*
X99853695Y-47221359D02*
X99853695Y-47459454D01*
X99853695Y-47459454D02*
X99901314Y-47554692D01*
X99901314Y-47554692D02*
X99948933Y-47602312D01*
X99948933Y-47602312D02*
X100044171Y-47649931D01*
X100044171Y-47649931D02*
X100282266Y-47649931D01*
X100282266Y-47649931D02*
X100377504Y-47602312D01*
X100377504Y-47602312D02*
X100425123Y-47554692D01*
X99567980Y-46649931D02*
X98996552Y-46649931D01*
X99282266Y-47649931D02*
X99282266Y-46649931D01*
X97996552Y-47745169D02*
X98091790Y-47697550D01*
X98091790Y-47697550D02*
X98187028Y-47602312D01*
X98187028Y-47602312D02*
X98329885Y-47459454D01*
X98329885Y-47459454D02*
X98425123Y-47411835D01*
X98425123Y-47411835D02*
X98520361Y-47411835D01*
X98472742Y-47649931D02*
X98567980Y-47602312D01*
X98567980Y-47602312D02*
X98663218Y-47507073D01*
X98663218Y-47507073D02*
X98710837Y-47316597D01*
X98710837Y-47316597D02*
X98710837Y-46983264D01*
X98710837Y-46983264D02*
X98663218Y-46792788D01*
X98663218Y-46792788D02*
X98567980Y-46697550D01*
X98567980Y-46697550D02*
X98472742Y-46649931D01*
X98472742Y-46649931D02*
X98282266Y-46649931D01*
X98282266Y-46649931D02*
X98187028Y-46697550D01*
X98187028Y-46697550D02*
X98091790Y-46792788D01*
X98091790Y-46792788D02*
X98044171Y-46983264D01*
X98044171Y-46983264D02*
X98044171Y-47316597D01*
X98044171Y-47316597D02*
X98091790Y-47507073D01*
X98091790Y-47507073D02*
X98187028Y-47602312D01*
X98187028Y-47602312D02*
X98282266Y-47649931D01*
X98282266Y-47649931D02*
X98472742Y-47649931D01*
X97663218Y-47364216D02*
X97187028Y-47364216D01*
X97758456Y-47649931D02*
X97425123Y-46649931D01*
X97425123Y-46649931D02*
X97091790Y-47649931D01*
X121663220Y-49259875D02*
X121663220Y-48259875D01*
X121663220Y-48259875D02*
X121282268Y-48259875D01*
X121282268Y-48259875D02*
X121187030Y-48307494D01*
X121187030Y-48307494D02*
X121139411Y-48355113D01*
X121139411Y-48355113D02*
X121091792Y-48450351D01*
X121091792Y-48450351D02*
X121091792Y-48593208D01*
X121091792Y-48593208D02*
X121139411Y-48688446D01*
X121139411Y-48688446D02*
X121187030Y-48736065D01*
X121187030Y-48736065D02*
X121282268Y-48783684D01*
X121282268Y-48783684D02*
X121663220Y-48783684D01*
X120091792Y-49164636D02*
X120139411Y-49212256D01*
X120139411Y-49212256D02*
X120282268Y-49259875D01*
X120282268Y-49259875D02*
X120377506Y-49259875D01*
X120377506Y-49259875D02*
X120520363Y-49212256D01*
X120520363Y-49212256D02*
X120615601Y-49117017D01*
X120615601Y-49117017D02*
X120663220Y-49021779D01*
X120663220Y-49021779D02*
X120710839Y-48831303D01*
X120710839Y-48831303D02*
X120710839Y-48688446D01*
X120710839Y-48688446D02*
X120663220Y-48497970D01*
X120663220Y-48497970D02*
X120615601Y-48402732D01*
X120615601Y-48402732D02*
X120520363Y-48307494D01*
X120520363Y-48307494D02*
X120377506Y-48259875D01*
X120377506Y-48259875D02*
X120282268Y-48259875D01*
X120282268Y-48259875D02*
X120139411Y-48307494D01*
X120139411Y-48307494D02*
X120091792Y-48355113D01*
X119329887Y-48736065D02*
X119187030Y-48783684D01*
X119187030Y-48783684D02*
X119139411Y-48831303D01*
X119139411Y-48831303D02*
X119091792Y-48926541D01*
X119091792Y-48926541D02*
X119091792Y-49069398D01*
X119091792Y-49069398D02*
X119139411Y-49164636D01*
X119139411Y-49164636D02*
X119187030Y-49212256D01*
X119187030Y-49212256D02*
X119282268Y-49259875D01*
X119282268Y-49259875D02*
X119663220Y-49259875D01*
X119663220Y-49259875D02*
X119663220Y-48259875D01*
X119663220Y-48259875D02*
X119329887Y-48259875D01*
X119329887Y-48259875D02*
X119234649Y-48307494D01*
X119234649Y-48307494D02*
X119187030Y-48355113D01*
X119187030Y-48355113D02*
X119139411Y-48450351D01*
X119139411Y-48450351D02*
X119139411Y-48545589D01*
X119139411Y-48545589D02*
X119187030Y-48640827D01*
X119187030Y-48640827D02*
X119234649Y-48688446D01*
X119234649Y-48688446D02*
X119329887Y-48736065D01*
X119329887Y-48736065D02*
X119663220Y-48736065D01*
X117425125Y-49259875D02*
X117901315Y-49259875D01*
X117901315Y-49259875D02*
X117901315Y-48259875D01*
X116663220Y-49259875D02*
X116663220Y-48736065D01*
X116663220Y-48736065D02*
X116710839Y-48640827D01*
X116710839Y-48640827D02*
X116806077Y-48593208D01*
X116806077Y-48593208D02*
X116996553Y-48593208D01*
X116996553Y-48593208D02*
X117091791Y-48640827D01*
X116663220Y-49212256D02*
X116758458Y-49259875D01*
X116758458Y-49259875D02*
X116996553Y-49259875D01*
X116996553Y-49259875D02*
X117091791Y-49212256D01*
X117091791Y-49212256D02*
X117139410Y-49117017D01*
X117139410Y-49117017D02*
X117139410Y-49021779D01*
X117139410Y-49021779D02*
X117091791Y-48926541D01*
X117091791Y-48926541D02*
X116996553Y-48878922D01*
X116996553Y-48878922D02*
X116758458Y-48878922D01*
X116758458Y-48878922D02*
X116663220Y-48831303D01*
X116282267Y-48593208D02*
X116044172Y-49259875D01*
X115806077Y-48593208D02*
X116044172Y-49259875D01*
X116044172Y-49259875D02*
X116139410Y-49497970D01*
X116139410Y-49497970D02*
X116187029Y-49545589D01*
X116187029Y-49545589D02*
X116282267Y-49593208D01*
X115282267Y-49259875D02*
X115377505Y-49212256D01*
X115377505Y-49212256D02*
X115425124Y-49164636D01*
X115425124Y-49164636D02*
X115472743Y-49069398D01*
X115472743Y-49069398D02*
X115472743Y-48783684D01*
X115472743Y-48783684D02*
X115425124Y-48688446D01*
X115425124Y-48688446D02*
X115377505Y-48640827D01*
X115377505Y-48640827D02*
X115282267Y-48593208D01*
X115282267Y-48593208D02*
X115139410Y-48593208D01*
X115139410Y-48593208D02*
X115044172Y-48640827D01*
X115044172Y-48640827D02*
X114996553Y-48688446D01*
X114996553Y-48688446D02*
X114948934Y-48783684D01*
X114948934Y-48783684D02*
X114948934Y-49069398D01*
X114948934Y-49069398D02*
X114996553Y-49164636D01*
X114996553Y-49164636D02*
X115044172Y-49212256D01*
X115044172Y-49212256D02*
X115139410Y-49259875D01*
X115139410Y-49259875D02*
X115282267Y-49259875D01*
X114091791Y-48593208D02*
X114091791Y-49259875D01*
X114520362Y-48593208D02*
X114520362Y-49117017D01*
X114520362Y-49117017D02*
X114472743Y-49212256D01*
X114472743Y-49212256D02*
X114377505Y-49259875D01*
X114377505Y-49259875D02*
X114234648Y-49259875D01*
X114234648Y-49259875D02*
X114139410Y-49212256D01*
X114139410Y-49212256D02*
X114091791Y-49164636D01*
X113758457Y-48593208D02*
X113377505Y-48593208D01*
X113615600Y-48259875D02*
X113615600Y-49117017D01*
X113615600Y-49117017D02*
X113567981Y-49212256D01*
X113567981Y-49212256D02*
X113472743Y-49259875D01*
X113472743Y-49259875D02*
X113377505Y-49259875D01*
X112282266Y-49259875D02*
X112282266Y-48259875D01*
X112282266Y-48640827D02*
X112187028Y-48593208D01*
X112187028Y-48593208D02*
X111996552Y-48593208D01*
X111996552Y-48593208D02*
X111901314Y-48640827D01*
X111901314Y-48640827D02*
X111853695Y-48688446D01*
X111853695Y-48688446D02*
X111806076Y-48783684D01*
X111806076Y-48783684D02*
X111806076Y-49069398D01*
X111806076Y-49069398D02*
X111853695Y-49164636D01*
X111853695Y-49164636D02*
X111901314Y-49212256D01*
X111901314Y-49212256D02*
X111996552Y-49259875D01*
X111996552Y-49259875D02*
X112187028Y-49259875D01*
X112187028Y-49259875D02*
X112282266Y-49212256D01*
X111472742Y-48593208D02*
X111234647Y-49259875D01*
X110996552Y-48593208D02*
X111234647Y-49259875D01*
X111234647Y-49259875D02*
X111329885Y-49497970D01*
X111329885Y-49497970D02*
X111377504Y-49545589D01*
X111377504Y-49545589D02*
X111472742Y-49593208D01*
X109853694Y-49259875D02*
X109853694Y-48259875D01*
X109853694Y-48259875D02*
X109615599Y-48259875D01*
X109615599Y-48259875D02*
X109472742Y-48307494D01*
X109472742Y-48307494D02*
X109377504Y-48402732D01*
X109377504Y-48402732D02*
X109329885Y-48497970D01*
X109329885Y-48497970D02*
X109282266Y-48688446D01*
X109282266Y-48688446D02*
X109282266Y-48831303D01*
X109282266Y-48831303D02*
X109329885Y-49021779D01*
X109329885Y-49021779D02*
X109377504Y-49117017D01*
X109377504Y-49117017D02*
X109472742Y-49212256D01*
X109472742Y-49212256D02*
X109615599Y-49259875D01*
X109615599Y-49259875D02*
X109853694Y-49259875D01*
X108282266Y-49164636D02*
X108329885Y-49212256D01*
X108329885Y-49212256D02*
X108472742Y-49259875D01*
X108472742Y-49259875D02*
X108567980Y-49259875D01*
X108567980Y-49259875D02*
X108710837Y-49212256D01*
X108710837Y-49212256D02*
X108806075Y-49117017D01*
X108806075Y-49117017D02*
X108853694Y-49021779D01*
X108853694Y-49021779D02*
X108901313Y-48831303D01*
X108901313Y-48831303D02*
X108901313Y-48688446D01*
X108901313Y-48688446D02*
X108853694Y-48497970D01*
X108853694Y-48497970D02*
X108806075Y-48402732D01*
X108806075Y-48402732D02*
X108710837Y-48307494D01*
X108710837Y-48307494D02*
X108567980Y-48259875D01*
X108567980Y-48259875D02*
X108472742Y-48259875D01*
X108472742Y-48259875D02*
X108329885Y-48307494D01*
X108329885Y-48307494D02*
X108282266Y-48355113D01*
X107425123Y-48593208D02*
X107425123Y-49259875D01*
X107663218Y-48212256D02*
X107901313Y-48926541D01*
X107901313Y-48926541D02*
X107282266Y-48926541D01*
X107044170Y-48259875D02*
X106472742Y-48259875D01*
X106758456Y-49259875D02*
X106758456Y-48259875D01*
X106187027Y-48974160D02*
X105710837Y-48974160D01*
X106282265Y-49259875D02*
X105948932Y-48259875D01*
X105948932Y-48259875D02*
X105615599Y-49259875D01*
X121806077Y-49869819D02*
X121472744Y-50869819D01*
X121472744Y-50869819D02*
X121139411Y-49869819D01*
X120425125Y-50822200D02*
X120520363Y-50869819D01*
X120520363Y-50869819D02*
X120710839Y-50869819D01*
X120710839Y-50869819D02*
X120806077Y-50822200D01*
X120806077Y-50822200D02*
X120853696Y-50726961D01*
X120853696Y-50726961D02*
X120853696Y-50346009D01*
X120853696Y-50346009D02*
X120806077Y-50250771D01*
X120806077Y-50250771D02*
X120710839Y-50203152D01*
X120710839Y-50203152D02*
X120520363Y-50203152D01*
X120520363Y-50203152D02*
X120425125Y-50250771D01*
X120425125Y-50250771D02*
X120377506Y-50346009D01*
X120377506Y-50346009D02*
X120377506Y-50441247D01*
X120377506Y-50441247D02*
X120853696Y-50536485D01*
X119948934Y-50869819D02*
X119948934Y-50203152D01*
X119948934Y-50393628D02*
X119901315Y-50298390D01*
X119901315Y-50298390D02*
X119853696Y-50250771D01*
X119853696Y-50250771D02*
X119758458Y-50203152D01*
X119758458Y-50203152D02*
X119663220Y-50203152D01*
X118044172Y-50869819D02*
X118615600Y-50869819D01*
X118329886Y-50869819D02*
X118329886Y-49869819D01*
X118329886Y-49869819D02*
X118425124Y-50012676D01*
X118425124Y-50012676D02*
X118520362Y-50107914D01*
X118520362Y-50107914D02*
X118615600Y-50155533D01*
X117615600Y-50774580D02*
X117567981Y-50822200D01*
X117567981Y-50822200D02*
X117615600Y-50869819D01*
X117615600Y-50869819D02*
X117663219Y-50822200D01*
X117663219Y-50822200D02*
X117615600Y-50774580D01*
X117615600Y-50774580D02*
X117615600Y-50869819D01*
X116948934Y-49869819D02*
X116853696Y-49869819D01*
X116853696Y-49869819D02*
X116758458Y-49917438D01*
X116758458Y-49917438D02*
X116710839Y-49965057D01*
X116710839Y-49965057D02*
X116663220Y-50060295D01*
X116663220Y-50060295D02*
X116615601Y-50250771D01*
X116615601Y-50250771D02*
X116615601Y-50488866D01*
X116615601Y-50488866D02*
X116663220Y-50679342D01*
X116663220Y-50679342D02*
X116710839Y-50774580D01*
X116710839Y-50774580D02*
X116758458Y-50822200D01*
X116758458Y-50822200D02*
X116853696Y-50869819D01*
X116853696Y-50869819D02*
X116948934Y-50869819D01*
X116948934Y-50869819D02*
X117044172Y-50822200D01*
X117044172Y-50822200D02*
X117091791Y-50774580D01*
X117091791Y-50774580D02*
X117139410Y-50679342D01*
X117139410Y-50679342D02*
X117187029Y-50488866D01*
X117187029Y-50488866D02*
X117187029Y-50250771D01*
X117187029Y-50250771D02*
X117139410Y-50060295D01*
X117139410Y-50060295D02*
X117091791Y-49965057D01*
X117091791Y-49965057D02*
X117044172Y-49917438D01*
X117044172Y-49917438D02*
X116948934Y-49869819D01*
X116139410Y-50822200D02*
X116139410Y-50869819D01*
X116139410Y-50869819D02*
X116187029Y-50965057D01*
X116187029Y-50965057D02*
X116234648Y-51012676D01*
X114996553Y-50822200D02*
X114853696Y-50869819D01*
X114853696Y-50869819D02*
X114615601Y-50869819D01*
X114615601Y-50869819D02*
X114520363Y-50822200D01*
X114520363Y-50822200D02*
X114472744Y-50774580D01*
X114472744Y-50774580D02*
X114425125Y-50679342D01*
X114425125Y-50679342D02*
X114425125Y-50584104D01*
X114425125Y-50584104D02*
X114472744Y-50488866D01*
X114472744Y-50488866D02*
X114520363Y-50441247D01*
X114520363Y-50441247D02*
X114615601Y-50393628D01*
X114615601Y-50393628D02*
X114806077Y-50346009D01*
X114806077Y-50346009D02*
X114901315Y-50298390D01*
X114901315Y-50298390D02*
X114948934Y-50250771D01*
X114948934Y-50250771D02*
X114996553Y-50155533D01*
X114996553Y-50155533D02*
X114996553Y-50060295D01*
X114996553Y-50060295D02*
X114948934Y-49965057D01*
X114948934Y-49965057D02*
X114901315Y-49917438D01*
X114901315Y-49917438D02*
X114806077Y-49869819D01*
X114806077Y-49869819D02*
X114567982Y-49869819D01*
X114567982Y-49869819D02*
X114425125Y-49917438D01*
X113615601Y-50822200D02*
X113710839Y-50869819D01*
X113710839Y-50869819D02*
X113901315Y-50869819D01*
X113901315Y-50869819D02*
X113996553Y-50822200D01*
X113996553Y-50822200D02*
X114044172Y-50726961D01*
X114044172Y-50726961D02*
X114044172Y-50346009D01*
X114044172Y-50346009D02*
X113996553Y-50250771D01*
X113996553Y-50250771D02*
X113901315Y-50203152D01*
X113901315Y-50203152D02*
X113710839Y-50203152D01*
X113710839Y-50203152D02*
X113615601Y-50250771D01*
X113615601Y-50250771D02*
X113567982Y-50346009D01*
X113567982Y-50346009D02*
X113567982Y-50441247D01*
X113567982Y-50441247D02*
X114044172Y-50536485D01*
X113139410Y-50203152D02*
X113139410Y-51203152D01*
X113139410Y-50250771D02*
X113044172Y-50203152D01*
X113044172Y-50203152D02*
X112853696Y-50203152D01*
X112853696Y-50203152D02*
X112758458Y-50250771D01*
X112758458Y-50250771D02*
X112710839Y-50298390D01*
X112710839Y-50298390D02*
X112663220Y-50393628D01*
X112663220Y-50393628D02*
X112663220Y-50679342D01*
X112663220Y-50679342D02*
X112710839Y-50774580D01*
X112710839Y-50774580D02*
X112758458Y-50822200D01*
X112758458Y-50822200D02*
X112853696Y-50869819D01*
X112853696Y-50869819D02*
X113044172Y-50869819D01*
X113044172Y-50869819D02*
X113139410Y-50822200D01*
X112377505Y-50203152D02*
X111996553Y-50203152D01*
X112234648Y-49869819D02*
X112234648Y-50726961D01*
X112234648Y-50726961D02*
X112187029Y-50822200D01*
X112187029Y-50822200D02*
X112091791Y-50869819D01*
X112091791Y-50869819D02*
X111996553Y-50869819D01*
X111282267Y-50822200D02*
X111377505Y-50869819D01*
X111377505Y-50869819D02*
X111567981Y-50869819D01*
X111567981Y-50869819D02*
X111663219Y-50822200D01*
X111663219Y-50822200D02*
X111710838Y-50726961D01*
X111710838Y-50726961D02*
X111710838Y-50346009D01*
X111710838Y-50346009D02*
X111663219Y-50250771D01*
X111663219Y-50250771D02*
X111567981Y-50203152D01*
X111567981Y-50203152D02*
X111377505Y-50203152D01*
X111377505Y-50203152D02*
X111282267Y-50250771D01*
X111282267Y-50250771D02*
X111234648Y-50346009D01*
X111234648Y-50346009D02*
X111234648Y-50441247D01*
X111234648Y-50441247D02*
X111710838Y-50536485D01*
X110806076Y-50869819D02*
X110806076Y-50203152D01*
X110806076Y-50298390D02*
X110758457Y-50250771D01*
X110758457Y-50250771D02*
X110663219Y-50203152D01*
X110663219Y-50203152D02*
X110520362Y-50203152D01*
X110520362Y-50203152D02*
X110425124Y-50250771D01*
X110425124Y-50250771D02*
X110377505Y-50346009D01*
X110377505Y-50346009D02*
X110377505Y-50869819D01*
X110377505Y-50346009D02*
X110329886Y-50250771D01*
X110329886Y-50250771D02*
X110234648Y-50203152D01*
X110234648Y-50203152D02*
X110091791Y-50203152D01*
X110091791Y-50203152D02*
X109996552Y-50250771D01*
X109996552Y-50250771D02*
X109948933Y-50346009D01*
X109948933Y-50346009D02*
X109948933Y-50869819D01*
X109472743Y-50869819D02*
X109472743Y-49869819D01*
X109472743Y-50250771D02*
X109377505Y-50203152D01*
X109377505Y-50203152D02*
X109187029Y-50203152D01*
X109187029Y-50203152D02*
X109091791Y-50250771D01*
X109091791Y-50250771D02*
X109044172Y-50298390D01*
X109044172Y-50298390D02*
X108996553Y-50393628D01*
X108996553Y-50393628D02*
X108996553Y-50679342D01*
X108996553Y-50679342D02*
X109044172Y-50774580D01*
X109044172Y-50774580D02*
X109091791Y-50822200D01*
X109091791Y-50822200D02*
X109187029Y-50869819D01*
X109187029Y-50869819D02*
X109377505Y-50869819D01*
X109377505Y-50869819D02*
X109472743Y-50822200D01*
X108187029Y-50822200D02*
X108282267Y-50869819D01*
X108282267Y-50869819D02*
X108472743Y-50869819D01*
X108472743Y-50869819D02*
X108567981Y-50822200D01*
X108567981Y-50822200D02*
X108615600Y-50726961D01*
X108615600Y-50726961D02*
X108615600Y-50346009D01*
X108615600Y-50346009D02*
X108567981Y-50250771D01*
X108567981Y-50250771D02*
X108472743Y-50203152D01*
X108472743Y-50203152D02*
X108282267Y-50203152D01*
X108282267Y-50203152D02*
X108187029Y-50250771D01*
X108187029Y-50250771D02*
X108139410Y-50346009D01*
X108139410Y-50346009D02*
X108139410Y-50441247D01*
X108139410Y-50441247D02*
X108615600Y-50536485D01*
X107710838Y-50869819D02*
X107710838Y-50203152D01*
X107710838Y-50393628D02*
X107663219Y-50298390D01*
X107663219Y-50298390D02*
X107615600Y-50250771D01*
X107615600Y-50250771D02*
X107520362Y-50203152D01*
X107520362Y-50203152D02*
X107425124Y-50203152D01*
X106377504Y-49965057D02*
X106329885Y-49917438D01*
X106329885Y-49917438D02*
X106234647Y-49869819D01*
X106234647Y-49869819D02*
X105996552Y-49869819D01*
X105996552Y-49869819D02*
X105901314Y-49917438D01*
X105901314Y-49917438D02*
X105853695Y-49965057D01*
X105853695Y-49965057D02*
X105806076Y-50060295D01*
X105806076Y-50060295D02*
X105806076Y-50155533D01*
X105806076Y-50155533D02*
X105853695Y-50298390D01*
X105853695Y-50298390D02*
X106425123Y-50869819D01*
X106425123Y-50869819D02*
X105806076Y-50869819D01*
X105187028Y-49869819D02*
X105091790Y-49869819D01*
X105091790Y-49869819D02*
X104996552Y-49917438D01*
X104996552Y-49917438D02*
X104948933Y-49965057D01*
X104948933Y-49965057D02*
X104901314Y-50060295D01*
X104901314Y-50060295D02*
X104853695Y-50250771D01*
X104853695Y-50250771D02*
X104853695Y-50488866D01*
X104853695Y-50488866D02*
X104901314Y-50679342D01*
X104901314Y-50679342D02*
X104948933Y-50774580D01*
X104948933Y-50774580D02*
X104996552Y-50822200D01*
X104996552Y-50822200D02*
X105091790Y-50869819D01*
X105091790Y-50869819D02*
X105187028Y-50869819D01*
X105187028Y-50869819D02*
X105282266Y-50822200D01*
X105282266Y-50822200D02*
X105329885Y-50774580D01*
X105329885Y-50774580D02*
X105377504Y-50679342D01*
X105377504Y-50679342D02*
X105425123Y-50488866D01*
X105425123Y-50488866D02*
X105425123Y-50250771D01*
X105425123Y-50250771D02*
X105377504Y-50060295D01*
X105377504Y-50060295D02*
X105329885Y-49965057D01*
X105329885Y-49965057D02*
X105282266Y-49917438D01*
X105282266Y-49917438D02*
X105187028Y-49869819D01*
X104472742Y-49965057D02*
X104425123Y-49917438D01*
X104425123Y-49917438D02*
X104329885Y-49869819D01*
X104329885Y-49869819D02*
X104091790Y-49869819D01*
X104091790Y-49869819D02*
X103996552Y-49917438D01*
X103996552Y-49917438D02*
X103948933Y-49965057D01*
X103948933Y-49965057D02*
X103901314Y-50060295D01*
X103901314Y-50060295D02*
X103901314Y-50155533D01*
X103901314Y-50155533D02*
X103948933Y-50298390D01*
X103948933Y-50298390D02*
X104520361Y-50869819D01*
X104520361Y-50869819D02*
X103901314Y-50869819D01*
X103044171Y-49869819D02*
X103234647Y-49869819D01*
X103234647Y-49869819D02*
X103329885Y-49917438D01*
X103329885Y-49917438D02*
X103377504Y-49965057D01*
X103377504Y-49965057D02*
X103472742Y-50107914D01*
X103472742Y-50107914D02*
X103520361Y-50298390D01*
X103520361Y-50298390D02*
X103520361Y-50679342D01*
X103520361Y-50679342D02*
X103472742Y-50774580D01*
X103472742Y-50774580D02*
X103425123Y-50822200D01*
X103425123Y-50822200D02*
X103329885Y-50869819D01*
X103329885Y-50869819D02*
X103139409Y-50869819D01*
X103139409Y-50869819D02*
X103044171Y-50822200D01*
X103044171Y-50822200D02*
X102996552Y-50774580D01*
X102996552Y-50774580D02*
X102948933Y-50679342D01*
X102948933Y-50679342D02*
X102948933Y-50441247D01*
X102948933Y-50441247D02*
X102996552Y-50346009D01*
X102996552Y-50346009D02*
X103044171Y-50298390D01*
X103044171Y-50298390D02*
X103139409Y-50250771D01*
X103139409Y-50250771D02*
X103329885Y-50250771D01*
X103329885Y-50250771D02*
X103425123Y-50298390D01*
X103425123Y-50298390D02*
X103472742Y-50346009D01*
X103472742Y-50346009D02*
X103520361Y-50441247D01*
D11*
X81957419Y-64618571D02*
X82766942Y-64618571D01*
X82766942Y-64618571D02*
X82862180Y-64666190D01*
X82862180Y-64666190D02*
X82909800Y-64713809D01*
X82909800Y-64713809D02*
X82957419Y-64809047D01*
X82957419Y-64809047D02*
X82957419Y-64999523D01*
X82957419Y-64999523D02*
X82909800Y-65094761D01*
X82909800Y-65094761D02*
X82862180Y-65142380D01*
X82862180Y-65142380D02*
X82766942Y-65189999D01*
X82766942Y-65189999D02*
X81957419Y-65189999D01*
X82671704Y-65618571D02*
X82671704Y-66094761D01*
X82957419Y-65523333D02*
X81957419Y-65856666D01*
X81957419Y-65856666D02*
X82957419Y-66189999D01*
X82957419Y-67094761D02*
X82481228Y-66761428D01*
X82957419Y-66523333D02*
X81957419Y-66523333D01*
X81957419Y-66523333D02*
X81957419Y-66904285D01*
X81957419Y-66904285D02*
X82005038Y-66999523D01*
X82005038Y-66999523D02*
X82052657Y-67047142D01*
X82052657Y-67047142D02*
X82147895Y-67094761D01*
X82147895Y-67094761D02*
X82290752Y-67094761D01*
X82290752Y-67094761D02*
X82385990Y-67047142D01*
X82385990Y-67047142D02*
X82433609Y-66999523D01*
X82433609Y-66999523D02*
X82481228Y-66904285D01*
X82481228Y-66904285D02*
X82481228Y-66523333D01*
X81957419Y-67380476D02*
X81957419Y-67951904D01*
X82957419Y-67666190D02*
X81957419Y-67666190D01*
X81957419Y-68475714D02*
X81957419Y-68570952D01*
X81957419Y-68570952D02*
X82005038Y-68666190D01*
X82005038Y-68666190D02*
X82052657Y-68713809D01*
X82052657Y-68713809D02*
X82147895Y-68761428D01*
X82147895Y-68761428D02*
X82338371Y-68809047D01*
X82338371Y-68809047D02*
X82576466Y-68809047D01*
X82576466Y-68809047D02*
X82766942Y-68761428D01*
X82766942Y-68761428D02*
X82862180Y-68713809D01*
X82862180Y-68713809D02*
X82909800Y-68666190D01*
X82909800Y-68666190D02*
X82957419Y-68570952D01*
X82957419Y-68570952D02*
X82957419Y-68475714D01*
X82957419Y-68475714D02*
X82909800Y-68380476D01*
X82909800Y-68380476D02*
X82862180Y-68332857D01*
X82862180Y-68332857D02*
X82766942Y-68285238D01*
X82766942Y-68285238D02*
X82576466Y-68237619D01*
X82576466Y-68237619D02*
X82338371Y-68237619D01*
X82338371Y-68237619D02*
X82147895Y-68285238D01*
X82147895Y-68285238D02*
X82052657Y-68332857D01*
X82052657Y-68332857D02*
X82005038Y-68380476D01*
X82005038Y-68380476D02*
X81957419Y-68475714D01*
D10*
X80573866Y-61642857D02*
X80573866Y-62404762D01*
X80954819Y-62023809D02*
X80192914Y-62023809D01*
X79954819Y-64261905D02*
X79954819Y-64833333D01*
X80954819Y-64547619D02*
X79954819Y-64547619D01*
X79954819Y-65071429D02*
X80954819Y-65738095D01*
X79954819Y-65738095D02*
X80954819Y-65071429D01*
X80954819Y-67452381D02*
X80478628Y-67119048D01*
X80954819Y-66880953D02*
X79954819Y-66880953D01*
X79954819Y-66880953D02*
X79954819Y-67261905D01*
X79954819Y-67261905D02*
X80002438Y-67357143D01*
X80002438Y-67357143D02*
X80050057Y-67404762D01*
X80050057Y-67404762D02*
X80145295Y-67452381D01*
X80145295Y-67452381D02*
X80288152Y-67452381D01*
X80288152Y-67452381D02*
X80383390Y-67404762D01*
X80383390Y-67404762D02*
X80431009Y-67357143D01*
X80431009Y-67357143D02*
X80478628Y-67261905D01*
X80478628Y-67261905D02*
X80478628Y-66880953D01*
X79954819Y-67785715D02*
X80954819Y-68452381D01*
X79954819Y-68452381D02*
X80954819Y-67785715D01*
X80573866Y-69595239D02*
X80573866Y-70357144D01*
D11*
X81957419Y-94618571D02*
X82766942Y-94618571D01*
X82766942Y-94618571D02*
X82862180Y-94666190D01*
X82862180Y-94666190D02*
X82909800Y-94713809D01*
X82909800Y-94713809D02*
X82957419Y-94809047D01*
X82957419Y-94809047D02*
X82957419Y-94999523D01*
X82957419Y-94999523D02*
X82909800Y-95094761D01*
X82909800Y-95094761D02*
X82862180Y-95142380D01*
X82862180Y-95142380D02*
X82766942Y-95189999D01*
X82766942Y-95189999D02*
X81957419Y-95189999D01*
X82671704Y-95618571D02*
X82671704Y-96094761D01*
X82957419Y-95523333D02*
X81957419Y-95856666D01*
X81957419Y-95856666D02*
X82957419Y-96189999D01*
X82957419Y-97094761D02*
X82481228Y-96761428D01*
X82957419Y-96523333D02*
X81957419Y-96523333D01*
X81957419Y-96523333D02*
X81957419Y-96904285D01*
X81957419Y-96904285D02*
X82005038Y-96999523D01*
X82005038Y-96999523D02*
X82052657Y-97047142D01*
X82052657Y-97047142D02*
X82147895Y-97094761D01*
X82147895Y-97094761D02*
X82290752Y-97094761D01*
X82290752Y-97094761D02*
X82385990Y-97047142D01*
X82385990Y-97047142D02*
X82433609Y-96999523D01*
X82433609Y-96999523D02*
X82481228Y-96904285D01*
X82481228Y-96904285D02*
X82481228Y-96523333D01*
X81957419Y-97380476D02*
X81957419Y-97951904D01*
X82957419Y-97666190D02*
X81957419Y-97666190D01*
X82957419Y-98809047D02*
X82957419Y-98237619D01*
X82957419Y-98523333D02*
X81957419Y-98523333D01*
X81957419Y-98523333D02*
X82100276Y-98428095D01*
X82100276Y-98428095D02*
X82195514Y-98332857D01*
X82195514Y-98332857D02*
X82243133Y-98237619D01*
D10*
X80573866Y-91642857D02*
X80573866Y-92404762D01*
X80954819Y-92023809D02*
X80192914Y-92023809D01*
X79954819Y-94261905D02*
X79954819Y-94833333D01*
X80954819Y-94547619D02*
X79954819Y-94547619D01*
X79954819Y-95071429D02*
X80954819Y-95738095D01*
X79954819Y-95738095D02*
X80954819Y-95071429D01*
X80954819Y-97452381D02*
X80478628Y-97119048D01*
X80954819Y-96880953D02*
X79954819Y-96880953D01*
X79954819Y-96880953D02*
X79954819Y-97261905D01*
X79954819Y-97261905D02*
X80002438Y-97357143D01*
X80002438Y-97357143D02*
X80050057Y-97404762D01*
X80050057Y-97404762D02*
X80145295Y-97452381D01*
X80145295Y-97452381D02*
X80288152Y-97452381D01*
X80288152Y-97452381D02*
X80383390Y-97404762D01*
X80383390Y-97404762D02*
X80431009Y-97357143D01*
X80431009Y-97357143D02*
X80478628Y-97261905D01*
X80478628Y-97261905D02*
X80478628Y-96880953D01*
X79954819Y-97785715D02*
X80954819Y-98452381D01*
X79954819Y-98452381D02*
X80954819Y-97785715D01*
X80573866Y-99595239D02*
X80573866Y-100357144D01*
X127754819Y-42516666D02*
X128469104Y-42516666D01*
X128469104Y-42516666D02*
X128611961Y-42469047D01*
X128611961Y-42469047D02*
X128707200Y-42373809D01*
X128707200Y-42373809D02*
X128754819Y-42230952D01*
X128754819Y-42230952D02*
X128754819Y-42135714D01*
X128754819Y-42992857D02*
X127754819Y-42992857D01*
X127754819Y-42992857D02*
X127754819Y-43373809D01*
X127754819Y-43373809D02*
X127802438Y-43469047D01*
X127802438Y-43469047D02*
X127850057Y-43516666D01*
X127850057Y-43516666D02*
X127945295Y-43564285D01*
X127945295Y-43564285D02*
X128088152Y-43564285D01*
X128088152Y-43564285D02*
X128183390Y-43516666D01*
X128183390Y-43516666D02*
X128231009Y-43469047D01*
X128231009Y-43469047D02*
X128278628Y-43373809D01*
X128278628Y-43373809D02*
X128278628Y-42992857D01*
X128754819Y-44516666D02*
X128754819Y-43945238D01*
X128754819Y-44230952D02*
X127754819Y-44230952D01*
X127754819Y-44230952D02*
X127897676Y-44135714D01*
X127897676Y-44135714D02*
X127992914Y-44040476D01*
X127992914Y-44040476D02*
X128040533Y-43945238D01*
X124054819Y-41802380D02*
X124054819Y-41326190D01*
X124054819Y-41326190D02*
X124531009Y-41278571D01*
X124531009Y-41278571D02*
X124483390Y-41326190D01*
X124483390Y-41326190D02*
X124435771Y-41421428D01*
X124435771Y-41421428D02*
X124435771Y-41659523D01*
X124435771Y-41659523D02*
X124483390Y-41754761D01*
X124483390Y-41754761D02*
X124531009Y-41802380D01*
X124531009Y-41802380D02*
X124626247Y-41849999D01*
X124626247Y-41849999D02*
X124864342Y-41849999D01*
X124864342Y-41849999D02*
X124959580Y-41802380D01*
X124959580Y-41802380D02*
X125007200Y-41754761D01*
X125007200Y-41754761D02*
X125054819Y-41659523D01*
X125054819Y-41659523D02*
X125054819Y-41421428D01*
X125054819Y-41421428D02*
X125007200Y-41326190D01*
X125007200Y-41326190D02*
X124959580Y-41278571D01*
X124054819Y-42135714D02*
X125054819Y-42469047D01*
X125054819Y-42469047D02*
X124054819Y-42802380D01*
X124531009Y-43897619D02*
X124531009Y-44230952D01*
X125054819Y-44373809D02*
X125054819Y-43897619D01*
X125054819Y-43897619D02*
X124054819Y-43897619D01*
X124054819Y-43897619D02*
X124054819Y-44373809D01*
X125054819Y-44802381D02*
X124054819Y-44802381D01*
X124054819Y-44802381D02*
X125054819Y-45373809D01*
X125054819Y-45373809D02*
X124054819Y-45373809D01*
%TO.C,UART0*%
D12*
X76120000Y-61000000D02*
X78880000Y-61000000D01*
X76120000Y-68730000D02*
X76120000Y-61000000D01*
X76120000Y-68730000D02*
X78880000Y-68730000D01*
X76120000Y-70000000D02*
X76120000Y-71380000D01*
X76120000Y-71380000D02*
X77500000Y-71380000D01*
X78880000Y-68730000D02*
X78880000Y-61000000D01*
%TO.C,UART1*%
X76120000Y-91000000D02*
X78880000Y-91000000D01*
X76120000Y-98730000D02*
X76120000Y-91000000D01*
X76120000Y-98730000D02*
X78880000Y-98730000D01*
X76120000Y-100000000D02*
X76120000Y-101380000D01*
X76120000Y-101380000D02*
X77500000Y-101380000D01*
X78880000Y-98730000D02*
X78880000Y-91000000D01*
%TO.C,JP1*%
X125500000Y-42650000D02*
X125500000Y-44050000D01*
X126200000Y-44750000D02*
X126800000Y-44750000D01*
X126800000Y-41950000D02*
X126200000Y-41950000D01*
X127500000Y-44050000D02*
X127500000Y-42650000D01*
X125500000Y-42650000D02*
G75*
G02*
X126200000Y-41950000I700000J0D01*
G01*
X126200000Y-44750000D02*
G75*
G02*
X125500000Y-44050000I-1J699999D01*
G01*
X126800000Y-41950000D02*
G75*
G02*
X127500000Y-42650000I0J-700000D01*
G01*
X127500000Y-44050000D02*
G75*
G02*
X126800000Y-44750000I-699999J-1D01*
G01*
%TD*%
M02*
