%TF.GenerationSoftware,KiCad,Pcbnew,10.0.5*%
%TF.CreationDate,2026-09-07T11:43:07+02:00*%
%TF.ProjectId,Aprs audio platine,41707273-2061-4756-9469-6f20706c6174,rev?*%
%TF.SameCoordinates,Original*%
%TF.FileFunction,Soldermask,Bot*%
%TF.FilePolarity,Negative*%
%FSLAX46Y46*%
G04 Gerber Fmt 4.6, Leading zero omitted, Abs format (unit mm)*
G04 Created by KiCad (PCBNEW 10.0.5) date 2026-09-07 11:43:07*
%MOMM*%
%LPD*%
G01*
G04 APERTURE LIST*
G04 Aperture macros list*
%AMRoundRect*
0 Rectangle with rounded corners*
0 $1 Rounding radius*
0 $2 $3 $4 $5 $6 $7 $8 $9 X,Y pos of 4 corners*
0 Add a 4 corners polygon primitive as box body*
4,1,4,$2,$3,$4,$5,$6,$7,$8,$9,$2,$3,0*
0 Add four circle primitives for the rounded corners*
1,1,$1+$1,$2,$3*
1,1,$1+$1,$4,$5*
1,1,$1+$1,$6,$7*
1,1,$1+$1,$8,$9*
0 Add four rect primitives between the rounded corners*
20,1,$1+$1,$2,$3,$4,$5,0*
20,1,$1+$1,$4,$5,$6,$7,0*
20,1,$1+$1,$6,$7,$8,$9,0*
20,1,$1+$1,$8,$9,$2,$3,0*%
%AMFreePoly0*
4,1,23,0.500000,-0.750000,0.000000,-0.750000,0.000000,-0.745722,-0.065263,-0.745722,-0.191342,-0.711940,-0.304381,-0.646677,-0.396677,-0.554381,-0.461940,-0.441342,-0.495722,-0.315263,-0.495722,-0.250000,-0.500000,-0.250000,-0.500000,0.250000,-0.495722,0.250000,-0.495722,0.315263,-0.461940,0.441342,-0.396677,0.554381,-0.304381,0.646677,-0.191342,0.711940,-0.065263,0.745722,0.000000,0.745722,
0.000000,0.750000,0.500000,0.750000,0.500000,-0.750000,0.500000,-0.750000,$1*%
%AMFreePoly1*
4,1,23,0.000000,0.745722,0.065263,0.745722,0.191342,0.711940,0.304381,0.646677,0.396677,0.554381,0.461940,0.441342,0.495722,0.315263,0.495722,0.250000,0.500000,0.250000,0.500000,-0.250000,0.495722,-0.250000,0.495722,-0.315263,0.461940,-0.441342,0.396677,-0.554381,0.304381,-0.646677,0.191342,-0.711940,0.065263,-0.745722,0.000000,-0.745722,0.000000,-0.750000,-0.500000,-0.750000,
-0.500000,0.750000,0.000000,0.750000,0.000000,0.745722,0.000000,0.745722,$1*%
G04 Aperture macros list end*
%ADD10C,1.600000*%
%ADD11RoundRect,0.250000X-0.675000X0.675000X-0.675000X-0.675000X0.675000X-0.675000X0.675000X0.675000X0*%
%ADD12C,1.850000*%
%ADD13R,1.700000X1.700000*%
%ADD14C,1.700000*%
%ADD15RoundRect,0.250001X-0.499999X-0.499999X0.499999X-0.499999X0.499999X0.499999X-0.499999X0.499999X0*%
%ADD16C,1.500000*%
%ADD17R,1.500000X1.050000*%
%ADD18O,1.500000X1.050000*%
%ADD19RoundRect,0.250000X1.000000X-1.000000X1.000000X1.000000X-1.000000X1.000000X-1.000000X-1.000000X0*%
%ADD20C,2.500000*%
%ADD21RoundRect,0.250000X-0.550000X-0.550000X0.550000X-0.550000X0.550000X0.550000X-0.550000X0.550000X0*%
%ADD22RoundRect,0.250000X-0.550000X0.550000X-0.550000X-0.550000X0.550000X-0.550000X0.550000X0.550000X0*%
%ADD23FreePoly0,90.000000*%
%ADD24FreePoly1,90.000000*%
G04 APERTURE END LIST*
%TO.C,JP1*%
G36*
X125750000Y-43200000D02*
G01*
X127250000Y-43200000D01*
X127250000Y-43500000D01*
X125750000Y-43500000D01*
X125750000Y-43200000D01*
G37*
%TD*%
D10*
%TO.C,R10*%
X110500000Y-41300000D03*
X110500000Y-54000000D03*
%TD*%
%TO.C,R11*%
X105000000Y-54000000D03*
X105000000Y-41300000D03*
%TD*%
%TO.C,R1*%
X84150000Y-24000000D03*
X96850000Y-24000000D03*
%TD*%
D11*
%TO.C,J1*%
X80000000Y-23600000D03*
D12*
X80000000Y-27800000D03*
X80000000Y-32000000D03*
X80000000Y-36200000D03*
X80000000Y-40400000D03*
%TD*%
D10*
%TO.C,R8*%
X121500000Y-41300000D03*
X121500000Y-54000000D03*
%TD*%
D13*
%TO.C,J4*%
X77460000Y-116000000D03*
D14*
X80000000Y-116000000D03*
X82540000Y-116000000D03*
X85080000Y-116000000D03*
%TD*%
D10*
%TO.C,C2*%
X86000000Y-27500000D03*
X86000000Y-30000000D03*
%TD*%
%TO.C,R13*%
X126500000Y-46800000D03*
X126500000Y-59500000D03*
%TD*%
D13*
%TO.C,J13*%
X122920000Y-98000000D03*
D14*
X125460000Y-98000000D03*
X128000000Y-98000000D03*
%TD*%
D10*
%TO.C,R7*%
X83500000Y-59650000D03*
X83500000Y-72350000D03*
%TD*%
D13*
%TO.C,J8*%
X120500000Y-110000000D03*
D14*
X123040000Y-110000000D03*
X125580000Y-110000000D03*
X128120000Y-110000000D03*
%TD*%
D13*
%TO.C,J10*%
X87460000Y-58000000D03*
D14*
X90000000Y-58000000D03*
X92540000Y-58000000D03*
X95080000Y-58000000D03*
%TD*%
D10*
%TO.C,R9*%
X116000000Y-54000000D03*
X116000000Y-41300000D03*
%TD*%
D13*
%TO.C,J12*%
X122920000Y-92000000D03*
D14*
X125460000Y-92000000D03*
X128000000Y-92000000D03*
%TD*%
D13*
%TO.C,J9*%
X102730000Y-57950000D03*
D14*
X105270000Y-57950000D03*
X107810000Y-57950000D03*
X110350000Y-57950000D03*
%TD*%
D15*
%TO.C,D2*%
X99685000Y-29000000D03*
D16*
X107305000Y-29000000D03*
%TD*%
D17*
%TO.C,Q1*%
X80000000Y-44460000D03*
D18*
X80000000Y-45730000D03*
X80000000Y-47000000D03*
%TD*%
D13*
%TO.C,J2*%
X77500000Y-80500000D03*
D14*
X80040000Y-80500000D03*
X82580000Y-80500000D03*
X85120000Y-80500000D03*
%TD*%
D13*
%TO.C,UART2*%
X120500000Y-70500000D03*
D14*
X120500000Y-67960000D03*
X120500000Y-65420000D03*
X120500000Y-62880000D03*
%TD*%
D13*
%TO.C,J6*%
X122920000Y-80000000D03*
D14*
X125460000Y-80000000D03*
X128000000Y-80000000D03*
%TD*%
D10*
%TO.C,R3*%
X115150000Y-24000000D03*
X127850000Y-24000000D03*
%TD*%
%TO.C,R2*%
X99650000Y-24000000D03*
X112350000Y-24000000D03*
%TD*%
%TO.C,R12*%
X99500000Y-41300000D03*
X99500000Y-54000000D03*
%TD*%
D13*
%TO.C,J3*%
X77500000Y-110000000D03*
D14*
X80040000Y-110000000D03*
X82580000Y-110000000D03*
X85120000Y-110000000D03*
%TD*%
D13*
%TO.C,J7*%
X120420000Y-104000000D03*
D14*
X122960000Y-104000000D03*
X125500000Y-104000000D03*
X128040000Y-104000000D03*
%TD*%
D13*
%TO.C,uC1*%
X90000000Y-115940000D03*
D14*
X90000000Y-113400000D03*
X90000000Y-110860000D03*
X90000000Y-108320000D03*
X90000000Y-105780000D03*
X90000000Y-103240000D03*
X90000000Y-100700000D03*
X90000000Y-98160000D03*
X90000000Y-95620000D03*
X90000000Y-93080000D03*
X90000000Y-90540000D03*
X90000000Y-88000000D03*
X90000000Y-85460000D03*
X90000000Y-82920000D03*
X90000000Y-80380000D03*
X90000000Y-77840000D03*
X90000000Y-75300000D03*
X90000000Y-72760000D03*
X90000000Y-70220000D03*
X90000000Y-67680000D03*
X90000000Y-65140000D03*
X90000000Y-62600000D03*
D13*
X115400000Y-115940000D03*
D14*
X115400000Y-113400000D03*
X115400000Y-110860000D03*
X115400000Y-108320000D03*
X115400000Y-105780000D03*
X115400000Y-103240000D03*
X115400000Y-100700000D03*
X115400000Y-98160000D03*
X115400000Y-95620000D03*
X115400000Y-93080000D03*
X115400000Y-90540000D03*
X115400000Y-88000000D03*
X115400000Y-85460000D03*
X115400000Y-82920000D03*
X115400000Y-80380000D03*
X115400000Y-77840000D03*
X115400000Y-75300000D03*
X115400000Y-72760000D03*
X115400000Y-70220000D03*
X115400000Y-67680000D03*
X115400000Y-65140000D03*
X115400000Y-62600000D03*
%TD*%
D19*
%TO.C,RV1*%
X91500000Y-52000000D03*
D20*
X91500000Y-47000000D03*
X91500000Y-42000000D03*
%TD*%
D21*
%TO.C,C6*%
X79000000Y-52000000D03*
D10*
X81500000Y-52000000D03*
%TD*%
D22*
%TO.C,C3*%
X94000000Y-27794887D03*
D10*
X94000000Y-30294887D03*
%TD*%
D13*
%TO.C,J11*%
X122920000Y-86000000D03*
D14*
X125460000Y-86000000D03*
X128000000Y-86000000D03*
%TD*%
D10*
%TO.C,R4*%
X115150000Y-34000000D03*
X127850000Y-34000000D03*
%TD*%
%TO.C,R5*%
X99650000Y-34000000D03*
X112350000Y-34000000D03*
%TD*%
%TO.C,C1*%
X112500000Y-30000000D03*
X112500000Y-27500000D03*
%TD*%
%TO.C,C4*%
X116250000Y-38500000D03*
X118750000Y-38500000D03*
%TD*%
%TO.C,R14*%
X126500000Y-75000000D03*
X126500000Y-62300000D03*
%TD*%
%TO.C,R6*%
X84150000Y-34000000D03*
X96850000Y-34000000D03*
%TD*%
%TO.C,C5*%
X99750000Y-38500000D03*
X102250000Y-38500000D03*
%TD*%
D13*
%TO.C,J5*%
X120500000Y-116000000D03*
D14*
X123040000Y-116000000D03*
X125580000Y-116000000D03*
X128120000Y-116000000D03*
%TD*%
D15*
%TO.C,D1*%
X120380000Y-29000000D03*
D16*
X128000000Y-29000000D03*
%TD*%
D13*
%TO.C,UART0*%
X77500000Y-70000000D03*
D14*
X77500000Y-67460000D03*
X77500000Y-64920000D03*
X77500000Y-62380000D03*
%TD*%
D13*
%TO.C,UART1*%
X77500000Y-100000000D03*
D14*
X77500000Y-97460000D03*
X77500000Y-94920000D03*
X77500000Y-92380000D03*
%TD*%
D23*
%TO.C,JP1*%
X126500000Y-44000000D03*
D24*
X126500000Y-42700000D03*
%TD*%
M02*
