%TF.GenerationSoftware,KiCad,Pcbnew,10.0.5*%
%TF.CreationDate,2026-09-07T11:43:07+02:00*%
%TF.ProjectId,Aprs audio platine,41707273-2061-4756-9469-6f20706c6174,rev?*%
%TF.SameCoordinates,Original*%
%TF.FileFunction,Copper,L1,Top*%
%TF.FilePolarity,Positive*%
%FSLAX46Y46*%
G04 Gerber Fmt 4.6, Leading zero omitted, Abs format (unit mm)*
G04 Created by KiCad (PCBNEW 10.0.5) date 2026-09-07 11:43:07*
%MOMM*%
%LPD*%
G01*
G04 APERTURE LIST*
G04 Aperture macros list*
%AMRoundRect*
0 Rectangle with rounded corners*
0 $1 Rounding radius*
0 $2 $3 $4 $5 $6 $7 $8 $9 X,Y pos of 4 corners*
0 Add a 4 corners polygon primitive as box body*
4,1,4,$2,$3,$4,$5,$6,$7,$8,$9,$2,$3,0*
0 Add four circle primitives for the rounded corners*
1,1,$1+$1,$2,$3*
1,1,$1+$1,$4,$5*
1,1,$1+$1,$6,$7*
1,1,$1+$1,$8,$9*
0 Add four rect primitives between the rounded corners*
20,1,$1+$1,$2,$3,$4,$5,0*
20,1,$1+$1,$4,$5,$6,$7,0*
20,1,$1+$1,$6,$7,$8,$9,0*
20,1,$1+$1,$8,$9,$2,$3,0*%
G04 Aperture macros list end*
%TA.AperFunction,ComponentPad*%
%ADD10C,1.600000*%
%TD*%
%TA.AperFunction,ComponentPad*%
%ADD11RoundRect,0.250000X-0.675000X0.675000X-0.675000X-0.675000X0.675000X-0.675000X0.675000X0.675000X0*%
%TD*%
%TA.AperFunction,ComponentPad*%
%ADD12C,1.850000*%
%TD*%
%TA.AperFunction,ComponentPad*%
%ADD13R,1.700000X1.700000*%
%TD*%
%TA.AperFunction,ComponentPad*%
%ADD14C,1.700000*%
%TD*%
%TA.AperFunction,ComponentPad*%
%ADD15RoundRect,0.250001X-0.499999X-0.499999X0.499999X-0.499999X0.499999X0.499999X-0.499999X0.499999X0*%
%TD*%
%TA.AperFunction,ComponentPad*%
%ADD16C,1.500000*%
%TD*%
%TA.AperFunction,ComponentPad*%
%ADD17R,1.500000X1.050000*%
%TD*%
%TA.AperFunction,ComponentPad*%
%ADD18O,1.500000X1.050000*%
%TD*%
%TA.AperFunction,ComponentPad*%
%ADD19RoundRect,0.250000X1.000000X-1.000000X1.000000X1.000000X-1.000000X1.000000X-1.000000X-1.000000X0*%
%TD*%
%TA.AperFunction,ComponentPad*%
%ADD20C,2.500000*%
%TD*%
%TA.AperFunction,ComponentPad*%
%ADD21RoundRect,0.250000X-0.550000X-0.550000X0.550000X-0.550000X0.550000X0.550000X-0.550000X0.550000X0*%
%TD*%
%TA.AperFunction,ComponentPad*%
%ADD22RoundRect,0.250000X-0.550000X0.550000X-0.550000X-0.550000X0.550000X-0.550000X0.550000X0.550000X0*%
%TD*%
%TA.AperFunction,ViaPad*%
%ADD23C,0.600000*%
%TD*%
%TA.AperFunction,Conductor*%
%ADD24C,1.000000*%
%TD*%
%TA.AperFunction,Conductor*%
%ADD25C,0.200000*%
%TD*%
%TA.AperFunction,Conductor*%
%ADD26C,0.500000*%
%TD*%
G04 APERTURE END LIST*
D10*
%TO.P,R10,1*%
%TO.N,Net-(C4-Pad1)*%
X110500000Y-41300000D03*
%TO.P,R10,2*%
%TO.N,Net-(R10-Pad2)*%
X110500000Y-54000000D03*
%TD*%
%TO.P,R11,1*%
%TO.N,Net-(R10-Pad2)*%
X105000000Y-54000000D03*
%TO.P,R11,2*%
%TO.N,Net-(C5-Pad1)*%
X105000000Y-41300000D03*
%TD*%
%TO.P,R1,1*%
%TO.N,+3V3*%
X84150000Y-24000000D03*
%TO.P,R1,2*%
%TO.N,Net-(D2-K)*%
X96850000Y-24000000D03*
%TD*%
D11*
%TO.P,J1,1,Pin_1_1*%
%TO.N,GND*%
X80000000Y-23600000D03*
D12*
%TO.P,J1,2,Pin_2_2*%
%TO.N,Net-(J1-Pin_2)*%
X80000000Y-27800000D03*
%TO.P,J1,3,Pin_3_3*%
%TO.N,Net-(J1-Pin_3)*%
X80000000Y-32000000D03*
%TO.P,J1,4,Pin_4_4*%
%TO.N,Net-(J1-Pin_4)*%
X80000000Y-36200000D03*
%TO.P,J1,5,Pin_5_5*%
%TO.N,Net-(J1-Pin_5)*%
X80000000Y-40400000D03*
%TD*%
D10*
%TO.P,R8,1*%
%TO.N,Net-(uC1-2)*%
X121500000Y-41300000D03*
%TO.P,R8,2*%
%TO.N,Net-(R8-Pad2)*%
X121500000Y-54000000D03*
%TD*%
D13*
%TO.P,J4,1,Pin_1_1*%
%TO.N,Net-(J4-Pin_1)*%
X77460000Y-116000000D03*
D14*
%TO.P,J4,2,Pin_2_2*%
%TO.N,Net-(J4-Pin_2)*%
X80000000Y-116000000D03*
%TO.P,J4,3,Pin_3_3*%
%TO.N,Net-(J4-Pin_3)*%
X82540000Y-116000000D03*
%TO.P,J4,4,Pin_4_4*%
%TO.N,Net-(J4-Pin_4)*%
X85080000Y-116000000D03*
%TD*%
D10*
%TO.P,C2,1*%
%TO.N,Net-(D2-K)*%
X86000000Y-27500000D03*
%TO.P,C2,2*%
%TO.N,GND*%
X86000000Y-30000000D03*
%TD*%
%TO.P,R13,1*%
%TO.N,Net-(JP1-A)*%
X126500000Y-46800000D03*
%TO.P,R13,2*%
%TO.N,Net-(uC1-42)*%
X126500000Y-59500000D03*
%TD*%
D13*
%TO.P,J13,1,Pin_1_1*%
%TO.N,GND*%
X122920000Y-98000000D03*
D14*
%TO.P,J13,2,Pin_2_2*%
%TO.N,Net-(J13-Pin_2)*%
X125460000Y-98000000D03*
%TO.P,J13,3,Pin_3_3*%
%TO.N,+3V3*%
X128000000Y-98000000D03*
%TD*%
D10*
%TO.P,R7,1*%
%TO.N,Net-(Q1-B)*%
X83500000Y-59650000D03*
%TO.P,R7,2*%
%TO.N,Net-(uC1-5)*%
X83500000Y-72350000D03*
%TD*%
D13*
%TO.P,J8,1,Pin_1_1*%
%TO.N,Net-(J8-Pin_1)*%
X120500000Y-110000000D03*
D14*
%TO.P,J8,2,Pin_2_2*%
%TO.N,Net-(J8-Pin_2)*%
X123040000Y-110000000D03*
%TO.P,J8,3,Pin_3_3*%
%TO.N,Net-(J8-Pin_3)*%
X125580000Y-110000000D03*
%TO.P,J8,4,Pin_4_4*%
%TO.N,Net-(J8-Pin_4)*%
X128120000Y-110000000D03*
%TD*%
D13*
%TO.P,J10,1,Pin_1_1*%
%TO.N,GND*%
X87460000Y-58000000D03*
D14*
%TO.P,J10,2,Pin_2_2*%
X90000000Y-58000000D03*
%TO.P,J10,3,Pin_3_3*%
X92540000Y-58000000D03*
%TO.P,J10,4,Pin_4_4*%
X95080000Y-58000000D03*
%TD*%
D10*
%TO.P,R9,1*%
%TO.N,Net-(R8-Pad2)*%
X116000000Y-54000000D03*
%TO.P,R9,2*%
%TO.N,Net-(C4-Pad1)*%
X116000000Y-41300000D03*
%TD*%
D13*
%TO.P,J12,1,Pin_1_1*%
%TO.N,GND*%
X122920000Y-92000000D03*
D14*
%TO.P,J12,2,Pin_2_2*%
%TO.N,Net-(J12-Pin_2)*%
X125460000Y-92000000D03*
%TO.P,J12,3,Pin_3_3*%
%TO.N,+3V3*%
X128000000Y-92000000D03*
%TD*%
D13*
%TO.P,J9,1,Pin_1_1*%
%TO.N,+3V3*%
X102730000Y-57950000D03*
D14*
%TO.P,J9,2,Pin_2_2*%
X105270000Y-57950000D03*
%TO.P,J9,3,Pin_3_3*%
X107810000Y-57950000D03*
%TO.P,J9,4,Pin_4_4*%
X110350000Y-57950000D03*
%TD*%
D15*
%TO.P,D2,1,K_1*%
%TO.N,Net-(D2-K)*%
X99685000Y-29000000D03*
D16*
%TO.P,D2,2,A_2*%
%TO.N,Net-(D1-K)*%
X107305000Y-29000000D03*
%TD*%
D17*
%TO.P,Q1,1,C_1*%
%TO.N,Net-(J1-Pin_3)*%
X80000000Y-44460000D03*
D18*
%TO.P,Q1,2,B_2*%
%TO.N,Net-(Q1-B)*%
X80000000Y-45730000D03*
%TO.P,Q1,3,E_3*%
%TO.N,GND*%
X80000000Y-47000000D03*
%TD*%
D13*
%TO.P,J2,1,Pin_1_1*%
%TO.N,Net-(J2-Pin_1)*%
X77500000Y-80500000D03*
D14*
%TO.P,J2,2,Pin_2_2*%
%TO.N,Net-(J2-Pin_2)*%
X80040000Y-80500000D03*
%TO.P,J2,3,Pin_3_3*%
%TO.N,Net-(J2-Pin_3)*%
X82580000Y-80500000D03*
%TO.P,J2,4,Pin_4_4*%
%TO.N,Net-(J2-Pin_4)*%
X85120000Y-80500000D03*
%TD*%
D13*
%TO.P,UART2,1,GND_1*%
%TO.N,GND*%
X120500000Y-70500000D03*
D14*
%TO.P,UART2,2,RX_2*%
%TO.N,Net-(UART2-RX)*%
X120500000Y-67960000D03*
%TO.P,UART2,3,TX_3*%
%TO.N,Net-(UART2-TX)*%
X120500000Y-65420000D03*
%TO.P,UART2,4,VCC_4*%
%TO.N,+3V3*%
X120500000Y-62880000D03*
%TD*%
D13*
%TO.P,J6,1,Pin_1_1*%
%TO.N,GND*%
X122920000Y-80000000D03*
D14*
%TO.P,J6,2,Pin_2_2*%
%TO.N,Net-(J6-Pin_2)*%
X125460000Y-80000000D03*
%TO.P,J6,3,Pin_3_3*%
%TO.N,+3V3*%
X128000000Y-80000000D03*
%TD*%
D10*
%TO.P,R3,1*%
%TO.N,Net-(D1-K)*%
X115150000Y-24000000D03*
%TO.P,R3,2*%
%TO.N,GND*%
X127850000Y-24000000D03*
%TD*%
%TO.P,R2,1*%
%TO.N,Net-(D2-K)*%
X99650000Y-24000000D03*
%TO.P,R2,2*%
%TO.N,Net-(D1-K)*%
X112350000Y-24000000D03*
%TD*%
%TO.P,R12,1*%
%TO.N,Net-(C5-Pad1)*%
X99500000Y-41300000D03*
%TO.P,R12,2*%
%TO.N,Net-(C6-Pad2)*%
X99500000Y-54000000D03*
%TD*%
D13*
%TO.P,J3,1,Pin_1_1*%
%TO.N,Net-(J3-Pin_1)*%
X77500000Y-110000000D03*
D14*
%TO.P,J3,2,Pin_2_2*%
%TO.N,Net-(J3-Pin_2)*%
X80040000Y-110000000D03*
%TO.P,J3,3,Pin_3_3*%
%TO.N,Net-(J3-Pin_3)*%
X82580000Y-110000000D03*
%TO.P,J3,4,Pin_4_4*%
%TO.N,Net-(J3-Pin_4)*%
X85120000Y-110000000D03*
%TD*%
D13*
%TO.P,J7,1,Pin_1_1*%
%TO.N,Net-(J7-Pin_1)*%
X120420000Y-104000000D03*
D14*
%TO.P,J7,2,Pin_2_2*%
%TO.N,Net-(J7-Pin_2)*%
X122960000Y-104000000D03*
%TO.P,J7,3,Pin_3_3*%
%TO.N,Net-(J7-Pin_3)*%
X125500000Y-104000000D03*
%TO.P,J7,4,Pin_4_4*%
%TO.N,Net-(J7-Pin_4)*%
X128040000Y-104000000D03*
%TD*%
D13*
%TO.P,uC1,1,GND_1*%
%TO.N,GND*%
X90000000Y-115940000D03*
D14*
%TO.P,uC1,2,5Vin_2*%
%TO.N,Net-(J5-Pin_2)*%
X90000000Y-113400000D03*
%TO.P,uC1,3,14_3*%
%TO.N,Net-(J5-Pin_1)*%
X90000000Y-110860000D03*
%TO.P,uC1,4,13_4*%
%TO.N,Net-(J4-Pin_4)*%
X90000000Y-108320000D03*
%TO.P,uC1,5,12_5*%
%TO.N,Net-(J4-Pin_3)*%
X90000000Y-105780000D03*
%TO.P,uC1,6,11_6*%
%TO.N,Net-(J4-Pin_2)*%
X90000000Y-103240000D03*
%TO.P,uC1,7,10_7*%
%TO.N,Net-(J4-Pin_1)*%
X90000000Y-100700000D03*
%TO.P,uC1,8,9_8*%
%TO.N,Net-(J3-Pin_4)*%
X90000000Y-98160000D03*
%TO.P,uC1,9,46_9*%
%TO.N,Net-(J3-Pin_3)*%
X90000000Y-95620000D03*
%TO.P,uC1,10,3_10*%
%TO.N,Net-(J3-Pin_2)*%
X90000000Y-93080000D03*
%TO.P,uC1,11,8_11*%
%TO.N,Net-(J3-Pin_1)*%
X90000000Y-90540000D03*
%TO.P,uC1,12,18_12*%
%TO.N,Net-(UART1-RX)*%
X90000000Y-88000000D03*
%TO.P,uC1,13,17_13*%
%TO.N,Net-(UART1-TX)*%
X90000000Y-85460000D03*
%TO.P,uC1,14,16_14*%
%TO.N,Net-(UART0-RX)*%
X90000000Y-82920000D03*
%TO.P,uC1,15,15_15*%
%TO.N,Net-(UART0-TX)*%
X90000000Y-80380000D03*
%TO.P,uC1,16,7_16*%
%TO.N,Net-(J2-Pin_4)*%
X90000000Y-77840000D03*
%TO.P,uC1,17,6_17*%
%TO.N,Net-(J2-Pin_3)*%
X90000000Y-75300000D03*
%TO.P,uC1,18,5_18*%
%TO.N,Net-(uC1-5)*%
X90000000Y-72760000D03*
%TO.P,uC1,19,4_19*%
%TO.N,Net-(J2-Pin_2)*%
X90000000Y-70220000D03*
%TO.P,uC1,20,RST_20*%
%TO.N,Net-(J2-Pin_1)*%
X90000000Y-67680000D03*
%TO.P,uC1,21,3V3_21*%
%TO.N,+3V3*%
X90000000Y-65140000D03*
%TO.P,uC1,22,3V3_22*%
X90000000Y-62600000D03*
D13*
%TO.P,uC1,23,GND_23*%
%TO.N,GND*%
X115400000Y-115940000D03*
D14*
%TO.P,uC1,24,GND_24*%
X115400000Y-113400000D03*
%TO.P,uC1,25,19_25*%
%TO.N,Net-(J5-Pin_3)*%
X115400000Y-110860000D03*
%TO.P,uC1,26,20_26*%
%TO.N,Net-(J5-Pin_4)*%
X115400000Y-108320000D03*
%TO.P,uC1,27,21_27*%
%TO.N,Net-(J8-Pin_1)*%
X115400000Y-105780000D03*
%TO.P,uC1,28,47_28*%
%TO.N,Net-(J8-Pin_2)*%
X115400000Y-103240000D03*
%TO.P,uC1,29,48_29*%
%TO.N,Net-(J8-Pin_3)*%
X115400000Y-100700000D03*
%TO.P,uC1,30,45_30*%
%TO.N,Net-(J8-Pin_4)*%
X115400000Y-98160000D03*
%TO.P,uC1,31,0_31*%
%TO.N,Net-(J7-Pin_1)*%
X115400000Y-95620000D03*
%TO.P,uC1,32,35_32*%
%TO.N,Net-(J7-Pin_2)*%
X115400000Y-93080000D03*
%TO.P,uC1,33,36_33*%
%TO.N,Net-(J7-Pin_3)*%
X115400000Y-90540000D03*
%TO.P,uC1,34,37_34*%
%TO.N,Net-(J7-Pin_4)*%
X115400000Y-88000000D03*
%TO.P,uC1,35,38_35*%
%TO.N,Net-(J13-Pin_2)*%
X115400000Y-85460000D03*
%TO.P,uC1,36,39_36*%
%TO.N,Net-(J12-Pin_2)*%
X115400000Y-82920000D03*
%TO.P,uC1,37,40_37*%
%TO.N,Net-(J11-Pin_2)*%
X115400000Y-80380000D03*
%TO.P,uC1,38,41_38*%
%TO.N,Net-(J6-Pin_2)*%
X115400000Y-77840000D03*
%TO.P,uC1,39,42_39*%
%TO.N,Net-(uC1-42)*%
X115400000Y-75300000D03*
%TO.P,uC1,40,2_40*%
%TO.N,Net-(uC1-2)*%
X115400000Y-72760000D03*
%TO.P,uC1,41,1_41*%
%TO.N,Net-(D1-K)*%
X115400000Y-70220000D03*
%TO.P,uC1,42,RX_42*%
%TO.N,Net-(UART2-RX)*%
X115400000Y-67680000D03*
%TO.P,uC1,43,TX_43*%
%TO.N,Net-(UART2-TX)*%
X115400000Y-65140000D03*
%TO.P,uC1,44,GND_44*%
%TO.N,GND*%
X115400000Y-62600000D03*
%TD*%
D19*
%TO.P,RV1,1,1_1*%
%TO.N,Net-(C6-Pad2)*%
X91500000Y-52000000D03*
D20*
%TO.P,RV1,2,2_2*%
%TO.N,GND*%
X91500000Y-47000000D03*
%TO.P,RV1,3,3_3*%
X91500000Y-42000000D03*
%TD*%
D21*
%TO.P,C6,1*%
%TO.N,Net-(J1-Pin_4)*%
X79000000Y-52000000D03*
D10*
%TO.P,C6,2*%
%TO.N,Net-(C6-Pad2)*%
X81500000Y-52000000D03*
%TD*%
D22*
%TO.P,C3,1*%
%TO.N,Net-(D2-K)*%
X94000000Y-27794887D03*
D10*
%TO.P,C3,2*%
%TO.N,GND*%
X94000000Y-30294887D03*
%TD*%
D13*
%TO.P,J11,1,Pin_1_1*%
%TO.N,GND*%
X122920000Y-86000000D03*
D14*
%TO.P,J11,2,Pin_2_2*%
%TO.N,Net-(J11-Pin_2)*%
X125460000Y-86000000D03*
%TO.P,J11,3,Pin_3_3*%
%TO.N,+3V3*%
X128000000Y-86000000D03*
%TD*%
D10*
%TO.P,R4,1*%
%TO.N,Net-(C1-Pad1)*%
X115150000Y-34000000D03*
%TO.P,R4,2*%
%TO.N,GND*%
X127850000Y-34000000D03*
%TD*%
%TO.P,R5,1*%
%TO.N,Net-(R5-Pad1)*%
X99650000Y-34000000D03*
%TO.P,R5,2*%
%TO.N,Net-(C1-Pad1)*%
X112350000Y-34000000D03*
%TD*%
%TO.P,C1,1*%
%TO.N,Net-(C1-Pad1)*%
X112500000Y-30000000D03*
%TO.P,C1,2*%
%TO.N,Net-(D1-K)*%
X112500000Y-27500000D03*
%TD*%
%TO.P,C4,1*%
%TO.N,Net-(C4-Pad1)*%
X116250000Y-38500000D03*
%TO.P,C4,2*%
%TO.N,GND*%
X118750000Y-38500000D03*
%TD*%
%TO.P,R14,1*%
%TO.N,GND*%
X126500000Y-75000000D03*
%TO.P,R14,2*%
%TO.N,Net-(uC1-42)*%
X126500000Y-62300000D03*
%TD*%
%TO.P,R6,1*%
%TO.N,Net-(J1-Pin_2)*%
X84150000Y-34000000D03*
%TO.P,R6,2*%
%TO.N,Net-(R5-Pad1)*%
X96850000Y-34000000D03*
%TD*%
%TO.P,C5,1*%
%TO.N,Net-(C5-Pad1)*%
X99750000Y-38500000D03*
%TO.P,C5,2*%
%TO.N,GND*%
X102250000Y-38500000D03*
%TD*%
D13*
%TO.P,J5,1,Pin_1_1*%
%TO.N,Net-(J5-Pin_1)*%
X120500000Y-116000000D03*
D14*
%TO.P,J5,2,Pin_2_2*%
%TO.N,Net-(J5-Pin_2)*%
X123040000Y-116000000D03*
%TO.P,J5,3,Pin_3_3*%
%TO.N,Net-(J5-Pin_3)*%
X125580000Y-116000000D03*
%TO.P,J5,4,Pin_4_4*%
%TO.N,Net-(J5-Pin_4)*%
X128120000Y-116000000D03*
%TD*%
D15*
%TO.P,D1,1,K_1*%
%TO.N,Net-(D1-K)*%
X120380000Y-29000000D03*
D16*
%TO.P,D1,2,A_2*%
%TO.N,GND*%
X128000000Y-29000000D03*
%TD*%
D13*
%TO.P,UART0,1,GND_1*%
%TO.N,GND*%
X77500000Y-70000000D03*
D14*
%TO.P,UART0,2,RX_2*%
%TO.N,Net-(UART0-RX)*%
X77500000Y-67460000D03*
%TO.P,UART0,3,TX_3*%
%TO.N,Net-(UART0-TX)*%
X77500000Y-64920000D03*
%TO.P,UART0,4,VCC_4*%
%TO.N,+3V3*%
X77500000Y-62380000D03*
%TD*%
D13*
%TO.P,UART1,1,GND_1*%
%TO.N,GND*%
X77500000Y-100000000D03*
D14*
%TO.P,UART1,2,RX_2*%
%TO.N,Net-(UART1-RX)*%
X77500000Y-97460000D03*
%TO.P,UART1,3,TX_3*%
%TO.N,Net-(UART1-TX)*%
X77500000Y-94920000D03*
%TO.P,UART1,4,VCC_4*%
%TO.N,+3V3*%
X77500000Y-92380000D03*
%TD*%
D23*
%TO.N,+3V3*%
X125500000Y-95000000D03*
X113500000Y-94000000D03*
X113000000Y-91500000D03*
%TD*%
%TO.N,Net-(C4-Pad1)*%
D24*
X116000000Y-41300000D02*
X110500000Y-41300000D01*
X116250000Y-41050000D02*
X116000000Y-41300000D01*
X116250000Y-38500000D02*
X116250000Y-41050000D01*
%TO.N,Net-(R10-Pad2)*%
X110500000Y-54000000D02*
X105000000Y-54000000D01*
%TO.N,Net-(C5-Pad1)*%
X99750000Y-38500000D02*
X99750000Y-41050000D01*
X99750000Y-41050000D02*
X99500000Y-41300000D01*
X105000000Y-41300000D02*
X99500000Y-41300000D01*
%TO.N,+3V3*%
D25*
X91680000Y-83820000D02*
X91430000Y-84070000D01*
X113000000Y-88140000D02*
X91680000Y-66820000D01*
X91430000Y-84070000D02*
X85810000Y-84070000D01*
X85810000Y-84070000D02*
X77500000Y-92380000D01*
X127500000Y-95000000D02*
X129000000Y-96500000D01*
X129000000Y-97000000D02*
X128000000Y-98000000D01*
X113500000Y-94000000D02*
X113000000Y-93500000D01*
X91680000Y-66820000D02*
X91680000Y-83820000D01*
X91680000Y-66820000D02*
X90000000Y-65140000D01*
X113000000Y-91500000D02*
X113000000Y-88140000D01*
X129000000Y-96500000D02*
X129000000Y-97000000D01*
X125500000Y-95000000D02*
X127500000Y-95000000D01*
X113000000Y-93500000D02*
X113000000Y-91500000D01*
%TO.N,Net-(D2-K)*%
D24*
X99685000Y-24035000D02*
X99650000Y-24000000D01*
X86294887Y-27794887D02*
X86000000Y-27500000D01*
X99650000Y-24000000D02*
X96850000Y-24000000D01*
X96850000Y-24000000D02*
X96850000Y-24944887D01*
X99685000Y-29000000D02*
X99685000Y-24035000D01*
X94000000Y-27794887D02*
X86294887Y-27794887D01*
X96850000Y-24944887D02*
X94000000Y-27794887D01*
%TO.N,GND*%
X91500000Y-42000000D02*
X91500000Y-47000000D01*
%TO.N,Net-(J1-Pin_2)*%
X84150000Y-31950000D02*
X80000000Y-27800000D01*
X84150000Y-34000000D02*
X84150000Y-31950000D01*
%TO.N,Net-(J1-Pin_3)*%
X77500000Y-34500000D02*
X80000000Y-32000000D01*
X80000000Y-44460000D02*
X77500000Y-41960000D01*
X77500000Y-41960000D02*
X77500000Y-34500000D01*
%TO.N,Net-(J1-Pin_4)*%
X80000000Y-36200000D02*
X83000000Y-39200000D01*
X83000000Y-48000000D02*
X79000000Y-52000000D01*
X83000000Y-39200000D02*
X83000000Y-48000000D01*
%TO.N,Net-(uC1-2)*%
X111500000Y-61000000D02*
X111500000Y-68860000D01*
X121500000Y-41300000D02*
X113500000Y-49300000D01*
X113500000Y-59000000D02*
X111500000Y-61000000D01*
X111500000Y-68860000D02*
X115400000Y-72760000D01*
X113500000Y-49300000D02*
X113500000Y-59000000D01*
D25*
X115400000Y-72760000D02*
X114760000Y-72760000D01*
%TO.N,Net-(R8-Pad2)*%
D24*
X116000000Y-54000000D02*
X121500000Y-54000000D01*
%TO.N,Net-(J4-Pin_1)*%
D26*
X86400000Y-104300000D02*
X86400000Y-107500000D01*
X81064975Y-112395025D02*
X85500000Y-112395025D01*
X77460000Y-116000000D02*
X81064975Y-112395025D01*
D25*
X86400000Y-111922282D02*
X85927257Y-112395025D01*
X86400000Y-107500000D02*
X86400000Y-111922282D01*
D26*
X90000000Y-100700000D02*
X86400000Y-104300000D01*
D25*
X85927257Y-112395025D02*
X85500000Y-112395025D01*
%TO.N,Net-(J4-Pin_2)*%
D26*
X82904975Y-113095025D02*
X80000000Y-116000000D01*
X86005075Y-113095025D02*
X82904975Y-113095025D01*
X87100000Y-112000100D02*
X86005075Y-113095025D01*
X90000000Y-103240000D02*
X87100000Y-106140000D01*
X87100000Y-106140000D02*
X87100000Y-112000100D01*
%TO.N,Net-(J4-Pin_3)*%
X86295025Y-113795025D02*
X84744975Y-113795025D01*
X90000000Y-105780000D02*
X87800000Y-107980000D01*
X87800000Y-112290050D02*
X86295025Y-113795025D01*
X87800000Y-107980000D02*
X87800000Y-112290050D01*
X84744975Y-113795025D02*
X82540000Y-116000000D01*
%TO.N,Net-(J4-Pin_4)*%
X88500000Y-112580000D02*
X85080000Y-116000000D01*
X88500000Y-109820000D02*
X88500000Y-112580000D01*
X90000000Y-108320000D02*
X88500000Y-109820000D01*
%TO.N,Net-(uC1-42)*%
X126500000Y-62300000D02*
X126500000Y-69500000D01*
X126500000Y-69500000D02*
X120700000Y-75300000D01*
X120700000Y-75300000D02*
X115400000Y-75300000D01*
%TO.N,Net-(J13-Pin_2)*%
X121500000Y-94040000D02*
X121500000Y-94000000D01*
X121500000Y-94000000D02*
X120500000Y-93000000D01*
X120500000Y-93000000D02*
X120500000Y-90560000D01*
X125460000Y-98000000D02*
X121500000Y-94040000D01*
X120500000Y-90560000D02*
X115400000Y-85460000D01*
%TO.N,Net-(Q1-B)*%
D25*
X79500000Y-45730000D02*
X80000000Y-45730000D01*
D24*
X76500000Y-47930000D02*
X78700000Y-45730000D01*
X81650000Y-59650000D02*
X76500000Y-54500000D01*
X78700000Y-45730000D02*
X80000000Y-45730000D01*
X76500000Y-54500000D02*
X76500000Y-47930000D01*
X83500000Y-59650000D02*
X81650000Y-59650000D01*
%TO.N,Net-(J8-Pin_1)*%
D26*
X120015076Y-110000000D02*
X120500000Y-110000000D01*
X115400000Y-105780000D02*
X115795076Y-105780000D01*
X115795076Y-105780000D02*
X120015076Y-110000000D01*
%TO.N,Net-(J8-Pin_2)*%
X119005026Y-108000000D02*
X121040000Y-108000000D01*
X117100000Y-106094974D02*
X119005026Y-108000000D01*
X115400000Y-103240000D02*
X117100000Y-104940000D01*
X117100000Y-104940000D02*
X117100000Y-106094974D01*
X121740000Y-108700000D02*
X121800000Y-108700000D01*
X121040000Y-108000000D02*
X121740000Y-108700000D01*
X121800000Y-108700000D02*
X121800000Y-108760000D01*
X121800000Y-108760000D02*
X123040000Y-110000000D01*
%TO.N,Net-(J8-Pin_3)*%
X115400000Y-100700000D02*
X117800000Y-103100000D01*
X119300000Y-107300000D02*
X122880000Y-107300000D01*
X122880000Y-107300000D02*
X125580000Y-110000000D01*
X117800000Y-103100000D02*
X117800000Y-105800000D01*
X117800000Y-105800000D02*
X119300000Y-107300000D01*
%TO.N,Net-(J8-Pin_4)*%
X118500000Y-101260000D02*
X118500000Y-105500000D01*
X119500000Y-106500000D02*
X124620000Y-106500000D01*
X118500000Y-105500000D02*
X119500000Y-106500000D01*
X124620000Y-106500000D02*
X128120000Y-110000000D01*
X115400000Y-98160000D02*
X118500000Y-101260000D01*
%TO.N,Net-(J12-Pin_2)*%
X116380000Y-82920000D02*
X115400000Y-82920000D01*
X125460000Y-92000000D02*
X116380000Y-82920000D01*
%TO.N,Net-(D1-K)*%
D24*
X124000000Y-55000000D02*
X119500000Y-59500000D01*
X119500000Y-59500000D02*
X115000000Y-59500000D01*
X109000000Y-29000000D02*
X110500000Y-27500000D01*
X112500000Y-24150000D02*
X112350000Y-24000000D01*
X112350000Y-24000000D02*
X115150000Y-24000000D01*
X124000000Y-32620000D02*
X124000000Y-55000000D01*
X107305000Y-29000000D02*
X109000000Y-29000000D01*
X115380000Y-24000000D02*
X120380000Y-29000000D01*
X113000000Y-61500000D02*
X113000000Y-67820000D01*
X115150000Y-24000000D02*
X115380000Y-24000000D01*
X110500000Y-27500000D02*
X112500000Y-27500000D01*
X120380000Y-29000000D02*
X124000000Y-32620000D01*
X112500000Y-27500000D02*
X112500000Y-24150000D01*
X115000000Y-59500000D02*
X113000000Y-61500000D01*
X113000000Y-67820000D02*
X115400000Y-70220000D01*
%TO.N,Net-(J2-Pin_1)*%
D26*
X87500000Y-70180000D02*
X90000000Y-67680000D01*
X79000000Y-78000000D02*
X81000000Y-78000000D01*
X81000000Y-78000000D02*
X87500000Y-71500000D01*
X87500000Y-71500000D02*
X87500000Y-70180000D01*
X77500000Y-80500000D02*
X77500000Y-79500000D01*
X77500000Y-79500000D02*
X79000000Y-78000000D01*
%TO.N,Net-(J2-Pin_2)*%
X80040000Y-80500000D02*
X80040000Y-79960000D01*
X89780000Y-70220000D02*
X90000000Y-70220000D01*
X80040000Y-79960000D02*
X89780000Y-70220000D01*
%TO.N,Net-(J2-Pin_3)*%
X82580000Y-80500000D02*
X82580000Y-78409950D01*
X85689950Y-75300000D02*
X90000000Y-75300000D01*
X82580000Y-78409950D02*
X85689950Y-75300000D01*
%TO.N,Net-(J2-Pin_4)*%
X86660000Y-77840000D02*
X90000000Y-77840000D01*
X85120000Y-80500000D02*
X85120000Y-79380000D01*
X85120000Y-79380000D02*
X86660000Y-77840000D01*
%TO.N,Net-(UART2-RX)*%
X120500000Y-67960000D02*
X115680000Y-67960000D01*
X115680000Y-67960000D02*
X115400000Y-67680000D01*
%TO.N,Net-(UART2-TX)*%
X120500000Y-65420000D02*
X115680000Y-65420000D01*
X115680000Y-65420000D02*
X115400000Y-65140000D01*
%TO.N,Net-(J6-Pin_2)*%
X125460000Y-80000000D02*
X123300000Y-77840000D01*
X123300000Y-77840000D02*
X115400000Y-77840000D01*
%TO.N,Net-(C6-Pad2)*%
D24*
X81500000Y-52000000D02*
X91500000Y-52000000D01*
X93500000Y-54000000D02*
X91500000Y-52000000D01*
X99500000Y-54000000D02*
X93500000Y-54000000D01*
%TO.N,Net-(J3-Pin_1)*%
D26*
X90000000Y-90540000D02*
X77500000Y-103040000D01*
X77500000Y-103040000D02*
X77500000Y-110000000D01*
%TO.N,Net-(J3-Pin_2)*%
X90000000Y-93080000D02*
X80040000Y-103040000D01*
X80040000Y-103040000D02*
X80040000Y-110000000D01*
%TO.N,Net-(J3-Pin_3)*%
X82580000Y-103040000D02*
X82580000Y-110000000D01*
X90000000Y-95620000D02*
X82580000Y-103040000D01*
%TO.N,Net-(J3-Pin_4)*%
X90000000Y-98160000D02*
X85120000Y-103040000D01*
X85120000Y-103040000D02*
X85120000Y-110000000D01*
%TO.N,Net-(J7-Pin_1)*%
X117700000Y-99189949D02*
X120420000Y-101909949D01*
X120420000Y-101909949D02*
X120420000Y-104000000D01*
X117700000Y-97920000D02*
X117700000Y-99189949D01*
X115400000Y-95620000D02*
X117700000Y-97920000D01*
%TO.N,Net-(J7-Pin_2)*%
X118400000Y-96080000D02*
X115400000Y-93080000D01*
X118400000Y-98900000D02*
X118400000Y-96080000D01*
X122960000Y-103460000D02*
X121000000Y-101500000D01*
X121000000Y-101500000D02*
X121000000Y-101479898D01*
X118420101Y-98900000D02*
X118400000Y-98900000D01*
X121000000Y-101479898D02*
X118420101Y-98900000D01*
X122960000Y-104000000D02*
X122960000Y-103460000D01*
%TO.N,Net-(J7-Pin_3)*%
X119100000Y-98589950D02*
X121235026Y-100724975D01*
X122224975Y-100724975D02*
X125500000Y-104000000D01*
X121235026Y-100724975D02*
X122224975Y-100724975D01*
X119100000Y-94240000D02*
X119100000Y-98589950D01*
X115400000Y-90540000D02*
X119100000Y-94240000D01*
%TO.N,Net-(J7-Pin_4)*%
X115400000Y-88000000D02*
X119800000Y-92400000D01*
X119800000Y-92400000D02*
X119800000Y-98300000D01*
X124040000Y-100000000D02*
X128040000Y-104000000D01*
X119800000Y-98300000D02*
X121500000Y-100000000D01*
X121500000Y-100000000D02*
X124040000Y-100000000D01*
%TO.N,Net-(J5-Pin_2)*%
X121800000Y-117300000D02*
X121800000Y-117240000D01*
X90000000Y-113400000D02*
X94800000Y-118200000D01*
X94800000Y-118200000D02*
X120840000Y-118200000D01*
X121800000Y-117240000D02*
X123040000Y-116000000D01*
X121740000Y-117300000D02*
X121800000Y-117300000D01*
X120840000Y-118200000D02*
X121740000Y-117300000D01*
%TO.N,Net-(J5-Pin_1)*%
X119000000Y-117500000D02*
X96640000Y-117500000D01*
X120500000Y-116000000D02*
X119000000Y-117500000D01*
X96640000Y-117500000D02*
X90000000Y-110860000D01*
%TO.N,Net-(UART1-TX)*%
X80540000Y-94920000D02*
X77500000Y-94920000D01*
X90000000Y-85460000D02*
X80540000Y-94920000D01*
%TO.N,Net-(UART1-RX)*%
X90000000Y-88000000D02*
X80540000Y-97460000D01*
X80540000Y-97460000D02*
X77500000Y-97460000D01*
%TO.N,Net-(J5-Pin_3)*%
X125580000Y-116000000D02*
X122780000Y-113200000D01*
X117740000Y-113200000D02*
X115400000Y-110860000D01*
X122780000Y-113200000D02*
X117740000Y-113200000D01*
%TO.N,Net-(J5-Pin_4)*%
X115400000Y-108320000D02*
X119580000Y-112500000D01*
X128000000Y-116000000D02*
X128120000Y-116000000D01*
X119580000Y-112500000D02*
X124500000Y-112500000D01*
X124500000Y-112500000D02*
X128000000Y-116000000D01*
%TO.N,Net-(J11-Pin_2)*%
X119840000Y-80380000D02*
X115400000Y-80380000D01*
X125460000Y-86000000D02*
X119840000Y-80380000D01*
%TO.N,Net-(C1-Pad1)*%
D24*
X115150000Y-34000000D02*
X112350000Y-34000000D01*
X112500000Y-30000000D02*
X112500000Y-33850000D01*
X112500000Y-33850000D02*
X112350000Y-34000000D01*
%TO.N,Net-(R5-Pad1)*%
X96850000Y-34000000D02*
X99650000Y-34000000D01*
%TD*%
%TA.AperFunction,Conductor*%
%TO.N,+3V3*%
G36*
X129942539Y-20520185D02*
G01*
X129988294Y-20572989D01*
X129999500Y-20624500D01*
X129999500Y-119375500D01*
X129979815Y-119442539D01*
X129927011Y-119488294D01*
X129875500Y-119499500D01*
X75624500Y-119499500D01*
X75557461Y-119479815D01*
X75511706Y-119427011D01*
X75500500Y-119375500D01*
X75500500Y-115102135D01*
X76109500Y-115102135D01*
X76109500Y-116897870D01*
X76109501Y-116897876D01*
X76115908Y-116957483D01*
X76166202Y-117092328D01*
X76166206Y-117092335D01*
X76252452Y-117207544D01*
X76252455Y-117207547D01*
X76367664Y-117293793D01*
X76367671Y-117293797D01*
X76502517Y-117344091D01*
X76502516Y-117344091D01*
X76509444Y-117344835D01*
X76562127Y-117350500D01*
X78357872Y-117350499D01*
X78417483Y-117344091D01*
X78552331Y-117293796D01*
X78667546Y-117207546D01*
X78753796Y-117092331D01*
X78802810Y-116960916D01*
X78844681Y-116904984D01*
X78910145Y-116880566D01*
X78978418Y-116895417D01*
X79006673Y-116916569D01*
X79120213Y-117030109D01*
X79292179Y-117155048D01*
X79292181Y-117155049D01*
X79292184Y-117155051D01*
X79481588Y-117251557D01*
X79683757Y-117317246D01*
X79893713Y-117350500D01*
X79893714Y-117350500D01*
X80106286Y-117350500D01*
X80106287Y-117350500D01*
X80316243Y-117317246D01*
X80518412Y-117251557D01*
X80707816Y-117155051D01*
X80794138Y-117092335D01*
X80879786Y-117030109D01*
X80879788Y-117030106D01*
X80879792Y-117030104D01*
X81030104Y-116879792D01*
X81030106Y-116879788D01*
X81030109Y-116879786D01*
X81155048Y-116707820D01*
X81155047Y-116707820D01*
X81155051Y-116707816D01*
X81159514Y-116699054D01*
X81207488Y-116648259D01*
X81275308Y-116631463D01*
X81341444Y-116653999D01*
X81380486Y-116699056D01*
X81384951Y-116707820D01*
X81509890Y-116879786D01*
X81660213Y-117030109D01*
X81832179Y-117155048D01*
X81832181Y-117155049D01*
X81832184Y-117155051D01*
X82021588Y-117251557D01*
X82223757Y-117317246D01*
X82433713Y-117350500D01*
X82433714Y-117350500D01*
X82646286Y-117350500D01*
X82646287Y-117350500D01*
X82856243Y-117317246D01*
X83058412Y-117251557D01*
X83247816Y-117155051D01*
X83334138Y-117092335D01*
X83419786Y-117030109D01*
X83419788Y-117030106D01*
X83419792Y-117030104D01*
X83570104Y-116879792D01*
X83570106Y-116879788D01*
X83570109Y-116879786D01*
X83695048Y-116707820D01*
X83695047Y-116707820D01*
X83695051Y-116707816D01*
X83699514Y-116699054D01*
X83747488Y-116648259D01*
X83815308Y-116631463D01*
X83881444Y-116653999D01*
X83920486Y-116699056D01*
X83924951Y-116707820D01*
X84049890Y-116879786D01*
X84200213Y-117030109D01*
X84372179Y-117155048D01*
X84372181Y-117155049D01*
X84372184Y-117155051D01*
X84561588Y-117251557D01*
X84763757Y-117317246D01*
X84973713Y-117350500D01*
X84973714Y-117350500D01*
X85186286Y-117350500D01*
X85186287Y-117350500D01*
X85396243Y-117317246D01*
X85598412Y-117251557D01*
X85787816Y-117155051D01*
X85874138Y-117092335D01*
X85959786Y-117030109D01*
X85959788Y-117030106D01*
X85959792Y-117030104D01*
X86110104Y-116879792D01*
X86110106Y-116879788D01*
X86110109Y-116879786D01*
X86235048Y-116707820D01*
X86235047Y-116707820D01*
X86235051Y-116707816D01*
X86331557Y-116518412D01*
X86397246Y-116316243D01*
X86430500Y-116106287D01*
X86430500Y-115893713D01*
X86415382Y-115798268D01*
X86424336Y-115728979D01*
X86450171Y-115691195D01*
X88476493Y-113664873D01*
X88537814Y-113631390D01*
X88607506Y-113636374D01*
X88663439Y-113678246D01*
X88682103Y-113714238D01*
X88682753Y-113716240D01*
X88682754Y-113716243D01*
X88738730Y-113888518D01*
X88748444Y-113918414D01*
X88844951Y-114107820D01*
X88969890Y-114279786D01*
X89083430Y-114393326D01*
X89116915Y-114454649D01*
X89111931Y-114524341D01*
X89070059Y-114580274D01*
X89039083Y-114597189D01*
X88907669Y-114646203D01*
X88907664Y-114646206D01*
X88792455Y-114732452D01*
X88792452Y-114732455D01*
X88706206Y-114847664D01*
X88706202Y-114847671D01*
X88655908Y-114982517D01*
X88649827Y-115039082D01*
X88649501Y-115042123D01*
X88649500Y-115042135D01*
X88649500Y-116837870D01*
X88649501Y-116837876D01*
X88655908Y-116897483D01*
X88706202Y-117032328D01*
X88706206Y-117032335D01*
X88792452Y-117147544D01*
X88792455Y-117147547D01*
X88907664Y-117233793D01*
X88907671Y-117233797D01*
X89042517Y-117284091D01*
X89042516Y-117284091D01*
X89049444Y-117284835D01*
X89102127Y-117290500D01*
X90897872Y-117290499D01*
X90957483Y-117284091D01*
X91092331Y-117233796D01*
X91207546Y-117147546D01*
X91293796Y-117032331D01*
X91344091Y-116897483D01*
X91350500Y-116837873D01*
X91350499Y-116111228D01*
X91370183Y-116044190D01*
X91422987Y-115998435D01*
X91492146Y-115988491D01*
X91555702Y-116017516D01*
X91562180Y-116023548D01*
X92907467Y-117368834D01*
X94217049Y-118678416D01*
X94321583Y-118782950D01*
X94321585Y-118782952D01*
X94444498Y-118865080D01*
X94444511Y-118865087D01*
X94581082Y-118921656D01*
X94581087Y-118921658D01*
X94581091Y-118921658D01*
X94581092Y-118921659D01*
X94726079Y-118950500D01*
X94726082Y-118950500D01*
X120913920Y-118950500D01*
X121011462Y-118931096D01*
X121058913Y-118921658D01*
X121195495Y-118865084D01*
X121244729Y-118832186D01*
X121318416Y-118782952D01*
X122105258Y-117996107D01*
X122145487Y-117969228D01*
X122155495Y-117965084D01*
X122278416Y-117882951D01*
X122382951Y-117778416D01*
X122465084Y-117655495D01*
X122469229Y-117645487D01*
X122496106Y-117605260D01*
X122731194Y-117370172D01*
X122792515Y-117336689D01*
X122838265Y-117335382D01*
X122933713Y-117350500D01*
X122933715Y-117350500D01*
X123146286Y-117350500D01*
X123146287Y-117350500D01*
X123356243Y-117317246D01*
X123558412Y-117251557D01*
X123747816Y-117155051D01*
X123834138Y-117092335D01*
X123919786Y-117030109D01*
X123919788Y-117030106D01*
X123919792Y-117030104D01*
X124070104Y-116879792D01*
X124070106Y-116879788D01*
X124070109Y-116879786D01*
X124195048Y-116707820D01*
X124195047Y-116707820D01*
X124195051Y-116707816D01*
X124199514Y-116699054D01*
X124247488Y-116648259D01*
X124315308Y-116631463D01*
X124381444Y-116653999D01*
X124420486Y-116699056D01*
X124424951Y-116707820D01*
X124549890Y-116879786D01*
X124700213Y-117030109D01*
X124872179Y-117155048D01*
X124872181Y-117155049D01*
X124872184Y-117155051D01*
X125061588Y-117251557D01*
X125263757Y-117317246D01*
X125473713Y-117350500D01*
X125473714Y-117350500D01*
X125686286Y-117350500D01*
X125686287Y-117350500D01*
X125896243Y-117317246D01*
X126098412Y-117251557D01*
X126287816Y-117155051D01*
X126374138Y-117092335D01*
X126459786Y-117030109D01*
X126459788Y-117030106D01*
X126459792Y-117030104D01*
X126610104Y-116879792D01*
X126610106Y-116879788D01*
X126610109Y-116879786D01*
X126735048Y-116707820D01*
X126735047Y-116707820D01*
X126735051Y-116707816D01*
X126739514Y-116699054D01*
X126787488Y-116648259D01*
X126855308Y-116631463D01*
X126921444Y-116653999D01*
X126960486Y-116699056D01*
X126964951Y-116707820D01*
X127089890Y-116879786D01*
X127240213Y-117030109D01*
X127412179Y-117155048D01*
X127412181Y-117155049D01*
X127412184Y-117155051D01*
X127601588Y-117251557D01*
X127803757Y-117317246D01*
X128013713Y-117350500D01*
X128013714Y-117350500D01*
X128226286Y-117350500D01*
X128226287Y-117350500D01*
X128436243Y-117317246D01*
X128638412Y-117251557D01*
X128827816Y-117155051D01*
X128914138Y-117092335D01*
X128999786Y-117030109D01*
X128999788Y-117030106D01*
X128999792Y-117030104D01*
X129150104Y-116879792D01*
X129150106Y-116879788D01*
X129150109Y-116879786D01*
X129275048Y-116707820D01*
X129275047Y-116707820D01*
X129275051Y-116707816D01*
X129371557Y-116518412D01*
X129437246Y-116316243D01*
X129470500Y-116106287D01*
X129470500Y-115893713D01*
X129437246Y-115683757D01*
X129371557Y-115481588D01*
X129275051Y-115292184D01*
X129275049Y-115292181D01*
X129275048Y-115292179D01*
X129150109Y-115120213D01*
X128999786Y-114969890D01*
X128827820Y-114844951D01*
X128638414Y-114748444D01*
X128638413Y-114748443D01*
X128638412Y-114748443D01*
X128436243Y-114682754D01*
X128436241Y-114682753D01*
X128436240Y-114682753D01*
X128274957Y-114657208D01*
X128226287Y-114649500D01*
X128013713Y-114649500D01*
X127926527Y-114663309D01*
X127814679Y-114681024D01*
X127745385Y-114672069D01*
X127707600Y-114646232D01*
X124978421Y-111917052D01*
X124978420Y-111917051D01*
X124938090Y-111890104D01*
X124893784Y-111860500D01*
X124893783Y-111860499D01*
X124855500Y-111834919D01*
X124855488Y-111834912D01*
X124718917Y-111778343D01*
X124718907Y-111778340D01*
X124573920Y-111749500D01*
X124573918Y-111749500D01*
X119942230Y-111749500D01*
X119875191Y-111729815D01*
X119854549Y-111713181D01*
X119703548Y-111562180D01*
X119670063Y-111500857D01*
X119675047Y-111431165D01*
X119716919Y-111375232D01*
X119782383Y-111350815D01*
X119791203Y-111350499D01*
X121397872Y-111350499D01*
X121457483Y-111344091D01*
X121592331Y-111293796D01*
X121707546Y-111207546D01*
X121793796Y-111092331D01*
X121842810Y-110960916D01*
X121884681Y-110904984D01*
X121950145Y-110880566D01*
X122018418Y-110895417D01*
X122046673Y-110916569D01*
X122160213Y-111030109D01*
X122332179Y-111155048D01*
X122332181Y-111155049D01*
X122332184Y-111155051D01*
X122521588Y-111251557D01*
X122723757Y-111317246D01*
X122933713Y-111350500D01*
X122933714Y-111350500D01*
X123146286Y-111350500D01*
X123146287Y-111350500D01*
X123356243Y-111317246D01*
X123558412Y-111251557D01*
X123747816Y-111155051D01*
X123834138Y-111092335D01*
X123919786Y-111030109D01*
X123919788Y-111030106D01*
X123919792Y-111030104D01*
X124070104Y-110879792D01*
X124070106Y-110879788D01*
X124070109Y-110879786D01*
X124195048Y-110707820D01*
X124195047Y-110707820D01*
X124195051Y-110707816D01*
X124199514Y-110699054D01*
X124247488Y-110648259D01*
X124315308Y-110631463D01*
X124381444Y-110653999D01*
X124420486Y-110699056D01*
X124424951Y-110707820D01*
X124549890Y-110879786D01*
X124700213Y-111030109D01*
X124872179Y-111155048D01*
X124872181Y-111155049D01*
X124872184Y-111155051D01*
X125061588Y-111251557D01*
X125263757Y-111317246D01*
X125473713Y-111350500D01*
X125473714Y-111350500D01*
X125686286Y-111350500D01*
X125686287Y-111350500D01*
X125896243Y-111317246D01*
X126098412Y-111251557D01*
X126287816Y-111155051D01*
X126374138Y-111092335D01*
X126459786Y-111030109D01*
X126459788Y-111030106D01*
X126459792Y-111030104D01*
X126610104Y-110879792D01*
X126610106Y-110879788D01*
X126610109Y-110879786D01*
X126735048Y-110707820D01*
X126735047Y-110707820D01*
X126735051Y-110707816D01*
X126739514Y-110699054D01*
X126787488Y-110648259D01*
X126855308Y-110631463D01*
X126921444Y-110653999D01*
X126960486Y-110699056D01*
X126964951Y-110707820D01*
X127089890Y-110879786D01*
X127240213Y-111030109D01*
X127412179Y-111155048D01*
X127412181Y-111155049D01*
X127412184Y-111155051D01*
X127601588Y-111251557D01*
X127803757Y-111317246D01*
X128013713Y-111350500D01*
X128013714Y-111350500D01*
X128226286Y-111350500D01*
X128226287Y-111350500D01*
X128436243Y-111317246D01*
X128638412Y-111251557D01*
X128827816Y-111155051D01*
X128914138Y-111092335D01*
X128999786Y-111030109D01*
X128999788Y-111030106D01*
X128999792Y-111030104D01*
X129150104Y-110879792D01*
X129150106Y-110879788D01*
X129150109Y-110879786D01*
X129275048Y-110707820D01*
X129275047Y-110707820D01*
X129275051Y-110707816D01*
X129371557Y-110518412D01*
X129437246Y-110316243D01*
X129470500Y-110106287D01*
X129470500Y-109893713D01*
X129437246Y-109683757D01*
X129371557Y-109481588D01*
X129275051Y-109292184D01*
X129275049Y-109292181D01*
X129275048Y-109292179D01*
X129150109Y-109120213D01*
X128999786Y-108969890D01*
X128827820Y-108844951D01*
X128638414Y-108748444D01*
X128638413Y-108748443D01*
X128638412Y-108748443D01*
X128436243Y-108682754D01*
X128436241Y-108682753D01*
X128436240Y-108682753D01*
X128274957Y-108657208D01*
X128226287Y-108649500D01*
X128013713Y-108649500D01*
X128013708Y-108649500D01*
X127918270Y-108664616D01*
X127848977Y-108655662D01*
X127811191Y-108629824D01*
X125098421Y-105917052D01*
X125098414Y-105917046D01*
X125024729Y-105867812D01*
X125024729Y-105867813D01*
X124975491Y-105834913D01*
X124838917Y-105778343D01*
X124838907Y-105778340D01*
X124693920Y-105749500D01*
X124693918Y-105749500D01*
X119862229Y-105749500D01*
X119795190Y-105729815D01*
X119774552Y-105713185D01*
X119623546Y-105562179D01*
X119590063Y-105500857D01*
X119595047Y-105431165D01*
X119636919Y-105375232D01*
X119702383Y-105350815D01*
X119711203Y-105350499D01*
X121317872Y-105350499D01*
X121377483Y-105344091D01*
X121512331Y-105293796D01*
X121627546Y-105207546D01*
X121713796Y-105092331D01*
X121762810Y-104960916D01*
X121804681Y-104904984D01*
X121870145Y-104880566D01*
X121938418Y-104895417D01*
X121966673Y-104916569D01*
X122080213Y-105030109D01*
X122252179Y-105155048D01*
X122252181Y-105155049D01*
X122252184Y-105155051D01*
X122441588Y-105251557D01*
X122643757Y-105317246D01*
X122853713Y-105350500D01*
X122853714Y-105350500D01*
X123066286Y-105350500D01*
X123066287Y-105350500D01*
X123276243Y-105317246D01*
X123478412Y-105251557D01*
X123667816Y-105155051D01*
X123754138Y-105092335D01*
X123839786Y-105030109D01*
X123839788Y-105030106D01*
X123839792Y-105030104D01*
X123990104Y-104879792D01*
X123990106Y-104879788D01*
X123990109Y-104879786D01*
X124115048Y-104707820D01*
X124115047Y-104707820D01*
X124115051Y-104707816D01*
X124119514Y-104699054D01*
X124167488Y-104648259D01*
X124235308Y-104631463D01*
X124301444Y-104653999D01*
X124340486Y-104699056D01*
X124344951Y-104707820D01*
X124469890Y-104879786D01*
X124620213Y-105030109D01*
X124792179Y-105155048D01*
X124792181Y-105155049D01*
X124792184Y-105155051D01*
X124981588Y-105251557D01*
X125183757Y-105317246D01*
X125393713Y-105350500D01*
X125393714Y-105350500D01*
X125606286Y-105350500D01*
X125606287Y-105350500D01*
X125816243Y-105317246D01*
X126018412Y-105251557D01*
X126207816Y-105155051D01*
X126294138Y-105092335D01*
X126379786Y-105030109D01*
X126379788Y-105030106D01*
X126379792Y-105030104D01*
X126530104Y-104879792D01*
X126530106Y-104879788D01*
X126530109Y-104879786D01*
X126655048Y-104707820D01*
X126655047Y-104707820D01*
X126655051Y-104707816D01*
X126659514Y-104699054D01*
X126707488Y-104648259D01*
X126775308Y-104631463D01*
X126841444Y-104653999D01*
X126880486Y-104699056D01*
X126884951Y-104707820D01*
X127009890Y-104879786D01*
X127160213Y-105030109D01*
X127332179Y-105155048D01*
X127332181Y-105155049D01*
X127332184Y-105155051D01*
X127521588Y-105251557D01*
X127723757Y-105317246D01*
X127933713Y-105350500D01*
X127933714Y-105350500D01*
X128146286Y-105350500D01*
X128146287Y-105350500D01*
X128356243Y-105317246D01*
X128558412Y-105251557D01*
X128747816Y-105155051D01*
X128834138Y-105092335D01*
X128919786Y-105030109D01*
X128919788Y-105030106D01*
X128919792Y-105030104D01*
X129070104Y-104879792D01*
X129070106Y-104879788D01*
X129070109Y-104879786D01*
X129195048Y-104707820D01*
X129195047Y-104707820D01*
X129195051Y-104707816D01*
X129291557Y-104518412D01*
X129357246Y-104316243D01*
X129390500Y-104106287D01*
X129390500Y-103893713D01*
X129357246Y-103683757D01*
X129291557Y-103481588D01*
X129195051Y-103292184D01*
X129195049Y-103292181D01*
X129195048Y-103292179D01*
X129070109Y-103120213D01*
X128919786Y-102969890D01*
X128747820Y-102844951D01*
X128558414Y-102748444D01*
X128558413Y-102748443D01*
X128558412Y-102748443D01*
X128356243Y-102682754D01*
X128356241Y-102682753D01*
X128356240Y-102682753D01*
X128194957Y-102657208D01*
X128146287Y-102649500D01*
X127933713Y-102649500D01*
X127933708Y-102649500D01*
X127838270Y-102664616D01*
X127768977Y-102655662D01*
X127731191Y-102629824D01*
X124518421Y-99417052D01*
X124518414Y-99417046D01*
X124418818Y-99350499D01*
X124418817Y-99350499D01*
X124395495Y-99334916D01*
X124395492Y-99334914D01*
X124265659Y-99281136D01*
X124211256Y-99237295D01*
X124189191Y-99171001D01*
X124206470Y-99103302D01*
X124213770Y-99092376D01*
X124213793Y-99092334D01*
X124213796Y-99092331D01*
X124262810Y-98960916D01*
X124304681Y-98904984D01*
X124370145Y-98880566D01*
X124438418Y-98895417D01*
X124466673Y-98916569D01*
X124580213Y-99030109D01*
X124752179Y-99155048D01*
X124752181Y-99155049D01*
X124752184Y-99155051D01*
X124941588Y-99251557D01*
X125143757Y-99317246D01*
X125353713Y-99350500D01*
X125353714Y-99350500D01*
X125566286Y-99350500D01*
X125566287Y-99350500D01*
X125776243Y-99317246D01*
X125978412Y-99251557D01*
X126167816Y-99155051D01*
X126240649Y-99102135D01*
X126339786Y-99030109D01*
X126339788Y-99030106D01*
X126339792Y-99030104D01*
X126490104Y-98879792D01*
X126490106Y-98879788D01*
X126490109Y-98879786D01*
X126557515Y-98787007D01*
X126615051Y-98707816D01*
X126619793Y-98698508D01*
X126667763Y-98647711D01*
X126735583Y-98630911D01*
X126801719Y-98653445D01*
X126840763Y-98698500D01*
X126845373Y-98707547D01*
X126884728Y-98761716D01*
X127517037Y-98129408D01*
X127534075Y-98192993D01*
X127599901Y-98307007D01*
X127692993Y-98400099D01*
X127807007Y-98465925D01*
X127870590Y-98482962D01*
X127238282Y-99115269D01*
X127238282Y-99115270D01*
X127292449Y-99154624D01*
X127481782Y-99251095D01*
X127683870Y-99316757D01*
X127893754Y-99350000D01*
X128106246Y-99350000D01*
X128316127Y-99316757D01*
X128316130Y-99316757D01*
X128518217Y-99251095D01*
X128707554Y-99154622D01*
X128761716Y-99115270D01*
X128761717Y-99115270D01*
X128129408Y-98482962D01*
X128192993Y-98465925D01*
X128307007Y-98400099D01*
X128400099Y-98307007D01*
X128465925Y-98192993D01*
X128482962Y-98129408D01*
X129115270Y-98761717D01*
X129115270Y-98761716D01*
X129154622Y-98707554D01*
X129251095Y-98518217D01*
X129316757Y-98316130D01*
X129316757Y-98316127D01*
X129350000Y-98106246D01*
X129350000Y-97893753D01*
X129316757Y-97683872D01*
X129316757Y-97683869D01*
X129251095Y-97481782D01*
X129154624Y-97292449D01*
X129115270Y-97238282D01*
X129115269Y-97238282D01*
X128482962Y-97870590D01*
X128465925Y-97807007D01*
X128400099Y-97692993D01*
X128307007Y-97599901D01*
X128192993Y-97534075D01*
X128129409Y-97517037D01*
X128761716Y-96884728D01*
X128707550Y-96845375D01*
X128518217Y-96748904D01*
X128316129Y-96683242D01*
X128106246Y-96650000D01*
X127893754Y-96650000D01*
X127683872Y-96683242D01*
X127683869Y-96683242D01*
X127481782Y-96748904D01*
X127292439Y-96845380D01*
X127238282Y-96884727D01*
X127238282Y-96884728D01*
X127870591Y-97517037D01*
X127807007Y-97534075D01*
X127692993Y-97599901D01*
X127599901Y-97692993D01*
X127534075Y-97807007D01*
X127517037Y-97870591D01*
X126884728Y-97238282D01*
X126884727Y-97238282D01*
X126845380Y-97292440D01*
X126845376Y-97292446D01*
X126840760Y-97301505D01*
X126792781Y-97352297D01*
X126724959Y-97369087D01*
X126658826Y-97346543D01*
X126619794Y-97301493D01*
X126615051Y-97292184D01*
X126615049Y-97292181D01*
X126615048Y-97292179D01*
X126490109Y-97120213D01*
X126339786Y-96969890D01*
X126167820Y-96844951D01*
X125978414Y-96748444D01*
X125978413Y-96748443D01*
X125978412Y-96748443D01*
X125776243Y-96682754D01*
X125776241Y-96682753D01*
X125776240Y-96682753D01*
X125614957Y-96657208D01*
X125566287Y-96649500D01*
X125353713Y-96649500D01*
X125353708Y-96649500D01*
X125258271Y-96664616D01*
X125188978Y-96655662D01*
X125151192Y-96629824D01*
X122172132Y-93650764D01*
X122156710Y-93631973D01*
X122097521Y-93543389D01*
X122076644Y-93476711D01*
X122095129Y-93409331D01*
X122147108Y-93362642D01*
X122200620Y-93350499D01*
X123817872Y-93350499D01*
X123877483Y-93344091D01*
X124012331Y-93293796D01*
X124127546Y-93207546D01*
X124213796Y-93092331D01*
X124262810Y-92960916D01*
X124304681Y-92904984D01*
X124370145Y-92880566D01*
X124438418Y-92895417D01*
X124466673Y-92916569D01*
X124580213Y-93030109D01*
X124752179Y-93155048D01*
X124752181Y-93155049D01*
X124752184Y-93155051D01*
X124941588Y-93251557D01*
X125143757Y-93317246D01*
X125353713Y-93350500D01*
X125353714Y-93350500D01*
X125566286Y-93350500D01*
X125566287Y-93350500D01*
X125776243Y-93317246D01*
X125978412Y-93251557D01*
X126167816Y-93155051D01*
X126254138Y-93092335D01*
X126339786Y-93030109D01*
X126339788Y-93030106D01*
X126339792Y-93030104D01*
X126490104Y-92879792D01*
X126490106Y-92879788D01*
X126490109Y-92879786D01*
X126562535Y-92780099D01*
X126615051Y-92707816D01*
X126619793Y-92698508D01*
X126667763Y-92647711D01*
X126735583Y-92630911D01*
X126801719Y-92653445D01*
X126840763Y-92698500D01*
X126845373Y-92707547D01*
X126884728Y-92761716D01*
X127517037Y-92129408D01*
X127534075Y-92192993D01*
X127599901Y-92307007D01*
X127692993Y-92400099D01*
X127807007Y-92465925D01*
X127870590Y-92482962D01*
X127238282Y-93115269D01*
X127238282Y-93115270D01*
X127292449Y-93154624D01*
X127481782Y-93251095D01*
X127683870Y-93316757D01*
X127893754Y-93350000D01*
X128106246Y-93350000D01*
X128316127Y-93316757D01*
X128316130Y-93316757D01*
X128518217Y-93251095D01*
X128707554Y-93154622D01*
X128761716Y-93115270D01*
X128761717Y-93115270D01*
X128129408Y-92482962D01*
X128192993Y-92465925D01*
X128307007Y-92400099D01*
X128400099Y-92307007D01*
X128465925Y-92192993D01*
X128482962Y-92129408D01*
X129115270Y-92761717D01*
X129115270Y-92761716D01*
X129154622Y-92707554D01*
X129251095Y-92518217D01*
X129316757Y-92316130D01*
X129316757Y-92316127D01*
X129350000Y-92106246D01*
X129350000Y-91893753D01*
X129316757Y-91683872D01*
X129316757Y-91683869D01*
X129251095Y-91481782D01*
X129154624Y-91292449D01*
X129115270Y-91238282D01*
X129115269Y-91238282D01*
X128482962Y-91870590D01*
X128465925Y-91807007D01*
X128400099Y-91692993D01*
X128307007Y-91599901D01*
X128192993Y-91534075D01*
X128129409Y-91517037D01*
X128761716Y-90884728D01*
X128707550Y-90845375D01*
X128518217Y-90748904D01*
X128316129Y-90683242D01*
X128106246Y-90650000D01*
X127893754Y-90650000D01*
X127683872Y-90683242D01*
X127683869Y-90683242D01*
X127481782Y-90748904D01*
X127292439Y-90845380D01*
X127238282Y-90884727D01*
X127238282Y-90884728D01*
X127870591Y-91517037D01*
X127807007Y-91534075D01*
X127692993Y-91599901D01*
X127599901Y-91692993D01*
X127534075Y-91807007D01*
X127517037Y-91870591D01*
X126884728Y-91238282D01*
X126884727Y-91238282D01*
X126845380Y-91292440D01*
X126845376Y-91292446D01*
X126840760Y-91301505D01*
X126792781Y-91352297D01*
X126724959Y-91369087D01*
X126658826Y-91346543D01*
X126619794Y-91301493D01*
X126615051Y-91292184D01*
X126615049Y-91292181D01*
X126615048Y-91292179D01*
X126490109Y-91120213D01*
X126339786Y-90969890D01*
X126167820Y-90844951D01*
X125978414Y-90748444D01*
X125978413Y-90748443D01*
X125978412Y-90748443D01*
X125776243Y-90682754D01*
X125776241Y-90682753D01*
X125776240Y-90682753D01*
X125614957Y-90657208D01*
X125566287Y-90649500D01*
X125353713Y-90649500D01*
X125353708Y-90649500D01*
X125258270Y-90664616D01*
X125188977Y-90655662D01*
X125151191Y-90629824D01*
X122083548Y-87562180D01*
X122050063Y-87500857D01*
X122055047Y-87431165D01*
X122096919Y-87375232D01*
X122162383Y-87350815D01*
X122171203Y-87350499D01*
X123817872Y-87350499D01*
X123877483Y-87344091D01*
X124012331Y-87293796D01*
X124127546Y-87207546D01*
X124213796Y-87092331D01*
X124262810Y-86960916D01*
X124304681Y-86904984D01*
X124370145Y-86880566D01*
X124438418Y-86895417D01*
X124466673Y-86916569D01*
X124580213Y-87030109D01*
X124752179Y-87155048D01*
X124752181Y-87155049D01*
X124752184Y-87155051D01*
X124941588Y-87251557D01*
X125143757Y-87317246D01*
X125353713Y-87350500D01*
X125353714Y-87350500D01*
X125566286Y-87350500D01*
X125566287Y-87350500D01*
X125776243Y-87317246D01*
X125978412Y-87251557D01*
X126167816Y-87155051D01*
X126254138Y-87092335D01*
X126339786Y-87030109D01*
X126339788Y-87030106D01*
X126339792Y-87030104D01*
X126490104Y-86879792D01*
X126490106Y-86879788D01*
X126490109Y-86879786D01*
X126575890Y-86761717D01*
X126615051Y-86707816D01*
X126619793Y-86698508D01*
X126667763Y-86647711D01*
X126735583Y-86630911D01*
X126801719Y-86653445D01*
X126840763Y-86698500D01*
X126845373Y-86707547D01*
X126884728Y-86761716D01*
X127517037Y-86129408D01*
X127534075Y-86192993D01*
X127599901Y-86307007D01*
X127692993Y-86400099D01*
X127807007Y-86465925D01*
X127870590Y-86482962D01*
X127238282Y-87115269D01*
X127238282Y-87115270D01*
X127292449Y-87154624D01*
X127481782Y-87251095D01*
X127683870Y-87316757D01*
X127893754Y-87350000D01*
X128106246Y-87350000D01*
X128316127Y-87316757D01*
X128316130Y-87316757D01*
X128518217Y-87251095D01*
X128707554Y-87154622D01*
X128761716Y-87115270D01*
X128761717Y-87115270D01*
X128129408Y-86482962D01*
X128192993Y-86465925D01*
X128307007Y-86400099D01*
X128400099Y-86307007D01*
X128465925Y-86192993D01*
X128482962Y-86129408D01*
X129115270Y-86761717D01*
X129115270Y-86761716D01*
X129154622Y-86707554D01*
X129251095Y-86518217D01*
X129316757Y-86316130D01*
X129316757Y-86316127D01*
X129350000Y-86106246D01*
X129350000Y-85893753D01*
X129316757Y-85683872D01*
X129316757Y-85683869D01*
X129251095Y-85481782D01*
X129154624Y-85292449D01*
X129115270Y-85238282D01*
X129115269Y-85238282D01*
X128482962Y-85870590D01*
X128465925Y-85807007D01*
X128400099Y-85692993D01*
X128307007Y-85599901D01*
X128192993Y-85534075D01*
X128129409Y-85517037D01*
X128761716Y-84884728D01*
X128707550Y-84845375D01*
X128518217Y-84748904D01*
X128316129Y-84683242D01*
X128106246Y-84650000D01*
X127893754Y-84650000D01*
X127683872Y-84683242D01*
X127683869Y-84683242D01*
X127481782Y-84748904D01*
X127292439Y-84845380D01*
X127238282Y-84884727D01*
X127238282Y-84884728D01*
X127870591Y-85517037D01*
X127807007Y-85534075D01*
X127692993Y-85599901D01*
X127599901Y-85692993D01*
X127534075Y-85807007D01*
X127517037Y-85870591D01*
X126884728Y-85238282D01*
X126884727Y-85238282D01*
X126845380Y-85292440D01*
X126845376Y-85292446D01*
X126840760Y-85301505D01*
X126792781Y-85352297D01*
X126724959Y-85369087D01*
X126658826Y-85346543D01*
X126619794Y-85301493D01*
X126615051Y-85292184D01*
X126615049Y-85292181D01*
X126615048Y-85292179D01*
X126490109Y-85120213D01*
X126339786Y-84969890D01*
X126167820Y-84844951D01*
X125978414Y-84748444D01*
X125978413Y-84748443D01*
X125978412Y-84748443D01*
X125776243Y-84682754D01*
X125776241Y-84682753D01*
X125776240Y-84682753D01*
X125614957Y-84657208D01*
X125566287Y-84649500D01*
X125353713Y-84649500D01*
X125353708Y-84649500D01*
X125258270Y-84664616D01*
X125188977Y-84655662D01*
X125151191Y-84629824D01*
X122083548Y-81562180D01*
X122050063Y-81500857D01*
X122055047Y-81431165D01*
X122096919Y-81375232D01*
X122162383Y-81350815D01*
X122171203Y-81350499D01*
X123817872Y-81350499D01*
X123877483Y-81344091D01*
X124012331Y-81293796D01*
X124127546Y-81207546D01*
X124213796Y-81092331D01*
X124262810Y-80960916D01*
X124304681Y-80904984D01*
X124370145Y-80880566D01*
X124438418Y-80895417D01*
X124466673Y-80916569D01*
X124580213Y-81030109D01*
X124752179Y-81155048D01*
X124752181Y-81155049D01*
X124752184Y-81155051D01*
X124941588Y-81251557D01*
X125143757Y-81317246D01*
X125353713Y-81350500D01*
X125353714Y-81350500D01*
X125566286Y-81350500D01*
X125566287Y-81350500D01*
X125776243Y-81317246D01*
X125978412Y-81251557D01*
X126167816Y-81155051D01*
X126254138Y-81092335D01*
X126339786Y-81030109D01*
X126339788Y-81030106D01*
X126339792Y-81030104D01*
X126490104Y-80879792D01*
X126490106Y-80879788D01*
X126490109Y-80879786D01*
X126575890Y-80761717D01*
X126615051Y-80707816D01*
X126619793Y-80698508D01*
X126667763Y-80647711D01*
X126735583Y-80630911D01*
X126801719Y-80653445D01*
X126840763Y-80698500D01*
X126845373Y-80707547D01*
X126884728Y-80761716D01*
X127517037Y-80129408D01*
X127534075Y-80192993D01*
X127599901Y-80307007D01*
X127692993Y-80400099D01*
X127807007Y-80465925D01*
X127870590Y-80482962D01*
X127238282Y-81115269D01*
X127238282Y-81115270D01*
X127292449Y-81154624D01*
X127481782Y-81251095D01*
X127683870Y-81316757D01*
X127893754Y-81350000D01*
X128106246Y-81350000D01*
X128316127Y-81316757D01*
X128316130Y-81316757D01*
X128518217Y-81251095D01*
X128707554Y-81154622D01*
X128761716Y-81115270D01*
X128761717Y-81115270D01*
X128129408Y-80482962D01*
X128192993Y-80465925D01*
X128307007Y-80400099D01*
X128400099Y-80307007D01*
X128465925Y-80192993D01*
X128482962Y-80129408D01*
X129115270Y-80761717D01*
X129115270Y-80761716D01*
X129154622Y-80707554D01*
X129251095Y-80518217D01*
X129316757Y-80316130D01*
X129316757Y-80316127D01*
X129350000Y-80106246D01*
X129350000Y-79893753D01*
X129316757Y-79683872D01*
X129316757Y-79683869D01*
X129251095Y-79481782D01*
X129154624Y-79292449D01*
X129115270Y-79238282D01*
X129115269Y-79238282D01*
X128482962Y-79870590D01*
X128465925Y-79807007D01*
X128400099Y-79692993D01*
X128307007Y-79599901D01*
X128192993Y-79534075D01*
X128129409Y-79517037D01*
X128761716Y-78884728D01*
X128707550Y-78845375D01*
X128518217Y-78748904D01*
X128316129Y-78683242D01*
X128106246Y-78650000D01*
X127893754Y-78650000D01*
X127683872Y-78683242D01*
X127683869Y-78683242D01*
X127481782Y-78748904D01*
X127292439Y-78845380D01*
X127238282Y-78884727D01*
X127238282Y-78884728D01*
X127870591Y-79517037D01*
X127807007Y-79534075D01*
X127692993Y-79599901D01*
X127599901Y-79692993D01*
X127534075Y-79807007D01*
X127517037Y-79870591D01*
X126884728Y-79238282D01*
X126884727Y-79238282D01*
X126845380Y-79292440D01*
X126845376Y-79292446D01*
X126840760Y-79301505D01*
X126792781Y-79352297D01*
X126724959Y-79369087D01*
X126658826Y-79346543D01*
X126619794Y-79301493D01*
X126615051Y-79292184D01*
X126615049Y-79292181D01*
X126615048Y-79292179D01*
X126490109Y-79120213D01*
X126339786Y-78969890D01*
X126167820Y-78844951D01*
X125978414Y-78748444D01*
X125978413Y-78748443D01*
X125978412Y-78748443D01*
X125776243Y-78682754D01*
X125776241Y-78682753D01*
X125776240Y-78682753D01*
X125614957Y-78657208D01*
X125566287Y-78649500D01*
X125353713Y-78649500D01*
X125353708Y-78649500D01*
X125258270Y-78664616D01*
X125188977Y-78655662D01*
X125151191Y-78629824D01*
X123778418Y-77257049D01*
X123778416Y-77257047D01*
X123729092Y-77224091D01*
X123696355Y-77202218D01*
X123655495Y-77174916D01*
X123655494Y-77174915D01*
X123655492Y-77174914D01*
X123655490Y-77174913D01*
X123518917Y-77118343D01*
X123518907Y-77118340D01*
X123373920Y-77089500D01*
X123373918Y-77089500D01*
X116587221Y-77089500D01*
X116520182Y-77069815D01*
X116486903Y-77038385D01*
X116430107Y-76960211D01*
X116279786Y-76809890D01*
X116107820Y-76684951D01*
X116107115Y-76684591D01*
X116099054Y-76680485D01*
X116048259Y-76632512D01*
X116031463Y-76564692D01*
X116053999Y-76498556D01*
X116099054Y-76459515D01*
X116107816Y-76455051D01*
X116129789Y-76439086D01*
X116279786Y-76330109D01*
X116279788Y-76330106D01*
X116279792Y-76330104D01*
X116430104Y-76179792D01*
X116479149Y-76112287D01*
X116486903Y-76101615D01*
X116542233Y-76058949D01*
X116587221Y-76050500D01*
X120773920Y-76050500D01*
X120871462Y-76031096D01*
X120918913Y-76021658D01*
X121055495Y-75965084D01*
X121104729Y-75932186D01*
X121178416Y-75882952D01*
X122163720Y-74897648D01*
X125199500Y-74897648D01*
X125199500Y-75102351D01*
X125231522Y-75304534D01*
X125294781Y-75499223D01*
X125387715Y-75681613D01*
X125508028Y-75847213D01*
X125652786Y-75991971D01*
X125760441Y-76070185D01*
X125818390Y-76112287D01*
X125934607Y-76171503D01*
X126000776Y-76205218D01*
X126000778Y-76205218D01*
X126000781Y-76205220D01*
X126105137Y-76239127D01*
X126195465Y-76268477D01*
X126296557Y-76284488D01*
X126397648Y-76300500D01*
X126397649Y-76300500D01*
X126602351Y-76300500D01*
X126602352Y-76300500D01*
X126804534Y-76268477D01*
X126999219Y-76205220D01*
X127181610Y-76112287D01*
X127306350Y-76021659D01*
X127347213Y-75991971D01*
X127347215Y-75991968D01*
X127347219Y-75991966D01*
X127491966Y-75847219D01*
X127491968Y-75847215D01*
X127491971Y-75847213D01*
X127544732Y-75774590D01*
X127612287Y-75681610D01*
X127705220Y-75499219D01*
X127768477Y-75304534D01*
X127800500Y-75102352D01*
X127800500Y-74897648D01*
X127768477Y-74695466D01*
X127705220Y-74500781D01*
X127705218Y-74500778D01*
X127705218Y-74500776D01*
X127625487Y-74344297D01*
X127612287Y-74318390D01*
X127604556Y-74307749D01*
X127491971Y-74152786D01*
X127347213Y-74008028D01*
X127181613Y-73887715D01*
X127181612Y-73887714D01*
X127181610Y-73887713D01*
X127124653Y-73858691D01*
X126999223Y-73794781D01*
X126804534Y-73731522D01*
X126629995Y-73703878D01*
X126602352Y-73699500D01*
X126397648Y-73699500D01*
X126373329Y-73703351D01*
X126195465Y-73731522D01*
X126000776Y-73794781D01*
X125818386Y-73887715D01*
X125652786Y-74008028D01*
X125508028Y-74152786D01*
X125387715Y-74318386D01*
X125294781Y-74500776D01*
X125231522Y-74695465D01*
X125199500Y-74897648D01*
X122163720Y-74897648D01*
X127082952Y-69978415D01*
X127110205Y-69937627D01*
X127165084Y-69855495D01*
X127177918Y-69824511D01*
X127188518Y-69798921D01*
X127188518Y-69798920D01*
X127221659Y-69718912D01*
X127250500Y-69573917D01*
X127250500Y-69426082D01*
X127250500Y-63425416D01*
X127270185Y-63358377D01*
X127301613Y-63325099D01*
X127347219Y-63291966D01*
X127491966Y-63147219D01*
X127491968Y-63147215D01*
X127491971Y-63147213D01*
X127551029Y-63065925D01*
X127612287Y-62981610D01*
X127705220Y-62799219D01*
X127768477Y-62604534D01*
X127800500Y-62402352D01*
X127800500Y-62197648D01*
X127790431Y-62134075D01*
X127768477Y-61995465D01*
X127705218Y-61800776D01*
X127639826Y-61672439D01*
X127612287Y-61618390D01*
X127604556Y-61607749D01*
X127491971Y-61452786D01*
X127347213Y-61308028D01*
X127181613Y-61187715D01*
X127181612Y-61187714D01*
X127181610Y-61187713D01*
X127124653Y-61158691D01*
X126999223Y-61094781D01*
X126804534Y-61031523D01*
X126747395Y-61022473D01*
X126684260Y-60992544D01*
X126647329Y-60933232D01*
X126648327Y-60863370D01*
X126686937Y-60805137D01*
X126747395Y-60777527D01*
X126804534Y-60768477D01*
X126999219Y-60705220D01*
X127181610Y-60612287D01*
X127300247Y-60526093D01*
X127347213Y-60491971D01*
X127347215Y-60491968D01*
X127347219Y-60491966D01*
X127491966Y-60347219D01*
X127491968Y-60347215D01*
X127491971Y-60347213D01*
X127544732Y-60274590D01*
X127612287Y-60181610D01*
X127705220Y-59999219D01*
X127768477Y-59804534D01*
X127800500Y-59602352D01*
X127800500Y-59397648D01*
X127776061Y-59243350D01*
X127768477Y-59195465D01*
X127714749Y-59030109D01*
X127705220Y-59000781D01*
X127705218Y-59000778D01*
X127705218Y-59000776D01*
X127657629Y-58907379D01*
X127612287Y-58818390D01*
X127600950Y-58802786D01*
X127491971Y-58652786D01*
X127347213Y-58508028D01*
X127181613Y-58387715D01*
X127181612Y-58387714D01*
X127181610Y-58387713D01*
X127124653Y-58358691D01*
X126999223Y-58294781D01*
X126804534Y-58231522D01*
X126629995Y-58203878D01*
X126602352Y-58199500D01*
X126397648Y-58199500D01*
X126373329Y-58203351D01*
X126195465Y-58231522D01*
X126000776Y-58294781D01*
X125818386Y-58387715D01*
X125652786Y-58508028D01*
X125508028Y-58652786D01*
X125387715Y-58818386D01*
X125294781Y-59000776D01*
X125231522Y-59195465D01*
X125199500Y-59397648D01*
X125199500Y-59602351D01*
X125231522Y-59804534D01*
X125294781Y-59999223D01*
X125358691Y-60124653D01*
X125365381Y-60137782D01*
X125387715Y-60181613D01*
X125508028Y-60347213D01*
X125652786Y-60491971D01*
X125807749Y-60604556D01*
X125818390Y-60612287D01*
X125932021Y-60670185D01*
X126000776Y-60705218D01*
X126000778Y-60705218D01*
X126000781Y-60705220D01*
X126105137Y-60739127D01*
X126195465Y-60768477D01*
X126252604Y-60777527D01*
X126315739Y-60807456D01*
X126352670Y-60866768D01*
X126351672Y-60936630D01*
X126313062Y-60994863D01*
X126252604Y-61022473D01*
X126195465Y-61031522D01*
X126000776Y-61094781D01*
X125818386Y-61187715D01*
X125652786Y-61308028D01*
X125508028Y-61452786D01*
X125387715Y-61618386D01*
X125294781Y-61800776D01*
X125231522Y-61995465D01*
X125199500Y-62197648D01*
X125199500Y-62402351D01*
X125231522Y-62604534D01*
X125294781Y-62799223D01*
X125387715Y-62981613D01*
X125508028Y-63147213D01*
X125508034Y-63147219D01*
X125652781Y-63291966D01*
X125698384Y-63325098D01*
X125741050Y-63380425D01*
X125749500Y-63425416D01*
X125749500Y-69137770D01*
X125729815Y-69204809D01*
X125713181Y-69225451D01*
X120425451Y-74513181D01*
X120364128Y-74546666D01*
X120337770Y-74549500D01*
X116587221Y-74549500D01*
X116520182Y-74529815D01*
X116486903Y-74498385D01*
X116430107Y-74420211D01*
X116279786Y-74269890D01*
X116107820Y-74144951D01*
X116107115Y-74144591D01*
X116099054Y-74140485D01*
X116048259Y-74092512D01*
X116031463Y-74024692D01*
X116053999Y-73958556D01*
X116099054Y-73919515D01*
X116107816Y-73915051D01*
X116273355Y-73794781D01*
X116279786Y-73790109D01*
X116279788Y-73790106D01*
X116279792Y-73790104D01*
X116430104Y-73639792D01*
X116430106Y-73639788D01*
X116430109Y-73639786D01*
X116555048Y-73467820D01*
X116555047Y-73467820D01*
X116555051Y-73467816D01*
X116651557Y-73278412D01*
X116717246Y-73076243D01*
X116750500Y-72866287D01*
X116750500Y-72653713D01*
X116717246Y-72443757D01*
X116651557Y-72241588D01*
X116555051Y-72052184D01*
X116555049Y-72052181D01*
X116555048Y-72052179D01*
X116430109Y-71880213D01*
X116279786Y-71729890D01*
X116107820Y-71604951D01*
X116107115Y-71604591D01*
X116099054Y-71600485D01*
X116048259Y-71552512D01*
X116031463Y-71484692D01*
X116053999Y-71418556D01*
X116099054Y-71379515D01*
X116107816Y-71375051D01*
X116150429Y-71344091D01*
X116279786Y-71250109D01*
X116279788Y-71250106D01*
X116279792Y-71250104D01*
X116430104Y-71099792D01*
X116430106Y-71099788D01*
X116430109Y-71099786D01*
X116555048Y-70927820D01*
X116555047Y-70927820D01*
X116555051Y-70927816D01*
X116651557Y-70738412D01*
X116717246Y-70536243D01*
X116750500Y-70326287D01*
X116750500Y-70113713D01*
X116717246Y-69903757D01*
X116651557Y-69701588D01*
X116555051Y-69512184D01*
X116555049Y-69512181D01*
X116555048Y-69512179D01*
X116430109Y-69340213D01*
X116279786Y-69189890D01*
X116107820Y-69064951D01*
X116107115Y-69064591D01*
X116099054Y-69060485D01*
X116048259Y-69012512D01*
X116031463Y-68944692D01*
X116053999Y-68878556D01*
X116099054Y-68839515D01*
X116107816Y-68835051D01*
X116246651Y-68734181D01*
X116312457Y-68710702D01*
X116319536Y-68710500D01*
X119312779Y-68710500D01*
X119379818Y-68730185D01*
X119413097Y-68761615D01*
X119469892Y-68839788D01*
X119583430Y-68953326D01*
X119616915Y-69014649D01*
X119611931Y-69084341D01*
X119570059Y-69140274D01*
X119539083Y-69157189D01*
X119407669Y-69206203D01*
X119407664Y-69206206D01*
X119292455Y-69292452D01*
X119292452Y-69292455D01*
X119206206Y-69407664D01*
X119206202Y-69407671D01*
X119155908Y-69542517D01*
X119149501Y-69602116D01*
X119149501Y-69602123D01*
X119149500Y-69602135D01*
X119149500Y-71397870D01*
X119149501Y-71397876D01*
X119155908Y-71457483D01*
X119206202Y-71592328D01*
X119206206Y-71592335D01*
X119292452Y-71707544D01*
X119292455Y-71707547D01*
X119407664Y-71793793D01*
X119407671Y-71793797D01*
X119542517Y-71844091D01*
X119542516Y-71844091D01*
X119549444Y-71844835D01*
X119602127Y-71850500D01*
X121397872Y-71850499D01*
X121457483Y-71844091D01*
X121592331Y-71793796D01*
X121707546Y-71707546D01*
X121793796Y-71592331D01*
X121844091Y-71457483D01*
X121850500Y-71397873D01*
X121850499Y-69602128D01*
X121844091Y-69542517D01*
X121793796Y-69407669D01*
X121793795Y-69407668D01*
X121793793Y-69407664D01*
X121707547Y-69292455D01*
X121707544Y-69292452D01*
X121592335Y-69206206D01*
X121592328Y-69206202D01*
X121460917Y-69157189D01*
X121404983Y-69115318D01*
X121380566Y-69049853D01*
X121395418Y-68981580D01*
X121416563Y-68953332D01*
X121530104Y-68839792D01*
X121655051Y-68667816D01*
X121751557Y-68478412D01*
X121817246Y-68276243D01*
X121850500Y-68066287D01*
X121850500Y-67853713D01*
X121817246Y-67643757D01*
X121751557Y-67441588D01*
X121655051Y-67252184D01*
X121655049Y-67252181D01*
X121655048Y-67252179D01*
X121530109Y-67080213D01*
X121379786Y-66929890D01*
X121207820Y-66804951D01*
X121207115Y-66804591D01*
X121199054Y-66800485D01*
X121148259Y-66752512D01*
X121131463Y-66684692D01*
X121153999Y-66618556D01*
X121199054Y-66579515D01*
X121207816Y-66575051D01*
X121336652Y-66481447D01*
X121379786Y-66450109D01*
X121379788Y-66450106D01*
X121379792Y-66450104D01*
X121530104Y-66299792D01*
X121530106Y-66299788D01*
X121530109Y-66299786D01*
X121655048Y-66127820D01*
X121655047Y-66127820D01*
X121655051Y-66127816D01*
X121751557Y-65938412D01*
X121817246Y-65736243D01*
X121850500Y-65526287D01*
X121850500Y-65313713D01*
X121817246Y-65103757D01*
X121751557Y-64901588D01*
X121655051Y-64712184D01*
X121655049Y-64712181D01*
X121655048Y-64712179D01*
X121530109Y-64540213D01*
X121379786Y-64389890D01*
X121207817Y-64264949D01*
X121198504Y-64260204D01*
X121147707Y-64212230D01*
X121130912Y-64144409D01*
X121153449Y-64078274D01*
X121198507Y-64039232D01*
X121207555Y-64034622D01*
X121261716Y-63995270D01*
X121261717Y-63995270D01*
X120629408Y-63362962D01*
X120692993Y-63345925D01*
X120807007Y-63280099D01*
X120900099Y-63187007D01*
X120965925Y-63072993D01*
X120982962Y-63009408D01*
X121615270Y-63641717D01*
X121615270Y-63641716D01*
X121654622Y-63587554D01*
X121751095Y-63398217D01*
X121816757Y-63196130D01*
X121816757Y-63196127D01*
X121850000Y-62986246D01*
X121850000Y-62773753D01*
X121816757Y-62563872D01*
X121816757Y-62563869D01*
X121751095Y-62361782D01*
X121654624Y-62172449D01*
X121615270Y-62118282D01*
X121615269Y-62118282D01*
X120982962Y-62750590D01*
X120965925Y-62687007D01*
X120900099Y-62572993D01*
X120807007Y-62479901D01*
X120692993Y-62414075D01*
X120629409Y-62397037D01*
X121261716Y-61764728D01*
X121207550Y-61725375D01*
X121018217Y-61628904D01*
X120816129Y-61563242D01*
X120606246Y-61530000D01*
X120393754Y-61530000D01*
X120183872Y-61563242D01*
X120183869Y-61563242D01*
X119981782Y-61628904D01*
X119792439Y-61725380D01*
X119738282Y-61764727D01*
X119738282Y-61764728D01*
X120370591Y-62397037D01*
X120307007Y-62414075D01*
X120192993Y-62479901D01*
X120099901Y-62572993D01*
X120034075Y-62687007D01*
X120017037Y-62750591D01*
X119384728Y-62118282D01*
X119384727Y-62118282D01*
X119345380Y-62172439D01*
X119248904Y-62361782D01*
X119183242Y-62563869D01*
X119183242Y-62563872D01*
X119150000Y-62773753D01*
X119150000Y-62986246D01*
X119183242Y-63196127D01*
X119183242Y-63196130D01*
X119248904Y-63398217D01*
X119345375Y-63587550D01*
X119384728Y-63641716D01*
X120017037Y-63009408D01*
X120034075Y-63072993D01*
X120099901Y-63187007D01*
X120192993Y-63280099D01*
X120307007Y-63345925D01*
X120370590Y-63362962D01*
X119738282Y-63995269D01*
X119738282Y-63995270D01*
X119792452Y-64034626D01*
X119792451Y-64034626D01*
X119801495Y-64039234D01*
X119852292Y-64087208D01*
X119869087Y-64155029D01*
X119846550Y-64221164D01*
X119801499Y-64260202D01*
X119792182Y-64264949D01*
X119620213Y-64389890D01*
X119469892Y-64540211D01*
X119413097Y-64618385D01*
X119357767Y-64661051D01*
X119312779Y-64669500D01*
X116751957Y-64669500D01*
X116684918Y-64649815D01*
X116641472Y-64601795D01*
X116555186Y-64432449D01*
X116555051Y-64432184D01*
X116555049Y-64432181D01*
X116555048Y-64432179D01*
X116430109Y-64260213D01*
X116279786Y-64109890D01*
X116107820Y-63984951D01*
X116107115Y-63984591D01*
X116099054Y-63980485D01*
X116048259Y-63932512D01*
X116031463Y-63864692D01*
X116053999Y-63798556D01*
X116099054Y-63759515D01*
X116107816Y-63755051D01*
X116162572Y-63715269D01*
X116279786Y-63630109D01*
X116279788Y-63630106D01*
X116279792Y-63630104D01*
X116430104Y-63479792D01*
X116430106Y-63479788D01*
X116430109Y-63479786D01*
X116555048Y-63307820D01*
X116555050Y-63307817D01*
X116555051Y-63307816D01*
X116651557Y-63118412D01*
X116717246Y-62916243D01*
X116750500Y-62706287D01*
X116750500Y-62493713D01*
X116717246Y-62283757D01*
X116651557Y-62081588D01*
X116555051Y-61892184D01*
X116430104Y-61720208D01*
X116279792Y-61569896D01*
X116279786Y-61569890D01*
X116107820Y-61444951D01*
X115918414Y-61348444D01*
X115918413Y-61348443D01*
X115918412Y-61348443D01*
X115716243Y-61282754D01*
X115716241Y-61282753D01*
X115716240Y-61282753D01*
X115554957Y-61257208D01*
X115506287Y-61249500D01*
X115293713Y-61249500D01*
X115254202Y-61255757D01*
X115083759Y-61282753D01*
X114906029Y-61340501D01*
X114836188Y-61342496D01*
X114776355Y-61306415D01*
X114745527Y-61243714D01*
X114753492Y-61174300D01*
X114780027Y-61134892D01*
X115378101Y-60536819D01*
X115439424Y-60503334D01*
X115465782Y-60500500D01*
X119598542Y-60500500D01*
X119617870Y-60496655D01*
X119695188Y-60481275D01*
X119791836Y-60462051D01*
X119845165Y-60439961D01*
X119973914Y-60386632D01*
X120137782Y-60277139D01*
X120277139Y-60137782D01*
X120277140Y-60137779D01*
X120284206Y-60130714D01*
X120284209Y-60130710D01*
X124637778Y-55777141D01*
X124637782Y-55777139D01*
X124777139Y-55637782D01*
X124886632Y-55473914D01*
X124962051Y-55291835D01*
X124984574Y-55178605D01*
X125000500Y-55098543D01*
X125000500Y-47176424D01*
X125020185Y-47109385D01*
X125072989Y-47063630D01*
X125142147Y-47053686D01*
X125205703Y-47082711D01*
X125242431Y-47138106D01*
X125292505Y-47292218D01*
X125294781Y-47299221D01*
X125387715Y-47481613D01*
X125508028Y-47647213D01*
X125652786Y-47791971D01*
X125807749Y-47904556D01*
X125818390Y-47912287D01*
X125934607Y-47971503D01*
X126000776Y-48005218D01*
X126000778Y-48005218D01*
X126000781Y-48005220D01*
X126105137Y-48039127D01*
X126195465Y-48068477D01*
X126296557Y-48084488D01*
X126397648Y-48100500D01*
X126397649Y-48100500D01*
X126602351Y-48100500D01*
X126602352Y-48100500D01*
X126804534Y-48068477D01*
X126999219Y-48005220D01*
X127181610Y-47912287D01*
X127340899Y-47796558D01*
X127347213Y-47791971D01*
X127347215Y-47791968D01*
X127347219Y-47791966D01*
X127491966Y-47647219D01*
X127491968Y-47647215D01*
X127491971Y-47647213D01*
X127609270Y-47485762D01*
X127612287Y-47481610D01*
X127705220Y-47299219D01*
X127768477Y-47104534D01*
X127800500Y-46902352D01*
X127800500Y-46697648D01*
X127794182Y-46657759D01*
X127768477Y-46495465D01*
X127705218Y-46300776D01*
X127666154Y-46224109D01*
X127612287Y-46118390D01*
X127604556Y-46107749D01*
X127491971Y-45952786D01*
X127347213Y-45808028D01*
X127181613Y-45687715D01*
X127181612Y-45687714D01*
X127181610Y-45687713D01*
X127066374Y-45628997D01*
X126999223Y-45594781D01*
X126804534Y-45531522D01*
X126629995Y-45503878D01*
X126602352Y-45499500D01*
X126397648Y-45499500D01*
X126373329Y-45503351D01*
X126195465Y-45531522D01*
X126000776Y-45594781D01*
X125818386Y-45687715D01*
X125652786Y-45808028D01*
X125508028Y-45952786D01*
X125387715Y-46118386D01*
X125294781Y-46300776D01*
X125242431Y-46461894D01*
X125202993Y-46519569D01*
X125138634Y-46546767D01*
X125069788Y-46534852D01*
X125018312Y-46487608D01*
X125000500Y-46423575D01*
X125000500Y-33897648D01*
X126549500Y-33897648D01*
X126549500Y-34102351D01*
X126581522Y-34304534D01*
X126644781Y-34499223D01*
X126737715Y-34681613D01*
X126858028Y-34847213D01*
X127002786Y-34991971D01*
X127157749Y-35104556D01*
X127168390Y-35112287D01*
X127284607Y-35171503D01*
X127350776Y-35205218D01*
X127350778Y-35205218D01*
X127350781Y-35205220D01*
X127455137Y-35239127D01*
X127545465Y-35268477D01*
X127646557Y-35284488D01*
X127747648Y-35300500D01*
X127747649Y-35300500D01*
X127952351Y-35300500D01*
X127952352Y-35300500D01*
X128154534Y-35268477D01*
X128349219Y-35205220D01*
X128531610Y-35112287D01*
X128658379Y-35020185D01*
X128697213Y-34991971D01*
X128697215Y-34991968D01*
X128697219Y-34991966D01*
X128841966Y-34847219D01*
X128841968Y-34847215D01*
X128841971Y-34847213D01*
X128894799Y-34774500D01*
X128962287Y-34681610D01*
X129055220Y-34499219D01*
X129118477Y-34304534D01*
X129150500Y-34102352D01*
X129150500Y-33897648D01*
X129118477Y-33695466D01*
X129055220Y-33500781D01*
X129055218Y-33500778D01*
X129055218Y-33500776D01*
X128998978Y-33390400D01*
X128962287Y-33318390D01*
X128890220Y-33219197D01*
X128841971Y-33152786D01*
X128697213Y-33008028D01*
X128531613Y-32887715D01*
X128531612Y-32887714D01*
X128531610Y-32887713D01*
X128474653Y-32858691D01*
X128349223Y-32794781D01*
X128154534Y-32731522D01*
X127979995Y-32703878D01*
X127952352Y-32699500D01*
X127747648Y-32699500D01*
X127723329Y-32703351D01*
X127545465Y-32731522D01*
X127350776Y-32794781D01*
X127168386Y-32887715D01*
X127002786Y-33008028D01*
X126858028Y-33152786D01*
X126737715Y-33318386D01*
X126644781Y-33500776D01*
X126581522Y-33695465D01*
X126549500Y-33897648D01*
X125000500Y-33897648D01*
X125000500Y-32521456D01*
X124962052Y-32328170D01*
X124962051Y-32328169D01*
X124962051Y-32328165D01*
X124962049Y-32328160D01*
X124886635Y-32146092D01*
X124886628Y-32146079D01*
X124777139Y-31982218D01*
X124777136Y-31982214D01*
X124634686Y-31839764D01*
X124634655Y-31839735D01*
X121696497Y-28901577D01*
X126749500Y-28901577D01*
X126749500Y-29098422D01*
X126780290Y-29292826D01*
X126841117Y-29480029D01*
X126876777Y-29550015D01*
X126930476Y-29655405D01*
X127046172Y-29814646D01*
X127185354Y-29953828D01*
X127344595Y-30069524D01*
X127409022Y-30102351D01*
X127519970Y-30158882D01*
X127519972Y-30158882D01*
X127519975Y-30158884D01*
X127599773Y-30184812D01*
X127707173Y-30219709D01*
X127901578Y-30250500D01*
X127901583Y-30250500D01*
X128098422Y-30250500D01*
X128292826Y-30219709D01*
X128376458Y-30192535D01*
X128480025Y-30158884D01*
X128655405Y-30069524D01*
X128814646Y-29953828D01*
X128953828Y-29814646D01*
X129069524Y-29655405D01*
X129158884Y-29480025D01*
X129219709Y-29292826D01*
X129224538Y-29262335D01*
X129250500Y-29098422D01*
X129250500Y-28901577D01*
X129219709Y-28707173D01*
X129188877Y-28612284D01*
X129158884Y-28519975D01*
X129158882Y-28519972D01*
X129158882Y-28519970D01*
X129070861Y-28347219D01*
X129069524Y-28344595D01*
X128953828Y-28185354D01*
X128814646Y-28046172D01*
X128655405Y-27930476D01*
X128623324Y-27914130D01*
X128480029Y-27841117D01*
X128292826Y-27780290D01*
X128098422Y-27749500D01*
X128098417Y-27749500D01*
X127901583Y-27749500D01*
X127901578Y-27749500D01*
X127707173Y-27780290D01*
X127519970Y-27841117D01*
X127344594Y-27930476D01*
X127282187Y-27975818D01*
X127185354Y-28046172D01*
X127185352Y-28046174D01*
X127185351Y-28046174D01*
X127046174Y-28185351D01*
X127046174Y-28185352D01*
X127046172Y-28185354D01*
X126996485Y-28253741D01*
X126930476Y-28344594D01*
X126841117Y-28519970D01*
X126780290Y-28707173D01*
X126749500Y-28901577D01*
X121696497Y-28901577D01*
X121666819Y-28871899D01*
X121633334Y-28810576D01*
X121630500Y-28784218D01*
X121630500Y-28449997D01*
X121630499Y-28449984D01*
X121619999Y-28347204D01*
X121619999Y-28347203D01*
X121564814Y-28180666D01*
X121481856Y-28046172D01*
X121472713Y-28031348D01*
X121472710Y-28031344D01*
X121348655Y-27907289D01*
X121348651Y-27907286D01*
X121199337Y-27815187D01*
X121199335Y-27815186D01*
X121094025Y-27780290D01*
X121032797Y-27760001D01*
X121032795Y-27760000D01*
X120930015Y-27749500D01*
X120930008Y-27749500D01*
X120595782Y-27749500D01*
X120528743Y-27729815D01*
X120508101Y-27713181D01*
X116692568Y-23897648D01*
X126549500Y-23897648D01*
X126549500Y-24102351D01*
X126581522Y-24304534D01*
X126644781Y-24499223D01*
X126708691Y-24624653D01*
X126737585Y-24681359D01*
X126737715Y-24681613D01*
X126858028Y-24847213D01*
X127002786Y-24991971D01*
X127157749Y-25104556D01*
X127168390Y-25112287D01*
X127284607Y-25171503D01*
X127350776Y-25205218D01*
X127350778Y-25205218D01*
X127350781Y-25205220D01*
X127447713Y-25236715D01*
X127545465Y-25268477D01*
X127646557Y-25284488D01*
X127747648Y-25300500D01*
X127747649Y-25300500D01*
X127952351Y-25300500D01*
X127952352Y-25300500D01*
X128154534Y-25268477D01*
X128349219Y-25205220D01*
X128531610Y-25112287D01*
X128651063Y-25025500D01*
X128697213Y-24991971D01*
X128697215Y-24991968D01*
X128697219Y-24991966D01*
X128841966Y-24847219D01*
X128841968Y-24847215D01*
X128841971Y-24847213D01*
X128909183Y-24754702D01*
X128962287Y-24681610D01*
X129055220Y-24499219D01*
X129118477Y-24304534D01*
X129150500Y-24102352D01*
X129150500Y-23897648D01*
X129142257Y-23845606D01*
X129118477Y-23695465D01*
X129087458Y-23600000D01*
X129055220Y-23500781D01*
X129055218Y-23500778D01*
X129055218Y-23500776D01*
X128962419Y-23318650D01*
X128962287Y-23318390D01*
X128930092Y-23274077D01*
X128841971Y-23152786D01*
X128697213Y-23008028D01*
X128531613Y-22887715D01*
X128531612Y-22887714D01*
X128531610Y-22887713D01*
X128474653Y-22858691D01*
X128349223Y-22794781D01*
X128154534Y-22731522D01*
X127979995Y-22703878D01*
X127952352Y-22699500D01*
X127747648Y-22699500D01*
X127723329Y-22703351D01*
X127545465Y-22731522D01*
X127350776Y-22794781D01*
X127168386Y-22887715D01*
X127002786Y-23008028D01*
X126858028Y-23152786D01*
X126737715Y-23318386D01*
X126644781Y-23500776D01*
X126581522Y-23695465D01*
X126549500Y-23897648D01*
X116692568Y-23897648D01*
X116404916Y-23609996D01*
X116374667Y-23560634D01*
X116355220Y-23500781D01*
X116262287Y-23318390D01*
X116230092Y-23274077D01*
X116141971Y-23152786D01*
X115997213Y-23008028D01*
X115831613Y-22887715D01*
X115831612Y-22887714D01*
X115831610Y-22887713D01*
X115774653Y-22858691D01*
X115649223Y-22794781D01*
X115454534Y-22731522D01*
X115279995Y-22703878D01*
X115252352Y-22699500D01*
X115047648Y-22699500D01*
X115023329Y-22703351D01*
X114845465Y-22731522D01*
X114650776Y-22794781D01*
X114468386Y-22887715D01*
X114347123Y-22975818D01*
X114281317Y-22999298D01*
X114274238Y-22999500D01*
X113225762Y-22999500D01*
X113158723Y-22979815D01*
X113152877Y-22975818D01*
X113031613Y-22887715D01*
X113031612Y-22887714D01*
X113031610Y-22887713D01*
X112974653Y-22858691D01*
X112849223Y-22794781D01*
X112654534Y-22731522D01*
X112479995Y-22703878D01*
X112452352Y-22699500D01*
X112247648Y-22699500D01*
X112223329Y-22703351D01*
X112045465Y-22731522D01*
X111850776Y-22794781D01*
X111668386Y-22887715D01*
X111502786Y-23008028D01*
X111358028Y-23152786D01*
X111237715Y-23318386D01*
X111144781Y-23500776D01*
X111081522Y-23695465D01*
X111049500Y-23897648D01*
X111049500Y-24102351D01*
X111081522Y-24304534D01*
X111144781Y-24499223D01*
X111208691Y-24624653D01*
X111237585Y-24681359D01*
X111237715Y-24681613D01*
X111358028Y-24847213D01*
X111463181Y-24952366D01*
X111496666Y-25013689D01*
X111499500Y-25040047D01*
X111499500Y-26375500D01*
X111479815Y-26442539D01*
X111427011Y-26488294D01*
X111375500Y-26499500D01*
X110401456Y-26499500D01*
X110208171Y-26537946D01*
X110208167Y-26537948D01*
X110208165Y-26537948D01*
X110208164Y-26537949D01*
X110154751Y-26560073D01*
X110132743Y-26569189D01*
X110026089Y-26613366D01*
X110026079Y-26613371D01*
X109862218Y-26722860D01*
X109862214Y-26722863D01*
X108621899Y-27963181D01*
X108560576Y-27996666D01*
X108534218Y-27999500D01*
X108095699Y-27999500D01*
X108028660Y-27979815D01*
X108022814Y-27975818D01*
X107960408Y-27930478D01*
X107960407Y-27930477D01*
X107960405Y-27930476D01*
X107905636Y-27902569D01*
X107785029Y-27841117D01*
X107597826Y-27780290D01*
X107403422Y-27749500D01*
X107403417Y-27749500D01*
X107206583Y-27749500D01*
X107206578Y-27749500D01*
X107012173Y-27780290D01*
X106824970Y-27841117D01*
X106649594Y-27930476D01*
X106587187Y-27975818D01*
X106490354Y-28046172D01*
X106490352Y-28046174D01*
X106490351Y-28046174D01*
X106351174Y-28185351D01*
X106351174Y-28185352D01*
X106351172Y-28185354D01*
X106301485Y-28253741D01*
X106235476Y-28344594D01*
X106146117Y-28519970D01*
X106085290Y-28707173D01*
X106054500Y-28901577D01*
X106054500Y-29098422D01*
X106085290Y-29292826D01*
X106146117Y-29480029D01*
X106181777Y-29550015D01*
X106235476Y-29655405D01*
X106351172Y-29814646D01*
X106490354Y-29953828D01*
X106649595Y-30069524D01*
X106714022Y-30102351D01*
X106824970Y-30158882D01*
X106824972Y-30158882D01*
X106824975Y-30158884D01*
X106904773Y-30184812D01*
X107012173Y-30219709D01*
X107206578Y-30250500D01*
X107206583Y-30250500D01*
X107403422Y-30250500D01*
X107597826Y-30219709D01*
X107681458Y-30192535D01*
X107785025Y-30158884D01*
X107960405Y-30069524D01*
X107988896Y-30048823D01*
X108022814Y-30024182D01*
X108088620Y-30000702D01*
X108095699Y-30000500D01*
X109098543Y-30000500D01*
X109205270Y-29979270D01*
X109258635Y-29968655D01*
X109291836Y-29962051D01*
X109345165Y-29939961D01*
X109473914Y-29886632D01*
X109637782Y-29777139D01*
X109777139Y-29637782D01*
X109777139Y-29637780D01*
X109787347Y-29627573D01*
X109787348Y-29627570D01*
X110878102Y-28536819D01*
X110939425Y-28503334D01*
X110965783Y-28500500D01*
X111624238Y-28500500D01*
X111691277Y-28520185D01*
X111697123Y-28524182D01*
X111818388Y-28612286D01*
X111871828Y-28639516D01*
X111922623Y-28687490D01*
X111939418Y-28755312D01*
X111916880Y-28821446D01*
X111871828Y-28860484D01*
X111818388Y-28887713D01*
X111652786Y-29008028D01*
X111508028Y-29152786D01*
X111387715Y-29318386D01*
X111294781Y-29500776D01*
X111231522Y-29695465D01*
X111199500Y-29897648D01*
X111199500Y-30102351D01*
X111231522Y-30304534D01*
X111294781Y-30499223D01*
X111351022Y-30609600D01*
X111387713Y-30681610D01*
X111475819Y-30802877D01*
X111499298Y-30868681D01*
X111499500Y-30875761D01*
X111499500Y-32959953D01*
X111479815Y-33026992D01*
X111463181Y-33047634D01*
X111358032Y-33152782D01*
X111358028Y-33152786D01*
X111237715Y-33318386D01*
X111144781Y-33500776D01*
X111081522Y-33695465D01*
X111049500Y-33897648D01*
X111049500Y-34102351D01*
X111081522Y-34304534D01*
X111144781Y-34499223D01*
X111237715Y-34681613D01*
X111358028Y-34847213D01*
X111502786Y-34991971D01*
X111657749Y-35104556D01*
X111668390Y-35112287D01*
X111784607Y-35171503D01*
X111850776Y-35205218D01*
X111850778Y-35205218D01*
X111850781Y-35205220D01*
X111955137Y-35239127D01*
X112045465Y-35268477D01*
X112146557Y-35284488D01*
X112247648Y-35300500D01*
X112247649Y-35300500D01*
X112452351Y-35300500D01*
X112452352Y-35300500D01*
X112654534Y-35268477D01*
X112849219Y-35205220D01*
X113031610Y-35112287D01*
X113152877Y-35024181D01*
X113218683Y-35000702D01*
X113225762Y-35000500D01*
X114274238Y-35000500D01*
X114341277Y-35020185D01*
X114347119Y-35024179D01*
X114468390Y-35112287D01*
X114584607Y-35171503D01*
X114650776Y-35205218D01*
X114650778Y-35205218D01*
X114650781Y-35205220D01*
X114755137Y-35239127D01*
X114845465Y-35268477D01*
X114946557Y-35284488D01*
X115047648Y-35300500D01*
X115047649Y-35300500D01*
X115252351Y-35300500D01*
X115252352Y-35300500D01*
X115454534Y-35268477D01*
X115649219Y-35205220D01*
X115831610Y-35112287D01*
X115958379Y-35020185D01*
X115997213Y-34991971D01*
X115997215Y-34991968D01*
X115997219Y-34991966D01*
X116141966Y-34847219D01*
X116141968Y-34847215D01*
X116141971Y-34847213D01*
X116194799Y-34774500D01*
X116262287Y-34681610D01*
X116355220Y-34499219D01*
X116418477Y-34304534D01*
X116450500Y-34102352D01*
X116450500Y-33897648D01*
X116418477Y-33695466D01*
X116355220Y-33500781D01*
X116355218Y-33500778D01*
X116355218Y-33500776D01*
X116298978Y-33390400D01*
X116262287Y-33318390D01*
X116190220Y-33219197D01*
X116141971Y-33152786D01*
X115997213Y-33008028D01*
X115831613Y-32887715D01*
X115831612Y-32887714D01*
X115831610Y-32887713D01*
X115774653Y-32858691D01*
X115649223Y-32794781D01*
X115454534Y-32731522D01*
X115279995Y-32703878D01*
X115252352Y-32699500D01*
X115047648Y-32699500D01*
X115023329Y-32703351D01*
X114845465Y-32731522D01*
X114650776Y-32794781D01*
X114468386Y-32887715D01*
X114347123Y-32975818D01*
X114281317Y-32999298D01*
X114274238Y-32999500D01*
X113624500Y-32999500D01*
X113557461Y-32979815D01*
X113511706Y-32927011D01*
X113500500Y-32875500D01*
X113500500Y-30875761D01*
X113520185Y-30808722D01*
X113524165Y-30802899D01*
X113612287Y-30681610D01*
X113705220Y-30499219D01*
X113768477Y-30304534D01*
X113800500Y-30102352D01*
X113800500Y-29897648D01*
X113768477Y-29695466D01*
X113755460Y-29655405D01*
X113705218Y-29500776D01*
X113671503Y-29434607D01*
X113612287Y-29318390D01*
X113571561Y-29262335D01*
X113491971Y-29152786D01*
X113347213Y-29008028D01*
X113181613Y-28887715D01*
X113181612Y-28887714D01*
X113181610Y-28887713D01*
X113128171Y-28860484D01*
X113077376Y-28812510D01*
X113060581Y-28744689D01*
X113083118Y-28678554D01*
X113128172Y-28639515D01*
X113181610Y-28612287D01*
X113308668Y-28519975D01*
X113347213Y-28491971D01*
X113347215Y-28491968D01*
X113347219Y-28491966D01*
X113491966Y-28347219D01*
X113491968Y-28347215D01*
X113491971Y-28347213D01*
X113544732Y-28274590D01*
X113612287Y-28181610D01*
X113705220Y-27999219D01*
X113768477Y-27804534D01*
X113800500Y-27602352D01*
X113800500Y-27397648D01*
X113768477Y-27195466D01*
X113705220Y-27000781D01*
X113705218Y-27000778D01*
X113705218Y-27000776D01*
X113639274Y-26871355D01*
X113612287Y-26818390D01*
X113568462Y-26758069D01*
X113524182Y-26697122D01*
X113500702Y-26631316D01*
X113500500Y-26624237D01*
X113500500Y-25124500D01*
X113520185Y-25057461D01*
X113572989Y-25011706D01*
X113624500Y-25000500D01*
X114274238Y-25000500D01*
X114341277Y-25020185D01*
X114347119Y-25024179D01*
X114468390Y-25112287D01*
X114584607Y-25171503D01*
X114650776Y-25205218D01*
X114650778Y-25205218D01*
X114650781Y-25205220D01*
X114747713Y-25236715D01*
X114845465Y-25268477D01*
X114946557Y-25284488D01*
X115047648Y-25300500D01*
X115047649Y-25300500D01*
X115214218Y-25300500D01*
X115281257Y-25320185D01*
X115301899Y-25336819D01*
X119093181Y-29128101D01*
X119126666Y-29189424D01*
X119129500Y-29215782D01*
X119129500Y-29550015D01*
X119140000Y-29652795D01*
X119140001Y-29652797D01*
X119154140Y-29695465D01*
X119195186Y-29819335D01*
X119195187Y-29819337D01*
X119287286Y-29968651D01*
X119287288Y-29968654D01*
X119411344Y-30092710D01*
X119411348Y-30092713D01*
X119560662Y-30184812D01*
X119560664Y-30184813D01*
X119560666Y-30184814D01*
X119727203Y-30239999D01*
X119829992Y-30250500D01*
X120164218Y-30250500D01*
X120231257Y-30270185D01*
X120251899Y-30286819D01*
X122963181Y-32998101D01*
X122996666Y-33059424D01*
X122999500Y-33085782D01*
X122999500Y-40923575D01*
X122979815Y-40990614D01*
X122927011Y-41036369D01*
X122857853Y-41046313D01*
X122794297Y-41017288D01*
X122757569Y-40961894D01*
X122719048Y-40843339D01*
X122705220Y-40800781D01*
X122705218Y-40800778D01*
X122705218Y-40800776D01*
X122671094Y-40733805D01*
X122612287Y-40618390D01*
X122604556Y-40607749D01*
X122491971Y-40452786D01*
X122347213Y-40308028D01*
X122181613Y-40187715D01*
X122181612Y-40187714D01*
X122181610Y-40187713D01*
X122124653Y-40158691D01*
X121999223Y-40094781D01*
X121804534Y-40031522D01*
X121629995Y-40003878D01*
X121602352Y-39999500D01*
X121397648Y-39999500D01*
X121373329Y-40003351D01*
X121195465Y-40031522D01*
X121000776Y-40094781D01*
X120818386Y-40187715D01*
X120652786Y-40308028D01*
X120508028Y-40452786D01*
X120387715Y-40618386D01*
X120294781Y-40800778D01*
X120231522Y-40995468D01*
X120208073Y-41143514D01*
X120178143Y-41206649D01*
X120173281Y-41211796D01*
X114687431Y-46697648D01*
X112862220Y-48522859D01*
X112862218Y-48522861D01*
X112817298Y-48567781D01*
X112722859Y-48662219D01*
X112613371Y-48826079D01*
X112613364Y-48826092D01*
X112537950Y-49008160D01*
X112537947Y-49008170D01*
X112499500Y-49201456D01*
X112499500Y-58534217D01*
X112479815Y-58601256D01*
X112463181Y-58621898D01*
X111537431Y-59547648D01*
X110862221Y-60222858D01*
X110862218Y-60222861D01*
X110807940Y-60277139D01*
X110722859Y-60362219D01*
X110613371Y-60526080D01*
X110613364Y-60526093D01*
X110577663Y-60612286D01*
X110553681Y-60670185D01*
X110539169Y-60705220D01*
X110537949Y-60708165D01*
X110537948Y-60708168D01*
X110537946Y-60708175D01*
X110499500Y-60901454D01*
X110499500Y-68958544D01*
X110537481Y-69149488D01*
X110537948Y-69151834D01*
X110537948Y-69151836D01*
X110613364Y-69333907D01*
X110613371Y-69333920D01*
X110722860Y-69497781D01*
X110722863Y-69497785D01*
X110866537Y-69641459D01*
X110866559Y-69641479D01*
X114013576Y-72788496D01*
X114047061Y-72849819D01*
X114049350Y-72865344D01*
X114082753Y-73076239D01*
X114148444Y-73278414D01*
X114244951Y-73467820D01*
X114369890Y-73639786D01*
X114520213Y-73790109D01*
X114692182Y-73915050D01*
X114700946Y-73919516D01*
X114751742Y-73967491D01*
X114768536Y-74035312D01*
X114745998Y-74101447D01*
X114700946Y-74140484D01*
X114692182Y-74144949D01*
X114520213Y-74269890D01*
X114369890Y-74420213D01*
X114244951Y-74592179D01*
X114148444Y-74781585D01*
X114082753Y-74983760D01*
X114049500Y-75193713D01*
X114049500Y-75406286D01*
X114082753Y-75616239D01*
X114148444Y-75818414D01*
X114244951Y-76007820D01*
X114369890Y-76179786D01*
X114520213Y-76330109D01*
X114692182Y-76455050D01*
X114700946Y-76459516D01*
X114751742Y-76507491D01*
X114768536Y-76575312D01*
X114745998Y-76641447D01*
X114700946Y-76680484D01*
X114692182Y-76684949D01*
X114520213Y-76809890D01*
X114369890Y-76960213D01*
X114244951Y-77132179D01*
X114148444Y-77321585D01*
X114082753Y-77523760D01*
X114049500Y-77733713D01*
X114049500Y-77946286D01*
X114082753Y-78156239D01*
X114148444Y-78358414D01*
X114244951Y-78547820D01*
X114369890Y-78719786D01*
X114520213Y-78870109D01*
X114692182Y-78995050D01*
X114700946Y-78999516D01*
X114751742Y-79047491D01*
X114768536Y-79115312D01*
X114745998Y-79181447D01*
X114700946Y-79220484D01*
X114692182Y-79224949D01*
X114520213Y-79349890D01*
X114369890Y-79500213D01*
X114244951Y-79672179D01*
X114148444Y-79861585D01*
X114082753Y-80063760D01*
X114063748Y-80183757D01*
X114049500Y-80273713D01*
X114049500Y-80486287D01*
X114082754Y-80696243D01*
X114142644Y-80880566D01*
X114148444Y-80898414D01*
X114244951Y-81087820D01*
X114369890Y-81259786D01*
X114520213Y-81410109D01*
X114692182Y-81535050D01*
X114700946Y-81539516D01*
X114751742Y-81587491D01*
X114768536Y-81655312D01*
X114745998Y-81721447D01*
X114700946Y-81760484D01*
X114692182Y-81764949D01*
X114520213Y-81889890D01*
X114369890Y-82040213D01*
X114244951Y-82212179D01*
X114148444Y-82401585D01*
X114082753Y-82603760D01*
X114049500Y-82813713D01*
X114049500Y-83026286D01*
X114082753Y-83236239D01*
X114148444Y-83438414D01*
X114244951Y-83627820D01*
X114369890Y-83799786D01*
X114520213Y-83950109D01*
X114692182Y-84075050D01*
X114700946Y-84079516D01*
X114751742Y-84127491D01*
X114768536Y-84195312D01*
X114745998Y-84261447D01*
X114700946Y-84300484D01*
X114692182Y-84304949D01*
X114520213Y-84429890D01*
X114369890Y-84580213D01*
X114244951Y-84752179D01*
X114148444Y-84941585D01*
X114082753Y-85143760D01*
X114049500Y-85353713D01*
X114049500Y-85566286D01*
X114071863Y-85707484D01*
X114082754Y-85776243D01*
X114120935Y-85893753D01*
X114148444Y-85978414D01*
X114244951Y-86167820D01*
X114369890Y-86339786D01*
X114520213Y-86490109D01*
X114692182Y-86615050D01*
X114700946Y-86619516D01*
X114751742Y-86667491D01*
X114768536Y-86735312D01*
X114745998Y-86801447D01*
X114700946Y-86840484D01*
X114692182Y-86844949D01*
X114520213Y-86969890D01*
X114369890Y-87120213D01*
X114244951Y-87292179D01*
X114148444Y-87481585D01*
X114082753Y-87683760D01*
X114053611Y-87867755D01*
X114049500Y-87893713D01*
X114049500Y-88106287D01*
X114059534Y-88169644D01*
X114082753Y-88316239D01*
X114148444Y-88518414D01*
X114244951Y-88707820D01*
X114369890Y-88879786D01*
X114520213Y-89030109D01*
X114692182Y-89155050D01*
X114700946Y-89159516D01*
X114751742Y-89207491D01*
X114768536Y-89275312D01*
X114745998Y-89341447D01*
X114700946Y-89380484D01*
X114692182Y-89384949D01*
X114520213Y-89509890D01*
X114369890Y-89660213D01*
X114244951Y-89832179D01*
X114148444Y-90021585D01*
X114082753Y-90223760D01*
X114064170Y-90341092D01*
X114049500Y-90433713D01*
X114049500Y-90646287D01*
X114058990Y-90706202D01*
X114081032Y-90845375D01*
X114082754Y-90856243D01*
X114147597Y-91055809D01*
X114148444Y-91058414D01*
X114244951Y-91247820D01*
X114369890Y-91419786D01*
X114520213Y-91570109D01*
X114692182Y-91695050D01*
X114700946Y-91699516D01*
X114751742Y-91747491D01*
X114768536Y-91815312D01*
X114745998Y-91881447D01*
X114700946Y-91920484D01*
X114692182Y-91924949D01*
X114520213Y-92049890D01*
X114369890Y-92200213D01*
X114244951Y-92372179D01*
X114148444Y-92561585D01*
X114082753Y-92763760D01*
X114064343Y-92880000D01*
X114049500Y-92973713D01*
X114049500Y-93186287D01*
X114059534Y-93249644D01*
X114075508Y-93350498D01*
X114082754Y-93396243D01*
X114127716Y-93534622D01*
X114148444Y-93598414D01*
X114244951Y-93787820D01*
X114369890Y-93959786D01*
X114520213Y-94110109D01*
X114692182Y-94235050D01*
X114700946Y-94239516D01*
X114751742Y-94287491D01*
X114768536Y-94355312D01*
X114745998Y-94421447D01*
X114700946Y-94460484D01*
X114692182Y-94464949D01*
X114520213Y-94589890D01*
X114369890Y-94740213D01*
X114244951Y-94912179D01*
X114148444Y-95101585D01*
X114082753Y-95303760D01*
X114049500Y-95513713D01*
X114049500Y-95726286D01*
X114071863Y-95867484D01*
X114082754Y-95936243D01*
X114141991Y-96118556D01*
X114148444Y-96138414D01*
X114244951Y-96327820D01*
X114369890Y-96499786D01*
X114520213Y-96650109D01*
X114692182Y-96775050D01*
X114700946Y-96779516D01*
X114751742Y-96827491D01*
X114768536Y-96895312D01*
X114745998Y-96961447D01*
X114700946Y-97000484D01*
X114692182Y-97004949D01*
X114520213Y-97129890D01*
X114369890Y-97280213D01*
X114244951Y-97452179D01*
X114148444Y-97641585D01*
X114082753Y-97843760D01*
X114058007Y-98000000D01*
X114049500Y-98053713D01*
X114049500Y-98266287D01*
X114057394Y-98316127D01*
X114081119Y-98465925D01*
X114082754Y-98476243D01*
X114141547Y-98657189D01*
X114148444Y-98678414D01*
X114244951Y-98867820D01*
X114369890Y-99039786D01*
X114520213Y-99190109D01*
X114692182Y-99315050D01*
X114700946Y-99319516D01*
X114751742Y-99367491D01*
X114768536Y-99435312D01*
X114745998Y-99501447D01*
X114700946Y-99540484D01*
X114692182Y-99544949D01*
X114520213Y-99669890D01*
X114369890Y-99820213D01*
X114244951Y-99992179D01*
X114148444Y-100181585D01*
X114082753Y-100383760D01*
X114072272Y-100449936D01*
X114049500Y-100593713D01*
X114049500Y-100806287D01*
X114059534Y-100869644D01*
X114071863Y-100947484D01*
X114082754Y-101016243D01*
X114144912Y-101207546D01*
X114148444Y-101218414D01*
X114244951Y-101407820D01*
X114369890Y-101579786D01*
X114520213Y-101730109D01*
X114692182Y-101855050D01*
X114700946Y-101859516D01*
X114751742Y-101907491D01*
X114768536Y-101975312D01*
X114745998Y-102041447D01*
X114700946Y-102080484D01*
X114692182Y-102084949D01*
X114520213Y-102209890D01*
X114369890Y-102360213D01*
X114244951Y-102532179D01*
X114148444Y-102721585D01*
X114082753Y-102923760D01*
X114076050Y-102966082D01*
X114049500Y-103133713D01*
X114049500Y-103346287D01*
X114082754Y-103556243D01*
X114093701Y-103589935D01*
X114148444Y-103758414D01*
X114244951Y-103947820D01*
X114369890Y-104119786D01*
X114520213Y-104270109D01*
X114692182Y-104395050D01*
X114700946Y-104399516D01*
X114751742Y-104447491D01*
X114768536Y-104515312D01*
X114745998Y-104581447D01*
X114700946Y-104620484D01*
X114692182Y-104624949D01*
X114520213Y-104749890D01*
X114369890Y-104900213D01*
X114244951Y-105072179D01*
X114148444Y-105261585D01*
X114082753Y-105463760D01*
X114049500Y-105673713D01*
X114049500Y-105886286D01*
X114082753Y-106096239D01*
X114148444Y-106298414D01*
X114244951Y-106487820D01*
X114369890Y-106659786D01*
X114520213Y-106810109D01*
X114692182Y-106935050D01*
X114700946Y-106939516D01*
X114751742Y-106987491D01*
X114768536Y-107055312D01*
X114745998Y-107121447D01*
X114700946Y-107160484D01*
X114692182Y-107164949D01*
X114520213Y-107289890D01*
X114369890Y-107440213D01*
X114244951Y-107612179D01*
X114148444Y-107801585D01*
X114082753Y-108003760D01*
X114049500Y-108213713D01*
X114049500Y-108426286D01*
X114073372Y-108577011D01*
X114082754Y-108636243D01*
X114140114Y-108812779D01*
X114148444Y-108838414D01*
X114244951Y-109027820D01*
X114369890Y-109199786D01*
X114520213Y-109350109D01*
X114692182Y-109475050D01*
X114700946Y-109479516D01*
X114751742Y-109527491D01*
X114768536Y-109595312D01*
X114745998Y-109661447D01*
X114700946Y-109700484D01*
X114692182Y-109704949D01*
X114520213Y-109829890D01*
X114369890Y-109980213D01*
X114244951Y-110152179D01*
X114148444Y-110341585D01*
X114082753Y-110543760D01*
X114067478Y-110640205D01*
X114049500Y-110753713D01*
X114049500Y-110966287D01*
X114059534Y-111029644D01*
X114081682Y-111169478D01*
X114082754Y-111176243D01*
X114139373Y-111350499D01*
X114148444Y-111378414D01*
X114244951Y-111567820D01*
X114369890Y-111739786D01*
X114520213Y-111890109D01*
X114692182Y-112015050D01*
X114700946Y-112019516D01*
X114751742Y-112067491D01*
X114768536Y-112135312D01*
X114745998Y-112201447D01*
X114700946Y-112240484D01*
X114692182Y-112244949D01*
X114520213Y-112369890D01*
X114369890Y-112520213D01*
X114244951Y-112692179D01*
X114148444Y-112881585D01*
X114082753Y-113083760D01*
X114056344Y-113250500D01*
X114049500Y-113293713D01*
X114049500Y-113506287D01*
X114059534Y-113569644D01*
X114082753Y-113716239D01*
X114082753Y-113716241D01*
X114082754Y-113716243D01*
X114136561Y-113881844D01*
X114148444Y-113918414D01*
X114244951Y-114107820D01*
X114369890Y-114279786D01*
X114483430Y-114393326D01*
X114516915Y-114454649D01*
X114511931Y-114524341D01*
X114470059Y-114580274D01*
X114439083Y-114597189D01*
X114307669Y-114646203D01*
X114307664Y-114646206D01*
X114192455Y-114732452D01*
X114192452Y-114732455D01*
X114106206Y-114847664D01*
X114106202Y-114847671D01*
X114055908Y-114982517D01*
X114049827Y-115039082D01*
X114049500Y-115042127D01*
X114049500Y-115893715D01*
X114049501Y-116625500D01*
X114029816Y-116692539D01*
X113977013Y-116738294D01*
X113925501Y-116749500D01*
X97002230Y-116749500D01*
X96935191Y-116729815D01*
X96914549Y-116713181D01*
X91370175Y-111168807D01*
X91336690Y-111107484D01*
X91335383Y-111061728D01*
X91350500Y-110966285D01*
X91350500Y-110753713D01*
X91343231Y-110707820D01*
X91317246Y-110543757D01*
X91251557Y-110341588D01*
X91155051Y-110152184D01*
X91155049Y-110152181D01*
X91155048Y-110152179D01*
X91030109Y-109980213D01*
X90879786Y-109829890D01*
X90707820Y-109704951D01*
X90707115Y-109704591D01*
X90699054Y-109700485D01*
X90648259Y-109652512D01*
X90631463Y-109584692D01*
X90653999Y-109518556D01*
X90699054Y-109479515D01*
X90707816Y-109475051D01*
X90729789Y-109459086D01*
X90879786Y-109350109D01*
X90879788Y-109350106D01*
X90879792Y-109350104D01*
X91030104Y-109199792D01*
X91030106Y-109199788D01*
X91030109Y-109199786D01*
X91155048Y-109027820D01*
X91155047Y-109027820D01*
X91155051Y-109027816D01*
X91251557Y-108838412D01*
X91317246Y-108636243D01*
X91350500Y-108426287D01*
X91350500Y-108213713D01*
X91317246Y-108003757D01*
X91251557Y-107801588D01*
X91155051Y-107612184D01*
X91155049Y-107612181D01*
X91155048Y-107612179D01*
X91030109Y-107440213D01*
X90879786Y-107289890D01*
X90707820Y-107164951D01*
X90707115Y-107164591D01*
X90699054Y-107160485D01*
X90648259Y-107112512D01*
X90631463Y-107044692D01*
X90653999Y-106978556D01*
X90699054Y-106939515D01*
X90707816Y-106935051D01*
X90799923Y-106868132D01*
X90879786Y-106810109D01*
X90879788Y-106810106D01*
X90879792Y-106810104D01*
X91030104Y-106659792D01*
X91030106Y-106659788D01*
X91030109Y-106659786D01*
X91155048Y-106487820D01*
X91155047Y-106487820D01*
X91155051Y-106487816D01*
X91251557Y-106298412D01*
X91317246Y-106096243D01*
X91350500Y-105886287D01*
X91350500Y-105673713D01*
X91317246Y-105463757D01*
X91251557Y-105261588D01*
X91155051Y-105072184D01*
X91155049Y-105072181D01*
X91155048Y-105072179D01*
X91030109Y-104900213D01*
X90879786Y-104749890D01*
X90707820Y-104624951D01*
X90707115Y-104624591D01*
X90699054Y-104620485D01*
X90648259Y-104572512D01*
X90631463Y-104504692D01*
X90653999Y-104438556D01*
X90699054Y-104399515D01*
X90707816Y-104395051D01*
X90816287Y-104316243D01*
X90879786Y-104270109D01*
X90879788Y-104270106D01*
X90879792Y-104270104D01*
X91030104Y-104119792D01*
X91030106Y-104119788D01*
X91030109Y-104119786D01*
X91155048Y-103947820D01*
X91155047Y-103947820D01*
X91155051Y-103947816D01*
X91251557Y-103758412D01*
X91317246Y-103556243D01*
X91350500Y-103346287D01*
X91350500Y-103133713D01*
X91317246Y-102923757D01*
X91251557Y-102721588D01*
X91155051Y-102532184D01*
X91155049Y-102532181D01*
X91155048Y-102532179D01*
X91030109Y-102360213D01*
X90879786Y-102209890D01*
X90707820Y-102084951D01*
X90707115Y-102084591D01*
X90699054Y-102080485D01*
X90648259Y-102032512D01*
X90631463Y-101964692D01*
X90653999Y-101898556D01*
X90699054Y-101859515D01*
X90707816Y-101855051D01*
X90807698Y-101782483D01*
X90879786Y-101730109D01*
X90879788Y-101730106D01*
X90879792Y-101730104D01*
X91030104Y-101579792D01*
X91030106Y-101579788D01*
X91030109Y-101579786D01*
X91155048Y-101407820D01*
X91155047Y-101407820D01*
X91155051Y-101407816D01*
X91251557Y-101218412D01*
X91317246Y-101016243D01*
X91350500Y-100806287D01*
X91350500Y-100593713D01*
X91317246Y-100383757D01*
X91251557Y-100181588D01*
X91155051Y-99992184D01*
X91155049Y-99992181D01*
X91155048Y-99992179D01*
X91030109Y-99820213D01*
X90879786Y-99669890D01*
X90707820Y-99544951D01*
X90707115Y-99544591D01*
X90699054Y-99540485D01*
X90648259Y-99492512D01*
X90631463Y-99424692D01*
X90653999Y-99358556D01*
X90699054Y-99319515D01*
X90707816Y-99315051D01*
X90795209Y-99251557D01*
X90879786Y-99190109D01*
X90879788Y-99190106D01*
X90879792Y-99190104D01*
X91030104Y-99039792D01*
X91030106Y-99039788D01*
X91030109Y-99039786D01*
X91155048Y-98867820D01*
X91155047Y-98867820D01*
X91155051Y-98867816D01*
X91251557Y-98678412D01*
X91317246Y-98476243D01*
X91350500Y-98266287D01*
X91350500Y-98053713D01*
X91317246Y-97843757D01*
X91251557Y-97641588D01*
X91155051Y-97452184D01*
X91155049Y-97452181D01*
X91155048Y-97452179D01*
X91030109Y-97280213D01*
X90879786Y-97129890D01*
X90707820Y-97004951D01*
X90707115Y-97004591D01*
X90699054Y-97000485D01*
X90648259Y-96952512D01*
X90631463Y-96884692D01*
X90653999Y-96818556D01*
X90699054Y-96779515D01*
X90707816Y-96775051D01*
X90802574Y-96706206D01*
X90879786Y-96650109D01*
X90879788Y-96650106D01*
X90879792Y-96650104D01*
X91030104Y-96499792D01*
X91030106Y-96499788D01*
X91030109Y-96499786D01*
X91155048Y-96327820D01*
X91155047Y-96327820D01*
X91155051Y-96327816D01*
X91251557Y-96138412D01*
X91317246Y-95936243D01*
X91350500Y-95726287D01*
X91350500Y-95513713D01*
X91317246Y-95303757D01*
X91251557Y-95101588D01*
X91155051Y-94912184D01*
X91155049Y-94912181D01*
X91155048Y-94912179D01*
X91030109Y-94740213D01*
X90879786Y-94589890D01*
X90707820Y-94464951D01*
X90707115Y-94464591D01*
X90699054Y-94460485D01*
X90648259Y-94412512D01*
X90631463Y-94344692D01*
X90653999Y-94278556D01*
X90699054Y-94239515D01*
X90707816Y-94235051D01*
X90801941Y-94166666D01*
X90879786Y-94110109D01*
X90879788Y-94110106D01*
X90879792Y-94110104D01*
X91030104Y-93959792D01*
X91030106Y-93959788D01*
X91030109Y-93959786D01*
X91155048Y-93787820D01*
X91155047Y-93787820D01*
X91155051Y-93787816D01*
X91251557Y-93598412D01*
X91317246Y-93396243D01*
X91350500Y-93186287D01*
X91350500Y-92973713D01*
X91317246Y-92763757D01*
X91251557Y-92561588D01*
X91155051Y-92372184D01*
X91155049Y-92372181D01*
X91155048Y-92372179D01*
X91030109Y-92200213D01*
X90879786Y-92049890D01*
X90707820Y-91924951D01*
X90707115Y-91924591D01*
X90699054Y-91920485D01*
X90648259Y-91872512D01*
X90631463Y-91804692D01*
X90653999Y-91738556D01*
X90699054Y-91699515D01*
X90707816Y-91695051D01*
X90774716Y-91646446D01*
X90879786Y-91570109D01*
X90879788Y-91570106D01*
X90879792Y-91570104D01*
X91030104Y-91419792D01*
X91030106Y-91419788D01*
X91030109Y-91419786D01*
X91155048Y-91247820D01*
X91155047Y-91247820D01*
X91155051Y-91247816D01*
X91251557Y-91058412D01*
X91317246Y-90856243D01*
X91350500Y-90646287D01*
X91350500Y-90433713D01*
X91317246Y-90223757D01*
X91251557Y-90021588D01*
X91155051Y-89832184D01*
X91155049Y-89832181D01*
X91155048Y-89832179D01*
X91030109Y-89660213D01*
X90879786Y-89509890D01*
X90707820Y-89384951D01*
X90707115Y-89384591D01*
X90699054Y-89380485D01*
X90648259Y-89332512D01*
X90631463Y-89264692D01*
X90653999Y-89198556D01*
X90699054Y-89159515D01*
X90707816Y-89155051D01*
X90729789Y-89139086D01*
X90879786Y-89030109D01*
X90879788Y-89030106D01*
X90879792Y-89030104D01*
X91030104Y-88879792D01*
X91030106Y-88879788D01*
X91030109Y-88879786D01*
X91155048Y-88707820D01*
X91155047Y-88707820D01*
X91155051Y-88707816D01*
X91251557Y-88518412D01*
X91317246Y-88316243D01*
X91350500Y-88106287D01*
X91350500Y-87893713D01*
X91317246Y-87683757D01*
X91251557Y-87481588D01*
X91155051Y-87292184D01*
X91155049Y-87292181D01*
X91155048Y-87292179D01*
X91030109Y-87120213D01*
X90879786Y-86969890D01*
X90707820Y-86844951D01*
X90702976Y-86842483D01*
X90699054Y-86840485D01*
X90648259Y-86792512D01*
X90631463Y-86724692D01*
X90653999Y-86658556D01*
X90699054Y-86619515D01*
X90707816Y-86615051D01*
X90729789Y-86599086D01*
X90879786Y-86490109D01*
X90879788Y-86490106D01*
X90879792Y-86490104D01*
X91030104Y-86339792D01*
X91030106Y-86339788D01*
X91030109Y-86339786D01*
X91155048Y-86167820D01*
X91155047Y-86167820D01*
X91155051Y-86167816D01*
X91251557Y-85978412D01*
X91317246Y-85776243D01*
X91350500Y-85566287D01*
X91350500Y-85353713D01*
X91317246Y-85143757D01*
X91251557Y-84941588D01*
X91155051Y-84752184D01*
X91155049Y-84752181D01*
X91155048Y-84752179D01*
X91030109Y-84580213D01*
X90879786Y-84429890D01*
X90707820Y-84304951D01*
X90707115Y-84304591D01*
X90699054Y-84300485D01*
X90648259Y-84252512D01*
X90631463Y-84184692D01*
X90653999Y-84118556D01*
X90699054Y-84079515D01*
X90707816Y-84075051D01*
X90729789Y-84059086D01*
X90879786Y-83950109D01*
X90879788Y-83950106D01*
X90879792Y-83950104D01*
X91030104Y-83799792D01*
X91030106Y-83799788D01*
X91030109Y-83799786D01*
X91155048Y-83627820D01*
X91155047Y-83627820D01*
X91155051Y-83627816D01*
X91251557Y-83438412D01*
X91317246Y-83236243D01*
X91350500Y-83026287D01*
X91350500Y-82813713D01*
X91317246Y-82603757D01*
X91251557Y-82401588D01*
X91155051Y-82212184D01*
X91155049Y-82212181D01*
X91155048Y-82212179D01*
X91030109Y-82040213D01*
X90879786Y-81889890D01*
X90707820Y-81764951D01*
X90707115Y-81764591D01*
X90699054Y-81760485D01*
X90648259Y-81712512D01*
X90631463Y-81644692D01*
X90653999Y-81578556D01*
X90699054Y-81539515D01*
X90707816Y-81535051D01*
X90754880Y-81500857D01*
X90879786Y-81410109D01*
X90879788Y-81410106D01*
X90879792Y-81410104D01*
X91030104Y-81259792D01*
X91030106Y-81259788D01*
X91030109Y-81259786D01*
X91155048Y-81087820D01*
X91155047Y-81087820D01*
X91155051Y-81087816D01*
X91251557Y-80898412D01*
X91317246Y-80696243D01*
X91350500Y-80486287D01*
X91350500Y-80273713D01*
X91317246Y-80063757D01*
X91251557Y-79861588D01*
X91155051Y-79672184D01*
X91155049Y-79672181D01*
X91155048Y-79672179D01*
X91030109Y-79500213D01*
X90879786Y-79349890D01*
X90707820Y-79224951D01*
X90707115Y-79224591D01*
X90699054Y-79220485D01*
X90648259Y-79172512D01*
X90631463Y-79104692D01*
X90653999Y-79038556D01*
X90699054Y-78999515D01*
X90707816Y-78995051D01*
X90761974Y-78955703D01*
X90879786Y-78870109D01*
X90879788Y-78870106D01*
X90879792Y-78870104D01*
X91030104Y-78719792D01*
X91030106Y-78719788D01*
X91030109Y-78719786D01*
X91155048Y-78547820D01*
X91155047Y-78547820D01*
X91155051Y-78547816D01*
X91251557Y-78358412D01*
X91317246Y-78156243D01*
X91350500Y-77946287D01*
X91350500Y-77733713D01*
X91317246Y-77523757D01*
X91251557Y-77321588D01*
X91155051Y-77132184D01*
X91155049Y-77132181D01*
X91155048Y-77132179D01*
X91030109Y-76960213D01*
X90879786Y-76809890D01*
X90707820Y-76684951D01*
X90707115Y-76684591D01*
X90699054Y-76680485D01*
X90648259Y-76632512D01*
X90631463Y-76564692D01*
X90653999Y-76498556D01*
X90699054Y-76459515D01*
X90707816Y-76455051D01*
X90729789Y-76439086D01*
X90879786Y-76330109D01*
X90879788Y-76330106D01*
X90879792Y-76330104D01*
X91030104Y-76179792D01*
X91030106Y-76179788D01*
X91030109Y-76179786D01*
X91155048Y-76007820D01*
X91155047Y-76007820D01*
X91155051Y-76007816D01*
X91251557Y-75818412D01*
X91317246Y-75616243D01*
X91350500Y-75406287D01*
X91350500Y-75193713D01*
X91317246Y-74983757D01*
X91251557Y-74781588D01*
X91155051Y-74592184D01*
X91155049Y-74592181D01*
X91155048Y-74592179D01*
X91030109Y-74420213D01*
X90879786Y-74269890D01*
X90707820Y-74144951D01*
X90707115Y-74144591D01*
X90699054Y-74140485D01*
X90648259Y-74092512D01*
X90631463Y-74024692D01*
X90653999Y-73958556D01*
X90699054Y-73919515D01*
X90707816Y-73915051D01*
X90873355Y-73794781D01*
X90879786Y-73790109D01*
X90879788Y-73790106D01*
X90879792Y-73790104D01*
X91030104Y-73639792D01*
X91030106Y-73639788D01*
X91030109Y-73639786D01*
X91155048Y-73467820D01*
X91155047Y-73467820D01*
X91155051Y-73467816D01*
X91251557Y-73278412D01*
X91317246Y-73076243D01*
X91350500Y-72866287D01*
X91350500Y-72653713D01*
X91317246Y-72443757D01*
X91251557Y-72241588D01*
X91155051Y-72052184D01*
X91155049Y-72052181D01*
X91155048Y-72052179D01*
X91030109Y-71880213D01*
X90879786Y-71729890D01*
X90707820Y-71604951D01*
X90707115Y-71604591D01*
X90699054Y-71600485D01*
X90648259Y-71552512D01*
X90631463Y-71484692D01*
X90653999Y-71418556D01*
X90699054Y-71379515D01*
X90707816Y-71375051D01*
X90750429Y-71344091D01*
X90879786Y-71250109D01*
X90879788Y-71250106D01*
X90879792Y-71250104D01*
X91030104Y-71099792D01*
X91030106Y-71099788D01*
X91030109Y-71099786D01*
X91155048Y-70927820D01*
X91155047Y-70927820D01*
X91155051Y-70927816D01*
X91251557Y-70738412D01*
X91317246Y-70536243D01*
X91350500Y-70326287D01*
X91350500Y-70113713D01*
X91317246Y-69903757D01*
X91251557Y-69701588D01*
X91155051Y-69512184D01*
X91155049Y-69512181D01*
X91155048Y-69512179D01*
X91030109Y-69340213D01*
X90879786Y-69189890D01*
X90707820Y-69064951D01*
X90707115Y-69064591D01*
X90699054Y-69060485D01*
X90648259Y-69012512D01*
X90631463Y-68944692D01*
X90653999Y-68878556D01*
X90699054Y-68839515D01*
X90707816Y-68835051D01*
X90809106Y-68761460D01*
X90879786Y-68710109D01*
X90879788Y-68710106D01*
X90879792Y-68710104D01*
X91030104Y-68559792D01*
X91030106Y-68559788D01*
X91030109Y-68559786D01*
X91155048Y-68387820D01*
X91155047Y-68387820D01*
X91155051Y-68387816D01*
X91251557Y-68198412D01*
X91317246Y-67996243D01*
X91350500Y-67786287D01*
X91350500Y-67573713D01*
X91317246Y-67363757D01*
X91251557Y-67161588D01*
X91155051Y-66972184D01*
X91155049Y-66972181D01*
X91155048Y-66972179D01*
X91030109Y-66800213D01*
X90879786Y-66649890D01*
X90707817Y-66524949D01*
X90698504Y-66520204D01*
X90647707Y-66472230D01*
X90630912Y-66404409D01*
X90653449Y-66338274D01*
X90698507Y-66299232D01*
X90707555Y-66294622D01*
X90761716Y-66255270D01*
X90761717Y-66255270D01*
X90129408Y-65622962D01*
X90192993Y-65605925D01*
X90307007Y-65540099D01*
X90400099Y-65447007D01*
X90465925Y-65332993D01*
X90482962Y-65269408D01*
X91115270Y-65901717D01*
X91115270Y-65901716D01*
X91154622Y-65847554D01*
X91251095Y-65658217D01*
X91316757Y-65456130D01*
X91316757Y-65456127D01*
X91350000Y-65246246D01*
X91350000Y-65033753D01*
X91316757Y-64823872D01*
X91316757Y-64823869D01*
X91251095Y-64621782D01*
X91154624Y-64432449D01*
X91115270Y-64378282D01*
X91115269Y-64378282D01*
X90482962Y-65010590D01*
X90465925Y-64947007D01*
X90400099Y-64832993D01*
X90307007Y-64739901D01*
X90192993Y-64674075D01*
X90129409Y-64657037D01*
X90761716Y-64024728D01*
X90707550Y-63985375D01*
X90697954Y-63980486D01*
X90647157Y-63932512D01*
X90630361Y-63864692D01*
X90652897Y-63798556D01*
X90697954Y-63759514D01*
X90707554Y-63754622D01*
X90761716Y-63715270D01*
X90761717Y-63715270D01*
X90129408Y-63082962D01*
X90192993Y-63065925D01*
X90307007Y-63000099D01*
X90400099Y-62907007D01*
X90465925Y-62792993D01*
X90482962Y-62729408D01*
X91115270Y-63361717D01*
X91115270Y-63361716D01*
X91154622Y-63307554D01*
X91251095Y-63118217D01*
X91316757Y-62916130D01*
X91316757Y-62916127D01*
X91350000Y-62706246D01*
X91350000Y-62493753D01*
X91316757Y-62283872D01*
X91316757Y-62283869D01*
X91251095Y-62081782D01*
X91154624Y-61892449D01*
X91115270Y-61838282D01*
X91115269Y-61838282D01*
X90482962Y-62470590D01*
X90465925Y-62407007D01*
X90400099Y-62292993D01*
X90307007Y-62199901D01*
X90192993Y-62134075D01*
X90129409Y-62117037D01*
X90761716Y-61484728D01*
X90707550Y-61445375D01*
X90518217Y-61348904D01*
X90316129Y-61283242D01*
X90106246Y-61250000D01*
X89893754Y-61250000D01*
X89683872Y-61283242D01*
X89683869Y-61283242D01*
X89481782Y-61348904D01*
X89292439Y-61445380D01*
X89238282Y-61484727D01*
X89238282Y-61484728D01*
X89870591Y-62117037D01*
X89807007Y-62134075D01*
X89692993Y-62199901D01*
X89599901Y-62292993D01*
X89534075Y-62407007D01*
X89517037Y-62470591D01*
X88884728Y-61838282D01*
X88884727Y-61838282D01*
X88845380Y-61892439D01*
X88748904Y-62081782D01*
X88683242Y-62283869D01*
X88683242Y-62283872D01*
X88650000Y-62493753D01*
X88650000Y-62706246D01*
X88683242Y-62916127D01*
X88683242Y-62916130D01*
X88748904Y-63118217D01*
X88845375Y-63307550D01*
X88884728Y-63361716D01*
X89517037Y-62729408D01*
X89534075Y-62792993D01*
X89599901Y-62907007D01*
X89692993Y-63000099D01*
X89807007Y-63065925D01*
X89870590Y-63082962D01*
X89238282Y-63715269D01*
X89238282Y-63715270D01*
X89292452Y-63754626D01*
X89302048Y-63759516D01*
X89352844Y-63807491D01*
X89369638Y-63875312D01*
X89347100Y-63941447D01*
X89302051Y-63980483D01*
X89292440Y-63985380D01*
X89238282Y-64024727D01*
X89238282Y-64024728D01*
X89870591Y-64657037D01*
X89807007Y-64674075D01*
X89692993Y-64739901D01*
X89599901Y-64832993D01*
X89534075Y-64947007D01*
X89517037Y-65010591D01*
X88884728Y-64378282D01*
X88884727Y-64378282D01*
X88845380Y-64432439D01*
X88748904Y-64621782D01*
X88683242Y-64823869D01*
X88683242Y-64823872D01*
X88650000Y-65033753D01*
X88650000Y-65246246D01*
X88683242Y-65456127D01*
X88683242Y-65456130D01*
X88748904Y-65658217D01*
X88845375Y-65847550D01*
X88884728Y-65901716D01*
X89517037Y-65269408D01*
X89534075Y-65332993D01*
X89599901Y-65447007D01*
X89692993Y-65540099D01*
X89807007Y-65605925D01*
X89870590Y-65622962D01*
X89238282Y-66255269D01*
X89238282Y-66255270D01*
X89292452Y-66294626D01*
X89292451Y-66294626D01*
X89301495Y-66299234D01*
X89352292Y-66347208D01*
X89369087Y-66415029D01*
X89346550Y-66481164D01*
X89301499Y-66520202D01*
X89292182Y-66524949D01*
X89120213Y-66649890D01*
X88969890Y-66800213D01*
X88844951Y-66972179D01*
X88748444Y-67161585D01*
X88682753Y-67363760D01*
X88649500Y-67573713D01*
X88649500Y-67786292D01*
X88664616Y-67881728D01*
X88655662Y-67951021D01*
X88629824Y-67988807D01*
X86917045Y-69701586D01*
X86886951Y-69746629D01*
X86886949Y-69746632D01*
X86834919Y-69824498D01*
X86834912Y-69824511D01*
X86778343Y-69961082D01*
X86778340Y-69961092D01*
X86749500Y-70106079D01*
X86749500Y-71137770D01*
X86729815Y-71204809D01*
X86713181Y-71225451D01*
X84859701Y-73078930D01*
X84798378Y-73112415D01*
X84728686Y-73107431D01*
X84672753Y-73065559D01*
X84648336Y-73000095D01*
X84661536Y-72934953D01*
X84705217Y-72849225D01*
X84705218Y-72849223D01*
X84705220Y-72849219D01*
X84768477Y-72654534D01*
X84800500Y-72452352D01*
X84800500Y-72247648D01*
X84768477Y-72045466D01*
X84705220Y-71850781D01*
X84705218Y-71850778D01*
X84705218Y-71850776D01*
X84671503Y-71784607D01*
X84612287Y-71668390D01*
X84604556Y-71657749D01*
X84491971Y-71502786D01*
X84347213Y-71358028D01*
X84181613Y-71237715D01*
X84181612Y-71237714D01*
X84181610Y-71237713D01*
X84086265Y-71189132D01*
X83999223Y-71144781D01*
X83804534Y-71081522D01*
X83629995Y-71053878D01*
X83602352Y-71049500D01*
X83397648Y-71049500D01*
X83373329Y-71053351D01*
X83195465Y-71081522D01*
X83000776Y-71144781D01*
X82818386Y-71237715D01*
X82652786Y-71358028D01*
X82508028Y-71502786D01*
X82387715Y-71668386D01*
X82294781Y-71850776D01*
X82231522Y-72045465D01*
X82199500Y-72247648D01*
X82199500Y-72452351D01*
X82231522Y-72654534D01*
X82294781Y-72849223D01*
X82387715Y-73031613D01*
X82508028Y-73197213D01*
X82652786Y-73341971D01*
X82807749Y-73454556D01*
X82818390Y-73462287D01*
X82934607Y-73521503D01*
X83000776Y-73555218D01*
X83000778Y-73555218D01*
X83000781Y-73555220D01*
X83083266Y-73582021D01*
X83195465Y-73618477D01*
X83296557Y-73634488D01*
X83397648Y-73650500D01*
X83397649Y-73650500D01*
X83602351Y-73650500D01*
X83602352Y-73650500D01*
X83804534Y-73618477D01*
X83999219Y-73555220D01*
X84084953Y-73511535D01*
X84153622Y-73498639D01*
X84218363Y-73524915D01*
X84258620Y-73582021D01*
X84261613Y-73651826D01*
X84228930Y-73709701D01*
X80725451Y-77213181D01*
X80664128Y-77246666D01*
X80637770Y-77249500D01*
X78926080Y-77249500D01*
X78781092Y-77278340D01*
X78781082Y-77278343D01*
X78644511Y-77334912D01*
X78644498Y-77334919D01*
X78521584Y-77417048D01*
X78521580Y-77417051D01*
X76917047Y-79021584D01*
X76905708Y-79038556D01*
X76889540Y-79062754D01*
X76889539Y-79062756D01*
X76868400Y-79094392D01*
X76814788Y-79139196D01*
X76765300Y-79149500D01*
X76602130Y-79149500D01*
X76602123Y-79149501D01*
X76542516Y-79155908D01*
X76407671Y-79206202D01*
X76407664Y-79206206D01*
X76292455Y-79292452D01*
X76292452Y-79292455D01*
X76206206Y-79407664D01*
X76206202Y-79407671D01*
X76155908Y-79542517D01*
X76149501Y-79602116D01*
X76149500Y-79602135D01*
X76149500Y-81397870D01*
X76149501Y-81397876D01*
X76155908Y-81457483D01*
X76206202Y-81592328D01*
X76206206Y-81592335D01*
X76292452Y-81707544D01*
X76292455Y-81707547D01*
X76407664Y-81793793D01*
X76407671Y-81793797D01*
X76542517Y-81844091D01*
X76542516Y-81844091D01*
X76549444Y-81844835D01*
X76602127Y-81850500D01*
X78397872Y-81850499D01*
X78457483Y-81844091D01*
X78592331Y-81793796D01*
X78707546Y-81707546D01*
X78793796Y-81592331D01*
X78842810Y-81460916D01*
X78884681Y-81404984D01*
X78950145Y-81380566D01*
X79018418Y-81395417D01*
X79046673Y-81416569D01*
X79160213Y-81530109D01*
X79332179Y-81655048D01*
X79332181Y-81655049D01*
X79332184Y-81655051D01*
X79521588Y-81751557D01*
X79723757Y-81817246D01*
X79933713Y-81850500D01*
X79933714Y-81850500D01*
X80146286Y-81850500D01*
X80146287Y-81850500D01*
X80356243Y-81817246D01*
X80558412Y-81751557D01*
X80747816Y-81655051D01*
X80834138Y-81592335D01*
X80919786Y-81530109D01*
X80919788Y-81530106D01*
X80919792Y-81530104D01*
X81070104Y-81379792D01*
X81070106Y-81379788D01*
X81070109Y-81379786D01*
X81195048Y-81207820D01*
X81195047Y-81207820D01*
X81195051Y-81207816D01*
X81199514Y-81199054D01*
X81247488Y-81148259D01*
X81315308Y-81131463D01*
X81381444Y-81153999D01*
X81420486Y-81199056D01*
X81424951Y-81207820D01*
X81549890Y-81379786D01*
X81700213Y-81530109D01*
X81872179Y-81655048D01*
X81872181Y-81655049D01*
X81872184Y-81655051D01*
X82061588Y-81751557D01*
X82263757Y-81817246D01*
X82473713Y-81850500D01*
X82473714Y-81850500D01*
X82686286Y-81850500D01*
X82686287Y-81850500D01*
X82896243Y-81817246D01*
X83098412Y-81751557D01*
X83287816Y-81655051D01*
X83374138Y-81592335D01*
X83459786Y-81530109D01*
X83459788Y-81530106D01*
X83459792Y-81530104D01*
X83610104Y-81379792D01*
X83610106Y-81379788D01*
X83610109Y-81379786D01*
X83735048Y-81207820D01*
X83735047Y-81207820D01*
X83735051Y-81207816D01*
X83739514Y-81199054D01*
X83787488Y-81148259D01*
X83855308Y-81131463D01*
X83921444Y-81153999D01*
X83960486Y-81199056D01*
X83964951Y-81207820D01*
X84089890Y-81379786D01*
X84240213Y-81530109D01*
X84412179Y-81655048D01*
X84412181Y-81655049D01*
X84412184Y-81655051D01*
X84601588Y-81751557D01*
X84803757Y-81817246D01*
X85013713Y-81850500D01*
X85013714Y-81850500D01*
X85226286Y-81850500D01*
X85226287Y-81850500D01*
X85436243Y-81817246D01*
X85638412Y-81751557D01*
X85827816Y-81655051D01*
X85914138Y-81592335D01*
X85999786Y-81530109D01*
X85999788Y-81530106D01*
X85999792Y-81530104D01*
X86150104Y-81379792D01*
X86150106Y-81379788D01*
X86150109Y-81379786D01*
X86275048Y-81207820D01*
X86275047Y-81207820D01*
X86275051Y-81207816D01*
X86371557Y-81018412D01*
X86437246Y-80816243D01*
X86470500Y-80606287D01*
X86470500Y-80393713D01*
X86437246Y-80183757D01*
X86371557Y-79981588D01*
X86275051Y-79792184D01*
X86275049Y-79792181D01*
X86275048Y-79792179D01*
X86150109Y-79620213D01*
X86133313Y-79603417D01*
X86099828Y-79542094D01*
X86104812Y-79472402D01*
X86133313Y-79428055D01*
X86934549Y-78626819D01*
X86995872Y-78593334D01*
X87022230Y-78590500D01*
X88812779Y-78590500D01*
X88879818Y-78610185D01*
X88913097Y-78641615D01*
X88969892Y-78719788D01*
X89120213Y-78870109D01*
X89292182Y-78995050D01*
X89300946Y-78999516D01*
X89351742Y-79047491D01*
X89368536Y-79115312D01*
X89345998Y-79181447D01*
X89300946Y-79220484D01*
X89292182Y-79224949D01*
X89120213Y-79349890D01*
X88969890Y-79500213D01*
X88844951Y-79672179D01*
X88748444Y-79861585D01*
X88682753Y-80063760D01*
X88663748Y-80183757D01*
X88649500Y-80273713D01*
X88649500Y-80486287D01*
X88682754Y-80696243D01*
X88742644Y-80880566D01*
X88748444Y-80898414D01*
X88844951Y-81087820D01*
X88969890Y-81259786D01*
X89120213Y-81410109D01*
X89292182Y-81535050D01*
X89300946Y-81539516D01*
X89351742Y-81587491D01*
X89368536Y-81655312D01*
X89345998Y-81721447D01*
X89300946Y-81760484D01*
X89292182Y-81764949D01*
X89120213Y-81889890D01*
X88969890Y-82040213D01*
X88844951Y-82212179D01*
X88748444Y-82401585D01*
X88682753Y-82603760D01*
X88649500Y-82813713D01*
X88649500Y-83026286D01*
X88682753Y-83236239D01*
X88748444Y-83438414D01*
X88844951Y-83627820D01*
X88969890Y-83799786D01*
X89120213Y-83950109D01*
X89292182Y-84075050D01*
X89300946Y-84079516D01*
X89351742Y-84127491D01*
X89368536Y-84195312D01*
X89345998Y-84261447D01*
X89300946Y-84300484D01*
X89292182Y-84304949D01*
X89120213Y-84429890D01*
X88969890Y-84580213D01*
X88844951Y-84752179D01*
X88748444Y-84941585D01*
X88682753Y-85143760D01*
X88649500Y-85353713D01*
X88649500Y-85566292D01*
X88664616Y-85661728D01*
X88655662Y-85731021D01*
X88629824Y-85768807D01*
X80265451Y-94133181D01*
X80204128Y-94166666D01*
X80177770Y-94169500D01*
X78687221Y-94169500D01*
X78620182Y-94149815D01*
X78586903Y-94118385D01*
X78530107Y-94040211D01*
X78379786Y-93889890D01*
X78207817Y-93764949D01*
X78198504Y-93760204D01*
X78147707Y-93712230D01*
X78130912Y-93644409D01*
X78153449Y-93578274D01*
X78198507Y-93539232D01*
X78207555Y-93534622D01*
X78261716Y-93495270D01*
X78261717Y-93495270D01*
X77629408Y-92862962D01*
X77692993Y-92845925D01*
X77807007Y-92780099D01*
X77900099Y-92687007D01*
X77965925Y-92572993D01*
X77982962Y-92509408D01*
X78615270Y-93141717D01*
X78615270Y-93141716D01*
X78654622Y-93087554D01*
X78751095Y-92898217D01*
X78816757Y-92696130D01*
X78816757Y-92696127D01*
X78850000Y-92486246D01*
X78850000Y-92273753D01*
X78816757Y-92063872D01*
X78816757Y-92063869D01*
X78751095Y-91861782D01*
X78654624Y-91672449D01*
X78615270Y-91618282D01*
X78615269Y-91618282D01*
X77982962Y-92250590D01*
X77965925Y-92187007D01*
X77900099Y-92072993D01*
X77807007Y-91979901D01*
X77692993Y-91914075D01*
X77629409Y-91897037D01*
X78261716Y-91264728D01*
X78207550Y-91225375D01*
X78018217Y-91128904D01*
X77816129Y-91063242D01*
X77606246Y-91030000D01*
X77393754Y-91030000D01*
X77183872Y-91063242D01*
X77183869Y-91063242D01*
X76981782Y-91128904D01*
X76792439Y-91225380D01*
X76738282Y-91264727D01*
X76738282Y-91264728D01*
X77370591Y-91897037D01*
X77307007Y-91914075D01*
X77192993Y-91979901D01*
X77099901Y-92072993D01*
X77034075Y-92187007D01*
X77017037Y-92250591D01*
X76384728Y-91618282D01*
X76384727Y-91618282D01*
X76345380Y-91672439D01*
X76248904Y-91861782D01*
X76183242Y-92063869D01*
X76183242Y-92063872D01*
X76150000Y-92273753D01*
X76150000Y-92486246D01*
X76183242Y-92696127D01*
X76183242Y-92696130D01*
X76248904Y-92898217D01*
X76345375Y-93087550D01*
X76384728Y-93141716D01*
X77017037Y-92509408D01*
X77034075Y-92572993D01*
X77099901Y-92687007D01*
X77192993Y-92780099D01*
X77307007Y-92845925D01*
X77370590Y-92862962D01*
X76738282Y-93495269D01*
X76738282Y-93495270D01*
X76792452Y-93534626D01*
X76792451Y-93534626D01*
X76801495Y-93539234D01*
X76852292Y-93587208D01*
X76869087Y-93655029D01*
X76846550Y-93721164D01*
X76801499Y-93760202D01*
X76792182Y-93764949D01*
X76620213Y-93889890D01*
X76469890Y-94040213D01*
X76344951Y-94212179D01*
X76248444Y-94401585D01*
X76182753Y-94603760D01*
X76149500Y-94813713D01*
X76149500Y-95026286D01*
X76182753Y-95236239D01*
X76248444Y-95438414D01*
X76344951Y-95627820D01*
X76469890Y-95799786D01*
X76620213Y-95950109D01*
X76792182Y-96075050D01*
X76800946Y-96079516D01*
X76851742Y-96127491D01*
X76868536Y-96195312D01*
X76845998Y-96261447D01*
X76800946Y-96300484D01*
X76792182Y-96304949D01*
X76620213Y-96429890D01*
X76469890Y-96580213D01*
X76344951Y-96752179D01*
X76248444Y-96941585D01*
X76182753Y-97143760D01*
X76149500Y-97353713D01*
X76149500Y-97566286D01*
X76168105Y-97683757D01*
X76182754Y-97776243D01*
X76220935Y-97893753D01*
X76248444Y-97978414D01*
X76344951Y-98167820D01*
X76469890Y-98339786D01*
X76583430Y-98453326D01*
X76616915Y-98514649D01*
X76611931Y-98584341D01*
X76570059Y-98640274D01*
X76539083Y-98657189D01*
X76407669Y-98706203D01*
X76407664Y-98706206D01*
X76292455Y-98792452D01*
X76292452Y-98792455D01*
X76206206Y-98907664D01*
X76206202Y-98907671D01*
X76155908Y-99042517D01*
X76150553Y-99092331D01*
X76149501Y-99102123D01*
X76149500Y-99102135D01*
X76149500Y-100897870D01*
X76149501Y-100897876D01*
X76155908Y-100957483D01*
X76206202Y-101092328D01*
X76206206Y-101092335D01*
X76292452Y-101207544D01*
X76292455Y-101207547D01*
X76407664Y-101293793D01*
X76407671Y-101293797D01*
X76542517Y-101344091D01*
X76542516Y-101344091D01*
X76549444Y-101344835D01*
X76602127Y-101350500D01*
X77828769Y-101350499D01*
X77895808Y-101370184D01*
X77941563Y-101422987D01*
X77951507Y-101492146D01*
X77922482Y-101555702D01*
X77916450Y-101562180D01*
X76917047Y-102561584D01*
X76917042Y-102561590D01*
X76896365Y-102592539D01*
X76889898Y-102602218D01*
X76869791Y-102632311D01*
X76834914Y-102684507D01*
X76778343Y-102821082D01*
X76778340Y-102821092D01*
X76749500Y-102966079D01*
X76749500Y-108525500D01*
X76729815Y-108592539D01*
X76677011Y-108638294D01*
X76625505Y-108649500D01*
X76602132Y-108649500D01*
X76602123Y-108649501D01*
X76542516Y-108655908D01*
X76407671Y-108706202D01*
X76407664Y-108706206D01*
X76292455Y-108792452D01*
X76292452Y-108792455D01*
X76206206Y-108907664D01*
X76206202Y-108907671D01*
X76155908Y-109042517D01*
X76149501Y-109102116D01*
X76149500Y-109102135D01*
X76149500Y-110897870D01*
X76149501Y-110897876D01*
X76155908Y-110957483D01*
X76206202Y-111092328D01*
X76206206Y-111092335D01*
X76292452Y-111207544D01*
X76292455Y-111207547D01*
X76407664Y-111293793D01*
X76407671Y-111293797D01*
X76542517Y-111344091D01*
X76542516Y-111344091D01*
X76549444Y-111344835D01*
X76602127Y-111350500D01*
X78397872Y-111350499D01*
X78457483Y-111344091D01*
X78592331Y-111293796D01*
X78707546Y-111207546D01*
X78793796Y-111092331D01*
X78842810Y-110960916D01*
X78884681Y-110904984D01*
X78950145Y-110880566D01*
X79018418Y-110895417D01*
X79046673Y-110916569D01*
X79160213Y-111030109D01*
X79332179Y-111155048D01*
X79332181Y-111155049D01*
X79332184Y-111155051D01*
X79521588Y-111251557D01*
X79723757Y-111317246D01*
X79933713Y-111350500D01*
X79933714Y-111350500D01*
X80146286Y-111350500D01*
X80146287Y-111350500D01*
X80356243Y-111317246D01*
X80558412Y-111251557D01*
X80747816Y-111155051D01*
X80834138Y-111092335D01*
X80919786Y-111030109D01*
X80919788Y-111030106D01*
X80919792Y-111030104D01*
X81070104Y-110879792D01*
X81070106Y-110879788D01*
X81070109Y-110879786D01*
X81195048Y-110707820D01*
X81195047Y-110707820D01*
X81195051Y-110707816D01*
X81199514Y-110699054D01*
X81247488Y-110648259D01*
X81315308Y-110631463D01*
X81381444Y-110653999D01*
X81420486Y-110699056D01*
X81424951Y-110707820D01*
X81549890Y-110879786D01*
X81700213Y-111030109D01*
X81872179Y-111155048D01*
X81872181Y-111155049D01*
X81872184Y-111155051D01*
X82061588Y-111251557D01*
X82263757Y-111317246D01*
X82473713Y-111350500D01*
X82473714Y-111350500D01*
X82686286Y-111350500D01*
X82686287Y-111350500D01*
X82896243Y-111317246D01*
X83098412Y-111251557D01*
X83287816Y-111155051D01*
X83374138Y-111092335D01*
X83459786Y-111030109D01*
X83459788Y-111030106D01*
X83459792Y-111030104D01*
X83610104Y-110879792D01*
X83610106Y-110879788D01*
X83610109Y-110879786D01*
X83735048Y-110707820D01*
X83735047Y-110707820D01*
X83735051Y-110707816D01*
X83739514Y-110699054D01*
X83787488Y-110648259D01*
X83855308Y-110631463D01*
X83921444Y-110653999D01*
X83960486Y-110699056D01*
X83964951Y-110707820D01*
X84089890Y-110879786D01*
X84240213Y-111030109D01*
X84412179Y-111155048D01*
X84412181Y-111155049D01*
X84412184Y-111155051D01*
X84601588Y-111251557D01*
X84803757Y-111317246D01*
X85013713Y-111350500D01*
X85013714Y-111350500D01*
X85226286Y-111350500D01*
X85226287Y-111350500D01*
X85436243Y-111317246D01*
X85637184Y-111251955D01*
X85707023Y-111249961D01*
X85766856Y-111286041D01*
X85797684Y-111348742D01*
X85799500Y-111369887D01*
X85799500Y-111538301D01*
X85779815Y-111605340D01*
X85727011Y-111651095D01*
X85657853Y-111661039D01*
X85651309Y-111659918D01*
X85573922Y-111644525D01*
X85573918Y-111644525D01*
X80991057Y-111644525D01*
X80991051Y-111644525D01*
X80962217Y-111650259D01*
X80962218Y-111650260D01*
X80846067Y-111673364D01*
X80846061Y-111673366D01*
X80804705Y-111690497D01*
X80709483Y-111729939D01*
X80709479Y-111729941D01*
X80694746Y-111739786D01*
X80680209Y-111749499D01*
X80586557Y-111812074D01*
X80586554Y-111812077D01*
X77785449Y-114613181D01*
X77724126Y-114646666D01*
X77697768Y-114649500D01*
X76562129Y-114649500D01*
X76562123Y-114649501D01*
X76502516Y-114655908D01*
X76367671Y-114706202D01*
X76367664Y-114706206D01*
X76252455Y-114792452D01*
X76252452Y-114792455D01*
X76166206Y-114907664D01*
X76166202Y-114907671D01*
X76115908Y-115042517D01*
X76109501Y-115102116D01*
X76109500Y-115102135D01*
X75500500Y-115102135D01*
X75500500Y-64813713D01*
X76149500Y-64813713D01*
X76149500Y-65026286D01*
X76182753Y-65236239D01*
X76248444Y-65438414D01*
X76344951Y-65627820D01*
X76469890Y-65799786D01*
X76620213Y-65950109D01*
X76792182Y-66075050D01*
X76800946Y-66079516D01*
X76851742Y-66127491D01*
X76868536Y-66195312D01*
X76845998Y-66261447D01*
X76800946Y-66300484D01*
X76792182Y-66304949D01*
X76620213Y-66429890D01*
X76469890Y-66580213D01*
X76344951Y-66752179D01*
X76248444Y-66941585D01*
X76182753Y-67143760D01*
X76149500Y-67353713D01*
X76149500Y-67566287D01*
X76182754Y-67776243D01*
X76237304Y-67944131D01*
X76248444Y-67978414D01*
X76344951Y-68167820D01*
X76469890Y-68339786D01*
X76583430Y-68453326D01*
X76616915Y-68514649D01*
X76611931Y-68584341D01*
X76570059Y-68640274D01*
X76539083Y-68657189D01*
X76407669Y-68706203D01*
X76407664Y-68706206D01*
X76292455Y-68792452D01*
X76292452Y-68792455D01*
X76206206Y-68907664D01*
X76206202Y-68907671D01*
X76155908Y-69042517D01*
X76151412Y-69084341D01*
X76149501Y-69102123D01*
X76149500Y-69102135D01*
X76149500Y-70897870D01*
X76149501Y-70897876D01*
X76155908Y-70957483D01*
X76206202Y-71092328D01*
X76206206Y-71092335D01*
X76292452Y-71207544D01*
X76292455Y-71207547D01*
X76407664Y-71293793D01*
X76407671Y-71293797D01*
X76542517Y-71344091D01*
X76542516Y-71344091D01*
X76549444Y-71344835D01*
X76602127Y-71350500D01*
X78397872Y-71350499D01*
X78457483Y-71344091D01*
X78592331Y-71293796D01*
X78707546Y-71207546D01*
X78793796Y-71092331D01*
X78844091Y-70957483D01*
X78850500Y-70897873D01*
X78850499Y-69102128D01*
X78844091Y-69042517D01*
X78824542Y-68990104D01*
X78793797Y-68907671D01*
X78793793Y-68907664D01*
X78707547Y-68792455D01*
X78707544Y-68792452D01*
X78592335Y-68706206D01*
X78592328Y-68706202D01*
X78460917Y-68657189D01*
X78404983Y-68615318D01*
X78380566Y-68549853D01*
X78395418Y-68481580D01*
X78416563Y-68453332D01*
X78530104Y-68339792D01*
X78655051Y-68167816D01*
X78751557Y-67978412D01*
X78817246Y-67776243D01*
X78850500Y-67566287D01*
X78850500Y-67353713D01*
X78817246Y-67143757D01*
X78751557Y-66941588D01*
X78655051Y-66752184D01*
X78655049Y-66752181D01*
X78655048Y-66752179D01*
X78530109Y-66580213D01*
X78379786Y-66429890D01*
X78207820Y-66304951D01*
X78207115Y-66304591D01*
X78199054Y-66300485D01*
X78148259Y-66252512D01*
X78131463Y-66184692D01*
X78153999Y-66118556D01*
X78199054Y-66079515D01*
X78207816Y-66075051D01*
X78283874Y-66019792D01*
X78379786Y-65950109D01*
X78379788Y-65950106D01*
X78379792Y-65950104D01*
X78530104Y-65799792D01*
X78530106Y-65799788D01*
X78530109Y-65799786D01*
X78655048Y-65627820D01*
X78655047Y-65627820D01*
X78655051Y-65627816D01*
X78751557Y-65438412D01*
X78817246Y-65236243D01*
X78850500Y-65026287D01*
X78850500Y-64813713D01*
X78817246Y-64603757D01*
X78751557Y-64401588D01*
X78655051Y-64212184D01*
X78655049Y-64212181D01*
X78655048Y-64212179D01*
X78530109Y-64040213D01*
X78379786Y-63889890D01*
X78216934Y-63771573D01*
X78216929Y-63771570D01*
X78207816Y-63764949D01*
X78194735Y-63758284D01*
X78191107Y-63756112D01*
X78170153Y-63733428D01*
X78147707Y-63712230D01*
X78146658Y-63707994D01*
X78143697Y-63704789D01*
X78138332Y-63674375D01*
X78130912Y-63644409D01*
X78132319Y-63640279D01*
X78131561Y-63635981D01*
X78143490Y-63607496D01*
X78153449Y-63578274D01*
X78157028Y-63575172D01*
X78158552Y-63571535D01*
X78171573Y-63562569D01*
X78198507Y-63539232D01*
X78207555Y-63534622D01*
X78261716Y-63495270D01*
X78261717Y-63495270D01*
X77629408Y-62862962D01*
X77692993Y-62845925D01*
X77807007Y-62780099D01*
X77900099Y-62687007D01*
X77965925Y-62572993D01*
X77982962Y-62509408D01*
X78615270Y-63141717D01*
X78615270Y-63141716D01*
X78654622Y-63087554D01*
X78751095Y-62898217D01*
X78816757Y-62696130D01*
X78816757Y-62696127D01*
X78850000Y-62486246D01*
X78850000Y-62273753D01*
X78816757Y-62063872D01*
X78816757Y-62063869D01*
X78751095Y-61861782D01*
X78654623Y-61672447D01*
X78654621Y-61672443D01*
X78615271Y-61618282D01*
X78615269Y-61618282D01*
X77982962Y-62250590D01*
X77965925Y-62187007D01*
X77900099Y-62072993D01*
X77807007Y-61979901D01*
X77692993Y-61914075D01*
X77629409Y-61897037D01*
X78261716Y-61264728D01*
X78207550Y-61225375D01*
X78018217Y-61128904D01*
X77816129Y-61063242D01*
X77606246Y-61030000D01*
X77393754Y-61030000D01*
X77183872Y-61063242D01*
X77183869Y-61063242D01*
X76981782Y-61128904D01*
X76792439Y-61225380D01*
X76738282Y-61264727D01*
X76738282Y-61264728D01*
X77370591Y-61897037D01*
X77307007Y-61914075D01*
X77192993Y-61979901D01*
X77099901Y-62072993D01*
X77034075Y-62187007D01*
X77017037Y-62250591D01*
X76384728Y-61618282D01*
X76384727Y-61618282D01*
X76345380Y-61672439D01*
X76248904Y-61861782D01*
X76183242Y-62063869D01*
X76183242Y-62063872D01*
X76150000Y-62273753D01*
X76150000Y-62486246D01*
X76183242Y-62696127D01*
X76183242Y-62696130D01*
X76248904Y-62898217D01*
X76345375Y-63087550D01*
X76384728Y-63141716D01*
X77017037Y-62509408D01*
X77034075Y-62572993D01*
X77099901Y-62687007D01*
X77192993Y-62780099D01*
X77307007Y-62845925D01*
X77370590Y-62862962D01*
X76738282Y-63495269D01*
X76738282Y-63495270D01*
X76792452Y-63534626D01*
X76792451Y-63534626D01*
X76801495Y-63539234D01*
X76852292Y-63587208D01*
X76869087Y-63655029D01*
X76846550Y-63721164D01*
X76801499Y-63760202D01*
X76792182Y-63764949D01*
X76620213Y-63889890D01*
X76469890Y-64040213D01*
X76344951Y-64212179D01*
X76248444Y-64401585D01*
X76182753Y-64603760D01*
X76149500Y-64813713D01*
X75500500Y-64813713D01*
X75500500Y-55213391D01*
X75520185Y-55146352D01*
X75572989Y-55100597D01*
X75642147Y-55090653D01*
X75705703Y-55119678D01*
X75720357Y-55134730D01*
X75722868Y-55137790D01*
X75866537Y-55281459D01*
X75866559Y-55281479D01*
X80869735Y-60284655D01*
X80869764Y-60284686D01*
X81012214Y-60427136D01*
X81012218Y-60427139D01*
X81176079Y-60536628D01*
X81176092Y-60536635D01*
X81304833Y-60589961D01*
X81347744Y-60607735D01*
X81358164Y-60612051D01*
X81454812Y-60631275D01*
X81503135Y-60640887D01*
X81551458Y-60650500D01*
X81551459Y-60650500D01*
X81551460Y-60650500D01*
X81748540Y-60650500D01*
X82624238Y-60650500D01*
X82691277Y-60670185D01*
X82697119Y-60674179D01*
X82818390Y-60762287D01*
X82902488Y-60805137D01*
X83000776Y-60855218D01*
X83000778Y-60855218D01*
X83000781Y-60855220D01*
X83105137Y-60889127D01*
X83195465Y-60918477D01*
X83288624Y-60933232D01*
X83397648Y-60950500D01*
X83397649Y-60950500D01*
X83602351Y-60950500D01*
X83602352Y-60950500D01*
X83804534Y-60918477D01*
X83999219Y-60855220D01*
X84181610Y-60762287D01*
X84308379Y-60670185D01*
X84347213Y-60641971D01*
X84347215Y-60641968D01*
X84347219Y-60641966D01*
X84491966Y-60497219D01*
X84491968Y-60497215D01*
X84491971Y-60497213D01*
X84544732Y-60424590D01*
X84612287Y-60331610D01*
X84705220Y-60149219D01*
X84768477Y-59954534D01*
X84800500Y-59752352D01*
X84800500Y-59547648D01*
X84768477Y-59345466D01*
X84768030Y-59344091D01*
X84719739Y-59195466D01*
X84705220Y-59150781D01*
X84705218Y-59150778D01*
X84705218Y-59150776D01*
X84661649Y-59065269D01*
X84612287Y-58968390D01*
X84604363Y-58957483D01*
X84491971Y-58802786D01*
X84347213Y-58658028D01*
X84181613Y-58537715D01*
X84181612Y-58537714D01*
X84181610Y-58537713D01*
X84101051Y-58496666D01*
X83999223Y-58444781D01*
X83804534Y-58381522D01*
X83629995Y-58353878D01*
X83602352Y-58349500D01*
X83397648Y-58349500D01*
X83373329Y-58353351D01*
X83195465Y-58381522D01*
X83000776Y-58444781D01*
X82818386Y-58537715D01*
X82697123Y-58625818D01*
X82631317Y-58649298D01*
X82624238Y-58649500D01*
X82115782Y-58649500D01*
X82048743Y-58629815D01*
X82028101Y-58613181D01*
X80517055Y-57102135D01*
X86109500Y-57102135D01*
X86109500Y-58897870D01*
X86109501Y-58897876D01*
X86115908Y-58957483D01*
X86166202Y-59092328D01*
X86166206Y-59092335D01*
X86252452Y-59207544D01*
X86252455Y-59207547D01*
X86367664Y-59293793D01*
X86367671Y-59293797D01*
X86502517Y-59344091D01*
X86502516Y-59344091D01*
X86509444Y-59344835D01*
X86562127Y-59350500D01*
X88357872Y-59350499D01*
X88417483Y-59344091D01*
X88552331Y-59293796D01*
X88667546Y-59207546D01*
X88753796Y-59092331D01*
X88802810Y-58960916D01*
X88844681Y-58904984D01*
X88910145Y-58880566D01*
X88978418Y-58895417D01*
X89006673Y-58916569D01*
X89120213Y-59030109D01*
X89292179Y-59155048D01*
X89292181Y-59155049D01*
X89292184Y-59155051D01*
X89481588Y-59251557D01*
X89683757Y-59317246D01*
X89893713Y-59350500D01*
X89893714Y-59350500D01*
X90106286Y-59350500D01*
X90106287Y-59350500D01*
X90316243Y-59317246D01*
X90518412Y-59251557D01*
X90707816Y-59155051D01*
X90729789Y-59139086D01*
X90879786Y-59030109D01*
X90879788Y-59030106D01*
X90879792Y-59030104D01*
X91030104Y-58879792D01*
X91030106Y-58879788D01*
X91030109Y-58879786D01*
X91152217Y-58711717D01*
X91155051Y-58707816D01*
X91159514Y-58699054D01*
X91207488Y-58648259D01*
X91275308Y-58631463D01*
X91341444Y-58653999D01*
X91380486Y-58699056D01*
X91384951Y-58707820D01*
X91509890Y-58879786D01*
X91660213Y-59030109D01*
X91832179Y-59155048D01*
X91832181Y-59155049D01*
X91832184Y-59155051D01*
X92021588Y-59251557D01*
X92223757Y-59317246D01*
X92433713Y-59350500D01*
X92433714Y-59350500D01*
X92646286Y-59350500D01*
X92646287Y-59350500D01*
X92856243Y-59317246D01*
X93058412Y-59251557D01*
X93247816Y-59155051D01*
X93269789Y-59139086D01*
X93419786Y-59030109D01*
X93419788Y-59030106D01*
X93419792Y-59030104D01*
X93570104Y-58879792D01*
X93570106Y-58879788D01*
X93570109Y-58879786D01*
X93692217Y-58711717D01*
X93695051Y-58707816D01*
X93699514Y-58699054D01*
X93747488Y-58648259D01*
X93815308Y-58631463D01*
X93881444Y-58653999D01*
X93920486Y-58699056D01*
X93924951Y-58707820D01*
X94049890Y-58879786D01*
X94200213Y-59030109D01*
X94372179Y-59155048D01*
X94372181Y-59155049D01*
X94372184Y-59155051D01*
X94561588Y-59251557D01*
X94763757Y-59317246D01*
X94973713Y-59350500D01*
X94973714Y-59350500D01*
X95186286Y-59350500D01*
X95186287Y-59350500D01*
X95396243Y-59317246D01*
X95598412Y-59251557D01*
X95787816Y-59155051D01*
X95809789Y-59139086D01*
X95959786Y-59030109D01*
X95959788Y-59030106D01*
X95959792Y-59030104D01*
X96110104Y-58879792D01*
X96110106Y-58879788D01*
X96110109Y-58879786D01*
X96232217Y-58711717D01*
X96235051Y-58707816D01*
X96331557Y-58518412D01*
X96397246Y-58316243D01*
X96430500Y-58106287D01*
X96430500Y-57893713D01*
X96397246Y-57683757D01*
X96331557Y-57481588D01*
X96235051Y-57292184D01*
X96198910Y-57242440D01*
X96111215Y-57121736D01*
X96111213Y-57121734D01*
X96110105Y-57120209D01*
X96042051Y-57052155D01*
X101380000Y-57052155D01*
X101380000Y-57700000D01*
X102296988Y-57700000D01*
X102264075Y-57757007D01*
X102230000Y-57884174D01*
X102230000Y-58015826D01*
X102264075Y-58142993D01*
X102296988Y-58200000D01*
X101380000Y-58200000D01*
X101380000Y-58847844D01*
X101386401Y-58907372D01*
X101386403Y-58907379D01*
X101436645Y-59042086D01*
X101436649Y-59042093D01*
X101522809Y-59157187D01*
X101522812Y-59157190D01*
X101637906Y-59243350D01*
X101637913Y-59243354D01*
X101772620Y-59293596D01*
X101772627Y-59293598D01*
X101832155Y-59299999D01*
X101832172Y-59300000D01*
X102480000Y-59300000D01*
X102480000Y-58383012D01*
X102537007Y-58415925D01*
X102664174Y-58450000D01*
X102795826Y-58450000D01*
X102922993Y-58415925D01*
X102980000Y-58383012D01*
X102980000Y-59300000D01*
X103627828Y-59300000D01*
X103627844Y-59299999D01*
X103687372Y-59293598D01*
X103687379Y-59293596D01*
X103822086Y-59243354D01*
X103822093Y-59243350D01*
X103937187Y-59157190D01*
X103937190Y-59157187D01*
X104023350Y-59042093D01*
X104023354Y-59042086D01*
X104045529Y-58982632D01*
X104084319Y-58809390D01*
X104084682Y-58808734D01*
X104084642Y-58807984D01*
X104117642Y-58748802D01*
X104787037Y-58079408D01*
X104804075Y-58142993D01*
X104869901Y-58257007D01*
X104962993Y-58350099D01*
X105077007Y-58415925D01*
X105140590Y-58432962D01*
X104508282Y-59065269D01*
X104508282Y-59065270D01*
X104562449Y-59104624D01*
X104751782Y-59201095D01*
X104953870Y-59266757D01*
X105163754Y-59300000D01*
X105376246Y-59300000D01*
X105586127Y-59266757D01*
X105586130Y-59266757D01*
X105788217Y-59201095D01*
X105977554Y-59104622D01*
X106031716Y-59065270D01*
X106031717Y-59065270D01*
X105399408Y-58432962D01*
X105462993Y-58415925D01*
X105577007Y-58350099D01*
X105670099Y-58257007D01*
X105735925Y-58142993D01*
X105752962Y-58079408D01*
X106385270Y-58711717D01*
X106385270Y-58711716D01*
X106424622Y-58657554D01*
X106429514Y-58647954D01*
X106477488Y-58597157D01*
X106545308Y-58580361D01*
X106611444Y-58602897D01*
X106650486Y-58647954D01*
X106655375Y-58657550D01*
X106694728Y-58711716D01*
X107327037Y-58079408D01*
X107344075Y-58142993D01*
X107409901Y-58257007D01*
X107502993Y-58350099D01*
X107617007Y-58415925D01*
X107680590Y-58432962D01*
X107048282Y-59065269D01*
X107048282Y-59065270D01*
X107102449Y-59104624D01*
X107291782Y-59201095D01*
X107493870Y-59266757D01*
X107703754Y-59300000D01*
X107916246Y-59300000D01*
X108126127Y-59266757D01*
X108126130Y-59266757D01*
X108328217Y-59201095D01*
X108517554Y-59104622D01*
X108571716Y-59065270D01*
X108571717Y-59065270D01*
X107939408Y-58432962D01*
X108002993Y-58415925D01*
X108117007Y-58350099D01*
X108210099Y-58257007D01*
X108275925Y-58142993D01*
X108292962Y-58079409D01*
X108925270Y-58711717D01*
X108925270Y-58711716D01*
X108964622Y-58657554D01*
X108969514Y-58647954D01*
X109017488Y-58597157D01*
X109085308Y-58580361D01*
X109151444Y-58602897D01*
X109190486Y-58647954D01*
X109195375Y-58657550D01*
X109234728Y-58711716D01*
X109867037Y-58079408D01*
X109884075Y-58142993D01*
X109949901Y-58257007D01*
X110042993Y-58350099D01*
X110157007Y-58415925D01*
X110220590Y-58432962D01*
X109588282Y-59065269D01*
X109588282Y-59065270D01*
X109642449Y-59104624D01*
X109831782Y-59201095D01*
X110033870Y-59266757D01*
X110243754Y-59300000D01*
X110456246Y-59300000D01*
X110666127Y-59266757D01*
X110666130Y-59266757D01*
X110868217Y-59201095D01*
X111057554Y-59104622D01*
X111111716Y-59065270D01*
X111111717Y-59065270D01*
X110479408Y-58432962D01*
X110542993Y-58415925D01*
X110657007Y-58350099D01*
X110750099Y-58257007D01*
X110815925Y-58142993D01*
X110832962Y-58079408D01*
X111465270Y-58711717D01*
X111465270Y-58711716D01*
X111504622Y-58657554D01*
X111601095Y-58468217D01*
X111666757Y-58266130D01*
X111666757Y-58266127D01*
X111700000Y-58056246D01*
X111700000Y-57843753D01*
X111666757Y-57633872D01*
X111666757Y-57633869D01*
X111601095Y-57431782D01*
X111504624Y-57242449D01*
X111465270Y-57188282D01*
X111465269Y-57188282D01*
X110832962Y-57820590D01*
X110815925Y-57757007D01*
X110750099Y-57642993D01*
X110657007Y-57549901D01*
X110542993Y-57484075D01*
X110479409Y-57467037D01*
X111111716Y-56834728D01*
X111057550Y-56795375D01*
X110868217Y-56698904D01*
X110666129Y-56633242D01*
X110456246Y-56600000D01*
X110243754Y-56600000D01*
X110033872Y-56633242D01*
X110033869Y-56633242D01*
X109831782Y-56698904D01*
X109642439Y-56795380D01*
X109588282Y-56834727D01*
X109588282Y-56834728D01*
X110220591Y-57467037D01*
X110157007Y-57484075D01*
X110042993Y-57549901D01*
X109949901Y-57642993D01*
X109884075Y-57757007D01*
X109867037Y-57820591D01*
X109234728Y-57188282D01*
X109234727Y-57188282D01*
X109195380Y-57242440D01*
X109190483Y-57252051D01*
X109142506Y-57302845D01*
X109074684Y-57319638D01*
X109008550Y-57297098D01*
X108969516Y-57252048D01*
X108964626Y-57242452D01*
X108925270Y-57188282D01*
X108925269Y-57188282D01*
X108292962Y-57820590D01*
X108275925Y-57757007D01*
X108210099Y-57642993D01*
X108117007Y-57549901D01*
X108002993Y-57484075D01*
X107939409Y-57467037D01*
X108571716Y-56834728D01*
X108517550Y-56795375D01*
X108328217Y-56698904D01*
X108126129Y-56633242D01*
X107916246Y-56600000D01*
X107703754Y-56600000D01*
X107493872Y-56633242D01*
X107493869Y-56633242D01*
X107291782Y-56698904D01*
X107102439Y-56795380D01*
X107048282Y-56834727D01*
X107048282Y-56834728D01*
X107680591Y-57467037D01*
X107617007Y-57484075D01*
X107502993Y-57549901D01*
X107409901Y-57642993D01*
X107344075Y-57757007D01*
X107327037Y-57820591D01*
X106694728Y-57188282D01*
X106694727Y-57188282D01*
X106655380Y-57242440D01*
X106650483Y-57252051D01*
X106602506Y-57302845D01*
X106534684Y-57319638D01*
X106468550Y-57297098D01*
X106429516Y-57252048D01*
X106424626Y-57242452D01*
X106385270Y-57188282D01*
X106385269Y-57188282D01*
X105752962Y-57820590D01*
X105735925Y-57757007D01*
X105670099Y-57642993D01*
X105577007Y-57549901D01*
X105462993Y-57484075D01*
X105399409Y-57467037D01*
X106031716Y-56834728D01*
X105977550Y-56795375D01*
X105788217Y-56698904D01*
X105586129Y-56633242D01*
X105376246Y-56600000D01*
X105163754Y-56600000D01*
X104953872Y-56633242D01*
X104953869Y-56633242D01*
X104751782Y-56698904D01*
X104562439Y-56795380D01*
X104508282Y-56834727D01*
X104508282Y-56834728D01*
X105140591Y-57467037D01*
X105077007Y-57484075D01*
X104962993Y-57549901D01*
X104869901Y-57642993D01*
X104804075Y-57757007D01*
X104787037Y-57820591D01*
X104117642Y-57151196D01*
X104084319Y-57090609D01*
X104045527Y-56917364D01*
X104023354Y-56857913D01*
X104023350Y-56857906D01*
X103937190Y-56742812D01*
X103937187Y-56742809D01*
X103822093Y-56656649D01*
X103822086Y-56656645D01*
X103687379Y-56606403D01*
X103687372Y-56606401D01*
X103627844Y-56600000D01*
X102980000Y-56600000D01*
X102980000Y-57516988D01*
X102922993Y-57484075D01*
X102795826Y-57450000D01*
X102664174Y-57450000D01*
X102537007Y-57484075D01*
X102480000Y-57516988D01*
X102480000Y-56600000D01*
X101832155Y-56600000D01*
X101772627Y-56606401D01*
X101772620Y-56606403D01*
X101637913Y-56656645D01*
X101637906Y-56656649D01*
X101522812Y-56742809D01*
X101522809Y-56742812D01*
X101436649Y-56857906D01*
X101436645Y-56857913D01*
X101386403Y-56992620D01*
X101386401Y-56992627D01*
X101380000Y-57052155D01*
X96042051Y-57052155D01*
X95959786Y-56969890D01*
X95787820Y-56844951D01*
X95598414Y-56748444D01*
X95598413Y-56748443D01*
X95598412Y-56748443D01*
X95396243Y-56682754D01*
X95396241Y-56682753D01*
X95396240Y-56682753D01*
X95231398Y-56656645D01*
X95186287Y-56649500D01*
X94973713Y-56649500D01*
X94928602Y-56656645D01*
X94763760Y-56682753D01*
X94561585Y-56748444D01*
X94372179Y-56844951D01*
X94200213Y-56969890D01*
X94049890Y-57120213D01*
X93924949Y-57292182D01*
X93920484Y-57300946D01*
X93872509Y-57351742D01*
X93804688Y-57368536D01*
X93738553Y-57345998D01*
X93699516Y-57300946D01*
X93695050Y-57292182D01*
X93570109Y-57120213D01*
X93419786Y-56969890D01*
X93247820Y-56844951D01*
X93058414Y-56748444D01*
X93058413Y-56748443D01*
X93058412Y-56748443D01*
X92856243Y-56682754D01*
X92856241Y-56682753D01*
X92856240Y-56682753D01*
X92691398Y-56656645D01*
X92646287Y-56649500D01*
X92433713Y-56649500D01*
X92388602Y-56656645D01*
X92223760Y-56682753D01*
X92021585Y-56748444D01*
X91832179Y-56844951D01*
X91660213Y-56969890D01*
X91509890Y-57120213D01*
X91384949Y-57292182D01*
X91380484Y-57300946D01*
X91332509Y-57351742D01*
X91264688Y-57368536D01*
X91198553Y-57345998D01*
X91159516Y-57300946D01*
X91155050Y-57292182D01*
X91030109Y-57120213D01*
X90879786Y-56969890D01*
X90707820Y-56844951D01*
X90518414Y-56748444D01*
X90518413Y-56748443D01*
X90518412Y-56748443D01*
X90316243Y-56682754D01*
X90316241Y-56682753D01*
X90316240Y-56682753D01*
X90151398Y-56656645D01*
X90106287Y-56649500D01*
X89893713Y-56649500D01*
X89848602Y-56656645D01*
X89683760Y-56682753D01*
X89481585Y-56748444D01*
X89292179Y-56844951D01*
X89120215Y-56969889D01*
X89006673Y-57083431D01*
X88945350Y-57116915D01*
X88875658Y-57111931D01*
X88819725Y-57070059D01*
X88802810Y-57039082D01*
X88753797Y-56907671D01*
X88753793Y-56907664D01*
X88667547Y-56792455D01*
X88667544Y-56792452D01*
X88552335Y-56706206D01*
X88552328Y-56706202D01*
X88417482Y-56655908D01*
X88417483Y-56655908D01*
X88357883Y-56649501D01*
X88357881Y-56649500D01*
X88357873Y-56649500D01*
X88357864Y-56649500D01*
X86562129Y-56649500D01*
X86562123Y-56649501D01*
X86502516Y-56655908D01*
X86367671Y-56706202D01*
X86367664Y-56706206D01*
X86252455Y-56792452D01*
X86252452Y-56792455D01*
X86166206Y-56907664D01*
X86166202Y-56907671D01*
X86115908Y-57042517D01*
X86109501Y-57102116D01*
X86109500Y-57102135D01*
X80517055Y-57102135D01*
X77536819Y-54121899D01*
X77503334Y-54060576D01*
X77500500Y-54034218D01*
X77500500Y-52838988D01*
X77520185Y-52771949D01*
X77572989Y-52726194D01*
X77642147Y-52716250D01*
X77705703Y-52745275D01*
X77742205Y-52799982D01*
X77765186Y-52869334D01*
X77857288Y-53018656D01*
X77981344Y-53142712D01*
X78130666Y-53234814D01*
X78297203Y-53289999D01*
X78399991Y-53300500D01*
X79600008Y-53300499D01*
X79702797Y-53289999D01*
X79869334Y-53234814D01*
X80018656Y-53142712D01*
X80142712Y-53018656D01*
X80234814Y-52869334D01*
X80249426Y-52825237D01*
X80289195Y-52767796D01*
X80353711Y-52740972D01*
X80422487Y-52753286D01*
X80467448Y-52791358D01*
X80508032Y-52847217D01*
X80652786Y-52991971D01*
X80807749Y-53104556D01*
X80818390Y-53112287D01*
X80934607Y-53171503D01*
X81000776Y-53205218D01*
X81000778Y-53205218D01*
X81000781Y-53205220D01*
X81091856Y-53234812D01*
X81195465Y-53268477D01*
X81296557Y-53284488D01*
X81397648Y-53300500D01*
X81397649Y-53300500D01*
X81602351Y-53300500D01*
X81602352Y-53300500D01*
X81804534Y-53268477D01*
X81999219Y-53205220D01*
X82181610Y-53112287D01*
X82302877Y-53024181D01*
X82368683Y-53000702D01*
X82375762Y-53000500D01*
X89632465Y-53000500D01*
X89699504Y-53020185D01*
X89745259Y-53072989D01*
X89755823Y-53111898D01*
X89760001Y-53152797D01*
X89760001Y-53152799D01*
X89805465Y-53289998D01*
X89815186Y-53319334D01*
X89907288Y-53468656D01*
X90031344Y-53592712D01*
X90180666Y-53684814D01*
X90347203Y-53739999D01*
X90449991Y-53750500D01*
X91784217Y-53750499D01*
X91851256Y-53770184D01*
X91871898Y-53786818D01*
X92719735Y-54634655D01*
X92719764Y-54634686D01*
X92862214Y-54777136D01*
X92862218Y-54777139D01*
X93026079Y-54886628D01*
X93026092Y-54886635D01*
X93154833Y-54939961D01*
X93197744Y-54957735D01*
X93208164Y-54962051D01*
X93304812Y-54981275D01*
X93353135Y-54990887D01*
X93401458Y-55000500D01*
X93401459Y-55000500D01*
X93401460Y-55000500D01*
X93598540Y-55000500D01*
X98624238Y-55000500D01*
X98691277Y-55020185D01*
X98697119Y-55024179D01*
X98818390Y-55112287D01*
X98934607Y-55171503D01*
X99000776Y-55205218D01*
X99000778Y-55205218D01*
X99000781Y-55205220D01*
X99094623Y-55235711D01*
X99195465Y-55268477D01*
X99250167Y-55277141D01*
X99397648Y-55300500D01*
X99397649Y-55300500D01*
X99602351Y-55300500D01*
X99602352Y-55300500D01*
X99804534Y-55268477D01*
X99999219Y-55205220D01*
X100181610Y-55112287D01*
X100308379Y-55020185D01*
X100347213Y-54991971D01*
X100347215Y-54991968D01*
X100347219Y-54991966D01*
X100491966Y-54847219D01*
X100491968Y-54847215D01*
X100491971Y-54847213D01*
X100592883Y-54708317D01*
X100612287Y-54681610D01*
X100705220Y-54499219D01*
X100768477Y-54304534D01*
X100800500Y-54102352D01*
X100800500Y-53897648D01*
X103699500Y-53897648D01*
X103699500Y-54102351D01*
X103731522Y-54304534D01*
X103794781Y-54499223D01*
X103857289Y-54621900D01*
X103865381Y-54637782D01*
X103887715Y-54681613D01*
X104008028Y-54847213D01*
X104152786Y-54991971D01*
X104288613Y-55090653D01*
X104318390Y-55112287D01*
X104434607Y-55171503D01*
X104500776Y-55205218D01*
X104500778Y-55205218D01*
X104500781Y-55205220D01*
X104594623Y-55235711D01*
X104695465Y-55268477D01*
X104750167Y-55277141D01*
X104897648Y-55300500D01*
X104897649Y-55300500D01*
X105102351Y-55300500D01*
X105102352Y-55300500D01*
X105304534Y-55268477D01*
X105499219Y-55205220D01*
X105681610Y-55112287D01*
X105802877Y-55024181D01*
X105868683Y-55000702D01*
X105875762Y-55000500D01*
X109624238Y-55000500D01*
X109691277Y-55020185D01*
X109697119Y-55024179D01*
X109818390Y-55112287D01*
X109934607Y-55171503D01*
X110000776Y-55205218D01*
X110000778Y-55205218D01*
X110000781Y-55205220D01*
X110094623Y-55235711D01*
X110195465Y-55268477D01*
X110250167Y-55277141D01*
X110397648Y-55300500D01*
X110397649Y-55300500D01*
X110602351Y-55300500D01*
X110602352Y-55300500D01*
X110804534Y-55268477D01*
X110999219Y-55205220D01*
X111181610Y-55112287D01*
X111308379Y-55020185D01*
X111347213Y-54991971D01*
X111347215Y-54991968D01*
X111347219Y-54991966D01*
X111491966Y-54847219D01*
X111491968Y-54847215D01*
X111491971Y-54847213D01*
X111592883Y-54708317D01*
X111612287Y-54681610D01*
X111705220Y-54499219D01*
X111768477Y-54304534D01*
X111800500Y-54102352D01*
X111800500Y-53897648D01*
X111777194Y-53750499D01*
X111768477Y-53695465D01*
X111705218Y-53500776D01*
X111671503Y-53434607D01*
X111612287Y-53318390D01*
X111591659Y-53289998D01*
X111491971Y-53152786D01*
X111347213Y-53008028D01*
X111181613Y-52887715D01*
X111181612Y-52887714D01*
X111181610Y-52887713D01*
X111124653Y-52858691D01*
X110999223Y-52794781D01*
X110804534Y-52731522D01*
X110623168Y-52702797D01*
X110602352Y-52699500D01*
X110397648Y-52699500D01*
X110376832Y-52702797D01*
X110195465Y-52731522D01*
X110000776Y-52794781D01*
X109818386Y-52887715D01*
X109697123Y-52975818D01*
X109631317Y-52999298D01*
X109624238Y-52999500D01*
X105875762Y-52999500D01*
X105808723Y-52979815D01*
X105802877Y-52975818D01*
X105681613Y-52887715D01*
X105681612Y-52887714D01*
X105681610Y-52887713D01*
X105624653Y-52858691D01*
X105499223Y-52794781D01*
X105304534Y-52731522D01*
X105123168Y-52702797D01*
X105102352Y-52699500D01*
X104897648Y-52699500D01*
X104876832Y-52702797D01*
X104695465Y-52731522D01*
X104500776Y-52794781D01*
X104318386Y-52887715D01*
X104152786Y-53008028D01*
X104008028Y-53152786D01*
X103887715Y-53318386D01*
X103794781Y-53500776D01*
X103731522Y-53695465D01*
X103699500Y-53897648D01*
X100800500Y-53897648D01*
X100777194Y-53750499D01*
X100768477Y-53695465D01*
X100705218Y-53500776D01*
X100671503Y-53434607D01*
X100612287Y-53318390D01*
X100591659Y-53289998D01*
X100491971Y-53152786D01*
X100347213Y-53008028D01*
X100181613Y-52887715D01*
X100181612Y-52887714D01*
X100181610Y-52887713D01*
X100124653Y-52858691D01*
X99999223Y-52794781D01*
X99804534Y-52731522D01*
X99623168Y-52702797D01*
X99602352Y-52699500D01*
X99397648Y-52699500D01*
X99376832Y-52702797D01*
X99195465Y-52731522D01*
X99000776Y-52794781D01*
X98818386Y-52887715D01*
X98697123Y-52975818D01*
X98631317Y-52999298D01*
X98624238Y-52999500D01*
X93965782Y-52999500D01*
X93898743Y-52979815D01*
X93878101Y-52963181D01*
X93286818Y-52371898D01*
X93253333Y-52310575D01*
X93250499Y-52284217D01*
X93250499Y-50949998D01*
X93250498Y-50949981D01*
X93239999Y-50847203D01*
X93239998Y-50847200D01*
X93222628Y-50794781D01*
X93184814Y-50680666D01*
X93092712Y-50531344D01*
X92968656Y-50407288D01*
X92819334Y-50315186D01*
X92652797Y-50260001D01*
X92652795Y-50260000D01*
X92550010Y-50249500D01*
X90449998Y-50249500D01*
X90449981Y-50249501D01*
X90347203Y-50260000D01*
X90347200Y-50260001D01*
X90180668Y-50315185D01*
X90180663Y-50315187D01*
X90031342Y-50407289D01*
X89907289Y-50531342D01*
X89815187Y-50680663D01*
X89815185Y-50680668D01*
X89760001Y-50847204D01*
X89760000Y-50847205D01*
X89757001Y-50876565D01*
X89755863Y-50887715D01*
X89755823Y-50888102D01*
X89729427Y-50952793D01*
X89672247Y-50992945D01*
X89632465Y-50999500D01*
X82375762Y-50999500D01*
X82308723Y-50979815D01*
X82302877Y-50975818D01*
X82181613Y-50887715D01*
X82181612Y-50887714D01*
X82181610Y-50887713D01*
X81999219Y-50794780D01*
X81905548Y-50764344D01*
X81847873Y-50724907D01*
X81820675Y-50660549D01*
X81832590Y-50591702D01*
X81856186Y-50558733D01*
X83777136Y-48637785D01*
X83777137Y-48637784D01*
X83777137Y-48637783D01*
X83777139Y-48637782D01*
X83823912Y-48567781D01*
X83886632Y-48473914D01*
X83962051Y-48291835D01*
X83974632Y-48228582D01*
X84000500Y-48098543D01*
X84000500Y-41885258D01*
X89749500Y-41885258D01*
X89749500Y-42114741D01*
X89769864Y-42269409D01*
X89779452Y-42342238D01*
X89838842Y-42563887D01*
X89926650Y-42775876D01*
X89926657Y-42775890D01*
X90041392Y-42974617D01*
X90181081Y-43156661D01*
X90181089Y-43156670D01*
X90343333Y-43318914D01*
X90343340Y-43318920D01*
X90450986Y-43401520D01*
X90492189Y-43457948D01*
X90499500Y-43499896D01*
X90499500Y-45500103D01*
X90479815Y-45567142D01*
X90450988Y-45598478D01*
X90343339Y-45681081D01*
X90181081Y-45843338D01*
X90041392Y-46025382D01*
X89926657Y-46224109D01*
X89926650Y-46224123D01*
X89838842Y-46436112D01*
X89779453Y-46657759D01*
X89779451Y-46657770D01*
X89749500Y-46885258D01*
X89749500Y-47114741D01*
X89765667Y-47237532D01*
X89779452Y-47342238D01*
X89779453Y-47342240D01*
X89838842Y-47563887D01*
X89926650Y-47775876D01*
X89926657Y-47775890D01*
X90041392Y-47974617D01*
X90181081Y-48156661D01*
X90181089Y-48156670D01*
X90343330Y-48318911D01*
X90343338Y-48318918D01*
X90525382Y-48458607D01*
X90525385Y-48458608D01*
X90525388Y-48458611D01*
X90724112Y-48573344D01*
X90724117Y-48573346D01*
X90724123Y-48573349D01*
X90815480Y-48611190D01*
X90936113Y-48661158D01*
X91157762Y-48720548D01*
X91385266Y-48750500D01*
X91385273Y-48750500D01*
X91614727Y-48750500D01*
X91614734Y-48750500D01*
X91842238Y-48720548D01*
X92063887Y-48661158D01*
X92275888Y-48573344D01*
X92474612Y-48458611D01*
X92656661Y-48318919D01*
X92656665Y-48318914D01*
X92656670Y-48318911D01*
X92818911Y-48156670D01*
X92818914Y-48156665D01*
X92818919Y-48156661D01*
X92958611Y-47974612D01*
X93073344Y-47775888D01*
X93161158Y-47563887D01*
X93220548Y-47342238D01*
X93250500Y-47114734D01*
X93250500Y-46885266D01*
X93220548Y-46657762D01*
X93161158Y-46436113D01*
X93111190Y-46315480D01*
X93073349Y-46224123D01*
X93073346Y-46224117D01*
X93073344Y-46224112D01*
X92958611Y-46025388D01*
X92958608Y-46025385D01*
X92958607Y-46025382D01*
X92818918Y-45843338D01*
X92783608Y-45808028D01*
X92656661Y-45681081D01*
X92549012Y-45598478D01*
X92507810Y-45542050D01*
X92500500Y-45500103D01*
X92500500Y-43499896D01*
X92520185Y-43432857D01*
X92549014Y-43401520D01*
X92582494Y-43375829D01*
X92656661Y-43318919D01*
X92656666Y-43318914D01*
X92818911Y-43156670D01*
X92818914Y-43156665D01*
X92818919Y-43156661D01*
X92958611Y-42974612D01*
X93073344Y-42775888D01*
X93161158Y-42563887D01*
X93220548Y-42342238D01*
X93250500Y-42114734D01*
X93250500Y-41885266D01*
X93220548Y-41657762D01*
X93161158Y-41436113D01*
X93116643Y-41328644D01*
X93080020Y-41240228D01*
X93073349Y-41224123D01*
X93073346Y-41224117D01*
X93073344Y-41224112D01*
X93058065Y-41197648D01*
X98199500Y-41197648D01*
X98199500Y-41402351D01*
X98231522Y-41604534D01*
X98294781Y-41799223D01*
X98387715Y-41981613D01*
X98508028Y-42147213D01*
X98652786Y-42291971D01*
X98807749Y-42404556D01*
X98818390Y-42412287D01*
X98934607Y-42471503D01*
X99000776Y-42505218D01*
X99000778Y-42505218D01*
X99000781Y-42505220D01*
X99105137Y-42539127D01*
X99195465Y-42568477D01*
X99296557Y-42584488D01*
X99397648Y-42600500D01*
X99397649Y-42600500D01*
X99602351Y-42600500D01*
X99602352Y-42600500D01*
X99804534Y-42568477D01*
X99999219Y-42505220D01*
X100181610Y-42412287D01*
X100302877Y-42324181D01*
X100368683Y-42300702D01*
X100375762Y-42300500D01*
X104124238Y-42300500D01*
X104191277Y-42320185D01*
X104197119Y-42324179D01*
X104318390Y-42412287D01*
X104434607Y-42471503D01*
X104500776Y-42505218D01*
X104500778Y-42505218D01*
X104500781Y-42505220D01*
X104605137Y-42539127D01*
X104695465Y-42568477D01*
X104796557Y-42584488D01*
X104897648Y-42600500D01*
X104897649Y-42600500D01*
X105102351Y-42600500D01*
X105102352Y-42600500D01*
X105304534Y-42568477D01*
X105499219Y-42505220D01*
X105681610Y-42412287D01*
X105808379Y-42320185D01*
X105847213Y-42291971D01*
X105847215Y-42291968D01*
X105847219Y-42291966D01*
X105991966Y-42147219D01*
X105991968Y-42147215D01*
X105991971Y-42147213D01*
X106056394Y-42058541D01*
X106112287Y-41981610D01*
X106205220Y-41799219D01*
X106268477Y-41604534D01*
X106300500Y-41402352D01*
X106300500Y-41197648D01*
X109199500Y-41197648D01*
X109199500Y-41402351D01*
X109231522Y-41604534D01*
X109294781Y-41799223D01*
X109387715Y-41981613D01*
X109508028Y-42147213D01*
X109652786Y-42291971D01*
X109807749Y-42404556D01*
X109818390Y-42412287D01*
X109934607Y-42471503D01*
X110000776Y-42505218D01*
X110000778Y-42505218D01*
X110000781Y-42505220D01*
X110105137Y-42539127D01*
X110195465Y-42568477D01*
X110296557Y-42584488D01*
X110397648Y-42600500D01*
X110397649Y-42600500D01*
X110602351Y-42600500D01*
X110602352Y-42600500D01*
X110804534Y-42568477D01*
X110999219Y-42505220D01*
X111181610Y-42412287D01*
X111302877Y-42324181D01*
X111368683Y-42300702D01*
X111375762Y-42300500D01*
X115124238Y-42300500D01*
X115191277Y-42320185D01*
X115197119Y-42324179D01*
X115318390Y-42412287D01*
X115434607Y-42471503D01*
X115500776Y-42505218D01*
X115500778Y-42505218D01*
X115500781Y-42505220D01*
X115605137Y-42539127D01*
X115695465Y-42568477D01*
X115796557Y-42584488D01*
X115897648Y-42600500D01*
X115897649Y-42600500D01*
X116102351Y-42600500D01*
X116102352Y-42600500D01*
X116304534Y-42568477D01*
X116499219Y-42505220D01*
X116681610Y-42412287D01*
X116808379Y-42320185D01*
X116847213Y-42291971D01*
X116847215Y-42291968D01*
X116847219Y-42291966D01*
X116991966Y-42147219D01*
X116991968Y-42147215D01*
X116991971Y-42147213D01*
X117056394Y-42058541D01*
X117112287Y-41981610D01*
X117205220Y-41799219D01*
X117268477Y-41604534D01*
X117300500Y-41402352D01*
X117300500Y-41197648D01*
X117268477Y-40995466D01*
X117256569Y-40958816D01*
X117250500Y-40920498D01*
X117250500Y-39375761D01*
X117270185Y-39308722D01*
X117274165Y-39302899D01*
X117362287Y-39181610D01*
X117389515Y-39128171D01*
X117437490Y-39077376D01*
X117505311Y-39060581D01*
X117571446Y-39083118D01*
X117610485Y-39128172D01*
X117637715Y-39181613D01*
X117758028Y-39347213D01*
X117902786Y-39491971D01*
X118057749Y-39604556D01*
X118068390Y-39612287D01*
X118173380Y-39665782D01*
X118250776Y-39705218D01*
X118250778Y-39705218D01*
X118250781Y-39705220D01*
X118336695Y-39733135D01*
X118445465Y-39768477D01*
X118546557Y-39784488D01*
X118647648Y-39800500D01*
X118647649Y-39800500D01*
X118852351Y-39800500D01*
X118852352Y-39800500D01*
X119054534Y-39768477D01*
X119249219Y-39705220D01*
X119431610Y-39612287D01*
X119524590Y-39544732D01*
X119597213Y-39491971D01*
X119597215Y-39491968D01*
X119597219Y-39491966D01*
X119741966Y-39347219D01*
X119741968Y-39347215D01*
X119741971Y-39347213D01*
X119794732Y-39274590D01*
X119862287Y-39181610D01*
X119955220Y-38999219D01*
X120018477Y-38804534D01*
X120050500Y-38602352D01*
X120050500Y-38397648D01*
X120018477Y-38195466D01*
X119955220Y-38000781D01*
X119955218Y-38000778D01*
X119955218Y-38000776D01*
X119889515Y-37871828D01*
X119862287Y-37818390D01*
X119854556Y-37807749D01*
X119741971Y-37652786D01*
X119597213Y-37508028D01*
X119431613Y-37387715D01*
X119431612Y-37387714D01*
X119431610Y-37387713D01*
X119374653Y-37358691D01*
X119249223Y-37294781D01*
X119054534Y-37231522D01*
X118879995Y-37203878D01*
X118852352Y-37199500D01*
X118647648Y-37199500D01*
X118623329Y-37203351D01*
X118445465Y-37231522D01*
X118250776Y-37294781D01*
X118068386Y-37387715D01*
X117902786Y-37508028D01*
X117758028Y-37652786D01*
X117637713Y-37818388D01*
X117610484Y-37871828D01*
X117562510Y-37922623D01*
X117494688Y-37939418D01*
X117428554Y-37916880D01*
X117389516Y-37871828D01*
X117362286Y-37818388D01*
X117241971Y-37652786D01*
X117097213Y-37508028D01*
X116931613Y-37387715D01*
X116931612Y-37387714D01*
X116931610Y-37387713D01*
X116874653Y-37358691D01*
X116749223Y-37294781D01*
X116554534Y-37231522D01*
X116379995Y-37203878D01*
X116352352Y-37199500D01*
X116147648Y-37199500D01*
X116123329Y-37203351D01*
X115945465Y-37231522D01*
X115750776Y-37294781D01*
X115568386Y-37387715D01*
X115402786Y-37508028D01*
X115258028Y-37652786D01*
X115137715Y-37818386D01*
X115044781Y-38000776D01*
X114981522Y-38195465D01*
X114949500Y-38397648D01*
X114949500Y-38602351D01*
X114981522Y-38804534D01*
X115015197Y-38908172D01*
X115044780Y-38999219D01*
X115137713Y-39181610D01*
X115225819Y-39302877D01*
X115249298Y-39368681D01*
X115249500Y-39375761D01*
X115249500Y-40174582D01*
X115229815Y-40241621D01*
X115198443Y-40274858D01*
X115197181Y-40275776D01*
X115131388Y-40299294D01*
X115124238Y-40299500D01*
X111375762Y-40299500D01*
X111308723Y-40279815D01*
X111302877Y-40275818D01*
X111301613Y-40274900D01*
X111181610Y-40187713D01*
X111124653Y-40158691D01*
X110999223Y-40094781D01*
X110804534Y-40031522D01*
X110629995Y-40003878D01*
X110602352Y-39999500D01*
X110397648Y-39999500D01*
X110373329Y-40003351D01*
X110195465Y-40031522D01*
X110000776Y-40094781D01*
X109818386Y-40187715D01*
X109652786Y-40308028D01*
X109508028Y-40452786D01*
X109387715Y-40618386D01*
X109294781Y-40800776D01*
X109231522Y-40995465D01*
X109199500Y-41197648D01*
X106300500Y-41197648D01*
X106278255Y-41057202D01*
X106268477Y-40995465D01*
X106219048Y-40843339D01*
X106205220Y-40800781D01*
X106205218Y-40800778D01*
X106205218Y-40800776D01*
X106171094Y-40733805D01*
X106112287Y-40618390D01*
X106104556Y-40607749D01*
X105991971Y-40452786D01*
X105847213Y-40308028D01*
X105681613Y-40187715D01*
X105681612Y-40187714D01*
X105681610Y-40187713D01*
X105624653Y-40158691D01*
X105499223Y-40094781D01*
X105304534Y-40031522D01*
X105129995Y-40003878D01*
X105102352Y-39999500D01*
X104897648Y-39999500D01*
X104873329Y-40003351D01*
X104695465Y-40031522D01*
X104500776Y-40094781D01*
X104318386Y-40187715D01*
X104264300Y-40227011D01*
X104198387Y-40274900D01*
X104197123Y-40275818D01*
X104131317Y-40299298D01*
X104124238Y-40299500D01*
X100874500Y-40299500D01*
X100807461Y-40279815D01*
X100761706Y-40227011D01*
X100750500Y-40175500D01*
X100750500Y-39375761D01*
X100770185Y-39308722D01*
X100774165Y-39302899D01*
X100862287Y-39181610D01*
X100889515Y-39128171D01*
X100937490Y-39077376D01*
X101005311Y-39060581D01*
X101071446Y-39083118D01*
X101110485Y-39128172D01*
X101137715Y-39181613D01*
X101258028Y-39347213D01*
X101402786Y-39491971D01*
X101557749Y-39604556D01*
X101568390Y-39612287D01*
X101673380Y-39665782D01*
X101750776Y-39705218D01*
X101750778Y-39705218D01*
X101750781Y-39705220D01*
X101836695Y-39733135D01*
X101945465Y-39768477D01*
X102046557Y-39784488D01*
X102147648Y-39800500D01*
X102147649Y-39800500D01*
X102352351Y-39800500D01*
X102352352Y-39800500D01*
X102554534Y-39768477D01*
X102749219Y-39705220D01*
X102931610Y-39612287D01*
X103024590Y-39544732D01*
X103097213Y-39491971D01*
X103097215Y-39491968D01*
X103097219Y-39491966D01*
X103241966Y-39347219D01*
X103241968Y-39347215D01*
X103241971Y-39347213D01*
X103294732Y-39274590D01*
X103362287Y-39181610D01*
X103455220Y-38999219D01*
X103518477Y-38804534D01*
X103550500Y-38602352D01*
X103550500Y-38397648D01*
X103518477Y-38195466D01*
X103455220Y-38000781D01*
X103455218Y-38000778D01*
X103455218Y-38000776D01*
X103389515Y-37871828D01*
X103362287Y-37818390D01*
X103354556Y-37807749D01*
X103241971Y-37652786D01*
X103097213Y-37508028D01*
X102931613Y-37387715D01*
X102931612Y-37387714D01*
X102931610Y-37387713D01*
X102874653Y-37358691D01*
X102749223Y-37294781D01*
X102554534Y-37231522D01*
X102379995Y-37203878D01*
X102352352Y-37199500D01*
X102147648Y-37199500D01*
X102123329Y-37203351D01*
X101945465Y-37231522D01*
X101750776Y-37294781D01*
X101568386Y-37387715D01*
X101402786Y-37508028D01*
X101258028Y-37652786D01*
X101137713Y-37818388D01*
X101110484Y-37871828D01*
X101062510Y-37922623D01*
X100994688Y-37939418D01*
X100928554Y-37916880D01*
X100889516Y-37871828D01*
X100862286Y-37818388D01*
X100741971Y-37652786D01*
X100597213Y-37508028D01*
X100431613Y-37387715D01*
X100431612Y-37387714D01*
X100431610Y-37387713D01*
X100374653Y-37358691D01*
X100249223Y-37294781D01*
X100054534Y-37231522D01*
X99879995Y-37203878D01*
X99852352Y-37199500D01*
X99647648Y-37199500D01*
X99623329Y-37203351D01*
X99445465Y-37231522D01*
X99250776Y-37294781D01*
X99068386Y-37387715D01*
X98902786Y-37508028D01*
X98758028Y-37652786D01*
X98637715Y-37818386D01*
X98544781Y-38000776D01*
X98481522Y-38195465D01*
X98449500Y-38397648D01*
X98449500Y-38602351D01*
X98481522Y-38804534D01*
X98515197Y-38908172D01*
X98544780Y-38999219D01*
X98637713Y-39181610D01*
X98725819Y-39302877D01*
X98749298Y-39368681D01*
X98749500Y-39375761D01*
X98749500Y-40174582D01*
X98729815Y-40241621D01*
X98698385Y-40274900D01*
X98652787Y-40308028D01*
X98652782Y-40308032D01*
X98508028Y-40452786D01*
X98387715Y-40618386D01*
X98294781Y-40800776D01*
X98231522Y-40995465D01*
X98199500Y-41197648D01*
X93058065Y-41197648D01*
X92958611Y-41025388D01*
X92958608Y-41025385D01*
X92958607Y-41025382D01*
X92818918Y-40843338D01*
X92818911Y-40843330D01*
X92656670Y-40681089D01*
X92656661Y-40681081D01*
X92474617Y-40541392D01*
X92275890Y-40426657D01*
X92275876Y-40426650D01*
X92063887Y-40338842D01*
X91842238Y-40279452D01*
X91804215Y-40274446D01*
X91614741Y-40249500D01*
X91614734Y-40249500D01*
X91385266Y-40249500D01*
X91385258Y-40249500D01*
X91185683Y-40275776D01*
X91157762Y-40279452D01*
X91083710Y-40299294D01*
X90936112Y-40338842D01*
X90724123Y-40426650D01*
X90724109Y-40426657D01*
X90525382Y-40541392D01*
X90343338Y-40681081D01*
X90181081Y-40843338D01*
X90041392Y-41025382D01*
X89926657Y-41224109D01*
X89926650Y-41224123D01*
X89838842Y-41436112D01*
X89779453Y-41657759D01*
X89779451Y-41657770D01*
X89749500Y-41885258D01*
X84000500Y-41885258D01*
X84000500Y-39101456D01*
X83982228Y-39009600D01*
X83980163Y-38999219D01*
X83980163Y-38999216D01*
X83962053Y-38908172D01*
X83962052Y-38908165D01*
X83886632Y-38726086D01*
X83886631Y-38726085D01*
X83886628Y-38726079D01*
X83777140Y-38562219D01*
X83777137Y-38562215D01*
X81461819Y-36246897D01*
X81428334Y-36185574D01*
X81425500Y-36159216D01*
X81425500Y-36087805D01*
X81390400Y-35866194D01*
X81321061Y-35652793D01*
X81284105Y-35580264D01*
X81219197Y-35452875D01*
X81202347Y-35429683D01*
X81087316Y-35271355D01*
X81087312Y-35271350D01*
X80928649Y-35112687D01*
X80928644Y-35112683D01*
X80747128Y-34980805D01*
X80747127Y-34980804D01*
X80747125Y-34980803D01*
X80684692Y-34948992D01*
X80547206Y-34878938D01*
X80333805Y-34809599D01*
X80112194Y-34774500D01*
X80112189Y-34774500D01*
X79887811Y-34774500D01*
X79887806Y-34774500D01*
X79666194Y-34809599D01*
X79452793Y-34878938D01*
X79252871Y-34980805D01*
X79071355Y-35112683D01*
X79071350Y-35112687D01*
X78912687Y-35271350D01*
X78912683Y-35271355D01*
X78780805Y-35452871D01*
X78734985Y-35542797D01*
X78687010Y-35593593D01*
X78619189Y-35610388D01*
X78553054Y-35587850D01*
X78509603Y-35533135D01*
X78500500Y-35486502D01*
X78500500Y-34965782D01*
X78520185Y-34898743D01*
X78536819Y-34878101D01*
X79953101Y-33461819D01*
X80014424Y-33428334D01*
X80040782Y-33425500D01*
X80112194Y-33425500D01*
X80333805Y-33390400D01*
X80547202Y-33321063D01*
X80747125Y-33219197D01*
X80928651Y-33087311D01*
X81087311Y-32928651D01*
X81219197Y-32747125D01*
X81321063Y-32547202D01*
X81390400Y-32333805D01*
X81425500Y-32112194D01*
X81425500Y-31887805D01*
X81390400Y-31666194D01*
X81356988Y-31563364D01*
X81321063Y-31452798D01*
X81321061Y-31452795D01*
X81321061Y-31452793D01*
X81249434Y-31312219D01*
X81219197Y-31252875D01*
X81184572Y-31205218D01*
X81087316Y-31071355D01*
X81087312Y-31071350D01*
X80928649Y-30912687D01*
X80928644Y-30912683D01*
X80747128Y-30780805D01*
X80747127Y-30780804D01*
X80747125Y-30780803D01*
X80684692Y-30748992D01*
X80547206Y-30678938D01*
X80333805Y-30609599D01*
X80112194Y-30574500D01*
X80112189Y-30574500D01*
X79887811Y-30574500D01*
X79887806Y-30574500D01*
X79666194Y-30609599D01*
X79452793Y-30678938D01*
X79252871Y-30780805D01*
X79071355Y-30912683D01*
X79071350Y-30912687D01*
X78912687Y-31071350D01*
X78912683Y-31071355D01*
X78780805Y-31252871D01*
X78678938Y-31452793D01*
X78609599Y-31666194D01*
X78574500Y-31887805D01*
X78574500Y-31959217D01*
X78554815Y-32026256D01*
X78538181Y-32046898D01*
X77709579Y-32875500D01*
X76862221Y-33722858D01*
X76862218Y-33722861D01*
X76792538Y-33792540D01*
X76722859Y-33862219D01*
X76613371Y-34026079D01*
X76613364Y-34026092D01*
X76537950Y-34208160D01*
X76537947Y-34208170D01*
X76499500Y-34401456D01*
X76499500Y-42058542D01*
X76505866Y-42090545D01*
X76505866Y-42090546D01*
X76537947Y-42251828D01*
X76537950Y-42251840D01*
X76545228Y-42269409D01*
X76613366Y-42433911D01*
X76613371Y-42433920D01*
X76722860Y-42597781D01*
X76722863Y-42597785D01*
X76866537Y-42741459D01*
X76866559Y-42741479D01*
X78648544Y-44523464D01*
X78682029Y-44584787D01*
X78677045Y-44654479D01*
X78635173Y-44710412D01*
X78585057Y-44732762D01*
X78551302Y-44739476D01*
X78529021Y-44743909D01*
X78529020Y-44743909D01*
X78408167Y-44767947D01*
X78408159Y-44767950D01*
X78354834Y-44790037D01*
X78354834Y-44790038D01*
X78309315Y-44808892D01*
X78226089Y-44843366D01*
X78226079Y-44843371D01*
X78062219Y-44952859D01*
X77992540Y-45022538D01*
X77922861Y-45092218D01*
X77922858Y-45092221D01*
X75862221Y-47152858D01*
X75862218Y-47152861D01*
X75798471Y-47216608D01*
X75722860Y-47292218D01*
X75720352Y-47295275D01*
X75718633Y-47296445D01*
X75718553Y-47296526D01*
X75718537Y-47296510D01*
X75662605Y-47334608D01*
X75592761Y-47336477D01*
X75532993Y-47300289D01*
X75502278Y-47237532D01*
X75500500Y-47216608D01*
X75500500Y-27687805D01*
X78574500Y-27687805D01*
X78574500Y-27912194D01*
X78609599Y-28133805D01*
X78678938Y-28347206D01*
X78748992Y-28484692D01*
X78767076Y-28520185D01*
X78780805Y-28547128D01*
X78912683Y-28728644D01*
X78912687Y-28728649D01*
X79071350Y-28887312D01*
X79071355Y-28887316D01*
X79229683Y-29002347D01*
X79252875Y-29019197D01*
X79363564Y-29075596D01*
X79452793Y-29121061D01*
X79452795Y-29121061D01*
X79452798Y-29121063D01*
X79537542Y-29148598D01*
X79666194Y-29190400D01*
X79887806Y-29225500D01*
X79887811Y-29225500D01*
X79959218Y-29225500D01*
X80026257Y-29245185D01*
X80046899Y-29261819D01*
X83113181Y-32328101D01*
X83146666Y-32389424D01*
X83149500Y-32415782D01*
X83149500Y-33124237D01*
X83129815Y-33191276D01*
X83125818Y-33197122D01*
X83037715Y-33318386D01*
X82944781Y-33500776D01*
X82881522Y-33695465D01*
X82849500Y-33897648D01*
X82849500Y-34102351D01*
X82881522Y-34304534D01*
X82944781Y-34499223D01*
X83037715Y-34681613D01*
X83158028Y-34847213D01*
X83302786Y-34991971D01*
X83457749Y-35104556D01*
X83468390Y-35112287D01*
X83584607Y-35171503D01*
X83650776Y-35205218D01*
X83650778Y-35205218D01*
X83650781Y-35205220D01*
X83755137Y-35239127D01*
X83845465Y-35268477D01*
X83946557Y-35284488D01*
X84047648Y-35300500D01*
X84047649Y-35300500D01*
X84252351Y-35300500D01*
X84252352Y-35300500D01*
X84454534Y-35268477D01*
X84649219Y-35205220D01*
X84831610Y-35112287D01*
X84958379Y-35020185D01*
X84997213Y-34991971D01*
X84997215Y-34991968D01*
X84997219Y-34991966D01*
X85141966Y-34847219D01*
X85141968Y-34847215D01*
X85141971Y-34847213D01*
X85194799Y-34774500D01*
X85262287Y-34681610D01*
X85355220Y-34499219D01*
X85418477Y-34304534D01*
X85450500Y-34102352D01*
X85450500Y-33897648D01*
X95549500Y-33897648D01*
X95549500Y-34102351D01*
X95581522Y-34304534D01*
X95644781Y-34499223D01*
X95737715Y-34681613D01*
X95858028Y-34847213D01*
X96002786Y-34991971D01*
X96157749Y-35104556D01*
X96168390Y-35112287D01*
X96284607Y-35171503D01*
X96350776Y-35205218D01*
X96350778Y-35205218D01*
X96350781Y-35205220D01*
X96455137Y-35239127D01*
X96545465Y-35268477D01*
X96646557Y-35284488D01*
X96747648Y-35300500D01*
X96747649Y-35300500D01*
X96952351Y-35300500D01*
X96952352Y-35300500D01*
X97154534Y-35268477D01*
X97349219Y-35205220D01*
X97531610Y-35112287D01*
X97652877Y-35024181D01*
X97718683Y-35000702D01*
X97725762Y-35000500D01*
X98774238Y-35000500D01*
X98841277Y-35020185D01*
X98847119Y-35024179D01*
X98968390Y-35112287D01*
X99084607Y-35171503D01*
X99150776Y-35205218D01*
X99150778Y-35205218D01*
X99150781Y-35205220D01*
X99255137Y-35239127D01*
X99345465Y-35268477D01*
X99446557Y-35284488D01*
X99547648Y-35300500D01*
X99547649Y-35300500D01*
X99752351Y-35300500D01*
X99752352Y-35300500D01*
X99954534Y-35268477D01*
X100149219Y-35205220D01*
X100331610Y-35112287D01*
X100458379Y-35020185D01*
X100497213Y-34991971D01*
X100497215Y-34991968D01*
X100497219Y-34991966D01*
X100641966Y-34847219D01*
X100641968Y-34847215D01*
X100641971Y-34847213D01*
X100694799Y-34774500D01*
X100762287Y-34681610D01*
X100855220Y-34499219D01*
X100918477Y-34304534D01*
X100950500Y-34102352D01*
X100950500Y-33897648D01*
X100918477Y-33695466D01*
X100855220Y-33500781D01*
X100855218Y-33500778D01*
X100855218Y-33500776D01*
X100798978Y-33390400D01*
X100762287Y-33318390D01*
X100690220Y-33219197D01*
X100641971Y-33152786D01*
X100497213Y-33008028D01*
X100331613Y-32887715D01*
X100331612Y-32887714D01*
X100331610Y-32887713D01*
X100274653Y-32858691D01*
X100149223Y-32794781D01*
X99954534Y-32731522D01*
X99779995Y-32703878D01*
X99752352Y-32699500D01*
X99547648Y-32699500D01*
X99523329Y-32703351D01*
X99345465Y-32731522D01*
X99150776Y-32794781D01*
X98968386Y-32887715D01*
X98847123Y-32975818D01*
X98781317Y-32999298D01*
X98774238Y-32999500D01*
X97725762Y-32999500D01*
X97658723Y-32979815D01*
X97652877Y-32975818D01*
X97531613Y-32887715D01*
X97531612Y-32887714D01*
X97531610Y-32887713D01*
X97474653Y-32858691D01*
X97349223Y-32794781D01*
X97154534Y-32731522D01*
X96979995Y-32703878D01*
X96952352Y-32699500D01*
X96747648Y-32699500D01*
X96723329Y-32703351D01*
X96545465Y-32731522D01*
X96350776Y-32794781D01*
X96168386Y-32887715D01*
X96002786Y-33008028D01*
X95858028Y-33152786D01*
X95737715Y-33318386D01*
X95644781Y-33500776D01*
X95581522Y-33695465D01*
X95549500Y-33897648D01*
X85450500Y-33897648D01*
X85418477Y-33695466D01*
X85355220Y-33500781D01*
X85355218Y-33500778D01*
X85355218Y-33500776D01*
X85298978Y-33390400D01*
X85262287Y-33318390D01*
X85190218Y-33219194D01*
X85174182Y-33197122D01*
X85150702Y-33131316D01*
X85150500Y-33124237D01*
X85150500Y-31851456D01*
X85112052Y-31658170D01*
X85112051Y-31658169D01*
X85112051Y-31658165D01*
X85086048Y-31595387D01*
X85036635Y-31476092D01*
X85036628Y-31476079D01*
X84927140Y-31312219D01*
X84867792Y-31252871D01*
X84787782Y-31172861D01*
X84787781Y-31172860D01*
X81461819Y-27846898D01*
X81428334Y-27785575D01*
X81425500Y-27759217D01*
X81425500Y-27687805D01*
X81405080Y-27558883D01*
X81390400Y-27466195D01*
X81390398Y-27466190D01*
X81390398Y-27466187D01*
X81378996Y-27431096D01*
X81378995Y-27431094D01*
X81368128Y-27397648D01*
X84699500Y-27397648D01*
X84699500Y-27602351D01*
X84731522Y-27804534D01*
X84794781Y-27999223D01*
X84887715Y-28181613D01*
X85008028Y-28347213D01*
X85152786Y-28491971D01*
X85318388Y-28612286D01*
X85371828Y-28639516D01*
X85422623Y-28687490D01*
X85439418Y-28755312D01*
X85416880Y-28821446D01*
X85371828Y-28860484D01*
X85318388Y-28887713D01*
X85152786Y-29008028D01*
X85008028Y-29152786D01*
X84887715Y-29318386D01*
X84794781Y-29500776D01*
X84731522Y-29695465D01*
X84699500Y-29897648D01*
X84699500Y-30102351D01*
X84731522Y-30304534D01*
X84794781Y-30499223D01*
X84887715Y-30681613D01*
X85008028Y-30847213D01*
X85152786Y-30991971D01*
X85262051Y-31071355D01*
X85318390Y-31112287D01*
X85434607Y-31171503D01*
X85500776Y-31205218D01*
X85500778Y-31205218D01*
X85500781Y-31205220D01*
X85605137Y-31239127D01*
X85695465Y-31268477D01*
X85796557Y-31284488D01*
X85897648Y-31300500D01*
X85897649Y-31300500D01*
X86102351Y-31300500D01*
X86102352Y-31300500D01*
X86304534Y-31268477D01*
X86499219Y-31205220D01*
X86681610Y-31112287D01*
X86774590Y-31044732D01*
X86847213Y-30991971D01*
X86847215Y-30991968D01*
X86847219Y-30991966D01*
X86991966Y-30847219D01*
X86991968Y-30847215D01*
X86991971Y-30847213D01*
X87044732Y-30774590D01*
X87112287Y-30681610D01*
X87205220Y-30499219D01*
X87268477Y-30304534D01*
X87300500Y-30102352D01*
X87300500Y-29897648D01*
X87268477Y-29695466D01*
X87255460Y-29655405D01*
X87205218Y-29500776D01*
X87171503Y-29434607D01*
X87112287Y-29318390D01*
X87071561Y-29262335D01*
X86991971Y-29152786D01*
X86846253Y-29007068D01*
X86812768Y-28945745D01*
X86817752Y-28876053D01*
X86859624Y-28820120D01*
X86925088Y-28795703D01*
X86933934Y-28795387D01*
X92787769Y-28795387D01*
X92854808Y-28815072D01*
X92875450Y-28831705D01*
X92981344Y-28937599D01*
X93130666Y-29029701D01*
X93174759Y-29044312D01*
X93232203Y-29084083D01*
X93259027Y-29148598D01*
X93246713Y-29217374D01*
X93208642Y-29262334D01*
X93152784Y-29302918D01*
X93152782Y-29302919D01*
X93008028Y-29447673D01*
X92887715Y-29613273D01*
X92794781Y-29795663D01*
X92731522Y-29990352D01*
X92699500Y-30192535D01*
X92699500Y-30397238D01*
X92731522Y-30599421D01*
X92794781Y-30794110D01*
X92887715Y-30976500D01*
X93008028Y-31142100D01*
X93152786Y-31286858D01*
X93307749Y-31399443D01*
X93318390Y-31407174D01*
X93407932Y-31452798D01*
X93500776Y-31500105D01*
X93500778Y-31500105D01*
X93500781Y-31500107D01*
X93605137Y-31534014D01*
X93695465Y-31563364D01*
X93796557Y-31579375D01*
X93897648Y-31595387D01*
X93897649Y-31595387D01*
X94102351Y-31595387D01*
X94102352Y-31595387D01*
X94304534Y-31563364D01*
X94499219Y-31500107D01*
X94681610Y-31407174D01*
X94774590Y-31339619D01*
X94847213Y-31286858D01*
X94847215Y-31286855D01*
X94847219Y-31286853D01*
X94991966Y-31142106D01*
X94991968Y-31142102D01*
X94991971Y-31142100D01*
X95044732Y-31069477D01*
X95112287Y-30976497D01*
X95205220Y-30794106D01*
X95268477Y-30599421D01*
X95300500Y-30397239D01*
X95300500Y-30192535D01*
X95286216Y-30102351D01*
X95268477Y-29990352D01*
X95234775Y-29886628D01*
X95205220Y-29795668D01*
X95205218Y-29795665D01*
X95205218Y-29795663D01*
X95132423Y-29652797D01*
X95112287Y-29613277D01*
X95066320Y-29550008D01*
X94991971Y-29447673D01*
X94847217Y-29302919D01*
X94791358Y-29262335D01*
X94748693Y-29207005D01*
X94742714Y-29137391D01*
X94775320Y-29075596D01*
X94825236Y-29044313D01*
X94869334Y-29029701D01*
X95018656Y-28937599D01*
X95142712Y-28813543D01*
X95234814Y-28664221D01*
X95289999Y-28497684D01*
X95300500Y-28394896D01*
X95300499Y-27960667D01*
X95320183Y-27893629D01*
X95336813Y-27872992D01*
X97627140Y-25582668D01*
X97736632Y-25418801D01*
X97812052Y-25236722D01*
X97836804Y-25112284D01*
X97839186Y-25100309D01*
X97871570Y-25038398D01*
X97932286Y-25003824D01*
X97960803Y-25000500D01*
X98560500Y-25000500D01*
X98627539Y-25020185D01*
X98673294Y-25072989D01*
X98684500Y-25124500D01*
X98684500Y-27887772D01*
X98664815Y-27954811D01*
X98648181Y-27975453D01*
X98592289Y-28031344D01*
X98592286Y-28031348D01*
X98500187Y-28180662D01*
X98500186Y-28180664D01*
X98445001Y-28347203D01*
X98445000Y-28347204D01*
X98434500Y-28449984D01*
X98434500Y-29550015D01*
X98445000Y-29652795D01*
X98445001Y-29652797D01*
X98459140Y-29695465D01*
X98500186Y-29819335D01*
X98500187Y-29819337D01*
X98592286Y-29968651D01*
X98592288Y-29968654D01*
X98716344Y-30092710D01*
X98716348Y-30092713D01*
X98865662Y-30184812D01*
X98865664Y-30184813D01*
X98865666Y-30184814D01*
X99032203Y-30239999D01*
X99134992Y-30250500D01*
X99134997Y-30250500D01*
X100235003Y-30250500D01*
X100235008Y-30250500D01*
X100337797Y-30239999D01*
X100504334Y-30184814D01*
X100653655Y-30092711D01*
X100777711Y-29968655D01*
X100869814Y-29819334D01*
X100924999Y-29652797D01*
X100935500Y-29550008D01*
X100935500Y-28449992D01*
X100924999Y-28347203D01*
X100869814Y-28180666D01*
X100786856Y-28046172D01*
X100777713Y-28031348D01*
X100777710Y-28031344D01*
X100721819Y-27975453D01*
X100688334Y-27914130D01*
X100685500Y-27887772D01*
X100685500Y-24827588D01*
X100705185Y-24760549D01*
X100709167Y-24754723D01*
X100762287Y-24681610D01*
X100855220Y-24499219D01*
X100918477Y-24304534D01*
X100950500Y-24102352D01*
X100950500Y-23897648D01*
X100942257Y-23845606D01*
X100918477Y-23695465D01*
X100887458Y-23600000D01*
X100855220Y-23500781D01*
X100855218Y-23500778D01*
X100855218Y-23500776D01*
X100762419Y-23318650D01*
X100762287Y-23318390D01*
X100730092Y-23274077D01*
X100641971Y-23152786D01*
X100497213Y-23008028D01*
X100331613Y-22887715D01*
X100331612Y-22887714D01*
X100331610Y-22887713D01*
X100274653Y-22858691D01*
X100149223Y-22794781D01*
X99954534Y-22731522D01*
X99779995Y-22703878D01*
X99752352Y-22699500D01*
X99547648Y-22699500D01*
X99523329Y-22703351D01*
X99345465Y-22731522D01*
X99150776Y-22794781D01*
X98968386Y-22887715D01*
X98847123Y-22975818D01*
X98781317Y-22999298D01*
X98774238Y-22999500D01*
X97725762Y-22999500D01*
X97658723Y-22979815D01*
X97652877Y-22975818D01*
X97531613Y-22887715D01*
X97531612Y-22887714D01*
X97531610Y-22887713D01*
X97474653Y-22858691D01*
X97349223Y-22794781D01*
X97154534Y-22731522D01*
X96979995Y-22703878D01*
X96952352Y-22699500D01*
X96747648Y-22699500D01*
X96723329Y-22703351D01*
X96545465Y-22731522D01*
X96350776Y-22794781D01*
X96168386Y-22887715D01*
X96002786Y-23008028D01*
X95858028Y-23152786D01*
X95737715Y-23318386D01*
X95644781Y-23500776D01*
X95581522Y-23695465D01*
X95549500Y-23897648D01*
X95549500Y-24102351D01*
X95581522Y-24304534D01*
X95612542Y-24400000D01*
X95644780Y-24499219D01*
X95644781Y-24499222D01*
X95644782Y-24499223D01*
X95683527Y-24575265D01*
X95696423Y-24643935D01*
X95670146Y-24708675D01*
X95660723Y-24719241D01*
X93921897Y-26458068D01*
X93860574Y-26491553D01*
X93834216Y-26494387D01*
X93399998Y-26494387D01*
X93399980Y-26494388D01*
X93297203Y-26504887D01*
X93297200Y-26504888D01*
X93130668Y-26560072D01*
X93130663Y-26560074D01*
X92981345Y-26652174D01*
X92875450Y-26758069D01*
X92814127Y-26791553D01*
X92787769Y-26794387D01*
X87158029Y-26794387D01*
X87090990Y-26774702D01*
X87057710Y-26743271D01*
X86991969Y-26652784D01*
X86847213Y-26508028D01*
X86681613Y-26387715D01*
X86681612Y-26387714D01*
X86681610Y-26387713D01*
X86624653Y-26358691D01*
X86499223Y-26294781D01*
X86304534Y-26231522D01*
X86129995Y-26203878D01*
X86102352Y-26199500D01*
X85897648Y-26199500D01*
X85873329Y-26203351D01*
X85695465Y-26231522D01*
X85500776Y-26294781D01*
X85318386Y-26387715D01*
X85152786Y-26508028D01*
X85008028Y-26652786D01*
X84887715Y-26818386D01*
X84794781Y-27000776D01*
X84731522Y-27195465D01*
X84699500Y-27397648D01*
X81368128Y-27397648D01*
X81321063Y-27252798D01*
X81219197Y-27052875D01*
X81181345Y-27000776D01*
X81087316Y-26871355D01*
X81087312Y-26871350D01*
X80928649Y-26712687D01*
X80928644Y-26712683D01*
X80747128Y-26580805D01*
X80747127Y-26580804D01*
X80747125Y-26580803D01*
X80684692Y-26548992D01*
X80547206Y-26478938D01*
X80333805Y-26409599D01*
X80112194Y-26374500D01*
X80112189Y-26374500D01*
X79887811Y-26374500D01*
X79887806Y-26374500D01*
X79666194Y-26409599D01*
X79452793Y-26478938D01*
X79252871Y-26580805D01*
X79071355Y-26712683D01*
X79071350Y-26712687D01*
X78912687Y-26871350D01*
X78912683Y-26871355D01*
X78780805Y-27052871D01*
X78678938Y-27252793D01*
X78609599Y-27466194D01*
X78574500Y-27687805D01*
X75500500Y-27687805D01*
X75500500Y-22874983D01*
X78574500Y-22874983D01*
X78574500Y-24325001D01*
X78574501Y-24325018D01*
X78585000Y-24427796D01*
X78585001Y-24427799D01*
X78608668Y-24499219D01*
X78640186Y-24594334D01*
X78732288Y-24743656D01*
X78856344Y-24867712D01*
X79005666Y-24959814D01*
X79172203Y-25014999D01*
X79274991Y-25025500D01*
X80725008Y-25025499D01*
X80827797Y-25014999D01*
X80994334Y-24959814D01*
X81143656Y-24867712D01*
X81267712Y-24743656D01*
X81359814Y-24594334D01*
X81414999Y-24427797D01*
X81425500Y-24325009D01*
X81425499Y-23897682D01*
X82850000Y-23897682D01*
X82850000Y-24102317D01*
X82882009Y-24304417D01*
X82945244Y-24499031D01*
X83038141Y-24681350D01*
X83038147Y-24681359D01*
X83070523Y-24725921D01*
X83070524Y-24725922D01*
X83750000Y-24046446D01*
X83750000Y-24052661D01*
X83777259Y-24154394D01*
X83829920Y-24245606D01*
X83904394Y-24320080D01*
X83995606Y-24372741D01*
X84097339Y-24400000D01*
X84103553Y-24400000D01*
X83424076Y-25079474D01*
X83468650Y-25111859D01*
X83650968Y-25204755D01*
X83845582Y-25267990D01*
X84047683Y-25300000D01*
X84252317Y-25300000D01*
X84454417Y-25267990D01*
X84649031Y-25204755D01*
X84831349Y-25111859D01*
X84875921Y-25079474D01*
X84196447Y-24400000D01*
X84202661Y-24400000D01*
X84304394Y-24372741D01*
X84395606Y-24320080D01*
X84470080Y-24245606D01*
X84522741Y-24154394D01*
X84550000Y-24052661D01*
X84550000Y-24046447D01*
X85229474Y-24725921D01*
X85261859Y-24681349D01*
X85354755Y-24499031D01*
X85417990Y-24304417D01*
X85450000Y-24102317D01*
X85450000Y-23897682D01*
X85417990Y-23695582D01*
X85354755Y-23500968D01*
X85261859Y-23318650D01*
X85229474Y-23274077D01*
X85229474Y-23274076D01*
X84550000Y-23953551D01*
X84550000Y-23947339D01*
X84522741Y-23845606D01*
X84470080Y-23754394D01*
X84395606Y-23679920D01*
X84304394Y-23627259D01*
X84202661Y-23600000D01*
X84196446Y-23600000D01*
X84875922Y-22920524D01*
X84875921Y-22920523D01*
X84831359Y-22888147D01*
X84831350Y-22888141D01*
X84649031Y-22795244D01*
X84454417Y-22732009D01*
X84252317Y-22700000D01*
X84047683Y-22700000D01*
X83845582Y-22732009D01*
X83650968Y-22795244D01*
X83468644Y-22888143D01*
X83424077Y-22920523D01*
X83424077Y-22920524D01*
X84103554Y-23600000D01*
X84097339Y-23600000D01*
X83995606Y-23627259D01*
X83904394Y-23679920D01*
X83829920Y-23754394D01*
X83777259Y-23845606D01*
X83750000Y-23947339D01*
X83750000Y-23953553D01*
X83070524Y-23274077D01*
X83070523Y-23274077D01*
X83038143Y-23318644D01*
X82945244Y-23500968D01*
X82882009Y-23695582D01*
X82850000Y-23897682D01*
X81425499Y-23897682D01*
X81425499Y-23600000D01*
X81425499Y-22967783D01*
X81425499Y-22874998D01*
X81425498Y-22874981D01*
X81414999Y-22772203D01*
X81414998Y-22772200D01*
X81401519Y-22731523D01*
X81359814Y-22605666D01*
X81267712Y-22456344D01*
X81143656Y-22332288D01*
X80994334Y-22240186D01*
X80827797Y-22185001D01*
X80827795Y-22185000D01*
X80725010Y-22174500D01*
X79274998Y-22174500D01*
X79274981Y-22174501D01*
X79172203Y-22185000D01*
X79172200Y-22185001D01*
X79005668Y-22240185D01*
X79005663Y-22240187D01*
X78856342Y-22332289D01*
X78732289Y-22456342D01*
X78640187Y-22605663D01*
X78640186Y-22605666D01*
X78585001Y-22772203D01*
X78585001Y-22772204D01*
X78585000Y-22772204D01*
X78574500Y-22874983D01*
X75500500Y-22874983D01*
X75500500Y-20624500D01*
X75520185Y-20557461D01*
X75572989Y-20511706D01*
X75624500Y-20500500D01*
X129875500Y-20500500D01*
X129942539Y-20520185D01*
G37*
%TD.AperFunction*%
%TD*%
M02*
