%TF.GenerationSoftware,KiCad,Pcbnew,10.0.5*%
%TF.CreationDate,2026-09-07T11:43:07+02:00*%
%TF.ProjectId,Aprs audio platine,41707273-2061-4756-9469-6f20706c6174,rev?*%
%TF.SameCoordinates,Original*%
%TF.FileFunction,Legend,Top*%
%TF.FilePolarity,Positive*%
%FSLAX46Y46*%
G04 Gerber Fmt 4.6, Leading zero omitted, Abs format (unit mm)*
G04 Created by KiCad (PCBNEW 10.0.5) date 2026-09-07 11:43:07*
%MOMM*%
%LPD*%
G01*
G04 APERTURE LIST*
%ADD10C,0.100000*%
%ADD11C,0.150000*%
%ADD12C,0.120000*%
G04 APERTURE END LIST*
D10*
X76872419Y-40719925D02*
X76872419Y-41196115D01*
X76872419Y-41196115D02*
X77348609Y-41243734D01*
X77348609Y-41243734D02*
X77300990Y-41196115D01*
X77300990Y-41196115D02*
X77253371Y-41100877D01*
X77253371Y-41100877D02*
X77253371Y-40862782D01*
X77253371Y-40862782D02*
X77300990Y-40767544D01*
X77300990Y-40767544D02*
X77348609Y-40719925D01*
X77348609Y-40719925D02*
X77443847Y-40672306D01*
X77443847Y-40672306D02*
X77681942Y-40672306D01*
X77681942Y-40672306D02*
X77777180Y-40719925D01*
X77777180Y-40719925D02*
X77824800Y-40767544D01*
X77824800Y-40767544D02*
X77872419Y-40862782D01*
X77872419Y-40862782D02*
X77872419Y-41100877D01*
X77872419Y-41100877D02*
X77824800Y-41196115D01*
X77824800Y-41196115D02*
X77777180Y-41243734D01*
X76872419Y-40386591D02*
X77872419Y-40053258D01*
X77872419Y-40053258D02*
X76872419Y-39719925D01*
X76872419Y-36910400D02*
X76872419Y-36719924D01*
X76872419Y-36719924D02*
X76920038Y-36624686D01*
X76920038Y-36624686D02*
X77015276Y-36529448D01*
X77015276Y-36529448D02*
X77205752Y-36481829D01*
X77205752Y-36481829D02*
X77539085Y-36481829D01*
X77539085Y-36481829D02*
X77729561Y-36529448D01*
X77729561Y-36529448D02*
X77824800Y-36624686D01*
X77824800Y-36624686D02*
X77872419Y-36719924D01*
X77872419Y-36719924D02*
X77872419Y-36910400D01*
X77872419Y-36910400D02*
X77824800Y-37005638D01*
X77824800Y-37005638D02*
X77729561Y-37100876D01*
X77729561Y-37100876D02*
X77539085Y-37148495D01*
X77539085Y-37148495D02*
X77205752Y-37148495D01*
X77205752Y-37148495D02*
X77015276Y-37100876D01*
X77015276Y-37100876D02*
X76920038Y-37005638D01*
X76920038Y-37005638D02*
X76872419Y-36910400D01*
X76872419Y-36053257D02*
X77681942Y-36053257D01*
X77681942Y-36053257D02*
X77777180Y-36005638D01*
X77777180Y-36005638D02*
X77824800Y-35958019D01*
X77824800Y-35958019D02*
X77872419Y-35862781D01*
X77872419Y-35862781D02*
X77872419Y-35672305D01*
X77872419Y-35672305D02*
X77824800Y-35577067D01*
X77824800Y-35577067D02*
X77777180Y-35529448D01*
X77777180Y-35529448D02*
X77681942Y-35481829D01*
X77681942Y-35481829D02*
X76872419Y-35481829D01*
X76872419Y-35148495D02*
X76872419Y-34577067D01*
X77872419Y-34862781D02*
X76872419Y-34862781D01*
X77872419Y-32719923D02*
X76872419Y-32719923D01*
X76872419Y-32719923D02*
X76872419Y-32338971D01*
X76872419Y-32338971D02*
X76920038Y-32243733D01*
X76920038Y-32243733D02*
X76967657Y-32196114D01*
X76967657Y-32196114D02*
X77062895Y-32148495D01*
X77062895Y-32148495D02*
X77205752Y-32148495D01*
X77205752Y-32148495D02*
X77300990Y-32196114D01*
X77300990Y-32196114D02*
X77348609Y-32243733D01*
X77348609Y-32243733D02*
X77396228Y-32338971D01*
X77396228Y-32338971D02*
X77396228Y-32719923D01*
X76872419Y-31862780D02*
X76872419Y-31291352D01*
X77872419Y-31577066D02*
X76872419Y-31577066D01*
X76872419Y-31100875D02*
X76872419Y-30529447D01*
X77872419Y-30815161D02*
X76872419Y-30815161D01*
X77872419Y-28672303D02*
X76872419Y-28672303D01*
X77872419Y-28196113D02*
X76872419Y-28196113D01*
X76872419Y-28196113D02*
X77872419Y-27624685D01*
X77872419Y-27624685D02*
X76872419Y-27624685D01*
X76920038Y-24338970D02*
X76872419Y-24434208D01*
X76872419Y-24434208D02*
X76872419Y-24577065D01*
X76872419Y-24577065D02*
X76920038Y-24719922D01*
X76920038Y-24719922D02*
X77015276Y-24815160D01*
X77015276Y-24815160D02*
X77110514Y-24862779D01*
X77110514Y-24862779D02*
X77300990Y-24910398D01*
X77300990Y-24910398D02*
X77443847Y-24910398D01*
X77443847Y-24910398D02*
X77634323Y-24862779D01*
X77634323Y-24862779D02*
X77729561Y-24815160D01*
X77729561Y-24815160D02*
X77824800Y-24719922D01*
X77824800Y-24719922D02*
X77872419Y-24577065D01*
X77872419Y-24577065D02*
X77872419Y-24481827D01*
X77872419Y-24481827D02*
X77824800Y-24338970D01*
X77824800Y-24338970D02*
X77777180Y-24291351D01*
X77777180Y-24291351D02*
X77443847Y-24291351D01*
X77443847Y-24291351D02*
X77443847Y-24481827D01*
X77872419Y-23862779D02*
X76872419Y-23862779D01*
X76872419Y-23862779D02*
X77872419Y-23291351D01*
X77872419Y-23291351D02*
X76872419Y-23291351D01*
X77872419Y-22815160D02*
X76872419Y-22815160D01*
X76872419Y-22815160D02*
X76872419Y-22577065D01*
X76872419Y-22577065D02*
X76920038Y-22434208D01*
X76920038Y-22434208D02*
X77015276Y-22338970D01*
X77015276Y-22338970D02*
X77110514Y-22291351D01*
X77110514Y-22291351D02*
X77300990Y-22243732D01*
X77300990Y-22243732D02*
X77443847Y-22243732D01*
X77443847Y-22243732D02*
X77634323Y-22291351D01*
X77634323Y-22291351D02*
X77729561Y-22338970D01*
X77729561Y-22338970D02*
X77824800Y-22434208D01*
X77824800Y-22434208D02*
X77872419Y-22577065D01*
X77872419Y-22577065D02*
X77872419Y-22815160D01*
D11*
X108454819Y-49792857D02*
X107978628Y-50126190D01*
X108454819Y-50364285D02*
X107454819Y-50364285D01*
X107454819Y-50364285D02*
X107454819Y-49983333D01*
X107454819Y-49983333D02*
X107502438Y-49888095D01*
X107502438Y-49888095D02*
X107550057Y-49840476D01*
X107550057Y-49840476D02*
X107645295Y-49792857D01*
X107645295Y-49792857D02*
X107788152Y-49792857D01*
X107788152Y-49792857D02*
X107883390Y-49840476D01*
X107883390Y-49840476D02*
X107931009Y-49888095D01*
X107931009Y-49888095D02*
X107978628Y-49983333D01*
X107978628Y-49983333D02*
X107978628Y-50364285D01*
X108454819Y-48840476D02*
X108454819Y-49411904D01*
X108454819Y-49126190D02*
X107454819Y-49126190D01*
X107454819Y-49126190D02*
X107597676Y-49221428D01*
X107597676Y-49221428D02*
X107692914Y-49316666D01*
X107692914Y-49316666D02*
X107740533Y-49411904D01*
X107454819Y-48221428D02*
X107454819Y-48126190D01*
X107454819Y-48126190D02*
X107502438Y-48030952D01*
X107502438Y-48030952D02*
X107550057Y-47983333D01*
X107550057Y-47983333D02*
X107645295Y-47935714D01*
X107645295Y-47935714D02*
X107835771Y-47888095D01*
X107835771Y-47888095D02*
X108073866Y-47888095D01*
X108073866Y-47888095D02*
X108264342Y-47935714D01*
X108264342Y-47935714D02*
X108359580Y-47983333D01*
X108359580Y-47983333D02*
X108407200Y-48030952D01*
X108407200Y-48030952D02*
X108454819Y-48126190D01*
X108454819Y-48126190D02*
X108454819Y-48221428D01*
X108454819Y-48221428D02*
X108407200Y-48316666D01*
X108407200Y-48316666D02*
X108359580Y-48364285D01*
X108359580Y-48364285D02*
X108264342Y-48411904D01*
X108264342Y-48411904D02*
X108073866Y-48459523D01*
X108073866Y-48459523D02*
X107835771Y-48459523D01*
X107835771Y-48459523D02*
X107645295Y-48411904D01*
X107645295Y-48411904D02*
X107550057Y-48364285D01*
X107550057Y-48364285D02*
X107502438Y-48316666D01*
X107502438Y-48316666D02*
X107454819Y-48221428D01*
X108454819Y-45419047D02*
X108454819Y-45990475D01*
X108454819Y-45704761D02*
X107454819Y-45704761D01*
X107454819Y-45704761D02*
X107597676Y-45799999D01*
X107597676Y-45799999D02*
X107692914Y-45895237D01*
X107692914Y-45895237D02*
X107740533Y-45990475D01*
X108454819Y-44990475D02*
X107454819Y-44990475D01*
X108073866Y-44895237D02*
X108454819Y-44609523D01*
X107788152Y-44609523D02*
X108169104Y-44990475D01*
X102954819Y-49792857D02*
X102478628Y-50126190D01*
X102954819Y-50364285D02*
X101954819Y-50364285D01*
X101954819Y-50364285D02*
X101954819Y-49983333D01*
X101954819Y-49983333D02*
X102002438Y-49888095D01*
X102002438Y-49888095D02*
X102050057Y-49840476D01*
X102050057Y-49840476D02*
X102145295Y-49792857D01*
X102145295Y-49792857D02*
X102288152Y-49792857D01*
X102288152Y-49792857D02*
X102383390Y-49840476D01*
X102383390Y-49840476D02*
X102431009Y-49888095D01*
X102431009Y-49888095D02*
X102478628Y-49983333D01*
X102478628Y-49983333D02*
X102478628Y-50364285D01*
X102954819Y-48840476D02*
X102954819Y-49411904D01*
X102954819Y-49126190D02*
X101954819Y-49126190D01*
X101954819Y-49126190D02*
X102097676Y-49221428D01*
X102097676Y-49221428D02*
X102192914Y-49316666D01*
X102192914Y-49316666D02*
X102240533Y-49411904D01*
X102954819Y-47888095D02*
X102954819Y-48459523D01*
X102954819Y-48173809D02*
X101954819Y-48173809D01*
X101954819Y-48173809D02*
X102097676Y-48269047D01*
X102097676Y-48269047D02*
X102192914Y-48364285D01*
X102192914Y-48364285D02*
X102240533Y-48459523D01*
X102288152Y-46411904D02*
X102954819Y-46411904D01*
X101907200Y-46649999D02*
X102621485Y-46888094D01*
X102621485Y-46888094D02*
X102621485Y-46269047D01*
X102383390Y-45745237D02*
X102335771Y-45840475D01*
X102335771Y-45840475D02*
X102288152Y-45888094D01*
X102288152Y-45888094D02*
X102192914Y-45935713D01*
X102192914Y-45935713D02*
X102145295Y-45935713D01*
X102145295Y-45935713D02*
X102050057Y-45888094D01*
X102050057Y-45888094D02*
X102002438Y-45840475D01*
X102002438Y-45840475D02*
X101954819Y-45745237D01*
X101954819Y-45745237D02*
X101954819Y-45554761D01*
X101954819Y-45554761D02*
X102002438Y-45459523D01*
X102002438Y-45459523D02*
X102050057Y-45411904D01*
X102050057Y-45411904D02*
X102145295Y-45364285D01*
X102145295Y-45364285D02*
X102192914Y-45364285D01*
X102192914Y-45364285D02*
X102288152Y-45411904D01*
X102288152Y-45411904D02*
X102335771Y-45459523D01*
X102335771Y-45459523D02*
X102383390Y-45554761D01*
X102383390Y-45554761D02*
X102383390Y-45745237D01*
X102383390Y-45745237D02*
X102431009Y-45840475D01*
X102431009Y-45840475D02*
X102478628Y-45888094D01*
X102478628Y-45888094D02*
X102573866Y-45935713D01*
X102573866Y-45935713D02*
X102764342Y-45935713D01*
X102764342Y-45935713D02*
X102859580Y-45888094D01*
X102859580Y-45888094D02*
X102907200Y-45840475D01*
X102907200Y-45840475D02*
X102954819Y-45745237D01*
X102954819Y-45745237D02*
X102954819Y-45554761D01*
X102954819Y-45554761D02*
X102907200Y-45459523D01*
X102907200Y-45459523D02*
X102859580Y-45411904D01*
X102859580Y-45411904D02*
X102764342Y-45364285D01*
X102764342Y-45364285D02*
X102573866Y-45364285D01*
X102573866Y-45364285D02*
X102478628Y-45411904D01*
X102478628Y-45411904D02*
X102431009Y-45459523D01*
X102431009Y-45459523D02*
X102383390Y-45554761D01*
X101954819Y-44745237D02*
X101954819Y-44649999D01*
X101954819Y-44649999D02*
X102002438Y-44554761D01*
X102002438Y-44554761D02*
X102050057Y-44507142D01*
X102050057Y-44507142D02*
X102145295Y-44459523D01*
X102145295Y-44459523D02*
X102335771Y-44411904D01*
X102335771Y-44411904D02*
X102573866Y-44411904D01*
X102573866Y-44411904D02*
X102764342Y-44459523D01*
X102764342Y-44459523D02*
X102859580Y-44507142D01*
X102859580Y-44507142D02*
X102907200Y-44554761D01*
X102907200Y-44554761D02*
X102954819Y-44649999D01*
X102954819Y-44649999D02*
X102954819Y-44745237D01*
X102954819Y-44745237D02*
X102907200Y-44840475D01*
X102907200Y-44840475D02*
X102859580Y-44888094D01*
X102859580Y-44888094D02*
X102764342Y-44935713D01*
X102764342Y-44935713D02*
X102573866Y-44983332D01*
X102573866Y-44983332D02*
X102335771Y-44983332D01*
X102335771Y-44983332D02*
X102145295Y-44935713D01*
X102145295Y-44935713D02*
X102050057Y-44888094D01*
X102050057Y-44888094D02*
X102002438Y-44840475D01*
X102002438Y-44840475D02*
X101954819Y-44745237D01*
X90333333Y-21734819D02*
X90000000Y-21258628D01*
X89761905Y-21734819D02*
X89761905Y-20734819D01*
X89761905Y-20734819D02*
X90142857Y-20734819D01*
X90142857Y-20734819D02*
X90238095Y-20782438D01*
X90238095Y-20782438D02*
X90285714Y-20830057D01*
X90285714Y-20830057D02*
X90333333Y-20925295D01*
X90333333Y-20925295D02*
X90333333Y-21068152D01*
X90333333Y-21068152D02*
X90285714Y-21163390D01*
X90285714Y-21163390D02*
X90238095Y-21211009D01*
X90238095Y-21211009D02*
X90142857Y-21258628D01*
X90142857Y-21258628D02*
X89761905Y-21258628D01*
X91285714Y-21734819D02*
X90714286Y-21734819D01*
X91000000Y-21734819D02*
X91000000Y-20734819D01*
X91000000Y-20734819D02*
X90904762Y-20877676D01*
X90904762Y-20877676D02*
X90809524Y-20972914D01*
X90809524Y-20972914D02*
X90714286Y-21020533D01*
X89809523Y-26508152D02*
X89809523Y-27174819D01*
X89571428Y-26127200D02*
X89333333Y-26841485D01*
X89333333Y-26841485D02*
X89952380Y-26841485D01*
X90238095Y-26174819D02*
X90904761Y-26174819D01*
X90904761Y-26174819D02*
X90476190Y-27174819D01*
X91285714Y-27174819D02*
X91285714Y-26174819D01*
X91380952Y-26793866D02*
X91666666Y-27174819D01*
X91666666Y-26508152D02*
X91285714Y-26889104D01*
X79454819Y-21333333D02*
X80169104Y-21333333D01*
X80169104Y-21333333D02*
X80311961Y-21380952D01*
X80311961Y-21380952D02*
X80407200Y-21476190D01*
X80407200Y-21476190D02*
X80454819Y-21619047D01*
X80454819Y-21619047D02*
X80454819Y-21714285D01*
X80454819Y-20333333D02*
X80454819Y-20904761D01*
X80454819Y-20619047D02*
X79454819Y-20619047D01*
X79454819Y-20619047D02*
X79597676Y-20714285D01*
X79597676Y-20714285D02*
X79692914Y-20809523D01*
X79692914Y-20809523D02*
X79740533Y-20904761D01*
X82454819Y-34623809D02*
X81454819Y-34623809D01*
X82454819Y-34052381D02*
X81883390Y-34480952D01*
X81454819Y-34052381D02*
X82026247Y-34623809D01*
X82407200Y-33242857D02*
X82454819Y-33338095D01*
X82454819Y-33338095D02*
X82454819Y-33528571D01*
X82454819Y-33528571D02*
X82407200Y-33623809D01*
X82407200Y-33623809D02*
X82311961Y-33671428D01*
X82311961Y-33671428D02*
X81931009Y-33671428D01*
X81931009Y-33671428D02*
X81835771Y-33623809D01*
X81835771Y-33623809D02*
X81788152Y-33528571D01*
X81788152Y-33528571D02*
X81788152Y-33338095D01*
X81788152Y-33338095D02*
X81835771Y-33242857D01*
X81835771Y-33242857D02*
X81931009Y-33195238D01*
X81931009Y-33195238D02*
X82026247Y-33195238D01*
X82026247Y-33195238D02*
X82121485Y-33671428D01*
X81788152Y-32766666D02*
X82454819Y-32766666D01*
X81883390Y-32766666D02*
X81835771Y-32719047D01*
X81835771Y-32719047D02*
X81788152Y-32623809D01*
X81788152Y-32623809D02*
X81788152Y-32480952D01*
X81788152Y-32480952D02*
X81835771Y-32385714D01*
X81835771Y-32385714D02*
X81931009Y-32338095D01*
X81931009Y-32338095D02*
X82454819Y-32338095D01*
X81788152Y-31957142D02*
X82454819Y-31766666D01*
X82454819Y-31766666D02*
X81978628Y-31576190D01*
X81978628Y-31576190D02*
X82454819Y-31385714D01*
X82454819Y-31385714D02*
X81788152Y-31195238D01*
X82454819Y-30671428D02*
X82407200Y-30766666D01*
X82407200Y-30766666D02*
X82359580Y-30814285D01*
X82359580Y-30814285D02*
X82264342Y-30861904D01*
X82264342Y-30861904D02*
X81978628Y-30861904D01*
X81978628Y-30861904D02*
X81883390Y-30814285D01*
X81883390Y-30814285D02*
X81835771Y-30766666D01*
X81835771Y-30766666D02*
X81788152Y-30671428D01*
X81788152Y-30671428D02*
X81788152Y-30528571D01*
X81788152Y-30528571D02*
X81835771Y-30433333D01*
X81835771Y-30433333D02*
X81883390Y-30385714D01*
X81883390Y-30385714D02*
X81978628Y-30338095D01*
X81978628Y-30338095D02*
X82264342Y-30338095D01*
X82264342Y-30338095D02*
X82359580Y-30385714D01*
X82359580Y-30385714D02*
X82407200Y-30433333D01*
X82407200Y-30433333D02*
X82454819Y-30528571D01*
X82454819Y-30528571D02*
X82454819Y-30671428D01*
X82454819Y-29766666D02*
X82407200Y-29861904D01*
X82407200Y-29861904D02*
X82359580Y-29909523D01*
X82359580Y-29909523D02*
X82264342Y-29957142D01*
X82264342Y-29957142D02*
X81978628Y-29957142D01*
X81978628Y-29957142D02*
X81883390Y-29909523D01*
X81883390Y-29909523D02*
X81835771Y-29861904D01*
X81835771Y-29861904D02*
X81788152Y-29766666D01*
X81788152Y-29766666D02*
X81788152Y-29623809D01*
X81788152Y-29623809D02*
X81835771Y-29528571D01*
X81835771Y-29528571D02*
X81883390Y-29480952D01*
X81883390Y-29480952D02*
X81978628Y-29433333D01*
X81978628Y-29433333D02*
X82264342Y-29433333D01*
X82264342Y-29433333D02*
X82359580Y-29480952D01*
X82359580Y-29480952D02*
X82407200Y-29528571D01*
X82407200Y-29528571D02*
X82454819Y-29623809D01*
X82454819Y-29623809D02*
X82454819Y-29766666D01*
X82454819Y-28576190D02*
X81454819Y-28576190D01*
X82407200Y-28576190D02*
X82454819Y-28671428D01*
X82454819Y-28671428D02*
X82454819Y-28861904D01*
X82454819Y-28861904D02*
X82407200Y-28957142D01*
X82407200Y-28957142D02*
X82359580Y-29004761D01*
X82359580Y-29004761D02*
X82264342Y-29052380D01*
X82264342Y-29052380D02*
X81978628Y-29052380D01*
X81978628Y-29052380D02*
X81883390Y-29004761D01*
X81883390Y-29004761D02*
X81835771Y-28957142D01*
X81835771Y-28957142D02*
X81788152Y-28861904D01*
X81788152Y-28861904D02*
X81788152Y-28671428D01*
X81788152Y-28671428D02*
X81835771Y-28576190D01*
X119454819Y-49316666D02*
X118978628Y-49649999D01*
X119454819Y-49888094D02*
X118454819Y-49888094D01*
X118454819Y-49888094D02*
X118454819Y-49507142D01*
X118454819Y-49507142D02*
X118502438Y-49411904D01*
X118502438Y-49411904D02*
X118550057Y-49364285D01*
X118550057Y-49364285D02*
X118645295Y-49316666D01*
X118645295Y-49316666D02*
X118788152Y-49316666D01*
X118788152Y-49316666D02*
X118883390Y-49364285D01*
X118883390Y-49364285D02*
X118931009Y-49411904D01*
X118931009Y-49411904D02*
X118978628Y-49507142D01*
X118978628Y-49507142D02*
X118978628Y-49888094D01*
X118883390Y-48745237D02*
X118835771Y-48840475D01*
X118835771Y-48840475D02*
X118788152Y-48888094D01*
X118788152Y-48888094D02*
X118692914Y-48935713D01*
X118692914Y-48935713D02*
X118645295Y-48935713D01*
X118645295Y-48935713D02*
X118550057Y-48888094D01*
X118550057Y-48888094D02*
X118502438Y-48840475D01*
X118502438Y-48840475D02*
X118454819Y-48745237D01*
X118454819Y-48745237D02*
X118454819Y-48554761D01*
X118454819Y-48554761D02*
X118502438Y-48459523D01*
X118502438Y-48459523D02*
X118550057Y-48411904D01*
X118550057Y-48411904D02*
X118645295Y-48364285D01*
X118645295Y-48364285D02*
X118692914Y-48364285D01*
X118692914Y-48364285D02*
X118788152Y-48411904D01*
X118788152Y-48411904D02*
X118835771Y-48459523D01*
X118835771Y-48459523D02*
X118883390Y-48554761D01*
X118883390Y-48554761D02*
X118883390Y-48745237D01*
X118883390Y-48745237D02*
X118931009Y-48840475D01*
X118931009Y-48840475D02*
X118978628Y-48888094D01*
X118978628Y-48888094D02*
X119073866Y-48935713D01*
X119073866Y-48935713D02*
X119264342Y-48935713D01*
X119264342Y-48935713D02*
X119359580Y-48888094D01*
X119359580Y-48888094D02*
X119407200Y-48840475D01*
X119407200Y-48840475D02*
X119454819Y-48745237D01*
X119454819Y-48745237D02*
X119454819Y-48554761D01*
X119454819Y-48554761D02*
X119407200Y-48459523D01*
X119407200Y-48459523D02*
X119359580Y-48411904D01*
X119359580Y-48411904D02*
X119264342Y-48364285D01*
X119264342Y-48364285D02*
X119073866Y-48364285D01*
X119073866Y-48364285D02*
X118978628Y-48411904D01*
X118978628Y-48411904D02*
X118931009Y-48459523D01*
X118931009Y-48459523D02*
X118883390Y-48554761D01*
X119454819Y-46769047D02*
X119454819Y-47340475D01*
X119454819Y-47054761D02*
X118454819Y-47054761D01*
X118454819Y-47054761D02*
X118597676Y-47149999D01*
X118597676Y-47149999D02*
X118692914Y-47245237D01*
X118692914Y-47245237D02*
X118740533Y-47340475D01*
X119454819Y-46340475D02*
X118454819Y-46340475D01*
X119073866Y-46245237D02*
X119454819Y-45959523D01*
X118788152Y-45959523D02*
X119169104Y-46340475D01*
X86954819Y-116333333D02*
X87669104Y-116333333D01*
X87669104Y-116333333D02*
X87811961Y-116380952D01*
X87811961Y-116380952D02*
X87907200Y-116476190D01*
X87907200Y-116476190D02*
X87954819Y-116619047D01*
X87954819Y-116619047D02*
X87954819Y-116714285D01*
X87288152Y-115428571D02*
X87954819Y-115428571D01*
X86907200Y-115666666D02*
X87621485Y-115904761D01*
X87621485Y-115904761D02*
X87621485Y-115285714D01*
X77079523Y-119454819D02*
X76508095Y-119454819D01*
X76793809Y-119454819D02*
X76793809Y-118454819D01*
X76793809Y-118454819D02*
X76698571Y-118597676D01*
X76698571Y-118597676D02*
X76603333Y-118692914D01*
X76603333Y-118692914D02*
X76508095Y-118740533D01*
X77412857Y-118454819D02*
X78031904Y-118454819D01*
X78031904Y-118454819D02*
X77698571Y-118835771D01*
X77698571Y-118835771D02*
X77841428Y-118835771D01*
X77841428Y-118835771D02*
X77936666Y-118883390D01*
X77936666Y-118883390D02*
X77984285Y-118931009D01*
X77984285Y-118931009D02*
X78031904Y-119026247D01*
X78031904Y-119026247D02*
X78031904Y-119264342D01*
X78031904Y-119264342D02*
X77984285Y-119359580D01*
X77984285Y-119359580D02*
X77936666Y-119407200D01*
X77936666Y-119407200D02*
X77841428Y-119454819D01*
X77841428Y-119454819D02*
X77555714Y-119454819D01*
X77555714Y-119454819D02*
X77460476Y-119407200D01*
X77460476Y-119407200D02*
X77412857Y-119359580D01*
X79746190Y-119454819D02*
X79174762Y-119454819D01*
X79460476Y-119454819D02*
X79460476Y-118454819D01*
X79460476Y-118454819D02*
X79365238Y-118597676D01*
X79365238Y-118597676D02*
X79270000Y-118692914D01*
X79270000Y-118692914D02*
X79174762Y-118740533D01*
X80127143Y-118550057D02*
X80174762Y-118502438D01*
X80174762Y-118502438D02*
X80270000Y-118454819D01*
X80270000Y-118454819D02*
X80508095Y-118454819D01*
X80508095Y-118454819D02*
X80603333Y-118502438D01*
X80603333Y-118502438D02*
X80650952Y-118550057D01*
X80650952Y-118550057D02*
X80698571Y-118645295D01*
X80698571Y-118645295D02*
X80698571Y-118740533D01*
X80698571Y-118740533D02*
X80650952Y-118883390D01*
X80650952Y-118883390D02*
X80079524Y-119454819D01*
X80079524Y-119454819D02*
X80698571Y-119454819D01*
X82412857Y-119454819D02*
X81841429Y-119454819D01*
X82127143Y-119454819D02*
X82127143Y-118454819D01*
X82127143Y-118454819D02*
X82031905Y-118597676D01*
X82031905Y-118597676D02*
X81936667Y-118692914D01*
X81936667Y-118692914D02*
X81841429Y-118740533D01*
X83365238Y-119454819D02*
X82793810Y-119454819D01*
X83079524Y-119454819D02*
X83079524Y-118454819D01*
X83079524Y-118454819D02*
X82984286Y-118597676D01*
X82984286Y-118597676D02*
X82889048Y-118692914D01*
X82889048Y-118692914D02*
X82793810Y-118740533D01*
X85079524Y-119454819D02*
X84508096Y-119454819D01*
X84793810Y-119454819D02*
X84793810Y-118454819D01*
X84793810Y-118454819D02*
X84698572Y-118597676D01*
X84698572Y-118597676D02*
X84603334Y-118692914D01*
X84603334Y-118692914D02*
X84508096Y-118740533D01*
X85698572Y-118454819D02*
X85793810Y-118454819D01*
X85793810Y-118454819D02*
X85889048Y-118502438D01*
X85889048Y-118502438D02*
X85936667Y-118550057D01*
X85936667Y-118550057D02*
X85984286Y-118645295D01*
X85984286Y-118645295D02*
X86031905Y-118835771D01*
X86031905Y-118835771D02*
X86031905Y-119073866D01*
X86031905Y-119073866D02*
X85984286Y-119264342D01*
X85984286Y-119264342D02*
X85936667Y-119359580D01*
X85936667Y-119359580D02*
X85889048Y-119407200D01*
X85889048Y-119407200D02*
X85793810Y-119454819D01*
X85793810Y-119454819D02*
X85698572Y-119454819D01*
X85698572Y-119454819D02*
X85603334Y-119407200D01*
X85603334Y-119407200D02*
X85555715Y-119359580D01*
X85555715Y-119359580D02*
X85508096Y-119264342D01*
X85508096Y-119264342D02*
X85460477Y-119073866D01*
X85460477Y-119073866D02*
X85460477Y-118835771D01*
X85460477Y-118835771D02*
X85508096Y-118645295D01*
X85508096Y-118645295D02*
X85555715Y-118550057D01*
X85555715Y-118550057D02*
X85603334Y-118502438D01*
X85603334Y-118502438D02*
X85698572Y-118454819D01*
X88609580Y-28916666D02*
X88657200Y-28964285D01*
X88657200Y-28964285D02*
X88704819Y-29107142D01*
X88704819Y-29107142D02*
X88704819Y-29202380D01*
X88704819Y-29202380D02*
X88657200Y-29345237D01*
X88657200Y-29345237D02*
X88561961Y-29440475D01*
X88561961Y-29440475D02*
X88466723Y-29488094D01*
X88466723Y-29488094D02*
X88276247Y-29535713D01*
X88276247Y-29535713D02*
X88133390Y-29535713D01*
X88133390Y-29535713D02*
X87942914Y-29488094D01*
X87942914Y-29488094D02*
X87847676Y-29440475D01*
X87847676Y-29440475D02*
X87752438Y-29345237D01*
X87752438Y-29345237D02*
X87704819Y-29202380D01*
X87704819Y-29202380D02*
X87704819Y-29107142D01*
X87704819Y-29107142D02*
X87752438Y-28964285D01*
X87752438Y-28964285D02*
X87800057Y-28916666D01*
X87800057Y-28535713D02*
X87752438Y-28488094D01*
X87752438Y-28488094D02*
X87704819Y-28392856D01*
X87704819Y-28392856D02*
X87704819Y-28154761D01*
X87704819Y-28154761D02*
X87752438Y-28059523D01*
X87752438Y-28059523D02*
X87800057Y-28011904D01*
X87800057Y-28011904D02*
X87895295Y-27964285D01*
X87895295Y-27964285D02*
X87990533Y-27964285D01*
X87990533Y-27964285D02*
X88133390Y-28011904D01*
X88133390Y-28011904D02*
X88704819Y-28583332D01*
X88704819Y-28583332D02*
X88704819Y-27964285D01*
X84204819Y-29869047D02*
X84204819Y-30440475D01*
X84204819Y-30154761D02*
X83204819Y-30154761D01*
X83204819Y-30154761D02*
X83347676Y-30249999D01*
X83347676Y-30249999D02*
X83442914Y-30345237D01*
X83442914Y-30345237D02*
X83490533Y-30440475D01*
X83204819Y-29249999D02*
X83204819Y-29154761D01*
X83204819Y-29154761D02*
X83252438Y-29059523D01*
X83252438Y-29059523D02*
X83300057Y-29011904D01*
X83300057Y-29011904D02*
X83395295Y-28964285D01*
X83395295Y-28964285D02*
X83585771Y-28916666D01*
X83585771Y-28916666D02*
X83823866Y-28916666D01*
X83823866Y-28916666D02*
X84014342Y-28964285D01*
X84014342Y-28964285D02*
X84109580Y-29011904D01*
X84109580Y-29011904D02*
X84157200Y-29059523D01*
X84157200Y-29059523D02*
X84204819Y-29154761D01*
X84204819Y-29154761D02*
X84204819Y-29249999D01*
X84204819Y-29249999D02*
X84157200Y-29345237D01*
X84157200Y-29345237D02*
X84109580Y-29392856D01*
X84109580Y-29392856D02*
X84014342Y-29440475D01*
X84014342Y-29440475D02*
X83823866Y-29488094D01*
X83823866Y-29488094D02*
X83585771Y-29488094D01*
X83585771Y-29488094D02*
X83395295Y-29440475D01*
X83395295Y-29440475D02*
X83300057Y-29392856D01*
X83300057Y-29392856D02*
X83252438Y-29345237D01*
X83252438Y-29345237D02*
X83204819Y-29249999D01*
X83204819Y-28297618D02*
X83204819Y-28202380D01*
X83204819Y-28202380D02*
X83252438Y-28107142D01*
X83252438Y-28107142D02*
X83300057Y-28059523D01*
X83300057Y-28059523D02*
X83395295Y-28011904D01*
X83395295Y-28011904D02*
X83585771Y-27964285D01*
X83585771Y-27964285D02*
X83823866Y-27964285D01*
X83823866Y-27964285D02*
X84014342Y-28011904D01*
X84014342Y-28011904D02*
X84109580Y-28059523D01*
X84109580Y-28059523D02*
X84157200Y-28107142D01*
X84157200Y-28107142D02*
X84204819Y-28202380D01*
X84204819Y-28202380D02*
X84204819Y-28297618D01*
X84204819Y-28297618D02*
X84157200Y-28392856D01*
X84157200Y-28392856D02*
X84109580Y-28440475D01*
X84109580Y-28440475D02*
X84014342Y-28488094D01*
X84014342Y-28488094D02*
X83823866Y-28535713D01*
X83823866Y-28535713D02*
X83585771Y-28535713D01*
X83585771Y-28535713D02*
X83395295Y-28488094D01*
X83395295Y-28488094D02*
X83300057Y-28440475D01*
X83300057Y-28440475D02*
X83252438Y-28392856D01*
X83252438Y-28392856D02*
X83204819Y-28297618D01*
X83538152Y-27535713D02*
X84204819Y-27535713D01*
X83633390Y-27535713D02*
X83585771Y-27488094D01*
X83585771Y-27488094D02*
X83538152Y-27392856D01*
X83538152Y-27392856D02*
X83538152Y-27249999D01*
X83538152Y-27249999D02*
X83585771Y-27154761D01*
X83585771Y-27154761D02*
X83681009Y-27107142D01*
X83681009Y-27107142D02*
X84204819Y-27107142D01*
X129954819Y-55642857D02*
X129478628Y-55976190D01*
X129954819Y-56214285D02*
X128954819Y-56214285D01*
X128954819Y-56214285D02*
X128954819Y-55833333D01*
X128954819Y-55833333D02*
X129002438Y-55738095D01*
X129002438Y-55738095D02*
X129050057Y-55690476D01*
X129050057Y-55690476D02*
X129145295Y-55642857D01*
X129145295Y-55642857D02*
X129288152Y-55642857D01*
X129288152Y-55642857D02*
X129383390Y-55690476D01*
X129383390Y-55690476D02*
X129431009Y-55738095D01*
X129431009Y-55738095D02*
X129478628Y-55833333D01*
X129478628Y-55833333D02*
X129478628Y-56214285D01*
X129954819Y-54690476D02*
X129954819Y-55261904D01*
X129954819Y-54976190D02*
X128954819Y-54976190D01*
X128954819Y-54976190D02*
X129097676Y-55071428D01*
X129097676Y-55071428D02*
X129192914Y-55166666D01*
X129192914Y-55166666D02*
X129240533Y-55261904D01*
X128954819Y-54357142D02*
X128954819Y-53738095D01*
X128954819Y-53738095D02*
X129335771Y-54071428D01*
X129335771Y-54071428D02*
X129335771Y-53928571D01*
X129335771Y-53928571D02*
X129383390Y-53833333D01*
X129383390Y-53833333D02*
X129431009Y-53785714D01*
X129431009Y-53785714D02*
X129526247Y-53738095D01*
X129526247Y-53738095D02*
X129764342Y-53738095D01*
X129764342Y-53738095D02*
X129859580Y-53785714D01*
X129859580Y-53785714D02*
X129907200Y-53833333D01*
X129907200Y-53833333D02*
X129954819Y-53928571D01*
X129954819Y-53928571D02*
X129954819Y-54214285D01*
X129954819Y-54214285D02*
X129907200Y-54309523D01*
X129907200Y-54309523D02*
X129859580Y-54357142D01*
X129050057Y-52316666D02*
X129002438Y-52269047D01*
X129002438Y-52269047D02*
X128954819Y-52173809D01*
X128954819Y-52173809D02*
X128954819Y-51935714D01*
X128954819Y-51935714D02*
X129002438Y-51840476D01*
X129002438Y-51840476D02*
X129050057Y-51792857D01*
X129050057Y-51792857D02*
X129145295Y-51745238D01*
X129145295Y-51745238D02*
X129240533Y-51745238D01*
X129240533Y-51745238D02*
X129383390Y-51792857D01*
X129383390Y-51792857D02*
X129954819Y-52364285D01*
X129954819Y-52364285D02*
X129954819Y-51745238D01*
X129383390Y-51173809D02*
X129335771Y-51269047D01*
X129335771Y-51269047D02*
X129288152Y-51316666D01*
X129288152Y-51316666D02*
X129192914Y-51364285D01*
X129192914Y-51364285D02*
X129145295Y-51364285D01*
X129145295Y-51364285D02*
X129050057Y-51316666D01*
X129050057Y-51316666D02*
X129002438Y-51269047D01*
X129002438Y-51269047D02*
X128954819Y-51173809D01*
X128954819Y-51173809D02*
X128954819Y-50983333D01*
X128954819Y-50983333D02*
X129002438Y-50888095D01*
X129002438Y-50888095D02*
X129050057Y-50840476D01*
X129050057Y-50840476D02*
X129145295Y-50792857D01*
X129145295Y-50792857D02*
X129192914Y-50792857D01*
X129192914Y-50792857D02*
X129288152Y-50840476D01*
X129288152Y-50840476D02*
X129335771Y-50888095D01*
X129335771Y-50888095D02*
X129383390Y-50983333D01*
X129383390Y-50983333D02*
X129383390Y-51173809D01*
X129383390Y-51173809D02*
X129431009Y-51269047D01*
X129431009Y-51269047D02*
X129478628Y-51316666D01*
X129478628Y-51316666D02*
X129573866Y-51364285D01*
X129573866Y-51364285D02*
X129764342Y-51364285D01*
X129764342Y-51364285D02*
X129859580Y-51316666D01*
X129859580Y-51316666D02*
X129907200Y-51269047D01*
X129907200Y-51269047D02*
X129954819Y-51173809D01*
X129954819Y-51173809D02*
X129954819Y-50983333D01*
X129954819Y-50983333D02*
X129907200Y-50888095D01*
X129907200Y-50888095D02*
X129859580Y-50840476D01*
X129859580Y-50840476D02*
X129764342Y-50792857D01*
X129764342Y-50792857D02*
X129573866Y-50792857D01*
X129573866Y-50792857D02*
X129478628Y-50840476D01*
X129478628Y-50840476D02*
X129431009Y-50888095D01*
X129431009Y-50888095D02*
X129383390Y-50983333D01*
X129954819Y-50364285D02*
X128954819Y-50364285D01*
X129573866Y-50269047D02*
X129954819Y-49983333D01*
X129288152Y-49983333D02*
X129669104Y-50364285D01*
X119994819Y-98809523D02*
X120709104Y-98809523D01*
X120709104Y-98809523D02*
X120851961Y-98857142D01*
X120851961Y-98857142D02*
X120947200Y-98952380D01*
X120947200Y-98952380D02*
X120994819Y-99095237D01*
X120994819Y-99095237D02*
X120994819Y-99190475D01*
X120994819Y-97809523D02*
X120994819Y-98380951D01*
X120994819Y-98095237D02*
X119994819Y-98095237D01*
X119994819Y-98095237D02*
X120137676Y-98190475D01*
X120137676Y-98190475D02*
X120232914Y-98285713D01*
X120232914Y-98285713D02*
X120280533Y-98380951D01*
X119994819Y-97476189D02*
X119994819Y-96857142D01*
X119994819Y-96857142D02*
X120375771Y-97190475D01*
X120375771Y-97190475D02*
X120375771Y-97047618D01*
X120375771Y-97047618D02*
X120423390Y-96952380D01*
X120423390Y-96952380D02*
X120471009Y-96904761D01*
X120471009Y-96904761D02*
X120566247Y-96857142D01*
X120566247Y-96857142D02*
X120804342Y-96857142D01*
X120804342Y-96857142D02*
X120899580Y-96904761D01*
X120899580Y-96904761D02*
X120947200Y-96952380D01*
X120947200Y-96952380D02*
X120994819Y-97047618D01*
X120994819Y-97047618D02*
X120994819Y-97333332D01*
X120994819Y-97333332D02*
X120947200Y-97428570D01*
X120947200Y-97428570D02*
X120899580Y-97476189D01*
X121943809Y-101073866D02*
X122705714Y-101073866D01*
X124610476Y-100454819D02*
X125229523Y-100454819D01*
X125229523Y-100454819D02*
X124896190Y-100835771D01*
X124896190Y-100835771D02*
X125039047Y-100835771D01*
X125039047Y-100835771D02*
X125134285Y-100883390D01*
X125134285Y-100883390D02*
X125181904Y-100931009D01*
X125181904Y-100931009D02*
X125229523Y-101026247D01*
X125229523Y-101026247D02*
X125229523Y-101264342D01*
X125229523Y-101264342D02*
X125181904Y-101359580D01*
X125181904Y-101359580D02*
X125134285Y-101407200D01*
X125134285Y-101407200D02*
X125039047Y-101454819D01*
X125039047Y-101454819D02*
X124753333Y-101454819D01*
X124753333Y-101454819D02*
X124658095Y-101407200D01*
X124658095Y-101407200D02*
X124610476Y-101359580D01*
X125800952Y-100883390D02*
X125705714Y-100835771D01*
X125705714Y-100835771D02*
X125658095Y-100788152D01*
X125658095Y-100788152D02*
X125610476Y-100692914D01*
X125610476Y-100692914D02*
X125610476Y-100645295D01*
X125610476Y-100645295D02*
X125658095Y-100550057D01*
X125658095Y-100550057D02*
X125705714Y-100502438D01*
X125705714Y-100502438D02*
X125800952Y-100454819D01*
X125800952Y-100454819D02*
X125991428Y-100454819D01*
X125991428Y-100454819D02*
X126086666Y-100502438D01*
X126086666Y-100502438D02*
X126134285Y-100550057D01*
X126134285Y-100550057D02*
X126181904Y-100645295D01*
X126181904Y-100645295D02*
X126181904Y-100692914D01*
X126181904Y-100692914D02*
X126134285Y-100788152D01*
X126134285Y-100788152D02*
X126086666Y-100835771D01*
X126086666Y-100835771D02*
X125991428Y-100883390D01*
X125991428Y-100883390D02*
X125800952Y-100883390D01*
X125800952Y-100883390D02*
X125705714Y-100931009D01*
X125705714Y-100931009D02*
X125658095Y-100978628D01*
X125658095Y-100978628D02*
X125610476Y-101073866D01*
X125610476Y-101073866D02*
X125610476Y-101264342D01*
X125610476Y-101264342D02*
X125658095Y-101359580D01*
X125658095Y-101359580D02*
X125705714Y-101407200D01*
X125705714Y-101407200D02*
X125800952Y-101454819D01*
X125800952Y-101454819D02*
X125991428Y-101454819D01*
X125991428Y-101454819D02*
X126086666Y-101407200D01*
X126086666Y-101407200D02*
X126134285Y-101359580D01*
X126134285Y-101359580D02*
X126181904Y-101264342D01*
X126181904Y-101264342D02*
X126181904Y-101073866D01*
X126181904Y-101073866D02*
X126134285Y-100978628D01*
X126134285Y-100978628D02*
X126086666Y-100931009D01*
X126086666Y-100931009D02*
X125991428Y-100883390D01*
X128134286Y-101073866D02*
X128896191Y-101073866D01*
X128515238Y-101454819D02*
X128515238Y-100692914D01*
X86674819Y-66166666D02*
X86198628Y-66499999D01*
X86674819Y-66738094D02*
X85674819Y-66738094D01*
X85674819Y-66738094D02*
X85674819Y-66357142D01*
X85674819Y-66357142D02*
X85722438Y-66261904D01*
X85722438Y-66261904D02*
X85770057Y-66214285D01*
X85770057Y-66214285D02*
X85865295Y-66166666D01*
X85865295Y-66166666D02*
X86008152Y-66166666D01*
X86008152Y-66166666D02*
X86103390Y-66214285D01*
X86103390Y-66214285D02*
X86151009Y-66261904D01*
X86151009Y-66261904D02*
X86198628Y-66357142D01*
X86198628Y-66357142D02*
X86198628Y-66738094D01*
X85674819Y-65833332D02*
X85674819Y-65166666D01*
X85674819Y-65166666D02*
X86674819Y-65595237D01*
X81234819Y-66119047D02*
X81234819Y-66690475D01*
X81234819Y-66404761D02*
X80234819Y-66404761D01*
X80234819Y-66404761D02*
X80377676Y-66499999D01*
X80377676Y-66499999D02*
X80472914Y-66595237D01*
X80472914Y-66595237D02*
X80520533Y-66690475D01*
X81234819Y-65690475D02*
X80234819Y-65690475D01*
X80853866Y-65595237D02*
X81234819Y-65309523D01*
X80568152Y-65309523D02*
X80949104Y-65690475D01*
X117574819Y-110333333D02*
X118289104Y-110333333D01*
X118289104Y-110333333D02*
X118431961Y-110380952D01*
X118431961Y-110380952D02*
X118527200Y-110476190D01*
X118527200Y-110476190D02*
X118574819Y-110619047D01*
X118574819Y-110619047D02*
X118574819Y-110714285D01*
X118003390Y-109714285D02*
X117955771Y-109809523D01*
X117955771Y-109809523D02*
X117908152Y-109857142D01*
X117908152Y-109857142D02*
X117812914Y-109904761D01*
X117812914Y-109904761D02*
X117765295Y-109904761D01*
X117765295Y-109904761D02*
X117670057Y-109857142D01*
X117670057Y-109857142D02*
X117622438Y-109809523D01*
X117622438Y-109809523D02*
X117574819Y-109714285D01*
X117574819Y-109714285D02*
X117574819Y-109523809D01*
X117574819Y-109523809D02*
X117622438Y-109428571D01*
X117622438Y-109428571D02*
X117670057Y-109380952D01*
X117670057Y-109380952D02*
X117765295Y-109333333D01*
X117765295Y-109333333D02*
X117812914Y-109333333D01*
X117812914Y-109333333D02*
X117908152Y-109380952D01*
X117908152Y-109380952D02*
X117955771Y-109428571D01*
X117955771Y-109428571D02*
X118003390Y-109523809D01*
X118003390Y-109523809D02*
X118003390Y-109714285D01*
X118003390Y-109714285D02*
X118051009Y-109809523D01*
X118051009Y-109809523D02*
X118098628Y-109857142D01*
X118098628Y-109857142D02*
X118193866Y-109904761D01*
X118193866Y-109904761D02*
X118384342Y-109904761D01*
X118384342Y-109904761D02*
X118479580Y-109857142D01*
X118479580Y-109857142D02*
X118527200Y-109809523D01*
X118527200Y-109809523D02*
X118574819Y-109714285D01*
X118574819Y-109714285D02*
X118574819Y-109523809D01*
X118574819Y-109523809D02*
X118527200Y-109428571D01*
X118527200Y-109428571D02*
X118479580Y-109380952D01*
X118479580Y-109380952D02*
X118384342Y-109333333D01*
X118384342Y-109333333D02*
X118193866Y-109333333D01*
X118193866Y-109333333D02*
X118098628Y-109380952D01*
X118098628Y-109380952D02*
X118051009Y-109428571D01*
X118051009Y-109428571D02*
X118003390Y-109523809D01*
X119738095Y-112550057D02*
X119785714Y-112502438D01*
X119785714Y-112502438D02*
X119880952Y-112454819D01*
X119880952Y-112454819D02*
X120119047Y-112454819D01*
X120119047Y-112454819D02*
X120214285Y-112502438D01*
X120214285Y-112502438D02*
X120261904Y-112550057D01*
X120261904Y-112550057D02*
X120309523Y-112645295D01*
X120309523Y-112645295D02*
X120309523Y-112740533D01*
X120309523Y-112740533D02*
X120261904Y-112883390D01*
X120261904Y-112883390D02*
X119690476Y-113454819D01*
X119690476Y-113454819D02*
X120309523Y-113454819D01*
X121261904Y-113454819D02*
X120690476Y-113454819D01*
X120976190Y-113454819D02*
X120976190Y-112454819D01*
X120976190Y-112454819D02*
X120880952Y-112597676D01*
X120880952Y-112597676D02*
X120785714Y-112692914D01*
X120785714Y-112692914D02*
X120690476Y-112740533D01*
X122880952Y-112788152D02*
X122880952Y-113454819D01*
X122642857Y-112407200D02*
X122404762Y-113121485D01*
X122404762Y-113121485D02*
X123023809Y-113121485D01*
X123309524Y-112454819D02*
X123976190Y-112454819D01*
X123976190Y-112454819D02*
X123547619Y-113454819D01*
X125547619Y-112788152D02*
X125547619Y-113454819D01*
X125309524Y-112407200D02*
X125071429Y-113121485D01*
X125071429Y-113121485D02*
X125690476Y-113121485D01*
X126214286Y-112883390D02*
X126119048Y-112835771D01*
X126119048Y-112835771D02*
X126071429Y-112788152D01*
X126071429Y-112788152D02*
X126023810Y-112692914D01*
X126023810Y-112692914D02*
X126023810Y-112645295D01*
X126023810Y-112645295D02*
X126071429Y-112550057D01*
X126071429Y-112550057D02*
X126119048Y-112502438D01*
X126119048Y-112502438D02*
X126214286Y-112454819D01*
X126214286Y-112454819D02*
X126404762Y-112454819D01*
X126404762Y-112454819D02*
X126500000Y-112502438D01*
X126500000Y-112502438D02*
X126547619Y-112550057D01*
X126547619Y-112550057D02*
X126595238Y-112645295D01*
X126595238Y-112645295D02*
X126595238Y-112692914D01*
X126595238Y-112692914D02*
X126547619Y-112788152D01*
X126547619Y-112788152D02*
X126500000Y-112835771D01*
X126500000Y-112835771D02*
X126404762Y-112883390D01*
X126404762Y-112883390D02*
X126214286Y-112883390D01*
X126214286Y-112883390D02*
X126119048Y-112931009D01*
X126119048Y-112931009D02*
X126071429Y-112978628D01*
X126071429Y-112978628D02*
X126023810Y-113073866D01*
X126023810Y-113073866D02*
X126023810Y-113264342D01*
X126023810Y-113264342D02*
X126071429Y-113359580D01*
X126071429Y-113359580D02*
X126119048Y-113407200D01*
X126119048Y-113407200D02*
X126214286Y-113454819D01*
X126214286Y-113454819D02*
X126404762Y-113454819D01*
X126404762Y-113454819D02*
X126500000Y-113407200D01*
X126500000Y-113407200D02*
X126547619Y-113359580D01*
X126547619Y-113359580D02*
X126595238Y-113264342D01*
X126595238Y-113264342D02*
X126595238Y-113073866D01*
X126595238Y-113073866D02*
X126547619Y-112978628D01*
X126547619Y-112978628D02*
X126500000Y-112931009D01*
X126500000Y-112931009D02*
X126404762Y-112883390D01*
X128214286Y-112788152D02*
X128214286Y-113454819D01*
X127976191Y-112407200D02*
X127738096Y-113121485D01*
X127738096Y-113121485D02*
X128357143Y-113121485D01*
X129214286Y-112454819D02*
X128738096Y-112454819D01*
X128738096Y-112454819D02*
X128690477Y-112931009D01*
X128690477Y-112931009D02*
X128738096Y-112883390D01*
X128738096Y-112883390D02*
X128833334Y-112835771D01*
X128833334Y-112835771D02*
X129071429Y-112835771D01*
X129071429Y-112835771D02*
X129166667Y-112883390D01*
X129166667Y-112883390D02*
X129214286Y-112931009D01*
X129214286Y-112931009D02*
X129261905Y-113026247D01*
X129261905Y-113026247D02*
X129261905Y-113264342D01*
X129261905Y-113264342D02*
X129214286Y-113359580D01*
X129214286Y-113359580D02*
X129166667Y-113407200D01*
X129166667Y-113407200D02*
X129071429Y-113454819D01*
X129071429Y-113454819D02*
X128833334Y-113454819D01*
X128833334Y-113454819D02*
X128738096Y-113407200D01*
X128738096Y-113407200D02*
X128690477Y-113359580D01*
X84534819Y-58809523D02*
X85249104Y-58809523D01*
X85249104Y-58809523D02*
X85391961Y-58857142D01*
X85391961Y-58857142D02*
X85487200Y-58952380D01*
X85487200Y-58952380D02*
X85534819Y-59095237D01*
X85534819Y-59095237D02*
X85534819Y-59190475D01*
X85534819Y-57809523D02*
X85534819Y-58380951D01*
X85534819Y-58095237D02*
X84534819Y-58095237D01*
X84534819Y-58095237D02*
X84677676Y-58190475D01*
X84677676Y-58190475D02*
X84772914Y-58285713D01*
X84772914Y-58285713D02*
X84820533Y-58380951D01*
X84534819Y-57190475D02*
X84534819Y-57095237D01*
X84534819Y-57095237D02*
X84582438Y-56999999D01*
X84582438Y-56999999D02*
X84630057Y-56952380D01*
X84630057Y-56952380D02*
X84725295Y-56904761D01*
X84725295Y-56904761D02*
X84915771Y-56857142D01*
X84915771Y-56857142D02*
X85153866Y-56857142D01*
X85153866Y-56857142D02*
X85344342Y-56904761D01*
X85344342Y-56904761D02*
X85439580Y-56952380D01*
X85439580Y-56952380D02*
X85487200Y-56999999D01*
X85487200Y-56999999D02*
X85534819Y-57095237D01*
X85534819Y-57095237D02*
X85534819Y-57190475D01*
X85534819Y-57190475D02*
X85487200Y-57285713D01*
X85487200Y-57285713D02*
X85439580Y-57333332D01*
X85439580Y-57333332D02*
X85344342Y-57380951D01*
X85344342Y-57380951D02*
X85153866Y-57428570D01*
X85153866Y-57428570D02*
X84915771Y-57428570D01*
X84915771Y-57428570D02*
X84725295Y-57380951D01*
X84725295Y-57380951D02*
X84630057Y-57333332D01*
X84630057Y-57333332D02*
X84582438Y-57285713D01*
X84582438Y-57285713D02*
X84534819Y-57190475D01*
X113954819Y-49316666D02*
X113478628Y-49649999D01*
X113954819Y-49888094D02*
X112954819Y-49888094D01*
X112954819Y-49888094D02*
X112954819Y-49507142D01*
X112954819Y-49507142D02*
X113002438Y-49411904D01*
X113002438Y-49411904D02*
X113050057Y-49364285D01*
X113050057Y-49364285D02*
X113145295Y-49316666D01*
X113145295Y-49316666D02*
X113288152Y-49316666D01*
X113288152Y-49316666D02*
X113383390Y-49364285D01*
X113383390Y-49364285D02*
X113431009Y-49411904D01*
X113431009Y-49411904D02*
X113478628Y-49507142D01*
X113478628Y-49507142D02*
X113478628Y-49888094D01*
X113954819Y-48840475D02*
X113954819Y-48649999D01*
X113954819Y-48649999D02*
X113907200Y-48554761D01*
X113907200Y-48554761D02*
X113859580Y-48507142D01*
X113859580Y-48507142D02*
X113716723Y-48411904D01*
X113716723Y-48411904D02*
X113526247Y-48364285D01*
X113526247Y-48364285D02*
X113145295Y-48364285D01*
X113145295Y-48364285D02*
X113050057Y-48411904D01*
X113050057Y-48411904D02*
X113002438Y-48459523D01*
X113002438Y-48459523D02*
X112954819Y-48554761D01*
X112954819Y-48554761D02*
X112954819Y-48745237D01*
X112954819Y-48745237D02*
X113002438Y-48840475D01*
X113002438Y-48840475D02*
X113050057Y-48888094D01*
X113050057Y-48888094D02*
X113145295Y-48935713D01*
X113145295Y-48935713D02*
X113383390Y-48935713D01*
X113383390Y-48935713D02*
X113478628Y-48888094D01*
X113478628Y-48888094D02*
X113526247Y-48840475D01*
X113526247Y-48840475D02*
X113573866Y-48745237D01*
X113573866Y-48745237D02*
X113573866Y-48554761D01*
X113573866Y-48554761D02*
X113526247Y-48459523D01*
X113526247Y-48459523D02*
X113478628Y-48411904D01*
X113478628Y-48411904D02*
X113383390Y-48364285D01*
X113288152Y-46411904D02*
X113954819Y-46411904D01*
X112907200Y-46649999D02*
X113621485Y-46888094D01*
X113621485Y-46888094D02*
X113621485Y-46269047D01*
X113383390Y-45745237D02*
X113335771Y-45840475D01*
X113335771Y-45840475D02*
X113288152Y-45888094D01*
X113288152Y-45888094D02*
X113192914Y-45935713D01*
X113192914Y-45935713D02*
X113145295Y-45935713D01*
X113145295Y-45935713D02*
X113050057Y-45888094D01*
X113050057Y-45888094D02*
X113002438Y-45840475D01*
X113002438Y-45840475D02*
X112954819Y-45745237D01*
X112954819Y-45745237D02*
X112954819Y-45554761D01*
X112954819Y-45554761D02*
X113002438Y-45459523D01*
X113002438Y-45459523D02*
X113050057Y-45411904D01*
X113050057Y-45411904D02*
X113145295Y-45364285D01*
X113145295Y-45364285D02*
X113192914Y-45364285D01*
X113192914Y-45364285D02*
X113288152Y-45411904D01*
X113288152Y-45411904D02*
X113335771Y-45459523D01*
X113335771Y-45459523D02*
X113383390Y-45554761D01*
X113383390Y-45554761D02*
X113383390Y-45745237D01*
X113383390Y-45745237D02*
X113431009Y-45840475D01*
X113431009Y-45840475D02*
X113478628Y-45888094D01*
X113478628Y-45888094D02*
X113573866Y-45935713D01*
X113573866Y-45935713D02*
X113764342Y-45935713D01*
X113764342Y-45935713D02*
X113859580Y-45888094D01*
X113859580Y-45888094D02*
X113907200Y-45840475D01*
X113907200Y-45840475D02*
X113954819Y-45745237D01*
X113954819Y-45745237D02*
X113954819Y-45554761D01*
X113954819Y-45554761D02*
X113907200Y-45459523D01*
X113907200Y-45459523D02*
X113859580Y-45411904D01*
X113859580Y-45411904D02*
X113764342Y-45364285D01*
X113764342Y-45364285D02*
X113573866Y-45364285D01*
X113573866Y-45364285D02*
X113478628Y-45411904D01*
X113478628Y-45411904D02*
X113431009Y-45459523D01*
X113431009Y-45459523D02*
X113383390Y-45554761D01*
X112954819Y-44745237D02*
X112954819Y-44649999D01*
X112954819Y-44649999D02*
X113002438Y-44554761D01*
X113002438Y-44554761D02*
X113050057Y-44507142D01*
X113050057Y-44507142D02*
X113145295Y-44459523D01*
X113145295Y-44459523D02*
X113335771Y-44411904D01*
X113335771Y-44411904D02*
X113573866Y-44411904D01*
X113573866Y-44411904D02*
X113764342Y-44459523D01*
X113764342Y-44459523D02*
X113859580Y-44507142D01*
X113859580Y-44507142D02*
X113907200Y-44554761D01*
X113907200Y-44554761D02*
X113954819Y-44649999D01*
X113954819Y-44649999D02*
X113954819Y-44745237D01*
X113954819Y-44745237D02*
X113907200Y-44840475D01*
X113907200Y-44840475D02*
X113859580Y-44888094D01*
X113859580Y-44888094D02*
X113764342Y-44935713D01*
X113764342Y-44935713D02*
X113573866Y-44983332D01*
X113573866Y-44983332D02*
X113335771Y-44983332D01*
X113335771Y-44983332D02*
X113145295Y-44935713D01*
X113145295Y-44935713D02*
X113050057Y-44888094D01*
X113050057Y-44888094D02*
X113002438Y-44840475D01*
X113002438Y-44840475D02*
X112954819Y-44745237D01*
X119994819Y-92809523D02*
X120709104Y-92809523D01*
X120709104Y-92809523D02*
X120851961Y-92857142D01*
X120851961Y-92857142D02*
X120947200Y-92952380D01*
X120947200Y-92952380D02*
X120994819Y-93095237D01*
X120994819Y-93095237D02*
X120994819Y-93190475D01*
X120994819Y-91809523D02*
X120994819Y-92380951D01*
X120994819Y-92095237D02*
X119994819Y-92095237D01*
X119994819Y-92095237D02*
X120137676Y-92190475D01*
X120137676Y-92190475D02*
X120232914Y-92285713D01*
X120232914Y-92285713D02*
X120280533Y-92380951D01*
X120090057Y-91428570D02*
X120042438Y-91380951D01*
X120042438Y-91380951D02*
X119994819Y-91285713D01*
X119994819Y-91285713D02*
X119994819Y-91047618D01*
X119994819Y-91047618D02*
X120042438Y-90952380D01*
X120042438Y-90952380D02*
X120090057Y-90904761D01*
X120090057Y-90904761D02*
X120185295Y-90857142D01*
X120185295Y-90857142D02*
X120280533Y-90857142D01*
X120280533Y-90857142D02*
X120423390Y-90904761D01*
X120423390Y-90904761D02*
X120994819Y-91476189D01*
X120994819Y-91476189D02*
X120994819Y-90857142D01*
X121943809Y-95073866D02*
X122705714Y-95073866D01*
X124610476Y-94454819D02*
X125229523Y-94454819D01*
X125229523Y-94454819D02*
X124896190Y-94835771D01*
X124896190Y-94835771D02*
X125039047Y-94835771D01*
X125039047Y-94835771D02*
X125134285Y-94883390D01*
X125134285Y-94883390D02*
X125181904Y-94931009D01*
X125181904Y-94931009D02*
X125229523Y-95026247D01*
X125229523Y-95026247D02*
X125229523Y-95264342D01*
X125229523Y-95264342D02*
X125181904Y-95359580D01*
X125181904Y-95359580D02*
X125134285Y-95407200D01*
X125134285Y-95407200D02*
X125039047Y-95454819D01*
X125039047Y-95454819D02*
X124753333Y-95454819D01*
X124753333Y-95454819D02*
X124658095Y-95407200D01*
X124658095Y-95407200D02*
X124610476Y-95359580D01*
X125705714Y-95454819D02*
X125896190Y-95454819D01*
X125896190Y-95454819D02*
X125991428Y-95407200D01*
X125991428Y-95407200D02*
X126039047Y-95359580D01*
X126039047Y-95359580D02*
X126134285Y-95216723D01*
X126134285Y-95216723D02*
X126181904Y-95026247D01*
X126181904Y-95026247D02*
X126181904Y-94645295D01*
X126181904Y-94645295D02*
X126134285Y-94550057D01*
X126134285Y-94550057D02*
X126086666Y-94502438D01*
X126086666Y-94502438D02*
X125991428Y-94454819D01*
X125991428Y-94454819D02*
X125800952Y-94454819D01*
X125800952Y-94454819D02*
X125705714Y-94502438D01*
X125705714Y-94502438D02*
X125658095Y-94550057D01*
X125658095Y-94550057D02*
X125610476Y-94645295D01*
X125610476Y-94645295D02*
X125610476Y-94883390D01*
X125610476Y-94883390D02*
X125658095Y-94978628D01*
X125658095Y-94978628D02*
X125705714Y-95026247D01*
X125705714Y-95026247D02*
X125800952Y-95073866D01*
X125800952Y-95073866D02*
X125991428Y-95073866D01*
X125991428Y-95073866D02*
X126086666Y-95026247D01*
X126086666Y-95026247D02*
X126134285Y-94978628D01*
X126134285Y-94978628D02*
X126181904Y-94883390D01*
X128134286Y-95073866D02*
X128896191Y-95073866D01*
X128515238Y-95454819D02*
X128515238Y-94692914D01*
X99804819Y-58283333D02*
X100519104Y-58283333D01*
X100519104Y-58283333D02*
X100661961Y-58330952D01*
X100661961Y-58330952D02*
X100757200Y-58426190D01*
X100757200Y-58426190D02*
X100804819Y-58569047D01*
X100804819Y-58569047D02*
X100804819Y-58664285D01*
X100804819Y-57759523D02*
X100804819Y-57569047D01*
X100804819Y-57569047D02*
X100757200Y-57473809D01*
X100757200Y-57473809D02*
X100709580Y-57426190D01*
X100709580Y-57426190D02*
X100566723Y-57330952D01*
X100566723Y-57330952D02*
X100376247Y-57283333D01*
X100376247Y-57283333D02*
X99995295Y-57283333D01*
X99995295Y-57283333D02*
X99900057Y-57330952D01*
X99900057Y-57330952D02*
X99852438Y-57378571D01*
X99852438Y-57378571D02*
X99804819Y-57473809D01*
X99804819Y-57473809D02*
X99804819Y-57664285D01*
X99804819Y-57664285D02*
X99852438Y-57759523D01*
X99852438Y-57759523D02*
X99900057Y-57807142D01*
X99900057Y-57807142D02*
X99995295Y-57854761D01*
X99995295Y-57854761D02*
X100233390Y-57854761D01*
X100233390Y-57854761D02*
X100328628Y-57807142D01*
X100328628Y-57807142D02*
X100376247Y-57759523D01*
X100376247Y-57759523D02*
X100423866Y-57664285D01*
X100423866Y-57664285D02*
X100423866Y-57473809D01*
X100423866Y-57473809D02*
X100376247Y-57378571D01*
X100376247Y-57378571D02*
X100328628Y-57330952D01*
X100328628Y-57330952D02*
X100233390Y-57283333D01*
X102756905Y-27534819D02*
X102756905Y-26534819D01*
X102756905Y-26534819D02*
X102995000Y-26534819D01*
X102995000Y-26534819D02*
X103137857Y-26582438D01*
X103137857Y-26582438D02*
X103233095Y-26677676D01*
X103233095Y-26677676D02*
X103280714Y-26772914D01*
X103280714Y-26772914D02*
X103328333Y-26963390D01*
X103328333Y-26963390D02*
X103328333Y-27106247D01*
X103328333Y-27106247D02*
X103280714Y-27296723D01*
X103280714Y-27296723D02*
X103233095Y-27391961D01*
X103233095Y-27391961D02*
X103137857Y-27487200D01*
X103137857Y-27487200D02*
X102995000Y-27534819D01*
X102995000Y-27534819D02*
X102756905Y-27534819D01*
X103709286Y-26630057D02*
X103756905Y-26582438D01*
X103756905Y-26582438D02*
X103852143Y-26534819D01*
X103852143Y-26534819D02*
X104090238Y-26534819D01*
X104090238Y-26534819D02*
X104185476Y-26582438D01*
X104185476Y-26582438D02*
X104233095Y-26630057D01*
X104233095Y-26630057D02*
X104280714Y-26725295D01*
X104280714Y-26725295D02*
X104280714Y-26820533D01*
X104280714Y-26820533D02*
X104233095Y-26963390D01*
X104233095Y-26963390D02*
X103661667Y-27534819D01*
X103661667Y-27534819D02*
X104280714Y-27534819D01*
X99423095Y-27704819D02*
X99423095Y-26704819D01*
X99994523Y-27704819D02*
X99565952Y-27133390D01*
X99994523Y-26704819D02*
X99423095Y-27276247D01*
X84110057Y-45825238D02*
X84062438Y-45920476D01*
X84062438Y-45920476D02*
X83967200Y-46015714D01*
X83967200Y-46015714D02*
X83824342Y-46158571D01*
X83824342Y-46158571D02*
X83776723Y-46253809D01*
X83776723Y-46253809D02*
X83776723Y-46349047D01*
X84014819Y-46301428D02*
X83967200Y-46396666D01*
X83967200Y-46396666D02*
X83871961Y-46491904D01*
X83871961Y-46491904D02*
X83681485Y-46539523D01*
X83681485Y-46539523D02*
X83348152Y-46539523D01*
X83348152Y-46539523D02*
X83157676Y-46491904D01*
X83157676Y-46491904D02*
X83062438Y-46396666D01*
X83062438Y-46396666D02*
X83014819Y-46301428D01*
X83014819Y-46301428D02*
X83014819Y-46110952D01*
X83014819Y-46110952D02*
X83062438Y-46015714D01*
X83062438Y-46015714D02*
X83157676Y-45920476D01*
X83157676Y-45920476D02*
X83348152Y-45872857D01*
X83348152Y-45872857D02*
X83681485Y-45872857D01*
X83681485Y-45872857D02*
X83871961Y-45920476D01*
X83871961Y-45920476D02*
X83967200Y-46015714D01*
X83967200Y-46015714D02*
X84014819Y-46110952D01*
X84014819Y-46110952D02*
X84014819Y-46301428D01*
X84014819Y-44920476D02*
X84014819Y-45491904D01*
X84014819Y-45206190D02*
X83014819Y-45206190D01*
X83014819Y-45206190D02*
X83157676Y-45301428D01*
X83157676Y-45301428D02*
X83252914Y-45396666D01*
X83252914Y-45396666D02*
X83300533Y-45491904D01*
X86954819Y-80833333D02*
X87669104Y-80833333D01*
X87669104Y-80833333D02*
X87811961Y-80880952D01*
X87811961Y-80880952D02*
X87907200Y-80976190D01*
X87907200Y-80976190D02*
X87954819Y-81119047D01*
X87954819Y-81119047D02*
X87954819Y-81214285D01*
X87050057Y-80404761D02*
X87002438Y-80357142D01*
X87002438Y-80357142D02*
X86954819Y-80261904D01*
X86954819Y-80261904D02*
X86954819Y-80023809D01*
X86954819Y-80023809D02*
X87002438Y-79928571D01*
X87002438Y-79928571D02*
X87050057Y-79880952D01*
X87050057Y-79880952D02*
X87145295Y-79833333D01*
X87145295Y-79833333D02*
X87240533Y-79833333D01*
X87240533Y-79833333D02*
X87383390Y-79880952D01*
X87383390Y-79880952D02*
X87954819Y-80452380D01*
X87954819Y-80452380D02*
X87954819Y-79833333D01*
X77119046Y-83954819D02*
X76785713Y-83478628D01*
X76547618Y-83954819D02*
X76547618Y-82954819D01*
X76547618Y-82954819D02*
X76928570Y-82954819D01*
X76928570Y-82954819D02*
X77023808Y-83002438D01*
X77023808Y-83002438D02*
X77071427Y-83050057D01*
X77071427Y-83050057D02*
X77119046Y-83145295D01*
X77119046Y-83145295D02*
X77119046Y-83288152D01*
X77119046Y-83288152D02*
X77071427Y-83383390D01*
X77071427Y-83383390D02*
X77023808Y-83431009D01*
X77023808Y-83431009D02*
X76928570Y-83478628D01*
X76928570Y-83478628D02*
X76547618Y-83478628D01*
X77499999Y-83907200D02*
X77642856Y-83954819D01*
X77642856Y-83954819D02*
X77880951Y-83954819D01*
X77880951Y-83954819D02*
X77976189Y-83907200D01*
X77976189Y-83907200D02*
X78023808Y-83859580D01*
X78023808Y-83859580D02*
X78071427Y-83764342D01*
X78071427Y-83764342D02*
X78071427Y-83669104D01*
X78071427Y-83669104D02*
X78023808Y-83573866D01*
X78023808Y-83573866D02*
X77976189Y-83526247D01*
X77976189Y-83526247D02*
X77880951Y-83478628D01*
X77880951Y-83478628D02*
X77690475Y-83431009D01*
X77690475Y-83431009D02*
X77595237Y-83383390D01*
X77595237Y-83383390D02*
X77547618Y-83335771D01*
X77547618Y-83335771D02*
X77499999Y-83240533D01*
X77499999Y-83240533D02*
X77499999Y-83145295D01*
X77499999Y-83145295D02*
X77547618Y-83050057D01*
X77547618Y-83050057D02*
X77595237Y-83002438D01*
X77595237Y-83002438D02*
X77690475Y-82954819D01*
X77690475Y-82954819D02*
X77928570Y-82954819D01*
X77928570Y-82954819D02*
X78071427Y-83002438D01*
X78357142Y-82954819D02*
X78928570Y-82954819D01*
X78642856Y-83954819D02*
X78642856Y-82954819D01*
X80452380Y-83288152D02*
X80452380Y-83954819D01*
X80214285Y-82907200D02*
X79976190Y-83621485D01*
X79976190Y-83621485D02*
X80595237Y-83621485D01*
X82928571Y-82954819D02*
X82738095Y-82954819D01*
X82738095Y-82954819D02*
X82642857Y-83002438D01*
X82642857Y-83002438D02*
X82595238Y-83050057D01*
X82595238Y-83050057D02*
X82500000Y-83192914D01*
X82500000Y-83192914D02*
X82452381Y-83383390D01*
X82452381Y-83383390D02*
X82452381Y-83764342D01*
X82452381Y-83764342D02*
X82500000Y-83859580D01*
X82500000Y-83859580D02*
X82547619Y-83907200D01*
X82547619Y-83907200D02*
X82642857Y-83954819D01*
X82642857Y-83954819D02*
X82833333Y-83954819D01*
X82833333Y-83954819D02*
X82928571Y-83907200D01*
X82928571Y-83907200D02*
X82976190Y-83859580D01*
X82976190Y-83859580D02*
X83023809Y-83764342D01*
X83023809Y-83764342D02*
X83023809Y-83526247D01*
X83023809Y-83526247D02*
X82976190Y-83431009D01*
X82976190Y-83431009D02*
X82928571Y-83383390D01*
X82928571Y-83383390D02*
X82833333Y-83335771D01*
X82833333Y-83335771D02*
X82642857Y-83335771D01*
X82642857Y-83335771D02*
X82547619Y-83383390D01*
X82547619Y-83383390D02*
X82500000Y-83431009D01*
X82500000Y-83431009D02*
X82452381Y-83526247D01*
X84880953Y-82954819D02*
X85547619Y-82954819D01*
X85547619Y-82954819D02*
X85119048Y-83954819D01*
D10*
X117457419Y-74071428D02*
X118266942Y-74071428D01*
X118266942Y-74071428D02*
X118362180Y-74023809D01*
X118362180Y-74023809D02*
X118409800Y-73976190D01*
X118409800Y-73976190D02*
X118457419Y-73880952D01*
X118457419Y-73880952D02*
X118457419Y-73690476D01*
X118457419Y-73690476D02*
X118409800Y-73595238D01*
X118409800Y-73595238D02*
X118362180Y-73547619D01*
X118362180Y-73547619D02*
X118266942Y-73500000D01*
X118266942Y-73500000D02*
X117457419Y-73500000D01*
X118171704Y-73071428D02*
X118171704Y-72595238D01*
X118457419Y-73166666D02*
X117457419Y-72833333D01*
X117457419Y-72833333D02*
X118457419Y-72500000D01*
X118457419Y-71595238D02*
X117981228Y-71928571D01*
X118457419Y-72166666D02*
X117457419Y-72166666D01*
X117457419Y-72166666D02*
X117457419Y-71785714D01*
X117457419Y-71785714D02*
X117505038Y-71690476D01*
X117505038Y-71690476D02*
X117552657Y-71642857D01*
X117552657Y-71642857D02*
X117647895Y-71595238D01*
X117647895Y-71595238D02*
X117790752Y-71595238D01*
X117790752Y-71595238D02*
X117885990Y-71642857D01*
X117885990Y-71642857D02*
X117933609Y-71690476D01*
X117933609Y-71690476D02*
X117981228Y-71785714D01*
X117981228Y-71785714D02*
X117981228Y-72166666D01*
X117457419Y-71309523D02*
X117457419Y-70738095D01*
X118457419Y-71023809D02*
X117457419Y-71023809D01*
X117552657Y-70452380D02*
X117505038Y-70404761D01*
X117505038Y-70404761D02*
X117457419Y-70309523D01*
X117457419Y-70309523D02*
X117457419Y-70071428D01*
X117457419Y-70071428D02*
X117505038Y-69976190D01*
X117505038Y-69976190D02*
X117552657Y-69928571D01*
X117552657Y-69928571D02*
X117647895Y-69880952D01*
X117647895Y-69880952D02*
X117743133Y-69880952D01*
X117743133Y-69880952D02*
X117885990Y-69928571D01*
X117885990Y-69928571D02*
X118457419Y-70499999D01*
X118457419Y-70499999D02*
X118457419Y-69880952D01*
D11*
X119994819Y-80333333D02*
X120709104Y-80333333D01*
X120709104Y-80333333D02*
X120851961Y-80380952D01*
X120851961Y-80380952D02*
X120947200Y-80476190D01*
X120947200Y-80476190D02*
X120994819Y-80619047D01*
X120994819Y-80619047D02*
X120994819Y-80714285D01*
X119994819Y-79428571D02*
X119994819Y-79619047D01*
X119994819Y-79619047D02*
X120042438Y-79714285D01*
X120042438Y-79714285D02*
X120090057Y-79761904D01*
X120090057Y-79761904D02*
X120232914Y-79857142D01*
X120232914Y-79857142D02*
X120423390Y-79904761D01*
X120423390Y-79904761D02*
X120804342Y-79904761D01*
X120804342Y-79904761D02*
X120899580Y-79857142D01*
X120899580Y-79857142D02*
X120947200Y-79809523D01*
X120947200Y-79809523D02*
X120994819Y-79714285D01*
X120994819Y-79714285D02*
X120994819Y-79523809D01*
X120994819Y-79523809D02*
X120947200Y-79428571D01*
X120947200Y-79428571D02*
X120899580Y-79380952D01*
X120899580Y-79380952D02*
X120804342Y-79333333D01*
X120804342Y-79333333D02*
X120566247Y-79333333D01*
X120566247Y-79333333D02*
X120471009Y-79380952D01*
X120471009Y-79380952D02*
X120423390Y-79428571D01*
X120423390Y-79428571D02*
X120375771Y-79523809D01*
X120375771Y-79523809D02*
X120375771Y-79714285D01*
X120375771Y-79714285D02*
X120423390Y-79809523D01*
X120423390Y-79809523D02*
X120471009Y-79857142D01*
X120471009Y-79857142D02*
X120566247Y-79904761D01*
X121943809Y-83073866D02*
X122705714Y-83073866D01*
X125134285Y-82788152D02*
X125134285Y-83454819D01*
X124896190Y-82407200D02*
X124658095Y-83121485D01*
X124658095Y-83121485D02*
X125277142Y-83121485D01*
X126181904Y-83454819D02*
X125610476Y-83454819D01*
X125896190Y-83454819D02*
X125896190Y-82454819D01*
X125896190Y-82454819D02*
X125800952Y-82597676D01*
X125800952Y-82597676D02*
X125705714Y-82692914D01*
X125705714Y-82692914D02*
X125610476Y-82740533D01*
X128134286Y-83073866D02*
X128896191Y-83073866D01*
X128515238Y-83454819D02*
X128515238Y-82692914D01*
X121333333Y-21734819D02*
X121000000Y-21258628D01*
X120761905Y-21734819D02*
X120761905Y-20734819D01*
X120761905Y-20734819D02*
X121142857Y-20734819D01*
X121142857Y-20734819D02*
X121238095Y-20782438D01*
X121238095Y-20782438D02*
X121285714Y-20830057D01*
X121285714Y-20830057D02*
X121333333Y-20925295D01*
X121333333Y-20925295D02*
X121333333Y-21068152D01*
X121333333Y-21068152D02*
X121285714Y-21163390D01*
X121285714Y-21163390D02*
X121238095Y-21211009D01*
X121238095Y-21211009D02*
X121142857Y-21258628D01*
X121142857Y-21258628D02*
X120761905Y-21258628D01*
X121666667Y-20734819D02*
X122285714Y-20734819D01*
X122285714Y-20734819D02*
X121952381Y-21115771D01*
X121952381Y-21115771D02*
X122095238Y-21115771D01*
X122095238Y-21115771D02*
X122190476Y-21163390D01*
X122190476Y-21163390D02*
X122238095Y-21211009D01*
X122238095Y-21211009D02*
X122285714Y-21306247D01*
X122285714Y-21306247D02*
X122285714Y-21544342D01*
X122285714Y-21544342D02*
X122238095Y-21639580D01*
X122238095Y-21639580D02*
X122190476Y-21687200D01*
X122190476Y-21687200D02*
X122095238Y-21734819D01*
X122095238Y-21734819D02*
X121809524Y-21734819D01*
X121809524Y-21734819D02*
X121714286Y-21687200D01*
X121714286Y-21687200D02*
X121666667Y-21639580D01*
X120904761Y-27174819D02*
X120333333Y-27174819D01*
X120619047Y-27174819D02*
X120619047Y-26174819D01*
X120619047Y-26174819D02*
X120523809Y-26317676D01*
X120523809Y-26317676D02*
X120428571Y-26412914D01*
X120428571Y-26412914D02*
X120333333Y-26460533D01*
X121523809Y-26174819D02*
X121619047Y-26174819D01*
X121619047Y-26174819D02*
X121714285Y-26222438D01*
X121714285Y-26222438D02*
X121761904Y-26270057D01*
X121761904Y-26270057D02*
X121809523Y-26365295D01*
X121809523Y-26365295D02*
X121857142Y-26555771D01*
X121857142Y-26555771D02*
X121857142Y-26793866D01*
X121857142Y-26793866D02*
X121809523Y-26984342D01*
X121809523Y-26984342D02*
X121761904Y-27079580D01*
X121761904Y-27079580D02*
X121714285Y-27127200D01*
X121714285Y-27127200D02*
X121619047Y-27174819D01*
X121619047Y-27174819D02*
X121523809Y-27174819D01*
X121523809Y-27174819D02*
X121428571Y-27127200D01*
X121428571Y-27127200D02*
X121380952Y-27079580D01*
X121380952Y-27079580D02*
X121333333Y-26984342D01*
X121333333Y-26984342D02*
X121285714Y-26793866D01*
X121285714Y-26793866D02*
X121285714Y-26555771D01*
X121285714Y-26555771D02*
X121333333Y-26365295D01*
X121333333Y-26365295D02*
X121380952Y-26270057D01*
X121380952Y-26270057D02*
X121428571Y-26222438D01*
X121428571Y-26222438D02*
X121523809Y-26174819D01*
X122285714Y-27174819D02*
X122285714Y-26174819D01*
X122380952Y-26793866D02*
X122666666Y-27174819D01*
X122666666Y-26508152D02*
X122285714Y-26889104D01*
X105833333Y-21734819D02*
X105500000Y-21258628D01*
X105261905Y-21734819D02*
X105261905Y-20734819D01*
X105261905Y-20734819D02*
X105642857Y-20734819D01*
X105642857Y-20734819D02*
X105738095Y-20782438D01*
X105738095Y-20782438D02*
X105785714Y-20830057D01*
X105785714Y-20830057D02*
X105833333Y-20925295D01*
X105833333Y-20925295D02*
X105833333Y-21068152D01*
X105833333Y-21068152D02*
X105785714Y-21163390D01*
X105785714Y-21163390D02*
X105738095Y-21211009D01*
X105738095Y-21211009D02*
X105642857Y-21258628D01*
X105642857Y-21258628D02*
X105261905Y-21258628D01*
X106214286Y-20830057D02*
X106261905Y-20782438D01*
X106261905Y-20782438D02*
X106357143Y-20734819D01*
X106357143Y-20734819D02*
X106595238Y-20734819D01*
X106595238Y-20734819D02*
X106690476Y-20782438D01*
X106690476Y-20782438D02*
X106738095Y-20830057D01*
X106738095Y-20830057D02*
X106785714Y-20925295D01*
X106785714Y-20925295D02*
X106785714Y-21020533D01*
X106785714Y-21020533D02*
X106738095Y-21163390D01*
X106738095Y-21163390D02*
X106166667Y-21734819D01*
X106166667Y-21734819D02*
X106785714Y-21734819D01*
X105404761Y-27174819D02*
X104833333Y-27174819D01*
X105119047Y-27174819D02*
X105119047Y-26174819D01*
X105119047Y-26174819D02*
X105023809Y-26317676D01*
X105023809Y-26317676D02*
X104928571Y-26412914D01*
X104928571Y-26412914D02*
X104833333Y-26460533D01*
X106023809Y-26174819D02*
X106119047Y-26174819D01*
X106119047Y-26174819D02*
X106214285Y-26222438D01*
X106214285Y-26222438D02*
X106261904Y-26270057D01*
X106261904Y-26270057D02*
X106309523Y-26365295D01*
X106309523Y-26365295D02*
X106357142Y-26555771D01*
X106357142Y-26555771D02*
X106357142Y-26793866D01*
X106357142Y-26793866D02*
X106309523Y-26984342D01*
X106309523Y-26984342D02*
X106261904Y-27079580D01*
X106261904Y-27079580D02*
X106214285Y-27127200D01*
X106214285Y-27127200D02*
X106119047Y-27174819D01*
X106119047Y-27174819D02*
X106023809Y-27174819D01*
X106023809Y-27174819D02*
X105928571Y-27127200D01*
X105928571Y-27127200D02*
X105880952Y-27079580D01*
X105880952Y-27079580D02*
X105833333Y-26984342D01*
X105833333Y-26984342D02*
X105785714Y-26793866D01*
X105785714Y-26793866D02*
X105785714Y-26555771D01*
X105785714Y-26555771D02*
X105833333Y-26365295D01*
X105833333Y-26365295D02*
X105880952Y-26270057D01*
X105880952Y-26270057D02*
X105928571Y-26222438D01*
X105928571Y-26222438D02*
X106023809Y-26174819D01*
X106785714Y-27174819D02*
X106785714Y-26174819D01*
X106880952Y-26793866D02*
X107166666Y-27174819D01*
X107166666Y-26508152D02*
X106785714Y-26889104D01*
X97454819Y-49942857D02*
X96978628Y-50276190D01*
X97454819Y-50514285D02*
X96454819Y-50514285D01*
X96454819Y-50514285D02*
X96454819Y-50133333D01*
X96454819Y-50133333D02*
X96502438Y-50038095D01*
X96502438Y-50038095D02*
X96550057Y-49990476D01*
X96550057Y-49990476D02*
X96645295Y-49942857D01*
X96645295Y-49942857D02*
X96788152Y-49942857D01*
X96788152Y-49942857D02*
X96883390Y-49990476D01*
X96883390Y-49990476D02*
X96931009Y-50038095D01*
X96931009Y-50038095D02*
X96978628Y-50133333D01*
X96978628Y-50133333D02*
X96978628Y-50514285D01*
X97454819Y-48990476D02*
X97454819Y-49561904D01*
X97454819Y-49276190D02*
X96454819Y-49276190D01*
X96454819Y-49276190D02*
X96597676Y-49371428D01*
X96597676Y-49371428D02*
X96692914Y-49466666D01*
X96692914Y-49466666D02*
X96740533Y-49561904D01*
X96550057Y-48609523D02*
X96502438Y-48561904D01*
X96502438Y-48561904D02*
X96454819Y-48466666D01*
X96454819Y-48466666D02*
X96454819Y-48228571D01*
X96454819Y-48228571D02*
X96502438Y-48133333D01*
X96502438Y-48133333D02*
X96550057Y-48085714D01*
X96550057Y-48085714D02*
X96645295Y-48038095D01*
X96645295Y-48038095D02*
X96740533Y-48038095D01*
X96740533Y-48038095D02*
X96883390Y-48085714D01*
X96883390Y-48085714D02*
X97454819Y-48657142D01*
X97454819Y-48657142D02*
X97454819Y-48038095D01*
X96454819Y-46490476D02*
X96454819Y-46680952D01*
X96454819Y-46680952D02*
X96502438Y-46776190D01*
X96502438Y-46776190D02*
X96550057Y-46823809D01*
X96550057Y-46823809D02*
X96692914Y-46919047D01*
X96692914Y-46919047D02*
X96883390Y-46966666D01*
X96883390Y-46966666D02*
X97264342Y-46966666D01*
X97264342Y-46966666D02*
X97359580Y-46919047D01*
X97359580Y-46919047D02*
X97407200Y-46871428D01*
X97407200Y-46871428D02*
X97454819Y-46776190D01*
X97454819Y-46776190D02*
X97454819Y-46585714D01*
X97454819Y-46585714D02*
X97407200Y-46490476D01*
X97407200Y-46490476D02*
X97359580Y-46442857D01*
X97359580Y-46442857D02*
X97264342Y-46395238D01*
X97264342Y-46395238D02*
X97026247Y-46395238D01*
X97026247Y-46395238D02*
X96931009Y-46442857D01*
X96931009Y-46442857D02*
X96883390Y-46490476D01*
X96883390Y-46490476D02*
X96835771Y-46585714D01*
X96835771Y-46585714D02*
X96835771Y-46776190D01*
X96835771Y-46776190D02*
X96883390Y-46871428D01*
X96883390Y-46871428D02*
X96931009Y-46919047D01*
X96931009Y-46919047D02*
X97026247Y-46966666D01*
X96883390Y-45823809D02*
X96835771Y-45919047D01*
X96835771Y-45919047D02*
X96788152Y-45966666D01*
X96788152Y-45966666D02*
X96692914Y-46014285D01*
X96692914Y-46014285D02*
X96645295Y-46014285D01*
X96645295Y-46014285D02*
X96550057Y-45966666D01*
X96550057Y-45966666D02*
X96502438Y-45919047D01*
X96502438Y-45919047D02*
X96454819Y-45823809D01*
X96454819Y-45823809D02*
X96454819Y-45633333D01*
X96454819Y-45633333D02*
X96502438Y-45538095D01*
X96502438Y-45538095D02*
X96550057Y-45490476D01*
X96550057Y-45490476D02*
X96645295Y-45442857D01*
X96645295Y-45442857D02*
X96692914Y-45442857D01*
X96692914Y-45442857D02*
X96788152Y-45490476D01*
X96788152Y-45490476D02*
X96835771Y-45538095D01*
X96835771Y-45538095D02*
X96883390Y-45633333D01*
X96883390Y-45633333D02*
X96883390Y-45823809D01*
X96883390Y-45823809D02*
X96931009Y-45919047D01*
X96931009Y-45919047D02*
X96978628Y-45966666D01*
X96978628Y-45966666D02*
X97073866Y-46014285D01*
X97073866Y-46014285D02*
X97264342Y-46014285D01*
X97264342Y-46014285D02*
X97359580Y-45966666D01*
X97359580Y-45966666D02*
X97407200Y-45919047D01*
X97407200Y-45919047D02*
X97454819Y-45823809D01*
X97454819Y-45823809D02*
X97454819Y-45633333D01*
X97454819Y-45633333D02*
X97407200Y-45538095D01*
X97407200Y-45538095D02*
X97359580Y-45490476D01*
X97359580Y-45490476D02*
X97264342Y-45442857D01*
X97264342Y-45442857D02*
X97073866Y-45442857D01*
X97073866Y-45442857D02*
X96978628Y-45490476D01*
X96978628Y-45490476D02*
X96931009Y-45538095D01*
X96931009Y-45538095D02*
X96883390Y-45633333D01*
X97454819Y-45014285D02*
X96454819Y-45014285D01*
X97073866Y-44919047D02*
X97454819Y-44633333D01*
X96788152Y-44633333D02*
X97169104Y-45014285D01*
X86954819Y-110333333D02*
X87669104Y-110333333D01*
X87669104Y-110333333D02*
X87811961Y-110380952D01*
X87811961Y-110380952D02*
X87907200Y-110476190D01*
X87907200Y-110476190D02*
X87954819Y-110619047D01*
X87954819Y-110619047D02*
X87954819Y-110714285D01*
X86954819Y-109952380D02*
X86954819Y-109333333D01*
X86954819Y-109333333D02*
X87335771Y-109666666D01*
X87335771Y-109666666D02*
X87335771Y-109523809D01*
X87335771Y-109523809D02*
X87383390Y-109428571D01*
X87383390Y-109428571D02*
X87431009Y-109380952D01*
X87431009Y-109380952D02*
X87526247Y-109333333D01*
X87526247Y-109333333D02*
X87764342Y-109333333D01*
X87764342Y-109333333D02*
X87859580Y-109380952D01*
X87859580Y-109380952D02*
X87907200Y-109428571D01*
X87907200Y-109428571D02*
X87954819Y-109523809D01*
X87954819Y-109523809D02*
X87954819Y-109809523D01*
X87954819Y-109809523D02*
X87907200Y-109904761D01*
X87907200Y-109904761D02*
X87859580Y-109952380D01*
X76999999Y-113454819D02*
X77190475Y-113454819D01*
X77190475Y-113454819D02*
X77285713Y-113407200D01*
X77285713Y-113407200D02*
X77333332Y-113359580D01*
X77333332Y-113359580D02*
X77428570Y-113216723D01*
X77428570Y-113216723D02*
X77476189Y-113026247D01*
X77476189Y-113026247D02*
X77476189Y-112645295D01*
X77476189Y-112645295D02*
X77428570Y-112550057D01*
X77428570Y-112550057D02*
X77380951Y-112502438D01*
X77380951Y-112502438D02*
X77285713Y-112454819D01*
X77285713Y-112454819D02*
X77095237Y-112454819D01*
X77095237Y-112454819D02*
X76999999Y-112502438D01*
X76999999Y-112502438D02*
X76952380Y-112550057D01*
X76952380Y-112550057D02*
X76904761Y-112645295D01*
X76904761Y-112645295D02*
X76904761Y-112883390D01*
X76904761Y-112883390D02*
X76952380Y-112978628D01*
X76952380Y-112978628D02*
X76999999Y-113026247D01*
X76999999Y-113026247D02*
X77095237Y-113073866D01*
X77095237Y-113073866D02*
X77285713Y-113073866D01*
X77285713Y-113073866D02*
X77380951Y-113026247D01*
X77380951Y-113026247D02*
X77428570Y-112978628D01*
X77428570Y-112978628D02*
X77476189Y-112883390D01*
X79095237Y-112788152D02*
X79095237Y-113454819D01*
X78857142Y-112407200D02*
X78619047Y-113121485D01*
X78619047Y-113121485D02*
X79238094Y-113121485D01*
X80047618Y-112454819D02*
X79857142Y-112454819D01*
X79857142Y-112454819D02*
X79761904Y-112502438D01*
X79761904Y-112502438D02*
X79714285Y-112550057D01*
X79714285Y-112550057D02*
X79619047Y-112692914D01*
X79619047Y-112692914D02*
X79571428Y-112883390D01*
X79571428Y-112883390D02*
X79571428Y-113264342D01*
X79571428Y-113264342D02*
X79619047Y-113359580D01*
X79619047Y-113359580D02*
X79666666Y-113407200D01*
X79666666Y-113407200D02*
X79761904Y-113454819D01*
X79761904Y-113454819D02*
X79952380Y-113454819D01*
X79952380Y-113454819D02*
X80047618Y-113407200D01*
X80047618Y-113407200D02*
X80095237Y-113359580D01*
X80095237Y-113359580D02*
X80142856Y-113264342D01*
X80142856Y-113264342D02*
X80142856Y-113026247D01*
X80142856Y-113026247D02*
X80095237Y-112931009D01*
X80095237Y-112931009D02*
X80047618Y-112883390D01*
X80047618Y-112883390D02*
X79952380Y-112835771D01*
X79952380Y-112835771D02*
X79761904Y-112835771D01*
X79761904Y-112835771D02*
X79666666Y-112883390D01*
X79666666Y-112883390D02*
X79619047Y-112931009D01*
X79619047Y-112931009D02*
X79571428Y-113026247D01*
X82000000Y-112454819D02*
X82619047Y-112454819D01*
X82619047Y-112454819D02*
X82285714Y-112835771D01*
X82285714Y-112835771D02*
X82428571Y-112835771D01*
X82428571Y-112835771D02*
X82523809Y-112883390D01*
X82523809Y-112883390D02*
X82571428Y-112931009D01*
X82571428Y-112931009D02*
X82619047Y-113026247D01*
X82619047Y-113026247D02*
X82619047Y-113264342D01*
X82619047Y-113264342D02*
X82571428Y-113359580D01*
X82571428Y-113359580D02*
X82523809Y-113407200D01*
X82523809Y-113407200D02*
X82428571Y-113454819D01*
X82428571Y-113454819D02*
X82142857Y-113454819D01*
X82142857Y-113454819D02*
X82047619Y-113407200D01*
X82047619Y-113407200D02*
X82000000Y-113359580D01*
X84714286Y-112883390D02*
X84619048Y-112835771D01*
X84619048Y-112835771D02*
X84571429Y-112788152D01*
X84571429Y-112788152D02*
X84523810Y-112692914D01*
X84523810Y-112692914D02*
X84523810Y-112645295D01*
X84523810Y-112645295D02*
X84571429Y-112550057D01*
X84571429Y-112550057D02*
X84619048Y-112502438D01*
X84619048Y-112502438D02*
X84714286Y-112454819D01*
X84714286Y-112454819D02*
X84904762Y-112454819D01*
X84904762Y-112454819D02*
X85000000Y-112502438D01*
X85000000Y-112502438D02*
X85047619Y-112550057D01*
X85047619Y-112550057D02*
X85095238Y-112645295D01*
X85095238Y-112645295D02*
X85095238Y-112692914D01*
X85095238Y-112692914D02*
X85047619Y-112788152D01*
X85047619Y-112788152D02*
X85000000Y-112835771D01*
X85000000Y-112835771D02*
X84904762Y-112883390D01*
X84904762Y-112883390D02*
X84714286Y-112883390D01*
X84714286Y-112883390D02*
X84619048Y-112931009D01*
X84619048Y-112931009D02*
X84571429Y-112978628D01*
X84571429Y-112978628D02*
X84523810Y-113073866D01*
X84523810Y-113073866D02*
X84523810Y-113264342D01*
X84523810Y-113264342D02*
X84571429Y-113359580D01*
X84571429Y-113359580D02*
X84619048Y-113407200D01*
X84619048Y-113407200D02*
X84714286Y-113454819D01*
X84714286Y-113454819D02*
X84904762Y-113454819D01*
X84904762Y-113454819D02*
X85000000Y-113407200D01*
X85000000Y-113407200D02*
X85047619Y-113359580D01*
X85047619Y-113359580D02*
X85095238Y-113264342D01*
X85095238Y-113264342D02*
X85095238Y-113073866D01*
X85095238Y-113073866D02*
X85047619Y-112978628D01*
X85047619Y-112978628D02*
X85000000Y-112931009D01*
X85000000Y-112931009D02*
X84904762Y-112883390D01*
X117494819Y-104333333D02*
X118209104Y-104333333D01*
X118209104Y-104333333D02*
X118351961Y-104380952D01*
X118351961Y-104380952D02*
X118447200Y-104476190D01*
X118447200Y-104476190D02*
X118494819Y-104619047D01*
X118494819Y-104619047D02*
X118494819Y-104714285D01*
X117494819Y-103952380D02*
X117494819Y-103285714D01*
X117494819Y-103285714D02*
X118494819Y-103714285D01*
X119991428Y-106454819D02*
X120086666Y-106454819D01*
X120086666Y-106454819D02*
X120181904Y-106502438D01*
X120181904Y-106502438D02*
X120229523Y-106550057D01*
X120229523Y-106550057D02*
X120277142Y-106645295D01*
X120277142Y-106645295D02*
X120324761Y-106835771D01*
X120324761Y-106835771D02*
X120324761Y-107073866D01*
X120324761Y-107073866D02*
X120277142Y-107264342D01*
X120277142Y-107264342D02*
X120229523Y-107359580D01*
X120229523Y-107359580D02*
X120181904Y-107407200D01*
X120181904Y-107407200D02*
X120086666Y-107454819D01*
X120086666Y-107454819D02*
X119991428Y-107454819D01*
X119991428Y-107454819D02*
X119896190Y-107407200D01*
X119896190Y-107407200D02*
X119848571Y-107359580D01*
X119848571Y-107359580D02*
X119800952Y-107264342D01*
X119800952Y-107264342D02*
X119753333Y-107073866D01*
X119753333Y-107073866D02*
X119753333Y-106835771D01*
X119753333Y-106835771D02*
X119800952Y-106645295D01*
X119800952Y-106645295D02*
X119848571Y-106550057D01*
X119848571Y-106550057D02*
X119896190Y-106502438D01*
X119896190Y-106502438D02*
X119991428Y-106454819D01*
X122181905Y-106454819D02*
X122800952Y-106454819D01*
X122800952Y-106454819D02*
X122467619Y-106835771D01*
X122467619Y-106835771D02*
X122610476Y-106835771D01*
X122610476Y-106835771D02*
X122705714Y-106883390D01*
X122705714Y-106883390D02*
X122753333Y-106931009D01*
X122753333Y-106931009D02*
X122800952Y-107026247D01*
X122800952Y-107026247D02*
X122800952Y-107264342D01*
X122800952Y-107264342D02*
X122753333Y-107359580D01*
X122753333Y-107359580D02*
X122705714Y-107407200D01*
X122705714Y-107407200D02*
X122610476Y-107454819D01*
X122610476Y-107454819D02*
X122324762Y-107454819D01*
X122324762Y-107454819D02*
X122229524Y-107407200D01*
X122229524Y-107407200D02*
X122181905Y-107359580D01*
X123705714Y-106454819D02*
X123229524Y-106454819D01*
X123229524Y-106454819D02*
X123181905Y-106931009D01*
X123181905Y-106931009D02*
X123229524Y-106883390D01*
X123229524Y-106883390D02*
X123324762Y-106835771D01*
X123324762Y-106835771D02*
X123562857Y-106835771D01*
X123562857Y-106835771D02*
X123658095Y-106883390D01*
X123658095Y-106883390D02*
X123705714Y-106931009D01*
X123705714Y-106931009D02*
X123753333Y-107026247D01*
X123753333Y-107026247D02*
X123753333Y-107264342D01*
X123753333Y-107264342D02*
X123705714Y-107359580D01*
X123705714Y-107359580D02*
X123658095Y-107407200D01*
X123658095Y-107407200D02*
X123562857Y-107454819D01*
X123562857Y-107454819D02*
X123324762Y-107454819D01*
X123324762Y-107454819D02*
X123229524Y-107407200D01*
X123229524Y-107407200D02*
X123181905Y-107359580D01*
X124848572Y-106454819D02*
X125467619Y-106454819D01*
X125467619Y-106454819D02*
X125134286Y-106835771D01*
X125134286Y-106835771D02*
X125277143Y-106835771D01*
X125277143Y-106835771D02*
X125372381Y-106883390D01*
X125372381Y-106883390D02*
X125420000Y-106931009D01*
X125420000Y-106931009D02*
X125467619Y-107026247D01*
X125467619Y-107026247D02*
X125467619Y-107264342D01*
X125467619Y-107264342D02*
X125420000Y-107359580D01*
X125420000Y-107359580D02*
X125372381Y-107407200D01*
X125372381Y-107407200D02*
X125277143Y-107454819D01*
X125277143Y-107454819D02*
X124991429Y-107454819D01*
X124991429Y-107454819D02*
X124896191Y-107407200D01*
X124896191Y-107407200D02*
X124848572Y-107359580D01*
X126324762Y-106454819D02*
X126134286Y-106454819D01*
X126134286Y-106454819D02*
X126039048Y-106502438D01*
X126039048Y-106502438D02*
X125991429Y-106550057D01*
X125991429Y-106550057D02*
X125896191Y-106692914D01*
X125896191Y-106692914D02*
X125848572Y-106883390D01*
X125848572Y-106883390D02*
X125848572Y-107264342D01*
X125848572Y-107264342D02*
X125896191Y-107359580D01*
X125896191Y-107359580D02*
X125943810Y-107407200D01*
X125943810Y-107407200D02*
X126039048Y-107454819D01*
X126039048Y-107454819D02*
X126229524Y-107454819D01*
X126229524Y-107454819D02*
X126324762Y-107407200D01*
X126324762Y-107407200D02*
X126372381Y-107359580D01*
X126372381Y-107359580D02*
X126420000Y-107264342D01*
X126420000Y-107264342D02*
X126420000Y-107026247D01*
X126420000Y-107026247D02*
X126372381Y-106931009D01*
X126372381Y-106931009D02*
X126324762Y-106883390D01*
X126324762Y-106883390D02*
X126229524Y-106835771D01*
X126229524Y-106835771D02*
X126039048Y-106835771D01*
X126039048Y-106835771D02*
X125943810Y-106883390D01*
X125943810Y-106883390D02*
X125896191Y-106931009D01*
X125896191Y-106931009D02*
X125848572Y-107026247D01*
X127515239Y-106454819D02*
X128134286Y-106454819D01*
X128134286Y-106454819D02*
X127800953Y-106835771D01*
X127800953Y-106835771D02*
X127943810Y-106835771D01*
X127943810Y-106835771D02*
X128039048Y-106883390D01*
X128039048Y-106883390D02*
X128086667Y-106931009D01*
X128086667Y-106931009D02*
X128134286Y-107026247D01*
X128134286Y-107026247D02*
X128134286Y-107264342D01*
X128134286Y-107264342D02*
X128086667Y-107359580D01*
X128086667Y-107359580D02*
X128039048Y-107407200D01*
X128039048Y-107407200D02*
X127943810Y-107454819D01*
X127943810Y-107454819D02*
X127658096Y-107454819D01*
X127658096Y-107454819D02*
X127562858Y-107407200D01*
X127562858Y-107407200D02*
X127515239Y-107359580D01*
X128467620Y-106454819D02*
X129134286Y-106454819D01*
X129134286Y-106454819D02*
X128705715Y-107454819D01*
D10*
X101738095Y-113290752D02*
X101738095Y-113957419D01*
X101309524Y-113290752D02*
X101309524Y-113814561D01*
X101309524Y-113814561D02*
X101357143Y-113909800D01*
X101357143Y-113909800D02*
X101452381Y-113957419D01*
X101452381Y-113957419D02*
X101595238Y-113957419D01*
X101595238Y-113957419D02*
X101690476Y-113909800D01*
X101690476Y-113909800D02*
X101738095Y-113862180D01*
X102785714Y-113862180D02*
X102738095Y-113909800D01*
X102738095Y-113909800D02*
X102595238Y-113957419D01*
X102595238Y-113957419D02*
X102500000Y-113957419D01*
X102500000Y-113957419D02*
X102357143Y-113909800D01*
X102357143Y-113909800D02*
X102261905Y-113814561D01*
X102261905Y-113814561D02*
X102214286Y-113719323D01*
X102214286Y-113719323D02*
X102166667Y-113528847D01*
X102166667Y-113528847D02*
X102166667Y-113385990D01*
X102166667Y-113385990D02*
X102214286Y-113195514D01*
X102214286Y-113195514D02*
X102261905Y-113100276D01*
X102261905Y-113100276D02*
X102357143Y-113005038D01*
X102357143Y-113005038D02*
X102500000Y-112957419D01*
X102500000Y-112957419D02*
X102595238Y-112957419D01*
X102595238Y-112957419D02*
X102738095Y-113005038D01*
X102738095Y-113005038D02*
X102785714Y-113052657D01*
X103738095Y-113957419D02*
X103166667Y-113957419D01*
X103452381Y-113957419D02*
X103452381Y-112957419D01*
X103452381Y-112957419D02*
X103357143Y-113100276D01*
X103357143Y-113100276D02*
X103261905Y-113195514D01*
X103261905Y-113195514D02*
X103166667Y-113243133D01*
D11*
X95714286Y-114931009D02*
X96047619Y-114931009D01*
X96190476Y-115454819D02*
X95714286Y-115454819D01*
X95714286Y-115454819D02*
X95714286Y-114454819D01*
X95714286Y-114454819D02*
X96190476Y-114454819D01*
X96571429Y-115407200D02*
X96714286Y-115454819D01*
X96714286Y-115454819D02*
X96952381Y-115454819D01*
X96952381Y-115454819D02*
X97047619Y-115407200D01*
X97047619Y-115407200D02*
X97095238Y-115359580D01*
X97095238Y-115359580D02*
X97142857Y-115264342D01*
X97142857Y-115264342D02*
X97142857Y-115169104D01*
X97142857Y-115169104D02*
X97095238Y-115073866D01*
X97095238Y-115073866D02*
X97047619Y-115026247D01*
X97047619Y-115026247D02*
X96952381Y-114978628D01*
X96952381Y-114978628D02*
X96761905Y-114931009D01*
X96761905Y-114931009D02*
X96666667Y-114883390D01*
X96666667Y-114883390D02*
X96619048Y-114835771D01*
X96619048Y-114835771D02*
X96571429Y-114740533D01*
X96571429Y-114740533D02*
X96571429Y-114645295D01*
X96571429Y-114645295D02*
X96619048Y-114550057D01*
X96619048Y-114550057D02*
X96666667Y-114502438D01*
X96666667Y-114502438D02*
X96761905Y-114454819D01*
X96761905Y-114454819D02*
X97000000Y-114454819D01*
X97000000Y-114454819D02*
X97142857Y-114502438D01*
X97571429Y-115454819D02*
X97571429Y-114454819D01*
X97571429Y-114454819D02*
X97952381Y-114454819D01*
X97952381Y-114454819D02*
X98047619Y-114502438D01*
X98047619Y-114502438D02*
X98095238Y-114550057D01*
X98095238Y-114550057D02*
X98142857Y-114645295D01*
X98142857Y-114645295D02*
X98142857Y-114788152D01*
X98142857Y-114788152D02*
X98095238Y-114883390D01*
X98095238Y-114883390D02*
X98047619Y-114931009D01*
X98047619Y-114931009D02*
X97952381Y-114978628D01*
X97952381Y-114978628D02*
X97571429Y-114978628D01*
X98476191Y-114454819D02*
X99095238Y-114454819D01*
X99095238Y-114454819D02*
X98761905Y-114835771D01*
X98761905Y-114835771D02*
X98904762Y-114835771D01*
X98904762Y-114835771D02*
X99000000Y-114883390D01*
X99000000Y-114883390D02*
X99047619Y-114931009D01*
X99047619Y-114931009D02*
X99095238Y-115026247D01*
X99095238Y-115026247D02*
X99095238Y-115264342D01*
X99095238Y-115264342D02*
X99047619Y-115359580D01*
X99047619Y-115359580D02*
X99000000Y-115407200D01*
X99000000Y-115407200D02*
X98904762Y-115454819D01*
X98904762Y-115454819D02*
X98619048Y-115454819D01*
X98619048Y-115454819D02*
X98523810Y-115407200D01*
X98523810Y-115407200D02*
X98476191Y-115359580D01*
X99476191Y-114550057D02*
X99523810Y-114502438D01*
X99523810Y-114502438D02*
X99619048Y-114454819D01*
X99619048Y-114454819D02*
X99857143Y-114454819D01*
X99857143Y-114454819D02*
X99952381Y-114502438D01*
X99952381Y-114502438D02*
X100000000Y-114550057D01*
X100000000Y-114550057D02*
X100047619Y-114645295D01*
X100047619Y-114645295D02*
X100047619Y-114740533D01*
X100047619Y-114740533D02*
X100000000Y-114883390D01*
X100000000Y-114883390D02*
X99428572Y-115454819D01*
X99428572Y-115454819D02*
X100047619Y-115454819D01*
X100476191Y-115073866D02*
X101238096Y-115073866D01*
X101666667Y-115407200D02*
X101809524Y-115454819D01*
X101809524Y-115454819D02*
X102047619Y-115454819D01*
X102047619Y-115454819D02*
X102142857Y-115407200D01*
X102142857Y-115407200D02*
X102190476Y-115359580D01*
X102190476Y-115359580D02*
X102238095Y-115264342D01*
X102238095Y-115264342D02*
X102238095Y-115169104D01*
X102238095Y-115169104D02*
X102190476Y-115073866D01*
X102190476Y-115073866D02*
X102142857Y-115026247D01*
X102142857Y-115026247D02*
X102047619Y-114978628D01*
X102047619Y-114978628D02*
X101857143Y-114931009D01*
X101857143Y-114931009D02*
X101761905Y-114883390D01*
X101761905Y-114883390D02*
X101714286Y-114835771D01*
X101714286Y-114835771D02*
X101666667Y-114740533D01*
X101666667Y-114740533D02*
X101666667Y-114645295D01*
X101666667Y-114645295D02*
X101714286Y-114550057D01*
X101714286Y-114550057D02*
X101761905Y-114502438D01*
X101761905Y-114502438D02*
X101857143Y-114454819D01*
X101857143Y-114454819D02*
X102095238Y-114454819D01*
X102095238Y-114454819D02*
X102238095Y-114502438D01*
X102571429Y-114454819D02*
X103190476Y-114454819D01*
X103190476Y-114454819D02*
X102857143Y-114835771D01*
X102857143Y-114835771D02*
X103000000Y-114835771D01*
X103000000Y-114835771D02*
X103095238Y-114883390D01*
X103095238Y-114883390D02*
X103142857Y-114931009D01*
X103142857Y-114931009D02*
X103190476Y-115026247D01*
X103190476Y-115026247D02*
X103190476Y-115264342D01*
X103190476Y-115264342D02*
X103142857Y-115359580D01*
X103142857Y-115359580D02*
X103095238Y-115407200D01*
X103095238Y-115407200D02*
X103000000Y-115454819D01*
X103000000Y-115454819D02*
X102714286Y-115454819D01*
X102714286Y-115454819D02*
X102619048Y-115407200D01*
X102619048Y-115407200D02*
X102571429Y-115359580D01*
X103619048Y-115073866D02*
X104380953Y-115073866D01*
X104857143Y-115454819D02*
X104857143Y-114454819D01*
X104857143Y-114454819D02*
X105428571Y-115454819D01*
X105428571Y-115454819D02*
X105428571Y-114454819D01*
X106428571Y-115454819D02*
X105857143Y-115454819D01*
X106142857Y-115454819D02*
X106142857Y-114454819D01*
X106142857Y-114454819D02*
X106047619Y-114597676D01*
X106047619Y-114597676D02*
X105952381Y-114692914D01*
X105952381Y-114692914D02*
X105857143Y-114740533D01*
X107285714Y-114454819D02*
X107095238Y-114454819D01*
X107095238Y-114454819D02*
X107000000Y-114502438D01*
X107000000Y-114502438D02*
X106952381Y-114550057D01*
X106952381Y-114550057D02*
X106857143Y-114692914D01*
X106857143Y-114692914D02*
X106809524Y-114883390D01*
X106809524Y-114883390D02*
X106809524Y-115264342D01*
X106809524Y-115264342D02*
X106857143Y-115359580D01*
X106857143Y-115359580D02*
X106904762Y-115407200D01*
X106904762Y-115407200D02*
X107000000Y-115454819D01*
X107000000Y-115454819D02*
X107190476Y-115454819D01*
X107190476Y-115454819D02*
X107285714Y-115407200D01*
X107285714Y-115407200D02*
X107333333Y-115359580D01*
X107333333Y-115359580D02*
X107380952Y-115264342D01*
X107380952Y-115264342D02*
X107380952Y-115026247D01*
X107380952Y-115026247D02*
X107333333Y-114931009D01*
X107333333Y-114931009D02*
X107285714Y-114883390D01*
X107285714Y-114883390D02*
X107190476Y-114835771D01*
X107190476Y-114835771D02*
X107000000Y-114835771D01*
X107000000Y-114835771D02*
X106904762Y-114883390D01*
X106904762Y-114883390D02*
X106857143Y-114931009D01*
X106857143Y-114931009D02*
X106809524Y-115026247D01*
X108380952Y-115454819D02*
X108047619Y-114978628D01*
X107809524Y-115454819D02*
X107809524Y-114454819D01*
X107809524Y-114454819D02*
X108190476Y-114454819D01*
X108190476Y-114454819D02*
X108285714Y-114502438D01*
X108285714Y-114502438D02*
X108333333Y-114550057D01*
X108333333Y-114550057D02*
X108380952Y-114645295D01*
X108380952Y-114645295D02*
X108380952Y-114788152D01*
X108380952Y-114788152D02*
X108333333Y-114883390D01*
X108333333Y-114883390D02*
X108285714Y-114931009D01*
X108285714Y-114931009D02*
X108190476Y-114978628D01*
X108190476Y-114978628D02*
X107809524Y-114978628D01*
X108952381Y-114883390D02*
X108857143Y-114835771D01*
X108857143Y-114835771D02*
X108809524Y-114788152D01*
X108809524Y-114788152D02*
X108761905Y-114692914D01*
X108761905Y-114692914D02*
X108761905Y-114645295D01*
X108761905Y-114645295D02*
X108809524Y-114550057D01*
X108809524Y-114550057D02*
X108857143Y-114502438D01*
X108857143Y-114502438D02*
X108952381Y-114454819D01*
X108952381Y-114454819D02*
X109142857Y-114454819D01*
X109142857Y-114454819D02*
X109238095Y-114502438D01*
X109238095Y-114502438D02*
X109285714Y-114550057D01*
X109285714Y-114550057D02*
X109333333Y-114645295D01*
X109333333Y-114645295D02*
X109333333Y-114692914D01*
X109333333Y-114692914D02*
X109285714Y-114788152D01*
X109285714Y-114788152D02*
X109238095Y-114835771D01*
X109238095Y-114835771D02*
X109142857Y-114883390D01*
X109142857Y-114883390D02*
X108952381Y-114883390D01*
X108952381Y-114883390D02*
X108857143Y-114931009D01*
X108857143Y-114931009D02*
X108809524Y-114978628D01*
X108809524Y-114978628D02*
X108761905Y-115073866D01*
X108761905Y-115073866D02*
X108761905Y-115264342D01*
X108761905Y-115264342D02*
X108809524Y-115359580D01*
X108809524Y-115359580D02*
X108857143Y-115407200D01*
X108857143Y-115407200D02*
X108952381Y-115454819D01*
X108952381Y-115454819D02*
X109142857Y-115454819D01*
X109142857Y-115454819D02*
X109238095Y-115407200D01*
X109238095Y-115407200D02*
X109285714Y-115359580D01*
X109285714Y-115359580D02*
X109333333Y-115264342D01*
X109333333Y-115264342D02*
X109333333Y-115073866D01*
X109333333Y-115073866D02*
X109285714Y-114978628D01*
X109285714Y-114978628D02*
X109238095Y-114931009D01*
X109238095Y-114931009D02*
X109142857Y-114883390D01*
X86834819Y-47595238D02*
X86358628Y-47928571D01*
X86834819Y-48166666D02*
X85834819Y-48166666D01*
X85834819Y-48166666D02*
X85834819Y-47785714D01*
X85834819Y-47785714D02*
X85882438Y-47690476D01*
X85882438Y-47690476D02*
X85930057Y-47642857D01*
X85930057Y-47642857D02*
X86025295Y-47595238D01*
X86025295Y-47595238D02*
X86168152Y-47595238D01*
X86168152Y-47595238D02*
X86263390Y-47642857D01*
X86263390Y-47642857D02*
X86311009Y-47690476D01*
X86311009Y-47690476D02*
X86358628Y-47785714D01*
X86358628Y-47785714D02*
X86358628Y-48166666D01*
X85834819Y-47309523D02*
X86834819Y-46976190D01*
X86834819Y-46976190D02*
X85834819Y-46642857D01*
X86834819Y-45785714D02*
X86834819Y-46357142D01*
X86834819Y-46071428D02*
X85834819Y-46071428D01*
X85834819Y-46071428D02*
X85977676Y-46166666D01*
X85977676Y-46166666D02*
X86072914Y-46261904D01*
X86072914Y-46261904D02*
X86120533Y-46357142D01*
X86954819Y-44119047D02*
X86954819Y-44690475D01*
X86954819Y-44404761D02*
X85954819Y-44404761D01*
X85954819Y-44404761D02*
X86097676Y-44499999D01*
X86097676Y-44499999D02*
X86192914Y-44595237D01*
X86192914Y-44595237D02*
X86240533Y-44690475D01*
X86954819Y-43690475D02*
X85954819Y-43690475D01*
X86573866Y-43595237D02*
X86954819Y-43309523D01*
X86288152Y-43309523D02*
X86669104Y-43690475D01*
X84359580Y-52166666D02*
X84407200Y-52214285D01*
X84407200Y-52214285D02*
X84454819Y-52357142D01*
X84454819Y-52357142D02*
X84454819Y-52452380D01*
X84454819Y-52452380D02*
X84407200Y-52595237D01*
X84407200Y-52595237D02*
X84311961Y-52690475D01*
X84311961Y-52690475D02*
X84216723Y-52738094D01*
X84216723Y-52738094D02*
X84026247Y-52785713D01*
X84026247Y-52785713D02*
X83883390Y-52785713D01*
X83883390Y-52785713D02*
X83692914Y-52738094D01*
X83692914Y-52738094D02*
X83597676Y-52690475D01*
X83597676Y-52690475D02*
X83502438Y-52595237D01*
X83502438Y-52595237D02*
X83454819Y-52452380D01*
X83454819Y-52452380D02*
X83454819Y-52357142D01*
X83454819Y-52357142D02*
X83502438Y-52214285D01*
X83502438Y-52214285D02*
X83550057Y-52166666D01*
X83454819Y-51309523D02*
X83454819Y-51499999D01*
X83454819Y-51499999D02*
X83502438Y-51595237D01*
X83502438Y-51595237D02*
X83550057Y-51642856D01*
X83550057Y-51642856D02*
X83692914Y-51738094D01*
X83692914Y-51738094D02*
X83883390Y-51785713D01*
X83883390Y-51785713D02*
X84264342Y-51785713D01*
X84264342Y-51785713D02*
X84359580Y-51738094D01*
X84359580Y-51738094D02*
X84407200Y-51690475D01*
X84407200Y-51690475D02*
X84454819Y-51595237D01*
X84454819Y-51595237D02*
X84454819Y-51404761D01*
X84454819Y-51404761D02*
X84407200Y-51309523D01*
X84407200Y-51309523D02*
X84359580Y-51261904D01*
X84359580Y-51261904D02*
X84264342Y-51214285D01*
X84264342Y-51214285D02*
X84026247Y-51214285D01*
X84026247Y-51214285D02*
X83931009Y-51261904D01*
X83931009Y-51261904D02*
X83883390Y-51309523D01*
X83883390Y-51309523D02*
X83835771Y-51404761D01*
X83835771Y-51404761D02*
X83835771Y-51595237D01*
X83835771Y-51595237D02*
X83883390Y-51690475D01*
X83883390Y-51690475D02*
X83931009Y-51738094D01*
X83931009Y-51738094D02*
X84026247Y-51785713D01*
X76954819Y-52166666D02*
X76954819Y-52738094D01*
X76954819Y-52452380D02*
X75954819Y-52452380D01*
X75954819Y-52452380D02*
X76097676Y-52547618D01*
X76097676Y-52547618D02*
X76192914Y-52642856D01*
X76192914Y-52642856D02*
X76240533Y-52738094D01*
X76288152Y-51309523D02*
X76954819Y-51309523D01*
X76288152Y-51738094D02*
X76811961Y-51738094D01*
X76811961Y-51738094D02*
X76907200Y-51690475D01*
X76907200Y-51690475D02*
X76954819Y-51595237D01*
X76954819Y-51595237D02*
X76954819Y-51452380D01*
X76954819Y-51452380D02*
X76907200Y-51357142D01*
X76907200Y-51357142D02*
X76859580Y-51309523D01*
X98109580Y-29211553D02*
X98157200Y-29259172D01*
X98157200Y-29259172D02*
X98204819Y-29402029D01*
X98204819Y-29402029D02*
X98204819Y-29497267D01*
X98204819Y-29497267D02*
X98157200Y-29640124D01*
X98157200Y-29640124D02*
X98061961Y-29735362D01*
X98061961Y-29735362D02*
X97966723Y-29782981D01*
X97966723Y-29782981D02*
X97776247Y-29830600D01*
X97776247Y-29830600D02*
X97633390Y-29830600D01*
X97633390Y-29830600D02*
X97442914Y-29782981D01*
X97442914Y-29782981D02*
X97347676Y-29735362D01*
X97347676Y-29735362D02*
X97252438Y-29640124D01*
X97252438Y-29640124D02*
X97204819Y-29497267D01*
X97204819Y-29497267D02*
X97204819Y-29402029D01*
X97204819Y-29402029D02*
X97252438Y-29259172D01*
X97252438Y-29259172D02*
X97300057Y-29211553D01*
X97204819Y-28878219D02*
X97204819Y-28259172D01*
X97204819Y-28259172D02*
X97585771Y-28592505D01*
X97585771Y-28592505D02*
X97585771Y-28449648D01*
X97585771Y-28449648D02*
X97633390Y-28354410D01*
X97633390Y-28354410D02*
X97681009Y-28306791D01*
X97681009Y-28306791D02*
X97776247Y-28259172D01*
X97776247Y-28259172D02*
X98014342Y-28259172D01*
X98014342Y-28259172D02*
X98109580Y-28306791D01*
X98109580Y-28306791D02*
X98157200Y-28354410D01*
X98157200Y-28354410D02*
X98204819Y-28449648D01*
X98204819Y-28449648D02*
X98204819Y-28735362D01*
X98204819Y-28735362D02*
X98157200Y-28830600D01*
X98157200Y-28830600D02*
X98109580Y-28878219D01*
X89800057Y-30259172D02*
X89752438Y-30211553D01*
X89752438Y-30211553D02*
X89704819Y-30116315D01*
X89704819Y-30116315D02*
X89704819Y-29878220D01*
X89704819Y-29878220D02*
X89752438Y-29782982D01*
X89752438Y-29782982D02*
X89800057Y-29735363D01*
X89800057Y-29735363D02*
X89895295Y-29687744D01*
X89895295Y-29687744D02*
X89990533Y-29687744D01*
X89990533Y-29687744D02*
X90133390Y-29735363D01*
X90133390Y-29735363D02*
X90704819Y-30306791D01*
X90704819Y-30306791D02*
X90704819Y-29687744D01*
X89800057Y-29306791D02*
X89752438Y-29259172D01*
X89752438Y-29259172D02*
X89704819Y-29163934D01*
X89704819Y-29163934D02*
X89704819Y-28925839D01*
X89704819Y-28925839D02*
X89752438Y-28830601D01*
X89752438Y-28830601D02*
X89800057Y-28782982D01*
X89800057Y-28782982D02*
X89895295Y-28735363D01*
X89895295Y-28735363D02*
X89990533Y-28735363D01*
X89990533Y-28735363D02*
X90133390Y-28782982D01*
X90133390Y-28782982D02*
X90704819Y-29354410D01*
X90704819Y-29354410D02*
X90704819Y-28735363D01*
X90038152Y-27878220D02*
X90704819Y-27878220D01*
X90038152Y-28306791D02*
X90561961Y-28306791D01*
X90561961Y-28306791D02*
X90657200Y-28259172D01*
X90657200Y-28259172D02*
X90704819Y-28163934D01*
X90704819Y-28163934D02*
X90704819Y-28021077D01*
X90704819Y-28021077D02*
X90657200Y-27925839D01*
X90657200Y-27925839D02*
X90609580Y-27878220D01*
X119994819Y-86809523D02*
X120709104Y-86809523D01*
X120709104Y-86809523D02*
X120851961Y-86857142D01*
X120851961Y-86857142D02*
X120947200Y-86952380D01*
X120947200Y-86952380D02*
X120994819Y-87095237D01*
X120994819Y-87095237D02*
X120994819Y-87190475D01*
X120994819Y-85809523D02*
X120994819Y-86380951D01*
X120994819Y-86095237D02*
X119994819Y-86095237D01*
X119994819Y-86095237D02*
X120137676Y-86190475D01*
X120137676Y-86190475D02*
X120232914Y-86285713D01*
X120232914Y-86285713D02*
X120280533Y-86380951D01*
X120994819Y-84857142D02*
X120994819Y-85428570D01*
X120994819Y-85142856D02*
X119994819Y-85142856D01*
X119994819Y-85142856D02*
X120137676Y-85238094D01*
X120137676Y-85238094D02*
X120232914Y-85333332D01*
X120232914Y-85333332D02*
X120280533Y-85428570D01*
X121943809Y-89073866D02*
X122705714Y-89073866D01*
X125134285Y-88788152D02*
X125134285Y-89454819D01*
X124896190Y-88407200D02*
X124658095Y-89121485D01*
X124658095Y-89121485D02*
X125277142Y-89121485D01*
X125848571Y-88454819D02*
X125943809Y-88454819D01*
X125943809Y-88454819D02*
X126039047Y-88502438D01*
X126039047Y-88502438D02*
X126086666Y-88550057D01*
X126086666Y-88550057D02*
X126134285Y-88645295D01*
X126134285Y-88645295D02*
X126181904Y-88835771D01*
X126181904Y-88835771D02*
X126181904Y-89073866D01*
X126181904Y-89073866D02*
X126134285Y-89264342D01*
X126134285Y-89264342D02*
X126086666Y-89359580D01*
X126086666Y-89359580D02*
X126039047Y-89407200D01*
X126039047Y-89407200D02*
X125943809Y-89454819D01*
X125943809Y-89454819D02*
X125848571Y-89454819D01*
X125848571Y-89454819D02*
X125753333Y-89407200D01*
X125753333Y-89407200D02*
X125705714Y-89359580D01*
X125705714Y-89359580D02*
X125658095Y-89264342D01*
X125658095Y-89264342D02*
X125610476Y-89073866D01*
X125610476Y-89073866D02*
X125610476Y-88835771D01*
X125610476Y-88835771D02*
X125658095Y-88645295D01*
X125658095Y-88645295D02*
X125705714Y-88550057D01*
X125705714Y-88550057D02*
X125753333Y-88502438D01*
X125753333Y-88502438D02*
X125848571Y-88454819D01*
X128134286Y-89073866D02*
X128896191Y-89073866D01*
X128515238Y-89454819D02*
X128515238Y-88692914D01*
X121333333Y-31734819D02*
X121000000Y-31258628D01*
X120761905Y-31734819D02*
X120761905Y-30734819D01*
X120761905Y-30734819D02*
X121142857Y-30734819D01*
X121142857Y-30734819D02*
X121238095Y-30782438D01*
X121238095Y-30782438D02*
X121285714Y-30830057D01*
X121285714Y-30830057D02*
X121333333Y-30925295D01*
X121333333Y-30925295D02*
X121333333Y-31068152D01*
X121333333Y-31068152D02*
X121285714Y-31163390D01*
X121285714Y-31163390D02*
X121238095Y-31211009D01*
X121238095Y-31211009D02*
X121142857Y-31258628D01*
X121142857Y-31258628D02*
X120761905Y-31258628D01*
X122190476Y-31068152D02*
X122190476Y-31734819D01*
X121952381Y-30687200D02*
X121714286Y-31401485D01*
X121714286Y-31401485D02*
X122333333Y-31401485D01*
X121380952Y-37174819D02*
X120809524Y-37174819D01*
X121095238Y-37174819D02*
X121095238Y-36174819D01*
X121095238Y-36174819D02*
X121000000Y-36317676D01*
X121000000Y-36317676D02*
X120904762Y-36412914D01*
X120904762Y-36412914D02*
X120809524Y-36460533D01*
X121809524Y-37174819D02*
X121809524Y-36174819D01*
X121904762Y-36793866D02*
X122190476Y-37174819D01*
X122190476Y-36508152D02*
X121809524Y-36889104D01*
X105833333Y-31734819D02*
X105500000Y-31258628D01*
X105261905Y-31734819D02*
X105261905Y-30734819D01*
X105261905Y-30734819D02*
X105642857Y-30734819D01*
X105642857Y-30734819D02*
X105738095Y-30782438D01*
X105738095Y-30782438D02*
X105785714Y-30830057D01*
X105785714Y-30830057D02*
X105833333Y-30925295D01*
X105833333Y-30925295D02*
X105833333Y-31068152D01*
X105833333Y-31068152D02*
X105785714Y-31163390D01*
X105785714Y-31163390D02*
X105738095Y-31211009D01*
X105738095Y-31211009D02*
X105642857Y-31258628D01*
X105642857Y-31258628D02*
X105261905Y-31258628D01*
X106738095Y-30734819D02*
X106261905Y-30734819D01*
X106261905Y-30734819D02*
X106214286Y-31211009D01*
X106214286Y-31211009D02*
X106261905Y-31163390D01*
X106261905Y-31163390D02*
X106357143Y-31115771D01*
X106357143Y-31115771D02*
X106595238Y-31115771D01*
X106595238Y-31115771D02*
X106690476Y-31163390D01*
X106690476Y-31163390D02*
X106738095Y-31211009D01*
X106738095Y-31211009D02*
X106785714Y-31306247D01*
X106785714Y-31306247D02*
X106785714Y-31544342D01*
X106785714Y-31544342D02*
X106738095Y-31639580D01*
X106738095Y-31639580D02*
X106690476Y-31687200D01*
X106690476Y-31687200D02*
X106595238Y-31734819D01*
X106595238Y-31734819D02*
X106357143Y-31734819D01*
X106357143Y-31734819D02*
X106261905Y-31687200D01*
X106261905Y-31687200D02*
X106214286Y-31639580D01*
X105880952Y-37174819D02*
X105309524Y-37174819D01*
X105595238Y-37174819D02*
X105595238Y-36174819D01*
X105595238Y-36174819D02*
X105500000Y-36317676D01*
X105500000Y-36317676D02*
X105404762Y-36412914D01*
X105404762Y-36412914D02*
X105309524Y-36460533D01*
X106309524Y-37174819D02*
X106309524Y-36174819D01*
X106404762Y-36793866D02*
X106690476Y-37174819D01*
X106690476Y-36508152D02*
X106309524Y-36889104D01*
X110609580Y-28916666D02*
X110657200Y-28964285D01*
X110657200Y-28964285D02*
X110704819Y-29107142D01*
X110704819Y-29107142D02*
X110704819Y-29202380D01*
X110704819Y-29202380D02*
X110657200Y-29345237D01*
X110657200Y-29345237D02*
X110561961Y-29440475D01*
X110561961Y-29440475D02*
X110466723Y-29488094D01*
X110466723Y-29488094D02*
X110276247Y-29535713D01*
X110276247Y-29535713D02*
X110133390Y-29535713D01*
X110133390Y-29535713D02*
X109942914Y-29488094D01*
X109942914Y-29488094D02*
X109847676Y-29440475D01*
X109847676Y-29440475D02*
X109752438Y-29345237D01*
X109752438Y-29345237D02*
X109704819Y-29202380D01*
X109704819Y-29202380D02*
X109704819Y-29107142D01*
X109704819Y-29107142D02*
X109752438Y-28964285D01*
X109752438Y-28964285D02*
X109800057Y-28916666D01*
X110704819Y-27964285D02*
X110704819Y-28535713D01*
X110704819Y-28249999D02*
X109704819Y-28249999D01*
X109704819Y-28249999D02*
X109847676Y-28345237D01*
X109847676Y-28345237D02*
X109942914Y-28440475D01*
X109942914Y-28440475D02*
X109990533Y-28535713D01*
X114538152Y-29726190D02*
X115204819Y-29726190D01*
X114157200Y-29964285D02*
X114871485Y-30202380D01*
X114871485Y-30202380D02*
X114871485Y-29583333D01*
X115157200Y-29154761D02*
X115204819Y-29154761D01*
X115204819Y-29154761D02*
X115300057Y-29202380D01*
X115300057Y-29202380D02*
X115347676Y-29249999D01*
X114204819Y-28821428D02*
X114204819Y-28154762D01*
X114204819Y-28154762D02*
X115204819Y-28583333D01*
X114538152Y-27345238D02*
X115204819Y-27345238D01*
X114538152Y-27773809D02*
X115061961Y-27773809D01*
X115061961Y-27773809D02*
X115157200Y-27726190D01*
X115157200Y-27726190D02*
X115204819Y-27630952D01*
X115204819Y-27630952D02*
X115204819Y-27488095D01*
X115204819Y-27488095D02*
X115157200Y-27392857D01*
X115157200Y-27392857D02*
X115109580Y-27345238D01*
X113583333Y-38859580D02*
X113535714Y-38907200D01*
X113535714Y-38907200D02*
X113392857Y-38954819D01*
X113392857Y-38954819D02*
X113297619Y-38954819D01*
X113297619Y-38954819D02*
X113154762Y-38907200D01*
X113154762Y-38907200D02*
X113059524Y-38811961D01*
X113059524Y-38811961D02*
X113011905Y-38716723D01*
X113011905Y-38716723D02*
X112964286Y-38526247D01*
X112964286Y-38526247D02*
X112964286Y-38383390D01*
X112964286Y-38383390D02*
X113011905Y-38192914D01*
X113011905Y-38192914D02*
X113059524Y-38097676D01*
X113059524Y-38097676D02*
X113154762Y-38002438D01*
X113154762Y-38002438D02*
X113297619Y-37954819D01*
X113297619Y-37954819D02*
X113392857Y-37954819D01*
X113392857Y-37954819D02*
X113535714Y-38002438D01*
X113535714Y-38002438D02*
X113583333Y-38050057D01*
X114440476Y-38288152D02*
X114440476Y-38954819D01*
X114202381Y-37907200D02*
X113964286Y-38621485D01*
X113964286Y-38621485D02*
X114583333Y-38621485D01*
X121107142Y-38954819D02*
X120535714Y-38954819D01*
X120821428Y-38954819D02*
X120821428Y-37954819D01*
X120821428Y-37954819D02*
X120726190Y-38097676D01*
X120726190Y-38097676D02*
X120630952Y-38192914D01*
X120630952Y-38192914D02*
X120535714Y-38240533D01*
X121726190Y-37954819D02*
X121821428Y-37954819D01*
X121821428Y-37954819D02*
X121916666Y-38002438D01*
X121916666Y-38002438D02*
X121964285Y-38050057D01*
X121964285Y-38050057D02*
X122011904Y-38145295D01*
X122011904Y-38145295D02*
X122059523Y-38335771D01*
X122059523Y-38335771D02*
X122059523Y-38573866D01*
X122059523Y-38573866D02*
X122011904Y-38764342D01*
X122011904Y-38764342D02*
X121964285Y-38859580D01*
X121964285Y-38859580D02*
X121916666Y-38907200D01*
X121916666Y-38907200D02*
X121821428Y-38954819D01*
X121821428Y-38954819D02*
X121726190Y-38954819D01*
X121726190Y-38954819D02*
X121630952Y-38907200D01*
X121630952Y-38907200D02*
X121583333Y-38859580D01*
X121583333Y-38859580D02*
X121535714Y-38764342D01*
X121535714Y-38764342D02*
X121488095Y-38573866D01*
X121488095Y-38573866D02*
X121488095Y-38335771D01*
X121488095Y-38335771D02*
X121535714Y-38145295D01*
X121535714Y-38145295D02*
X121583333Y-38050057D01*
X121583333Y-38050057D02*
X121630952Y-38002438D01*
X121630952Y-38002438D02*
X121726190Y-37954819D01*
X122488095Y-38288152D02*
X122488095Y-38954819D01*
X122488095Y-38383390D02*
X122535714Y-38335771D01*
X122535714Y-38335771D02*
X122630952Y-38288152D01*
X122630952Y-38288152D02*
X122773809Y-38288152D01*
X122773809Y-38288152D02*
X122869047Y-38335771D01*
X122869047Y-38335771D02*
X122916666Y-38431009D01*
X122916666Y-38431009D02*
X122916666Y-38954819D01*
X129954819Y-70792857D02*
X129478628Y-71126190D01*
X129954819Y-71364285D02*
X128954819Y-71364285D01*
X128954819Y-71364285D02*
X128954819Y-70983333D01*
X128954819Y-70983333D02*
X129002438Y-70888095D01*
X129002438Y-70888095D02*
X129050057Y-70840476D01*
X129050057Y-70840476D02*
X129145295Y-70792857D01*
X129145295Y-70792857D02*
X129288152Y-70792857D01*
X129288152Y-70792857D02*
X129383390Y-70840476D01*
X129383390Y-70840476D02*
X129431009Y-70888095D01*
X129431009Y-70888095D02*
X129478628Y-70983333D01*
X129478628Y-70983333D02*
X129478628Y-71364285D01*
X129954819Y-69840476D02*
X129954819Y-70411904D01*
X129954819Y-70126190D02*
X128954819Y-70126190D01*
X128954819Y-70126190D02*
X129097676Y-70221428D01*
X129097676Y-70221428D02*
X129192914Y-70316666D01*
X129192914Y-70316666D02*
X129240533Y-70411904D01*
X129288152Y-68983333D02*
X129954819Y-68983333D01*
X128907200Y-69221428D02*
X129621485Y-69459523D01*
X129621485Y-69459523D02*
X129621485Y-68840476D01*
X129288152Y-67340476D02*
X129954819Y-67340476D01*
X128907200Y-67578571D02*
X129621485Y-67816666D01*
X129621485Y-67816666D02*
X129621485Y-67197619D01*
X128954819Y-66911904D02*
X128954819Y-66245238D01*
X128954819Y-66245238D02*
X129954819Y-66673809D01*
X129954819Y-65864285D02*
X128954819Y-65864285D01*
X129573866Y-65769047D02*
X129954819Y-65483333D01*
X129288152Y-65483333D02*
X129669104Y-65864285D01*
X90333333Y-31734819D02*
X90000000Y-31258628D01*
X89761905Y-31734819D02*
X89761905Y-30734819D01*
X89761905Y-30734819D02*
X90142857Y-30734819D01*
X90142857Y-30734819D02*
X90238095Y-30782438D01*
X90238095Y-30782438D02*
X90285714Y-30830057D01*
X90285714Y-30830057D02*
X90333333Y-30925295D01*
X90333333Y-30925295D02*
X90333333Y-31068152D01*
X90333333Y-31068152D02*
X90285714Y-31163390D01*
X90285714Y-31163390D02*
X90238095Y-31211009D01*
X90238095Y-31211009D02*
X90142857Y-31258628D01*
X90142857Y-31258628D02*
X89761905Y-31258628D01*
X91190476Y-30734819D02*
X91000000Y-30734819D01*
X91000000Y-30734819D02*
X90904762Y-30782438D01*
X90904762Y-30782438D02*
X90857143Y-30830057D01*
X90857143Y-30830057D02*
X90761905Y-30972914D01*
X90761905Y-30972914D02*
X90714286Y-31163390D01*
X90714286Y-31163390D02*
X90714286Y-31544342D01*
X90714286Y-31544342D02*
X90761905Y-31639580D01*
X90761905Y-31639580D02*
X90809524Y-31687200D01*
X90809524Y-31687200D02*
X90904762Y-31734819D01*
X90904762Y-31734819D02*
X91095238Y-31734819D01*
X91095238Y-31734819D02*
X91190476Y-31687200D01*
X91190476Y-31687200D02*
X91238095Y-31639580D01*
X91238095Y-31639580D02*
X91285714Y-31544342D01*
X91285714Y-31544342D02*
X91285714Y-31306247D01*
X91285714Y-31306247D02*
X91238095Y-31211009D01*
X91238095Y-31211009D02*
X91190476Y-31163390D01*
X91190476Y-31163390D02*
X91095238Y-31115771D01*
X91095238Y-31115771D02*
X90904762Y-31115771D01*
X90904762Y-31115771D02*
X90809524Y-31163390D01*
X90809524Y-31163390D02*
X90761905Y-31211009D01*
X90761905Y-31211009D02*
X90714286Y-31306247D01*
X89809524Y-36270057D02*
X89857143Y-36222438D01*
X89857143Y-36222438D02*
X89952381Y-36174819D01*
X89952381Y-36174819D02*
X90190476Y-36174819D01*
X90190476Y-36174819D02*
X90285714Y-36222438D01*
X90285714Y-36222438D02*
X90333333Y-36270057D01*
X90333333Y-36270057D02*
X90380952Y-36365295D01*
X90380952Y-36365295D02*
X90380952Y-36460533D01*
X90380952Y-36460533D02*
X90333333Y-36603390D01*
X90333333Y-36603390D02*
X89761905Y-37174819D01*
X89761905Y-37174819D02*
X90380952Y-37174819D01*
X90809524Y-37174819D02*
X90809524Y-36174819D01*
X90904762Y-36793866D02*
X91190476Y-37174819D01*
X91190476Y-36508152D02*
X90809524Y-36889104D01*
X97083333Y-38859580D02*
X97035714Y-38907200D01*
X97035714Y-38907200D02*
X96892857Y-38954819D01*
X96892857Y-38954819D02*
X96797619Y-38954819D01*
X96797619Y-38954819D02*
X96654762Y-38907200D01*
X96654762Y-38907200D02*
X96559524Y-38811961D01*
X96559524Y-38811961D02*
X96511905Y-38716723D01*
X96511905Y-38716723D02*
X96464286Y-38526247D01*
X96464286Y-38526247D02*
X96464286Y-38383390D01*
X96464286Y-38383390D02*
X96511905Y-38192914D01*
X96511905Y-38192914D02*
X96559524Y-38097676D01*
X96559524Y-38097676D02*
X96654762Y-38002438D01*
X96654762Y-38002438D02*
X96797619Y-37954819D01*
X96797619Y-37954819D02*
X96892857Y-37954819D01*
X96892857Y-37954819D02*
X97035714Y-38002438D01*
X97035714Y-38002438D02*
X97083333Y-38050057D01*
X97988095Y-37954819D02*
X97511905Y-37954819D01*
X97511905Y-37954819D02*
X97464286Y-38431009D01*
X97464286Y-38431009D02*
X97511905Y-38383390D01*
X97511905Y-38383390D02*
X97607143Y-38335771D01*
X97607143Y-38335771D02*
X97845238Y-38335771D01*
X97845238Y-38335771D02*
X97940476Y-38383390D01*
X97940476Y-38383390D02*
X97988095Y-38431009D01*
X97988095Y-38431009D02*
X98035714Y-38526247D01*
X98035714Y-38526247D02*
X98035714Y-38764342D01*
X98035714Y-38764342D02*
X97988095Y-38859580D01*
X97988095Y-38859580D02*
X97940476Y-38907200D01*
X97940476Y-38907200D02*
X97845238Y-38954819D01*
X97845238Y-38954819D02*
X97607143Y-38954819D01*
X97607143Y-38954819D02*
X97511905Y-38907200D01*
X97511905Y-38907200D02*
X97464286Y-38859580D01*
X104607142Y-38954819D02*
X104035714Y-38954819D01*
X104321428Y-38954819D02*
X104321428Y-37954819D01*
X104321428Y-37954819D02*
X104226190Y-38097676D01*
X104226190Y-38097676D02*
X104130952Y-38192914D01*
X104130952Y-38192914D02*
X104035714Y-38240533D01*
X105226190Y-37954819D02*
X105321428Y-37954819D01*
X105321428Y-37954819D02*
X105416666Y-38002438D01*
X105416666Y-38002438D02*
X105464285Y-38050057D01*
X105464285Y-38050057D02*
X105511904Y-38145295D01*
X105511904Y-38145295D02*
X105559523Y-38335771D01*
X105559523Y-38335771D02*
X105559523Y-38573866D01*
X105559523Y-38573866D02*
X105511904Y-38764342D01*
X105511904Y-38764342D02*
X105464285Y-38859580D01*
X105464285Y-38859580D02*
X105416666Y-38907200D01*
X105416666Y-38907200D02*
X105321428Y-38954819D01*
X105321428Y-38954819D02*
X105226190Y-38954819D01*
X105226190Y-38954819D02*
X105130952Y-38907200D01*
X105130952Y-38907200D02*
X105083333Y-38859580D01*
X105083333Y-38859580D02*
X105035714Y-38764342D01*
X105035714Y-38764342D02*
X104988095Y-38573866D01*
X104988095Y-38573866D02*
X104988095Y-38335771D01*
X104988095Y-38335771D02*
X105035714Y-38145295D01*
X105035714Y-38145295D02*
X105083333Y-38050057D01*
X105083333Y-38050057D02*
X105130952Y-38002438D01*
X105130952Y-38002438D02*
X105226190Y-37954819D01*
X105988095Y-38288152D02*
X105988095Y-38954819D01*
X105988095Y-38383390D02*
X106035714Y-38335771D01*
X106035714Y-38335771D02*
X106130952Y-38288152D01*
X106130952Y-38288152D02*
X106273809Y-38288152D01*
X106273809Y-38288152D02*
X106369047Y-38335771D01*
X106369047Y-38335771D02*
X106416666Y-38431009D01*
X106416666Y-38431009D02*
X106416666Y-38954819D01*
X117574819Y-116333333D02*
X118289104Y-116333333D01*
X118289104Y-116333333D02*
X118431961Y-116380952D01*
X118431961Y-116380952D02*
X118527200Y-116476190D01*
X118527200Y-116476190D02*
X118574819Y-116619047D01*
X118574819Y-116619047D02*
X118574819Y-116714285D01*
X117574819Y-115380952D02*
X117574819Y-115857142D01*
X117574819Y-115857142D02*
X118051009Y-115904761D01*
X118051009Y-115904761D02*
X118003390Y-115857142D01*
X118003390Y-115857142D02*
X117955771Y-115761904D01*
X117955771Y-115761904D02*
X117955771Y-115523809D01*
X117955771Y-115523809D02*
X118003390Y-115428571D01*
X118003390Y-115428571D02*
X118051009Y-115380952D01*
X118051009Y-115380952D02*
X118146247Y-115333333D01*
X118146247Y-115333333D02*
X118384342Y-115333333D01*
X118384342Y-115333333D02*
X118479580Y-115380952D01*
X118479580Y-115380952D02*
X118527200Y-115428571D01*
X118527200Y-115428571D02*
X118574819Y-115523809D01*
X118574819Y-115523809D02*
X118574819Y-115761904D01*
X118574819Y-115761904D02*
X118527200Y-115857142D01*
X118527200Y-115857142D02*
X118479580Y-115904761D01*
X120357142Y-119454819D02*
X119785714Y-119454819D01*
X120071428Y-119454819D02*
X120071428Y-118454819D01*
X120071428Y-118454819D02*
X119976190Y-118597676D01*
X119976190Y-118597676D02*
X119880952Y-118692914D01*
X119880952Y-118692914D02*
X119785714Y-118740533D01*
X121214285Y-118788152D02*
X121214285Y-119454819D01*
X120976190Y-118407200D02*
X120738095Y-119121485D01*
X120738095Y-119121485D02*
X121357142Y-119121485D01*
X122976190Y-118454819D02*
X122500000Y-118454819D01*
X122500000Y-118454819D02*
X122452381Y-118931009D01*
X122452381Y-118931009D02*
X122500000Y-118883390D01*
X122500000Y-118883390D02*
X122595238Y-118835771D01*
X122595238Y-118835771D02*
X122833333Y-118835771D01*
X122833333Y-118835771D02*
X122928571Y-118883390D01*
X122928571Y-118883390D02*
X122976190Y-118931009D01*
X122976190Y-118931009D02*
X123023809Y-119026247D01*
X123023809Y-119026247D02*
X123023809Y-119264342D01*
X123023809Y-119264342D02*
X122976190Y-119359580D01*
X122976190Y-119359580D02*
X122928571Y-119407200D01*
X122928571Y-119407200D02*
X122833333Y-119454819D01*
X122833333Y-119454819D02*
X122595238Y-119454819D01*
X122595238Y-119454819D02*
X122500000Y-119407200D01*
X122500000Y-119407200D02*
X122452381Y-119359580D01*
X123309524Y-118454819D02*
X123642857Y-119454819D01*
X123642857Y-119454819D02*
X123976190Y-118454819D01*
X125595238Y-119454819D02*
X125023810Y-119454819D01*
X125309524Y-119454819D02*
X125309524Y-118454819D01*
X125309524Y-118454819D02*
X125214286Y-118597676D01*
X125214286Y-118597676D02*
X125119048Y-118692914D01*
X125119048Y-118692914D02*
X125023810Y-118740533D01*
X126071429Y-119454819D02*
X126261905Y-119454819D01*
X126261905Y-119454819D02*
X126357143Y-119407200D01*
X126357143Y-119407200D02*
X126404762Y-119359580D01*
X126404762Y-119359580D02*
X126500000Y-119216723D01*
X126500000Y-119216723D02*
X126547619Y-119026247D01*
X126547619Y-119026247D02*
X126547619Y-118645295D01*
X126547619Y-118645295D02*
X126500000Y-118550057D01*
X126500000Y-118550057D02*
X126452381Y-118502438D01*
X126452381Y-118502438D02*
X126357143Y-118454819D01*
X126357143Y-118454819D02*
X126166667Y-118454819D01*
X126166667Y-118454819D02*
X126071429Y-118502438D01*
X126071429Y-118502438D02*
X126023810Y-118550057D01*
X126023810Y-118550057D02*
X125976191Y-118645295D01*
X125976191Y-118645295D02*
X125976191Y-118883390D01*
X125976191Y-118883390D02*
X126023810Y-118978628D01*
X126023810Y-118978628D02*
X126071429Y-119026247D01*
X126071429Y-119026247D02*
X126166667Y-119073866D01*
X126166667Y-119073866D02*
X126357143Y-119073866D01*
X126357143Y-119073866D02*
X126452381Y-119026247D01*
X126452381Y-119026247D02*
X126500000Y-118978628D01*
X126500000Y-118978628D02*
X126547619Y-118883390D01*
X127690477Y-118550057D02*
X127738096Y-118502438D01*
X127738096Y-118502438D02*
X127833334Y-118454819D01*
X127833334Y-118454819D02*
X128071429Y-118454819D01*
X128071429Y-118454819D02*
X128166667Y-118502438D01*
X128166667Y-118502438D02*
X128214286Y-118550057D01*
X128214286Y-118550057D02*
X128261905Y-118645295D01*
X128261905Y-118645295D02*
X128261905Y-118740533D01*
X128261905Y-118740533D02*
X128214286Y-118883390D01*
X128214286Y-118883390D02*
X127642858Y-119454819D01*
X127642858Y-119454819D02*
X128261905Y-119454819D01*
X128880953Y-118454819D02*
X128976191Y-118454819D01*
X128976191Y-118454819D02*
X129071429Y-118502438D01*
X129071429Y-118502438D02*
X129119048Y-118550057D01*
X129119048Y-118550057D02*
X129166667Y-118645295D01*
X129166667Y-118645295D02*
X129214286Y-118835771D01*
X129214286Y-118835771D02*
X129214286Y-119073866D01*
X129214286Y-119073866D02*
X129166667Y-119264342D01*
X129166667Y-119264342D02*
X129119048Y-119359580D01*
X129119048Y-119359580D02*
X129071429Y-119407200D01*
X129071429Y-119407200D02*
X128976191Y-119454819D01*
X128976191Y-119454819D02*
X128880953Y-119454819D01*
X128880953Y-119454819D02*
X128785715Y-119407200D01*
X128785715Y-119407200D02*
X128738096Y-119359580D01*
X128738096Y-119359580D02*
X128690477Y-119264342D01*
X128690477Y-119264342D02*
X128642858Y-119073866D01*
X128642858Y-119073866D02*
X128642858Y-118835771D01*
X128642858Y-118835771D02*
X128690477Y-118645295D01*
X128690477Y-118645295D02*
X128738096Y-118550057D01*
X128738096Y-118550057D02*
X128785715Y-118502438D01*
X128785715Y-118502438D02*
X128880953Y-118454819D01*
X123451905Y-27534819D02*
X123451905Y-26534819D01*
X123451905Y-26534819D02*
X123690000Y-26534819D01*
X123690000Y-26534819D02*
X123832857Y-26582438D01*
X123832857Y-26582438D02*
X123928095Y-26677676D01*
X123928095Y-26677676D02*
X123975714Y-26772914D01*
X123975714Y-26772914D02*
X124023333Y-26963390D01*
X124023333Y-26963390D02*
X124023333Y-27106247D01*
X124023333Y-27106247D02*
X123975714Y-27296723D01*
X123975714Y-27296723D02*
X123928095Y-27391961D01*
X123928095Y-27391961D02*
X123832857Y-27487200D01*
X123832857Y-27487200D02*
X123690000Y-27534819D01*
X123690000Y-27534819D02*
X123451905Y-27534819D01*
X124975714Y-27534819D02*
X124404286Y-27534819D01*
X124690000Y-27534819D02*
X124690000Y-26534819D01*
X124690000Y-26534819D02*
X124594762Y-26677676D01*
X124594762Y-26677676D02*
X124499524Y-26772914D01*
X124499524Y-26772914D02*
X124404286Y-26820533D01*
X118238095Y-29454819D02*
X118238095Y-28454819D01*
X118809523Y-29454819D02*
X118380952Y-28883390D01*
X118809523Y-28454819D02*
X118238095Y-29026247D01*
%TO.C,R10*%
D12*
X110500000Y-42340000D02*
X110500000Y-43030000D01*
X110500000Y-52960000D02*
X110500000Y-52270000D01*
X108780000Y-43030000D02*
X112220000Y-43030000D01*
X112220000Y-52270000D01*
X108780000Y-52270000D01*
X108780000Y-43030000D01*
%TO.C,R11*%
X105000000Y-42340000D02*
X105000000Y-43030000D01*
X105000000Y-52960000D02*
X105000000Y-52270000D01*
X103280000Y-43030000D02*
X106720000Y-43030000D01*
X106720000Y-52270000D01*
X103280000Y-52270000D01*
X103280000Y-43030000D01*
%TO.C,R1*%
X85190000Y-24000000D02*
X85880000Y-24000000D01*
X95810000Y-24000000D02*
X95120000Y-24000000D01*
X85880000Y-22280000D02*
X95120000Y-22280000D01*
X95120000Y-25720000D01*
X85880000Y-25720000D01*
X85880000Y-22280000D01*
%TO.C,R8*%
X121500000Y-42340000D02*
X121500000Y-43030000D01*
X121500000Y-52960000D02*
X121500000Y-52270000D01*
X119780000Y-43030000D02*
X123220000Y-43030000D01*
X123220000Y-52270000D01*
X119780000Y-52270000D01*
X119780000Y-43030000D01*
%TO.C,J4*%
X76080000Y-117380000D02*
X76080000Y-116000000D01*
X77460000Y-117380000D02*
X76080000Y-117380000D01*
X78730000Y-114620000D02*
X86460000Y-114620000D01*
X78730000Y-117380000D02*
X78730000Y-114620000D01*
X78730000Y-117380000D02*
X86460000Y-117380000D01*
X86460000Y-117380000D02*
X86460000Y-114620000D01*
%TO.C,C2*%
X84880000Y-27130000D02*
X85028000Y-27130000D01*
X84880000Y-30370000D02*
X84880000Y-27130000D01*
X85028000Y-30370000D02*
X84880000Y-30370000D01*
X86972000Y-27130000D02*
X87120000Y-27130000D01*
X87120000Y-27130000D02*
X87120000Y-30370000D01*
X87120000Y-30370000D02*
X86972000Y-30370000D01*
%TO.C,R13*%
X126500000Y-47840000D02*
X126500000Y-48530000D01*
X126500000Y-58460000D02*
X126500000Y-57770000D01*
X124780000Y-48530000D02*
X128220000Y-48530000D01*
X128220000Y-57770000D01*
X124780000Y-57770000D01*
X124780000Y-48530000D01*
%TO.C,J13*%
X121540000Y-99380000D02*
X121540000Y-98000000D01*
X122920000Y-99380000D02*
X121540000Y-99380000D01*
X124190000Y-96620000D02*
X129380000Y-96620000D01*
X124190000Y-99380000D02*
X124190000Y-96620000D01*
X124190000Y-99380000D02*
X129380000Y-99380000D01*
X129380000Y-99380000D02*
X129380000Y-96620000D01*
%TO.C,R7*%
X83500000Y-60690000D02*
X83500000Y-61380000D01*
X83500000Y-71310000D02*
X83500000Y-70620000D01*
X81780000Y-61380000D02*
X85220000Y-61380000D01*
X85220000Y-70620000D01*
X81780000Y-70620000D01*
X81780000Y-61380000D01*
%TO.C,J8*%
X119120000Y-111380000D02*
X119120000Y-110000000D01*
X120500000Y-111380000D02*
X119120000Y-111380000D01*
X121770000Y-108620000D02*
X129500000Y-108620000D01*
X121770000Y-111380000D02*
X121770000Y-108620000D01*
X121770000Y-111380000D02*
X129500000Y-111380000D01*
X129500000Y-111380000D02*
X129500000Y-108620000D01*
%TO.C,J10*%
X86080000Y-59380000D02*
X86080000Y-58000000D01*
X87460000Y-59380000D02*
X86080000Y-59380000D01*
X88730000Y-56620000D02*
X96460000Y-56620000D01*
X88730000Y-59380000D02*
X88730000Y-56620000D01*
X88730000Y-59380000D02*
X96460000Y-59380000D01*
X96460000Y-59380000D02*
X96460000Y-56620000D01*
%TO.C,R9*%
X116000000Y-42340000D02*
X116000000Y-43030000D01*
X116000000Y-52960000D02*
X116000000Y-52270000D01*
X114280000Y-43030000D02*
X117720000Y-43030000D01*
X117720000Y-52270000D01*
X114280000Y-52270000D01*
X114280000Y-43030000D01*
%TO.C,J12*%
X121540000Y-93380000D02*
X121540000Y-92000000D01*
X122920000Y-93380000D02*
X121540000Y-93380000D01*
X124190000Y-90620000D02*
X129380000Y-90620000D01*
X124190000Y-93380000D02*
X124190000Y-90620000D01*
X124190000Y-93380000D02*
X129380000Y-93380000D01*
X129380000Y-93380000D02*
X129380000Y-90620000D01*
%TO.C,J9*%
X101350000Y-59330000D02*
X101350000Y-57950000D01*
X102730000Y-59330000D02*
X101350000Y-59330000D01*
X104000000Y-56570000D02*
X111730000Y-56570000D01*
X104000000Y-59330000D02*
X104000000Y-56570000D01*
X104000000Y-59330000D02*
X111730000Y-59330000D01*
X111730000Y-59330000D02*
X111730000Y-56570000D01*
%TO.C,D2*%
X100675000Y-29000000D02*
X101855000Y-29000000D01*
X102311000Y-28080000D02*
X102311000Y-29920000D01*
X102431000Y-28080000D02*
X102431000Y-29920000D01*
X102551000Y-28080000D02*
X102551000Y-29920000D01*
X106315000Y-29000000D02*
X105135000Y-29000000D01*
X101855000Y-28080000D02*
X105135000Y-28080000D01*
X105135000Y-29920000D01*
X101855000Y-29920000D01*
X101855000Y-28080000D01*
%TO.C,Q1*%
X78150000Y-43930000D02*
X78150000Y-47530000D01*
X78161522Y-43891522D02*
G75*
G02*
X82600001Y-45730000I1838478J-1838478D01*
G01*
X82600000Y-45730000D02*
G75*
G02*
X78161522Y-47568478I-2600000J0D01*
G01*
%TO.C,J2*%
X76120000Y-81880000D02*
X76120000Y-80500000D01*
X77500000Y-81880000D02*
X76120000Y-81880000D01*
X78770000Y-79120000D02*
X86500000Y-79120000D01*
X78770000Y-81880000D02*
X78770000Y-79120000D01*
X78770000Y-81880000D02*
X86500000Y-81880000D01*
X86500000Y-81880000D02*
X86500000Y-79120000D01*
%TO.C,UART2*%
X119120000Y-69230000D02*
X119120000Y-61500000D01*
X121880000Y-61500000D02*
X119120000Y-61500000D01*
X121880000Y-69230000D02*
X119120000Y-69230000D01*
X121880000Y-69230000D02*
X121880000Y-61500000D01*
X121880000Y-70500000D02*
X121880000Y-71880000D01*
X121880000Y-71880000D02*
X120500000Y-71880000D01*
%TO.C,J6*%
X121540000Y-81380000D02*
X121540000Y-80000000D01*
X122920000Y-81380000D02*
X121540000Y-81380000D01*
X124190000Y-78620000D02*
X129380000Y-78620000D01*
X124190000Y-81380000D02*
X124190000Y-78620000D01*
X124190000Y-81380000D02*
X129380000Y-81380000D01*
X129380000Y-81380000D02*
X129380000Y-78620000D01*
%TO.C,R3*%
X116190000Y-24000000D02*
X116880000Y-24000000D01*
X126810000Y-24000000D02*
X126120000Y-24000000D01*
X116880000Y-22280000D02*
X126120000Y-22280000D01*
X126120000Y-25720000D01*
X116880000Y-25720000D01*
X116880000Y-22280000D01*
%TO.C,R2*%
X100690000Y-24000000D02*
X101380000Y-24000000D01*
X111310000Y-24000000D02*
X110620000Y-24000000D01*
X101380000Y-22280000D02*
X110620000Y-22280000D01*
X110620000Y-25720000D01*
X101380000Y-25720000D01*
X101380000Y-22280000D01*
%TO.C,R12*%
X99500000Y-42340000D02*
X99500000Y-43030000D01*
X99500000Y-52960000D02*
X99500000Y-52270000D01*
X97780000Y-43030000D02*
X101220000Y-43030000D01*
X101220000Y-52270000D01*
X97780000Y-52270000D01*
X97780000Y-43030000D01*
%TO.C,J3*%
X76120000Y-111380000D02*
X76120000Y-110000000D01*
X77500000Y-111380000D02*
X76120000Y-111380000D01*
X78770000Y-108620000D02*
X86500000Y-108620000D01*
X78770000Y-111380000D02*
X78770000Y-108620000D01*
X78770000Y-111380000D02*
X86500000Y-111380000D01*
X86500000Y-111380000D02*
X86500000Y-108620000D01*
%TO.C,J7*%
X119040000Y-105380000D02*
X119040000Y-104000000D01*
X120420000Y-105380000D02*
X119040000Y-105380000D01*
X121690000Y-102620000D02*
X129420000Y-102620000D01*
X121690000Y-105380000D02*
X121690000Y-102620000D01*
X121690000Y-105380000D02*
X129420000Y-105380000D01*
X129420000Y-105380000D02*
X129420000Y-102620000D01*
%TO.C,uC1*%
X88620000Y-114670000D02*
X88620000Y-61220000D01*
X91380000Y-61220000D02*
X88620000Y-61220000D01*
X91380000Y-114670000D02*
X88620000Y-114670000D01*
X91380000Y-114670000D02*
X91380000Y-61220000D01*
X91380000Y-115940000D02*
X91380000Y-117320000D01*
X91380000Y-117320000D02*
X90000000Y-117320000D01*
X114020000Y-114670000D02*
X114020000Y-61220000D01*
X116780000Y-61220000D02*
X114020000Y-61220000D01*
X116780000Y-114670000D02*
X114020000Y-114670000D01*
X116780000Y-114670000D02*
X116780000Y-61220000D01*
X116780000Y-115940000D02*
X116780000Y-117320000D01*
X116780000Y-117320000D02*
X115400000Y-117320000D01*
%TO.C,RV1*%
X87380000Y-39380000D02*
X95620000Y-39380000D01*
X87380000Y-54620000D02*
X87380000Y-39380000D01*
X89500000Y-54620000D02*
X89500000Y-39380000D01*
X93500000Y-54620000D02*
X93500000Y-39380000D01*
X95620000Y-39380000D02*
X95620000Y-51700000D01*
X95620000Y-52300000D02*
X95620000Y-54620000D01*
X95620000Y-54620000D02*
X87380000Y-54620000D01*
X95620000Y-52000000D02*
X96230000Y-51560000D01*
X96230000Y-52440000D01*
X95620000Y-52000000D01*
G36*
X96230000Y-52440000D02*
G01*
X95620000Y-52000000D01*
X96230000Y-51560000D01*
X96230000Y-52440000D01*
G37*
%TO.C,C6*%
X77445225Y-50525000D02*
X77945225Y-50525000D01*
X77695225Y-50275000D02*
X77695225Y-50775000D01*
X80250000Y-49420000D02*
X80250000Y-54580000D01*
X80290000Y-49420000D02*
X80290000Y-54580000D01*
X80330000Y-49421000D02*
X80330000Y-54579000D01*
X80370000Y-49423000D02*
X80370000Y-54577000D01*
X80410000Y-49425000D02*
X80410000Y-54575000D01*
X80450000Y-49428000D02*
X80450000Y-54572000D01*
X80490000Y-49431000D02*
X80490000Y-50960000D01*
X80490000Y-53040000D02*
X80490000Y-54569000D01*
X80530000Y-49435000D02*
X80530000Y-50960000D01*
X80530000Y-53040000D02*
X80530000Y-54565000D01*
X80570000Y-49440000D02*
X80570000Y-50960000D01*
X80570000Y-53040000D02*
X80570000Y-54560000D01*
X80610000Y-49445000D02*
X80610000Y-50960000D01*
X80610000Y-53040000D02*
X80610000Y-54555000D01*
X80650000Y-49451000D02*
X80650000Y-50960000D01*
X80650000Y-53040000D02*
X80650000Y-54549000D01*
X80690000Y-49457000D02*
X80690000Y-50960000D01*
X80690000Y-53040000D02*
X80690000Y-54543000D01*
X80730000Y-49464000D02*
X80730000Y-50960000D01*
X80730000Y-53040000D02*
X80730000Y-54536000D01*
X80770000Y-49472000D02*
X80770000Y-50960000D01*
X80770000Y-53040000D02*
X80770000Y-54528000D01*
X80810000Y-49481000D02*
X80810000Y-50960000D01*
X80810000Y-53040000D02*
X80810000Y-54519000D01*
X80850000Y-49490000D02*
X80850000Y-50960000D01*
X80850000Y-53040000D02*
X80850000Y-54510000D01*
X80890000Y-49499000D02*
X80890000Y-50960000D01*
X80890000Y-53040000D02*
X80890000Y-54501000D01*
X80930000Y-49510000D02*
X80930000Y-50960000D01*
X80930000Y-53040000D02*
X80930000Y-54490000D01*
X80970000Y-49521000D02*
X80970000Y-50960000D01*
X80970000Y-53040000D02*
X80970000Y-54479000D01*
X81010000Y-49533000D02*
X81010000Y-50960000D01*
X81010000Y-53040000D02*
X81010000Y-54467000D01*
X81050000Y-49545000D02*
X81050000Y-50960000D01*
X81050000Y-53040000D02*
X81050000Y-54455000D01*
X81090000Y-49558000D02*
X81090000Y-50960000D01*
X81090000Y-53040000D02*
X81090000Y-54442000D01*
X81130000Y-49572000D02*
X81130000Y-50960000D01*
X81130000Y-53040000D02*
X81130000Y-54428000D01*
X81170000Y-49587000D02*
X81170000Y-50960000D01*
X81170000Y-53040000D02*
X81170000Y-54413000D01*
X81210000Y-49602000D02*
X81210000Y-50960000D01*
X81210000Y-53040000D02*
X81210000Y-54398000D01*
X81250000Y-49618000D02*
X81250000Y-50960000D01*
X81250000Y-53040000D02*
X81250000Y-54382000D01*
X81290000Y-49635000D02*
X81290000Y-50960000D01*
X81290000Y-53040000D02*
X81290000Y-54365000D01*
X81330000Y-49653000D02*
X81330000Y-50960000D01*
X81330000Y-53040000D02*
X81330000Y-54347000D01*
X81370000Y-49671000D02*
X81370000Y-50960000D01*
X81370000Y-53040000D02*
X81370000Y-54329000D01*
X81410000Y-49691000D02*
X81410000Y-50960000D01*
X81410000Y-53040000D02*
X81410000Y-54309000D01*
X81450000Y-49711000D02*
X81450000Y-50960000D01*
X81450000Y-53040000D02*
X81450000Y-54289000D01*
X81490000Y-49732000D02*
X81490000Y-50960000D01*
X81490000Y-53040000D02*
X81490000Y-54268000D01*
X81530000Y-49754000D02*
X81530000Y-50960000D01*
X81530000Y-53040000D02*
X81530000Y-54246000D01*
X81570000Y-49777000D02*
X81570000Y-50960000D01*
X81570000Y-53040000D02*
X81570000Y-54223000D01*
X81610000Y-49801000D02*
X81610000Y-50960000D01*
X81610000Y-53040000D02*
X81610000Y-54199000D01*
X81650000Y-49825000D02*
X81650000Y-50960000D01*
X81650000Y-53040000D02*
X81650000Y-54175000D01*
X81690000Y-49851000D02*
X81690000Y-50960000D01*
X81690000Y-53040000D02*
X81690000Y-54149000D01*
X81730000Y-49878000D02*
X81730000Y-50960000D01*
X81730000Y-53040000D02*
X81730000Y-54122000D01*
X81770000Y-49906000D02*
X81770000Y-50960000D01*
X81770000Y-53040000D02*
X81770000Y-54094000D01*
X81810000Y-49935000D02*
X81810000Y-50960000D01*
X81810000Y-53040000D02*
X81810000Y-54065000D01*
X81850000Y-49965000D02*
X81850000Y-50960000D01*
X81850000Y-53040000D02*
X81850000Y-54035000D01*
X81890000Y-49997000D02*
X81890000Y-50960000D01*
X81890000Y-53040000D02*
X81890000Y-54003000D01*
X81930000Y-50030000D02*
X81930000Y-50960000D01*
X81930000Y-53040000D02*
X81930000Y-53970000D01*
X81970000Y-50064000D02*
X81970000Y-50960000D01*
X81970000Y-53040000D02*
X81970000Y-53936000D01*
X82010000Y-50099000D02*
X82010000Y-50960000D01*
X82010000Y-53040000D02*
X82010000Y-53901000D01*
X82050000Y-50136000D02*
X82050000Y-50960000D01*
X82050000Y-53040000D02*
X82050000Y-53864000D01*
X82090000Y-50175000D02*
X82090000Y-50960000D01*
X82090000Y-53040000D02*
X82090000Y-53825000D01*
X82130000Y-50215000D02*
X82130000Y-50960000D01*
X82130000Y-53040000D02*
X82130000Y-53785000D01*
X82170000Y-50257000D02*
X82170000Y-50960000D01*
X82170000Y-53040000D02*
X82170000Y-53743000D01*
X82210000Y-50301000D02*
X82210000Y-50960000D01*
X82210000Y-53040000D02*
X82210000Y-53699000D01*
X82250000Y-50348000D02*
X82250000Y-50960000D01*
X82250000Y-53040000D02*
X82250000Y-53652000D01*
X82290000Y-50396000D02*
X82290000Y-50960000D01*
X82290000Y-53040000D02*
X82290000Y-53604000D01*
X82330000Y-50447000D02*
X82330000Y-50960000D01*
X82330000Y-53040000D02*
X82330000Y-53553000D01*
X82370000Y-50501000D02*
X82370000Y-50960000D01*
X82370000Y-53040000D02*
X82370000Y-53499000D01*
X82410000Y-50557000D02*
X82410000Y-50960000D01*
X82410000Y-53040000D02*
X82410000Y-53443000D01*
X82450000Y-50617000D02*
X82450000Y-50960000D01*
X82450000Y-53040000D02*
X82450000Y-53383000D01*
X82490000Y-50681000D02*
X82490000Y-50960000D01*
X82490000Y-53040000D02*
X82490000Y-53319000D01*
X82530000Y-50749000D02*
X82530000Y-50960000D01*
X82530000Y-53040000D02*
X82530000Y-53251000D01*
X82570000Y-50823000D02*
X82570000Y-53177000D01*
X82610000Y-50902000D02*
X82610000Y-53098000D01*
X82650000Y-50989000D02*
X82650000Y-53011000D01*
X82690000Y-51086000D02*
X82690000Y-52914000D01*
X82730000Y-51195000D02*
X82730000Y-52805000D01*
X82770000Y-51323000D02*
X82770000Y-52677000D01*
X82810000Y-51483000D02*
X82810000Y-52517000D01*
X82850000Y-51717000D02*
X82850000Y-52283000D01*
X82870000Y-52000000D02*
G75*
G02*
X77630000Y-52000000I-2620000J0D01*
G01*
X77630000Y-52000000D02*
G75*
G02*
X82870000Y-52000000I2620000J0D01*
G01*
%TO.C,C3*%
X92960000Y-29284887D02*
X91431000Y-29284887D01*
X92960000Y-29324887D02*
X91435000Y-29324887D01*
X92960000Y-29364887D02*
X91440000Y-29364887D01*
X92960000Y-29404887D02*
X91445000Y-29404887D01*
X92960000Y-29444887D02*
X91451000Y-29444887D01*
X92960000Y-29484887D02*
X91457000Y-29484887D01*
X92960000Y-29524887D02*
X91464000Y-29524887D01*
X92960000Y-29564887D02*
X91472000Y-29564887D01*
X92960000Y-29604887D02*
X91481000Y-29604887D01*
X92960000Y-29644887D02*
X91490000Y-29644887D01*
X92960000Y-29684887D02*
X91499000Y-29684887D01*
X92960000Y-29724887D02*
X91510000Y-29724887D01*
X92960000Y-29764887D02*
X91521000Y-29764887D01*
X92960000Y-29804887D02*
X91533000Y-29804887D01*
X92960000Y-29844887D02*
X91545000Y-29844887D01*
X92960000Y-29884887D02*
X91558000Y-29884887D01*
X92960000Y-29924887D02*
X91572000Y-29924887D01*
X92960000Y-29964887D02*
X91587000Y-29964887D01*
X92960000Y-30004887D02*
X91602000Y-30004887D01*
X92960000Y-30044887D02*
X91618000Y-30044887D01*
X92960000Y-30084887D02*
X91635000Y-30084887D01*
X92960000Y-30124887D02*
X91653000Y-30124887D01*
X92960000Y-30164887D02*
X91671000Y-30164887D01*
X92960000Y-30204887D02*
X91691000Y-30204887D01*
X92960000Y-30244887D02*
X91711000Y-30244887D01*
X92960000Y-30284887D02*
X91732000Y-30284887D01*
X92960000Y-30324887D02*
X91754000Y-30324887D01*
X92960000Y-30364887D02*
X91777000Y-30364887D01*
X92960000Y-30404887D02*
X91801000Y-30404887D01*
X92960000Y-30444887D02*
X91825000Y-30444887D01*
X92960000Y-30484887D02*
X91851000Y-30484887D01*
X92960000Y-30524887D02*
X91878000Y-30524887D01*
X92960000Y-30564887D02*
X91906000Y-30564887D01*
X92960000Y-30604887D02*
X91935000Y-30604887D01*
X92960000Y-30644887D02*
X91965000Y-30644887D01*
X92960000Y-30684887D02*
X91997000Y-30684887D01*
X92960000Y-30724887D02*
X92030000Y-30724887D01*
X92960000Y-30764887D02*
X92064000Y-30764887D01*
X92960000Y-30804887D02*
X92099000Y-30804887D01*
X92960000Y-30844887D02*
X92136000Y-30844887D01*
X92960000Y-30884887D02*
X92175000Y-30884887D01*
X92960000Y-30924887D02*
X92215000Y-30924887D01*
X92960000Y-30964887D02*
X92257000Y-30964887D01*
X92960000Y-31004887D02*
X92301000Y-31004887D01*
X92960000Y-31044887D02*
X92348000Y-31044887D01*
X92960000Y-31084887D02*
X92396000Y-31084887D01*
X92960000Y-31124887D02*
X92447000Y-31124887D01*
X92960000Y-31164887D02*
X92501000Y-31164887D01*
X92960000Y-31204887D02*
X92557000Y-31204887D01*
X92960000Y-31244887D02*
X92617000Y-31244887D01*
X92960000Y-31284887D02*
X92681000Y-31284887D01*
X92960000Y-31324887D02*
X92749000Y-31324887D01*
X94283000Y-31644887D02*
X93717000Y-31644887D01*
X94517000Y-31604887D02*
X93483000Y-31604887D01*
X94677000Y-31564887D02*
X93323000Y-31564887D01*
X94805000Y-31524887D02*
X93195000Y-31524887D01*
X94914000Y-31484887D02*
X93086000Y-31484887D01*
X95011000Y-31444887D02*
X92989000Y-31444887D01*
X95098000Y-31404887D02*
X92902000Y-31404887D01*
X95177000Y-31364887D02*
X92823000Y-31364887D01*
X95251000Y-31324887D02*
X95040000Y-31324887D01*
X95319000Y-31284887D02*
X95040000Y-31284887D01*
X95383000Y-31244887D02*
X95040000Y-31244887D01*
X95443000Y-31204887D02*
X95040000Y-31204887D01*
X95475000Y-26240112D02*
X95475000Y-26740112D01*
X95499000Y-31164887D02*
X95040000Y-31164887D01*
X95553000Y-31124887D02*
X95040000Y-31124887D01*
X95604000Y-31084887D02*
X95040000Y-31084887D01*
X95652000Y-31044887D02*
X95040000Y-31044887D01*
X95699000Y-31004887D02*
X95040000Y-31004887D01*
X95725000Y-26490112D02*
X95225000Y-26490112D01*
X95743000Y-30964887D02*
X95040000Y-30964887D01*
X95785000Y-30924887D02*
X95040000Y-30924887D01*
X95825000Y-30884887D02*
X95040000Y-30884887D01*
X95864000Y-30844887D02*
X95040000Y-30844887D01*
X95901000Y-30804887D02*
X95040000Y-30804887D01*
X95936000Y-30764887D02*
X95040000Y-30764887D01*
X95970000Y-30724887D02*
X95040000Y-30724887D01*
X96003000Y-30684887D02*
X95040000Y-30684887D01*
X96035000Y-30644887D02*
X95040000Y-30644887D01*
X96065000Y-30604887D02*
X95040000Y-30604887D01*
X96094000Y-30564887D02*
X95040000Y-30564887D01*
X96122000Y-30524887D02*
X95040000Y-30524887D01*
X96149000Y-30484887D02*
X95040000Y-30484887D01*
X96175000Y-30444887D02*
X95040000Y-30444887D01*
X96199000Y-30404887D02*
X95040000Y-30404887D01*
X96223000Y-30364887D02*
X95040000Y-30364887D01*
X96246000Y-30324887D02*
X95040000Y-30324887D01*
X96268000Y-30284887D02*
X95040000Y-30284887D01*
X96289000Y-30244887D02*
X95040000Y-30244887D01*
X96309000Y-30204887D02*
X95040000Y-30204887D01*
X96329000Y-30164887D02*
X95040000Y-30164887D01*
X96347000Y-30124887D02*
X95040000Y-30124887D01*
X96365000Y-30084887D02*
X95040000Y-30084887D01*
X96382000Y-30044887D02*
X95040000Y-30044887D01*
X96398000Y-30004887D02*
X95040000Y-30004887D01*
X96413000Y-29964887D02*
X95040000Y-29964887D01*
X96428000Y-29924887D02*
X95040000Y-29924887D01*
X96442000Y-29884887D02*
X95040000Y-29884887D01*
X96455000Y-29844887D02*
X95040000Y-29844887D01*
X96467000Y-29804887D02*
X95040000Y-29804887D01*
X96479000Y-29764887D02*
X95040000Y-29764887D01*
X96490000Y-29724887D02*
X95040000Y-29724887D01*
X96501000Y-29684887D02*
X95040000Y-29684887D01*
X96510000Y-29644887D02*
X95040000Y-29644887D01*
X96519000Y-29604887D02*
X95040000Y-29604887D01*
X96528000Y-29564887D02*
X95040000Y-29564887D01*
X96536000Y-29524887D02*
X95040000Y-29524887D01*
X96543000Y-29484887D02*
X95040000Y-29484887D01*
X96549000Y-29444887D02*
X95040000Y-29444887D01*
X96555000Y-29404887D02*
X95040000Y-29404887D01*
X96560000Y-29364887D02*
X95040000Y-29364887D01*
X96565000Y-29324887D02*
X95040000Y-29324887D01*
X96569000Y-29284887D02*
X95040000Y-29284887D01*
X96572000Y-29244887D02*
X91428000Y-29244887D01*
X96575000Y-29204887D02*
X91425000Y-29204887D01*
X96577000Y-29164887D02*
X91423000Y-29164887D01*
X96579000Y-29124887D02*
X91421000Y-29124887D01*
X96580000Y-29044887D02*
X91420000Y-29044887D01*
X96580000Y-29084887D02*
X91420000Y-29084887D01*
X96620000Y-29044887D02*
G75*
G02*
X91380000Y-29044887I-2620000J0D01*
G01*
X91380000Y-29044887D02*
G75*
G02*
X96620000Y-29044887I2620000J0D01*
G01*
%TO.C,J11*%
X121540000Y-87380000D02*
X121540000Y-86000000D01*
X122920000Y-87380000D02*
X121540000Y-87380000D01*
X124190000Y-84620000D02*
X129380000Y-84620000D01*
X124190000Y-87380000D02*
X124190000Y-84620000D01*
X124190000Y-87380000D02*
X129380000Y-87380000D01*
X129380000Y-87380000D02*
X129380000Y-84620000D01*
%TO.C,R4*%
X116190000Y-34000000D02*
X116880000Y-34000000D01*
X126810000Y-34000000D02*
X126120000Y-34000000D01*
X116880000Y-32280000D02*
X126120000Y-32280000D01*
X126120000Y-35720000D01*
X116880000Y-35720000D01*
X116880000Y-32280000D01*
%TO.C,R5*%
X100690000Y-34000000D02*
X101380000Y-34000000D01*
X111310000Y-34000000D02*
X110620000Y-34000000D01*
X101380000Y-32280000D02*
X110620000Y-32280000D01*
X110620000Y-35720000D01*
X101380000Y-35720000D01*
X101380000Y-32280000D01*
%TO.C,C1*%
X111380000Y-27130000D02*
X111528000Y-27130000D01*
X111380000Y-30370000D02*
X111380000Y-27130000D01*
X111528000Y-30370000D02*
X111380000Y-30370000D01*
X113472000Y-27130000D02*
X113620000Y-27130000D01*
X113620000Y-27130000D02*
X113620000Y-30370000D01*
X113620000Y-30370000D02*
X113472000Y-30370000D01*
%TO.C,C4*%
X115880000Y-37380000D02*
X119120000Y-37380000D01*
X115880000Y-37528000D02*
X115880000Y-37380000D01*
X115880000Y-39620000D02*
X115880000Y-39472000D01*
X119120000Y-37380000D02*
X119120000Y-37528000D01*
X119120000Y-39472000D02*
X119120000Y-39620000D01*
X119120000Y-39620000D02*
X115880000Y-39620000D01*
%TO.C,R14*%
X126500000Y-63340000D02*
X126500000Y-64030000D01*
X126500000Y-73960000D02*
X126500000Y-73270000D01*
X124780000Y-64030000D02*
X128220000Y-64030000D01*
X128220000Y-73270000D01*
X124780000Y-73270000D01*
X124780000Y-64030000D01*
%TO.C,R6*%
X85190000Y-34000000D02*
X85880000Y-34000000D01*
X95810000Y-34000000D02*
X95120000Y-34000000D01*
X85880000Y-32280000D02*
X95120000Y-32280000D01*
X95120000Y-35720000D01*
X85880000Y-35720000D01*
X85880000Y-32280000D01*
%TO.C,C5*%
X99380000Y-37380000D02*
X102620000Y-37380000D01*
X99380000Y-37528000D02*
X99380000Y-37380000D01*
X99380000Y-39620000D02*
X99380000Y-39472000D01*
X102620000Y-37380000D02*
X102620000Y-37528000D01*
X102620000Y-39472000D02*
X102620000Y-39620000D01*
X102620000Y-39620000D02*
X99380000Y-39620000D01*
%TO.C,J5*%
X119120000Y-117380000D02*
X119120000Y-116000000D01*
X120500000Y-117380000D02*
X119120000Y-117380000D01*
X121770000Y-114620000D02*
X129500000Y-114620000D01*
X121770000Y-117380000D02*
X121770000Y-114620000D01*
X121770000Y-117380000D02*
X129500000Y-117380000D01*
X129500000Y-117380000D02*
X129500000Y-114620000D01*
%TO.C,D1*%
X121370000Y-29000000D02*
X122550000Y-29000000D01*
X123006000Y-28080000D02*
X123006000Y-29920000D01*
X123126000Y-28080000D02*
X123126000Y-29920000D01*
X123246000Y-28080000D02*
X123246000Y-29920000D01*
X127010000Y-29000000D02*
X125830000Y-29000000D01*
X122550000Y-28080000D02*
X125830000Y-28080000D01*
X125830000Y-29920000D01*
X122550000Y-29920000D01*
X122550000Y-28080000D01*
%TD*%
M02*
