M48
; DRILL file KiCad 10.0.5 date 2026-09-07T11:43:13
; FORMAT={-:-/ absolute / metric / decimal}
; #@! TF.CreationDate,2026-09-07T11:43:13+02:00
; #@! TF.GenerationSoftware,Kicad,Pcbnew,10.0.5
; #@! TF.FileFunction,Plated,1,2,PTH
FMAT,2
METRIC
; #@! TA.AperFunction,Plated,PTH,ViaDrill
T1C0.300
; #@! TA.AperFunction,Plated,PTH,ComponentDrill
T2C0.750
; #@! TA.AperFunction,Plated,PTH,ComponentDrill
T3C0.800
; #@! TA.AperFunction,Plated,PTH,ComponentDrill
T4C0.850
; #@! TA.AperFunction,Plated,PTH,ComponentDrill
T5C1.000
; #@! TA.AperFunction,Plated,PTH,ComponentDrill
T6C1.300
%
G90
G05
T1
X113.0Y-91.5
X113.5Y-94.0
X125.5Y-95.0
T2
X80.0Y-44.46
X80.0Y-45.73
X80.0Y-47.0
X99.685Y-29.0
X107.305Y-29.0
X120.38Y-29.0
X128.0Y-29.0
T3
X79.0Y-52.0
X81.5Y-52.0
X83.5Y-59.65
X83.5Y-72.35
X84.15Y-24.0
X84.15Y-34.0
X86.0Y-27.5
X86.0Y-30.0
X94.0Y-27.795
X94.0Y-30.295
X96.85Y-24.0
X96.85Y-34.0
X99.5Y-41.3
X99.5Y-54.0
X99.65Y-24.0
X99.65Y-34.0
X99.75Y-38.5
X102.25Y-38.5
X105.0Y-41.3
X105.0Y-54.0
X110.5Y-41.3
X110.5Y-54.0
X112.35Y-24.0
X112.35Y-34.0
X112.5Y-27.5
X112.5Y-30.0
X115.15Y-24.0
X115.15Y-34.0
X116.0Y-41.3
X116.0Y-54.0
X116.25Y-38.5
X118.75Y-38.5
X121.5Y-41.3
X121.5Y-54.0
X126.5Y-46.8
X126.5Y-59.5
X126.5Y-62.3
X126.5Y-75.0
X127.85Y-24.0
X127.85Y-34.0
T4
X80.0Y-23.6
X80.0Y-27.8
X80.0Y-32.0
X80.0Y-36.2
X80.0Y-40.4
T5
X77.46Y-116.0
X77.5Y-62.38
X77.5Y-64.92
X77.5Y-67.46
X77.5Y-70.0
X77.5Y-80.5
X77.5Y-92.38
X77.5Y-94.92
X77.5Y-97.46
X77.5Y-100.0
X77.5Y-110.0
X80.0Y-116.0
X80.04Y-80.5
X80.04Y-110.0
X82.54Y-116.0
X82.58Y-80.5
X82.58Y-110.0
X85.08Y-116.0
X85.12Y-80.5
X85.12Y-110.0
X87.46Y-58.0
X90.0Y-58.0
X90.0Y-62.6
X90.0Y-65.14
X90.0Y-67.68
X90.0Y-70.22
X90.0Y-72.76
X90.0Y-75.3
X90.0Y-77.84
X90.0Y-80.38
X90.0Y-82.92
X90.0Y-85.46
X90.0Y-88.0
X90.0Y-90.54
X90.0Y-93.08
X90.0Y-95.62
X90.0Y-98.16
X90.0Y-100.7
X90.0Y-103.24
X90.0Y-105.78
X90.0Y-108.32
X90.0Y-110.86
X90.0Y-113.4
X90.0Y-115.94
X92.54Y-58.0
X95.08Y-58.0
X102.73Y-57.95
X105.27Y-57.95
X107.81Y-57.95
X110.35Y-57.95
X115.4Y-62.6
X115.4Y-65.14
X115.4Y-67.68
X115.4Y-70.22
X115.4Y-72.76
X115.4Y-75.3
X115.4Y-77.84
X115.4Y-80.38
X115.4Y-82.92
X115.4Y-85.46
X115.4Y-88.0
X115.4Y-90.54
X115.4Y-93.08
X115.4Y-95.62
X115.4Y-98.16
X115.4Y-100.7
X115.4Y-103.24
X115.4Y-105.78
X115.4Y-108.32
X115.4Y-110.86
X115.4Y-113.4
X115.4Y-115.94
X120.42Y-104.0
X120.5Y-62.88
X120.5Y-65.42
X120.5Y-67.96
X120.5Y-70.5
X120.5Y-110.0
X120.5Y-116.0
X122.92Y-80.0
X122.92Y-86.0
X122.92Y-92.0
X122.92Y-98.0
X122.96Y-104.0
X123.04Y-110.0
X123.04Y-116.0
X125.46Y-80.0
X125.46Y-86.0
X125.46Y-92.0
X125.46Y-98.0
X125.5Y-104.0
X125.58Y-110.0
X125.58Y-116.0
X128.0Y-80.0
X128.0Y-86.0
X128.0Y-92.0
X128.0Y-98.0
X128.04Y-104.0
X128.12Y-110.0
X128.12Y-116.0
T6
X91.5Y-42.0
X91.5Y-47.0
X91.5Y-52.0
M30
